<?xml version="1.0" encoding="utf-8"?>
<!-- Generator: Adobe Illustrator 26.4.1, SVG Export Plug-In . SVG Version: 6.00 Build 0)  -->
<svg version="1.1" xmlns="http://www.w3.org/2000/svg" xmlns:xlink="http://www.w3.org/1999/xlink" x="0px" y="0px"
	 viewBox="0 0 268.86 88.09" style="enable-background:new 0 0 268.86 88.09;" xml:space="preserve">
<style type="text/css">
	
		.st0{fill:none;stroke:url(#XMLID_00000051354914157472722650000001676344544063130299_);stroke-width:15;stroke-linecap:round;stroke-linejoin:round;stroke-miterlimit:10;}
	.st1{fill:#FDFFFF;}
	.st2{fill:#FAFCFC;}
	.st3{fill:#FFFFFF;}
</style>
<g id="BACKGROUND">
</g>
<g id="OBJECTS">
	<g id="XMLID_00000046335382480623519050000016470436800281233033_">
		<g id="XMLID_00000155853486475131295070000012528792905437802413_">
			
				<linearGradient id="XMLID_00000159432151170636311570000003928142148431090847_" gradientUnits="userSpaceOnUse" x1="224.7197" y1="-16552.6309" x2="224.7197" y2="-16552.6309" gradientTransform="matrix(1 0 0 -1 0 -16339.3164)">
				<stop  offset="0" style="stop-color:#88F1B2"/>
				<stop  offset="1" style="stop-color:#3D54C2"/>
			</linearGradient>
			
				<path id="XMLID_00000098914256068609155560000002707403130710727840_" style="fill:none;stroke:url(#XMLID_00000159432151170636311570000003928142148431090847_);stroke-width:15;stroke-linecap:round;stroke-linejoin:round;stroke-miterlimit:10;" d="
				M224.72,213.31"/>
		</g>
	</g>
	<g>
		<path class="st1" d="M32.72,49.39c0,6.26-5.85,9.37-12.48,9.37S7.75,55.65,7.75,49.39V28.2c0,0,5.56,0,5.56,2.7v17.88
			c0,3.73,2.86,5.68,6.93,5.68s6.93-1.95,6.93-5.68V28.2c0,0,5.56,0,5.56,2.7V49.39z"/>
		<path class="st1" d="M81.17,43.25c0-1.49-0.83-2.82-4.02-2.82c-3.48,0-6.64,1.2-6.64,4.69c-1.2-1.62-1.58-2.9-1.58-4.02
			c0-3.61,4.85-4.69,8.25-4.69c6.1,0,9.33,2.57,9.33,7.09v15.18c-1.08-0.54-2.16-0.66-3.19-0.66c-2.07,0-4.15,0.75-6.51,0.75
			c-4.27,0-8.46-1.58-8.46-6.51C68.35,44.5,79.47,46.53,81.17,43.25z M81.29,47.48c-0.95,2.2-7.59,1-7.59,4.69
			c0,1.87,1.37,2.82,3.73,2.82c2.2,0,3.86-0.75,3.86-0.75V47.48z"/>
		<path class="st1" d="M104.56,43.87c0-2.2-1.04-3.44-3.98-3.44c-2.12,0-3.94,0.58-3.94,0.58v17.54c0,0-5.39,0-5.39-2.7V36.41
			c0,0,1.62,0.87,3.73,0.87c2.03,0,3.94-0.87,6.18-0.87c4.27,0,8.79,1.45,8.79,6.84v15.3c0,0-5.39-0.08-5.39-2.7V43.87z"/>
		<path class="st1" d="M127.83,26.66c0.37,0,5.39-0.04,5.39,3.11v28.99c-1.08-0.54-2.2-0.71-3.32-0.71c-2.2,0-4.31,0.71-6.05,0.71
			c-5.93,0-9.33-2.61-9.33-7.22v-7.96c0-4.48,3.86-7.17,8.29-7.17c3.44,0,5.35,1.62,5.35,1.62s-0.33-1.37-0.33-2.41V26.66z
			 M127.83,43.79c0-2.03-2.24-3.44-4.48-3.44c-1.99,0-3.44,1.16-3.44,3.86v6.72c0,2.61,1,3.9,4.44,3.9c1.87,0,3.48-0.5,3.48-0.5
			V43.79z"/>
		<path class="st1" d="M150.27,43.25c0-1.49-0.83-2.82-4.02-2.82c-3.48,0-6.64,1.2-6.64,4.69c-1.2-1.62-1.58-2.9-1.58-4.02
			c0-3.61,4.85-4.69,8.25-4.69c6.1,0,9.33,2.57,9.33,7.09v15.18c-1.08-0.54-2.16-0.66-3.19-0.66c-2.07,0-4.15,0.75-6.51,0.75
			c-4.27,0-8.46-1.58-8.46-6.51C137.45,44.5,148.57,46.53,150.27,43.25z M150.39,47.48c-0.95,2.2-7.59,1-7.59,4.69
			c0,1.87,1.37,2.82,3.73,2.82c2.2,0,3.86-0.75,3.86-0.75V47.48z"/>
		<path class="st1" d="M167.69,44.95v8.29h14.81c0,0.29-0.08,5.02-3.86,5.02h-12.73c0,0-5.35,0-5.35-3.19V28.12h21.94
			c0,0,0,5.06-3.86,5.06h-10.95v6.72h7.8c4.11,0,5.35-0.66,5.35-0.66c0,2.86-0.58,5.72-4.69,5.72H167.69z"/>
		<path class="st1" d="M209.62,44.79c0-2.03,0.54-4.65,0.54-4.65l-6.3,13.4c0,0-4.31,0-6.3-3.11l-4.44-10.04c0,0,0.46,2.36,0.46,4.4
			v13.89c0,0-7.13,0-7.13-3.19V28.12h4.4c0.25,0,3.36-0.04,4.65,2.78l6.1,13.52l7.63-16.3c1.58,0,7.55,0,7.55,3.19v27.37
			c0,0-7.13,0-7.13-3.19V44.79z"/>
		<path class="st1" d="M236.62,45.2c5.23,3.44,6.68,8.38,9.75,12.73c0,0-2.53,0.66-3.53,0.66c-1.74,0-4.15-0.54-5.64-2.95
			c-1.7-2.7-3.82-7.92-7.92-9.7v12.73c0,0-7.13-0.12-7.13-3.19V28.12h10.41c6.72,0,11.57,1.91,11.57,7.88v1.24
			C244.13,41.59,241.43,45.12,236.62,45.2z M229.28,33.17v7.51h3.61c3.03,0,4.11-1.33,4.11-4.06c0-2.7-1.45-3.44-4.44-3.44H229.28z"
			/>
	</g>
	<g>
		<path class="st2" d="M78.67,67.45c0-0.59,0.07-1.22,0.07-1.22l-3.51,7.12c0,0-0.43,0-0.83-0.64l-3.09-6.52
			c0,0,0.07,0.67,0.07,1.26v8.17c0,0-0.84,0-0.84-0.64v-9.57h0.71c0,0,0.57,0,0.88,0.68L75,72.19l3.26-6.77c0,0,1.25,0.01,1.25,0.64
			v9.57c0,0-0.84,0-0.84-0.64V67.45z"/>
		<path class="st2" d="M88.33,74.21c0,1-1.44,1.45-2.73,1.45c-1.67,0-2.74-0.83-2.74-2.25v-3.01c0-1.41,0.94-2.25,2.67-2.25
			c1.73,0,2.73,0.84,2.73,2.1c0,1.15-0.78,2.03-2.8,2.03c-0.94,0-1.8-0.38-1.8-0.38v1.29c0,1.09,0.46,1.68,1.94,1.68
			c1.32,0,2.39-0.52,2.39-1.59C88.25,73.63,88.33,73.93,88.33,74.21z M83.67,71.16c-0.06,0.03,1,0.33,1.73,0.33
			c1.54,0,2.07-0.48,2.07-1.25c0-0.8-0.48-1.35-1.9-1.35c-1.54,0-1.9,0.64-1.9,1.71V71.16z"/>
		<path class="st2" d="M95.91,64.75c0.13,0,0.8-0.01,0.8,0.77v10.03c-0.26-0.1-0.52-0.14-0.77-0.14c-0.59,0-1.32,0.25-2.04,0.25
			c-1.67,0-2.64-0.87-2.64-2.2v-3.1c0-1.38,1.09-2.19,2.36-2.19c2.03,0,2.45,0.9,2.45,0.9s-0.16-0.28-0.16-1.52V64.75z M95.91,70.42
			c0-0.9-1.06-1.51-2.1-1.51c-1,0-1.75,0.51-1.75,1.65v2.67c0,1.12,0.51,1.67,2.1,1.67c1.07,0,1.75-0.35,1.75-0.35V70.42z"/>
		<path class="st2" d="M100.01,65.7h0.75c0.13,0,0.16,0.12,0.16,0.2v0.8h-0.75c-0.09,0-0.16-0.1-0.16-0.19V65.7z M100.07,68.22
			c0.09,0,0.8,0.03,0.8,0.64v6.73c0,0-0.8,0-0.8-0.64V68.22z"/>
		<path class="st2" d="M109.65,74.19c0,1.01-1.38,1.46-2.68,1.46c-1.74,0-2.88-0.83-2.88-2.25v-3.01c0-1.41,1.01-2.25,2.74-2.25
			c1.51,0,2.51,0.57,2.51,1.44c0,0.28-0.1,0.58-0.32,0.87c0-0.91-0.81-1.52-2.22-1.52c-1.48,0-1.91,0.71-1.91,1.62v2.71
			c0,0.96,0.68,1.61,2.09,1.61c1.32,0,2.32-0.52,2.32-1.59C109.52,73.61,109.65,73.93,109.65,74.19z"/>
		<path class="st2" d="M116.87,70.38c0-0.84-0.36-1.45-1.83-1.45c-1.41,0-2.23,0.61-2.23,1.52c-0.22-0.29-0.3-0.61-0.3-0.87
			c0-0.86,1.01-1.44,2.54-1.44c1.8,0,2.62,0.87,2.62,2.28v5.13c-0.26-0.1-0.64-0.14-0.88-0.14c-0.45,0-1.17,0.25-1.78,0.25
			c-1.81,0-2.74-0.86-2.74-2.06C112.26,70.89,116.38,71.86,116.87,70.38z M115.12,74.92c1.07,0,1.75-0.38,1.75-0.38v-3.22
			c-0.29,1.01-3.78,0.39-3.78,2.29C113.09,74.37,113.68,74.92,115.12,74.92z"/>
		<path class="st2" d="M120.88,64.71c0.06,0,0.8,0.01,0.8,0.64v7.8c0,1.12,0.25,2.16,0.94,2.16c0,0-0.19,0.28-0.57,0.28
			c-0.81,0-1.17-0.88-1.17-2.06V64.71z"/>
		<path class="st2" d="M136.55,68.23c0,1.74-1.3,2.52-3.1,2.45c2.12,0.67,3.04,3.96,3.65,4.91c-0.67,0.09-0.94,0.01-1.35-0.77
			c-1.23-2.41-1.87-3.94-4.41-4.13v4.93c0,0-0.84-0.01-0.84-0.64v-9.57h2.81c1.87,0,3.23,0.62,3.23,2.38V68.23z M131.35,66.2v3.78
			h2.09c1.68,0,2.28-0.71,2.28-1.97c0-1.28-0.78-1.81-2.39-1.81H131.35z"/>
		<path class="st2" d="M144.8,74.21c0,1-1.44,1.45-2.73,1.45c-1.67,0-2.74-0.83-2.74-2.25v-3.01c0-1.41,0.94-2.25,2.67-2.25
			s2.73,0.84,2.73,2.1c0,1.15-0.78,2.03-2.8,2.03c-0.94,0-1.8-0.38-1.8-0.38v1.29c0,1.09,0.46,1.68,1.94,1.68
			c1.32,0,2.39-0.52,2.39-1.59C144.71,73.63,144.8,73.93,144.8,74.21z M140.13,71.16c-0.06,0.03,1,0.33,1.73,0.33
			c1.54,0,2.07-0.48,2.07-1.25c0-0.8-0.48-1.35-1.9-1.35c-1.54,0-1.9,0.64-1.9,1.71V71.16z"/>
		<path class="st2" d="M153.29,74.19c0,1.01-1.38,1.46-2.68,1.46c-1.74,0-2.88-0.83-2.88-2.25v-3.01c0-1.41,1.01-2.25,2.74-2.25
			c1.51,0,2.51,0.57,2.51,1.44c0,0.28-0.1,0.58-0.32,0.87c0-0.91-0.81-1.52-2.22-1.52c-1.48,0-1.91,0.71-1.91,1.62v2.71
			c0,0.96,0.68,1.61,2.09,1.61c1.32,0,2.32-0.52,2.32-1.59C153.16,73.61,153.29,73.93,153.29,74.19z"/>
		<path class="st2" d="M161.96,73.41c0,1.42-0.94,2.25-2.94,2.25c-2.01,0-2.96-0.83-2.96-2.25v-3.01c0-1.41,0.94-2.25,2.96-2.25
			c2,0,2.94,0.84,2.94,2.25V73.41z M161.16,70.61c0-1.07-0.36-1.71-2.15-1.71c-1.8,0-2.16,0.64-2.16,1.71v2.58
			c0,1.09,0.36,1.72,2.16,1.72c1.78,0,2.15-0.64,2.15-1.72V70.61z"/>
		<path class="st2" d="M167.61,69c-0.62,0-1.29,0.12-1.64,0.3v6.28c0,0-0.8,0-0.8-0.64v-6.68c0.29,0.14,0.46,0.2,0.7,0.2
			c0.59,0,1.3-0.32,2.06-0.32c1.19,0,1.64,0.67,1.12,1.75C169.02,69.19,168.35,69,167.61,69z"/>
		<path class="st2" d="M176.1,64.75c0.13,0,0.8-0.01,0.8,0.77v10.03c-0.26-0.1-0.52-0.14-0.77-0.14c-0.59,0-1.32,0.25-2.04,0.25
			c-1.67,0-2.64-0.87-2.64-2.2v-3.1c0-1.38,1.09-2.19,2.36-2.19c2.03,0,2.45,0.9,2.45,0.9s-0.16-0.28-0.16-1.52V64.75z M176.1,70.42
			c0-0.9-1.06-1.51-2.1-1.51c-1,0-1.75,0.51-1.75,1.65v2.67c0,1.12,0.51,1.67,2.1,1.67c1.07,0,1.75-0.35,1.75-0.35V70.42z"/>
		<path class="st2" d="M179.83,70.35c0-1.45,0.91-2.2,2.67-2.2c1.29,0,2.54,0.36,2.54,1.39c0,0.3-0.12,0.65-0.35,1.07
			c0.01-0.07,0.01-0.16,0.01-0.23c0-0.87-0.61-1.48-2.2-1.48c-1.42,0-1.87,0.51-1.87,1.38c0,2.1,4.67-0.12,4.67,3.25
			c0,1.25-0.94,2.13-2.8,2.13c-1.26,0-2.64-0.3-2.64-1.46c0-0.26,0.07-0.55,0.22-0.9c0,0.91,0.71,1.61,2.42,1.61
			c1.58,0,2-0.68,2-1.45C184.5,71.15,179.9,73.31,179.83,70.35z"/>
		<path class="st2" d="M196.93,65.23c1.52,0,3.3,0.33,3.3,1.67c0,0.28-0.09,0.64-0.26,1.04c0-1.51-1.57-1.9-3.15-1.9
			c-1.54,0-2.78,0.42-2.78,1.94c0,2.94,6.51,0.51,6.51,4.68c0,2.03-1.52,2.99-3.68,2.99c-1.52,0-3.48-0.45-3.48-1.7
			c0-0.29,0.07-0.65,0.23-1.06c0,1.46,1.67,1.94,3.33,1.94c1.83,0,2.72-0.83,2.72-2.13c0-3.26-6.51-0.91-6.51-4.65
			C193.17,65.88,194.96,65.23,196.93,65.23z"/>
		<path class="st2" d="M207.94,71.39l0.26-2.45c0.06-0.59,0.55-0.65,0.84-0.7l-0.28,2.8c-0.19,1.97-1.26,3.15-2.07,3.77l-0.57,0.44
			c-1.04,0.81-1.77,1.33-1.77,2.46c0,0.36,0.12,0.78,0.33,1.29c-0.06,0.01-0.15,0.03-0.22,0.03c-0.39,0-0.94-0.23-0.94-1.38
			c0-1.26,1-2.17,2.06-2.88c-0.7-0.44-1.91-1.7-2.12-3.73l-0.29-2.81c0,0,0.77,0,0.84,0.64l0.29,2.52c0.2,1.8,1.81,2.94,1.81,2.94
			S207.76,73.12,207.94,71.39z"/>
		<path class="st2" d="M211.39,70.35c0-1.45,0.91-2.2,2.67-2.2c1.29,0,2.54,0.36,2.54,1.39c0,0.3-0.12,0.65-0.35,1.07
			c0.01-0.07,0.01-0.16,0.01-0.23c0-0.87-0.61-1.48-2.2-1.48c-1.42,0-1.87,0.51-1.87,1.38c0,2.1,4.67-0.12,4.67,3.25
			c0,1.25-0.94,2.13-2.8,2.13c-1.26,0-2.64-0.3-2.64-1.46c0-0.26,0.07-0.55,0.22-0.9c0,0.91,0.71,1.61,2.42,1.61
			c1.58,0,2-0.68,2-1.45C216.06,71.15,211.46,73.31,211.39,70.35z"/>
		<path class="st2" d="M219.78,66.42c0,0,0.8,0.01,0.8,0.64v1.43h3.03c0,0-0.01,0.78-0.54,0.78h-2.49v3.84
			c0,1.09,0.59,1.75,1.75,1.75c0.94,0,1.75-0.59,1.75-1.48c0.19,0.35,0.26,0.61,0.26,0.87c0,0.94-0.99,1.39-2.03,1.39
			c-1.39,0-2.54-0.75-2.54-2.17V66.42z"/>
		<path class="st2" d="M232.09,74.21c0,1-1.44,1.45-2.73,1.45c-1.67,0-2.74-0.83-2.74-2.25v-3.01c0-1.41,0.94-2.25,2.67-2.25
			c1.73,0,2.73,0.84,2.73,2.1c0,1.15-0.78,2.03-2.8,2.03c-0.94,0-1.8-0.38-1.8-0.38v1.29c0,1.09,0.46,1.68,1.94,1.68
			c1.32,0,2.39-0.52,2.39-1.59C232,73.63,232.09,73.93,232.09,74.21z M227.42,71.16c-0.06,0.03,1,0.33,1.73,0.33
			c1.54,0,2.07-0.48,2.07-1.25c0-0.8-0.48-1.35-1.9-1.35c-1.54,0-1.9,0.64-1.9,1.71V71.16z"/>
		<path class="st2" d="M239.81,70.45c0-1.1-0.62-1.52-1.93-1.52c-1.22,0-1.93,0.35-1.93,0.35v6.31c0,0-0.8,0-0.8-0.62v-6.7
			c0,0,0.36,0.2,0.65,0.2c0.75,0,1.44-0.32,2.28-0.32c1.7,0,2.16,0.87,2.16,0.87c0.41-0.38,1.2-0.86,2.52-0.86
			c1.17,0,2.49,0.58,2.49,2.09v5.33c0,0-0.8-0.01-0.8-0.62v-4.55c0-1.03-0.61-1.46-1.94-1.46c-0.91,0-1.91,0.46-1.91,1.26v5.38
			c0,0-0.8,0-0.8-0.62V70.45z"/>
	</g>
	<g>
		<g>
			<path class="st3" d="M251.7,24.51c0.3-0.52,0.49-1.1,0.7-1.71c0.21-0.63,0.43-1.28,0.78-1.89c0.46-0.79,1.14-1.45,1.93-1.9v-4.96
				c0-0.63,0.12-3.99,0-6.2l0,0c-1.85-0.08-6.36,3.4-6.81,6.2v5.91h-5.91c-0.63,0-1.14,0.51-1.14,1.14v4.54
				c0,0.63,0.51,1.14,1.14,1.14h5.87C249.67,26.61,251,25.75,251.7,24.51z"/>
			<path class="st1" d="M261.03,20.66h-5.9c-0.5,0.36-0.93,0.82-1.24,1.36c-0.31,0.53-0.51,1.12-0.72,1.74
				c-0.21,0.62-0.42,1.26-0.76,1.85c-0.84,1.47-2.42,2.49-4.1,2.67v5.11c0,0.63,0,0.63,0,2.21v4.99c2.37-0.49,6.93-2.44,6.81-7.21
				v-5.91h5.91c0.63,0,1.14-0.51,1.14-1.14v-4.54C262.16,21.16,261.65,20.66,261.03,20.66z"/>
		</g>
	</g>
	<g>
		<path class="st3" d="M40.84,54.93c-1.51-1.46-2.36-4.37-2.36-6.45v-2.64c0-6.67,5.55-9.14,11.22-9.14c3.08,0,6,1.18,8.75,1.18
			c1.29,0,2.8-0.34,4.77-1.12v11.72c0,6.22-4.32,9.93-12.34,9.93c-4.21,0-7.07-1.57-7.07-1.57c-0.17,0.56-0.34,1.46-0.34,2.19
			c0,2.52,2.58,2.92,6.45,2.92h1.85c5.94,0,12.45-0.06,12.45,7.96c0,5.94-4.21,9.93-13.35,9.93c-7.63,0-12.28-2.41-12.28-6.11
			c0-1.46,0.56-2.97,1.91-4.71c0.5,4.43,5.16,5.5,9.87,5.5c4.99,0,6.73-1.63,6.73-4.21c0-2.63-2.24-2.92-5.5-2.92h-2.75
			c-5.89,0-11.05-0.73-11.05-6.39C37.81,58.75,39.05,57.06,40.84,54.93z M50.88,53.08c4.15,0,5.1-1.96,5.1-5.44v-4.77
			c0,0-2.52-0.95-4.99-0.95c-3.81,0-5.27,1.35-5.27,4.77v0.95C45.72,51.12,46.67,53.08,50.88,53.08z"/>
	</g>
</g>
</svg>
