<svg id="Layer_1" data-name="Layer 1" xmlns="http://www.w3.org/2000/svg" viewBox="0 0 371.76 151.52"><defs><style>.cls-1{fill:#1f93e0;}.cls-2{fill:#c10071;}.cls-3{fill:#f3b002;}</style></defs><path class="cls-1" d="M22.63,0a2.18,2.18,0,0,0,.94.17A9.3,9.3,0,0,1,31.92,7.1a11,11,0,0,1,.33,2.37,16,16,0,0,0,.12,2.39,3,3,0,0,1,0,.67,77.07,77.07,0,0,0-.09,7.75,12.64,12.64,0,0,0,.38,2.65,18.1,18.1,0,0,0,.72,2.38,14.36,14.36,0,0,0,4.23,5.83,13.78,13.78,0,0,0,4.09,2.27,14.29,14.29,0,0,0,5.15.94c8.85,0,17.7,0,26.55,0,.29,0,.58,0,.87,0,.69.06.9.27.94.95,0,.35,0,.7,0,1.05q0,11.46,0,22.91c0,1.5,0,3,0,4.5,0,1.76.14,3.51.23,5.26a6.83,6.83,0,0,0,1.41,3.82c.22.3.44.62.65.94a.56.56,0,0,1,0,.63,7,7,0,0,1-.51.7A6.78,6.78,0,0,0,75.59,78a14.35,14.35,0,0,0-.37,2.84c0,.8,0,1.6,0,2.4V112.1c0,.73,0,1.47,0,2.2a1.86,1.86,0,0,1-.42,1.34H58.89a1.2,1.2,0,0,0-.68-.34c-.58,0-1.12-.27-1.68-.37a18.74,18.74,0,0,1-6-2.33c-.66-.39-1.33-.77-2-1.14a12.56,12.56,0,0,1-2.76-2c-.71-.7-1.4-1.41-2.09-2.12A19.17,19.17,0,0,1,42,105.15,24,24,0,0,1,38.25,97a13,13,0,0,1-.48-3.4,4.1,4.1,0,0,0-.05-.86,13.77,13.77,0,0,1-.15-2.49c0-1.27,0-2.55,0-3.83,0-2.94-.06-5.88.18-8.81q0-15.33,0-30.67a6,6,0,0,0-.14-1.33q-.42-1.87-.81-3.75a7,7,0,0,0-.42-1.27,16.92,16.92,0,0,0-2.89-4.27,5.07,5.07,0,0,0-.64-.58c-.58-.45-1.17-.88-1.76-1.32a11.3,11.3,0,0,0-4.63-2,20.49,20.49,0,0,0-3.91-.39c-2.07,0-4.15,0-6.22.12a30,30,0,0,1-5.27-.08c-.95-.11-1.91-.06-2.86-.21A9.11,9.11,0,0,1,1.09,26.4a7.11,7.11,0,0,1-.73-2.76c0-.83-.11-1.65-.18-2.48A3.58,3.58,0,0,0,0,20.52v-7.1a2.51,2.51,0,0,0,.19-1.21,33.78,33.78,0,0,1,.16-4A8.16,8.16,0,0,1,1.43,5.05,12.46,12.46,0,0,1,2.59,3.41,8.41,8.41,0,0,1,9.23.16,2.31,2.31,0,0,0,10.36,0Z"/><path class="cls-2" d="M81,115.64c-1-.42-1-.42-1-1.49v-33a8.85,8.85,0,0,1,.16-1.71,3.93,3.93,0,0,1,1.26-2.21,2.43,2.43,0,0,1,2-.67,18.69,18.69,0,0,0,2.11.08h31.55c.35,0,.71,0,1.06,0,.56,0,.72.19.79.76a5.43,5.43,0,0,1,0,.57q0,7.05,0,14.1a13.15,13.15,0,0,1-.46,3.41c-.43,1.6-.78,3.23-1.36,4.79a12.74,12.74,0,0,1-.56,1.32,25.16,25.16,0,0,1-5.5,7.44,7,7,0,0,1-1.14.87q-3.22,1.88-6.44,3.78a4.63,4.63,0,0,1-1.33.53l-4.29,1a2.59,2.59,0,0,0-1,.37Z"/><path class="cls-3" d="M100.39,71.54H83.7A3.42,3.42,0,0,1,80.27,69,6,6,0,0,1,80,67.14c0-1.24,0-2.49,0-3.73V36.09q0-.53,0-1.05a.56.56,0,0,1,.47-.54,7.57,7.57,0,0,1,1.42-.19l9.2-.17h2.11a27,27,0,0,1,10.64,2.1c1,.43,2,.9,2.95,1.38A20.24,20.24,0,0,1,110.16,40a23.2,23.2,0,0,1,6.75,9.15,26.76,26.76,0,0,1,1.74,6.17,18.3,18.3,0,0,1,.27,3c0,3.86,0,7.73,0,11.59,0,1.34-.23,1.55-1.57,1.55Z"/><path d="M362,82.62a1.1,1.1,0,0,1-.92.43H341c-.32,0-.64,0-1,0s-.47.19-.44.5a8.46,8.46,0,0,0,.16.85,7.65,7.65,0,0,0,4.65,5.48,7.17,7.17,0,0,0,2.42.55,10.83,10.83,0,0,0,3-.17,6.35,6.35,0,0,0,4.29-3.11,1.31,1.31,0,0,1,1.29-.78c1.67,0,3.33,0,5,0,.79,0,.93.21.69.93a10.52,10.52,0,0,1-1.73,3.19,13.54,13.54,0,0,1-9.33,5.3,19.33,19.33,0,0,1-5.83-.19A12.53,12.53,0,0,1,339,93.39a13.62,13.62,0,0,1-5.69-9,24.75,24.75,0,0,1-.36-4.86A14.69,14.69,0,0,1,336.61,70a13.33,13.33,0,0,1,6.63-4,17.44,17.44,0,0,1,4.93-.6,14.2,14.2,0,0,1,10,4.19,13.36,13.36,0,0,1,3.6,7,6.48,6.48,0,0,0,.2,1.32Zm-14.37-4.8H354c.26,0,.51,0,.77,0,.47,0,.63-.23.57-.69A6.66,6.66,0,0,0,353,72.75a8.66,8.66,0,0,0-6.82-1.83,7.84,7.84,0,0,0-6.33,5.69,1.91,1.91,0,0,0-.09.75.42.42,0,0,0,.35.41,6.06,6.06,0,0,0,.85,0Z"/><path d="M248,75.6V57.4a9.13,9.13,0,0,1,0-1,.65.65,0,0,1,.64-.61h.09c1.6,0,3.2,0,4.79,0,.68,0,.91.28,1,1,0,.22,0,.44,0,.67,0,3.64,0,7.28,0,10.92,0,.19,0,.39,0,.58s0,.35.12.43.35-.1.48-.22a13.58,13.58,0,0,1,4.14-2.72,13.88,13.88,0,0,1,18.86,11,18.5,18.5,0,0,1-.36,8.07,14.58,14.58,0,0,1-6.16,8.5,12.82,12.82,0,0,1-6.34,2,14.42,14.42,0,0,1-5.75-.81,11.44,11.44,0,0,1-4.28-2.66c-.15-.15-.3-.42-.53-.34s-.17.44-.18.67c0,.48,0,1,0,1.44a5,5,0,0,1,0,.67.57.57,0,0,1-.55.56,3.69,3.69,0,0,1-.58,0c-1.4,0-2.81,0-4.21,0-1,0-1.14-.12-1.15-1.18V75.6Zm6.53,5.23a12,12,0,0,0,.15,2.51,9,9,0,0,0,3.15,5.13,7.81,7.81,0,0,0,5.2,1.93,8.35,8.35,0,0,0,7.69-4.84A10.48,10.48,0,0,0,270.9,76a8.1,8.1,0,0,0-6.12-4.86,8.68,8.68,0,0,0-3.33.09,8.4,8.4,0,0,0-6.71,6.92A19.94,19.94,0,0,0,254.55,80.83Z"/><path d="M136.66,69.85a13.77,13.77,0,0,1,1.61-1.58,13.4,13.4,0,0,1,6.62-2.79,13.2,13.2,0,0,1,6.87.82,13,13,0,0,1,7.67,7.83,17.52,17.52,0,0,1,0,12.84,13.79,13.79,0,0,1-8.72,8.43,8.63,8.63,0,0,1-3,.5,29.17,29.17,0,0,1-3.73-.16,12.16,12.16,0,0,1-6.49-3.26c-.16-.15-.3-.32-.47-.47a.38.38,0,0,0-.25-.11c-.16,0-.15.19-.15.31,0,.64,0,1.28,0,1.92,0,.25,0,.51,0,.76s-.19.5-.55.55a3.63,3.63,0,0,1-.57,0h-4.13c-.87,0-1-.13-1-1V57.26q0-.52,0-1a.47.47,0,0,1,.43-.45,3.64,3.64,0,0,1,.57,0h4.22a3.66,3.66,0,0,1,.57.05.42.42,0,0,1,.38.38,7.66,7.66,0,0,1,.05,1V68.61C136.62,69,136.64,69.29,136.66,69.85Zm0,10.65a8.71,8.71,0,0,0,.18,1.91,9.59,9.59,0,0,0,2.8,5.64,7.76,7.76,0,0,0,7.11,2.2A8.45,8.45,0,0,0,153.22,85a10.79,10.79,0,0,0,.69-6.66,9.78,9.78,0,0,0-2-4.4,7.92,7.92,0,0,0-5.14-2.87A8.2,8.2,0,0,0,139,74,10,10,0,0,0,136.62,80.5Z"/><path d="M179.11,95.9a16.5,16.5,0,0,1-4.09-.38,13.42,13.42,0,0,1-6.16-3.36,14.24,14.24,0,0,1-4.4-8.32,17.14,17.14,0,0,1,1.23-10.3,14.32,14.32,0,0,1,1-1.75A14,14,0,0,1,174,66.27a15.19,15.19,0,0,1,5.73-.93A15.35,15.35,0,0,1,190.49,70a13.07,13.07,0,0,1,3.07,5.24,16.77,16.77,0,0,1-.13,11.1,13.51,13.51,0,0,1-5.38,6.91,16.06,16.06,0,0,1-6.36,2.55A24.72,24.72,0,0,1,179.11,95.9Zm-8.37-15.08a10.69,10.69,0,0,0,.44,3.5,8,8,0,0,0,5.53,5.74,8.58,8.58,0,0,0,4.27.08,7.8,7.8,0,0,0,3.15-1.34A8.58,8.58,0,0,0,187,85a12,12,0,0,0,.81-4.88,11.57,11.57,0,0,0-.85-4.11,7.65,7.65,0,0,0-5.67-4.82,9.08,9.08,0,0,0-4.18,0,7.61,7.61,0,0,0-5.42,4.46A11.84,11.84,0,0,0,170.74,80.82Z"/><path d="M212.78,95.9a17.14,17.14,0,0,1-3.25-.18,12.44,12.44,0,0,1-3.1-1,14.33,14.33,0,0,1-7.94-9.66,17.53,17.53,0,0,1,1.08-11.78,11.08,11.08,0,0,1,2.15-3.15,15.18,15.18,0,0,1,4.63-3.34,16.52,16.52,0,0,1,4.76-1.41,13.76,13.76,0,0,1,2.87-.05,16.48,16.48,0,0,1,7.39,2.41,13.47,13.47,0,0,1,5.95,7.5A16.28,16.28,0,0,1,226.44,88a13.58,13.58,0,0,1-6.81,6.47,15.68,15.68,0,0,1-4.18,1.33A24.74,24.74,0,0,1,212.78,95.9Zm-8.24-15.24c0,.51,0,1,0,1.54a10,10,0,0,0,.2,1.22,9.07,9.07,0,0,0,2.77,5A7.51,7.51,0,0,0,213,90.38a9.37,9.37,0,0,0,3.62-.86,7.63,7.63,0,0,0,3.67-3.36,13.16,13.16,0,0,0,.67-9.6,8.71,8.71,0,0,0-1.85-3,8.49,8.49,0,0,0-9.79-1.78,7.55,7.55,0,0,0-4,4.2A11.33,11.33,0,0,0,204.54,80.66Z"/><path d="M295.68,87.49c.19-.08.21-.21.26-.32q1.72-4.53,3.46-9,2.1-5.46,4.21-10.91c.07-.18.16-.35.21-.53a1.16,1.16,0,0,1,1.32-1c1.44,0,2.88,0,4.32,0,1.07,0,1.17.17.79,1.19-.94,2.55-2,5-3.09,7.54q-2,4.77-4,9.54-3.82,9.15-7.63,18.31c-.85,2-1.69,4.07-2.53,6.11a3.49,3.49,0,0,1-.2.44.81.81,0,0,1-.69.44l-.38,0H287a2.61,2.61,0,0,1-.48,0,.32.32,0,0,1-.26-.35,2.77,2.77,0,0,1,.28-1c.82-2,1.62-4,2.46-6s1.74-4.05,2.64-6.06a2.44,2.44,0,0,0,0-2q-3-7.5-6-15c-1.52-3.8-3.05-7.59-4.56-11.39a6.92,6.92,0,0,1-.35-1.09.36.36,0,0,1,.32-.49,3.6,3.6,0,0,1,.66-.06h4.79l.39,0a.9.9,0,0,1,.88.61l.42,1.08q2.48,6.69,5,13.38,1.06,2.88,2.15,5.75A2.7,2.7,0,0,0,295.68,87.49Z"/><path d="M315.72,79.82V72.35c0-1.17,0-1.19-1.17-1.2-.54,0-1.08,0-1.63,0a.54.54,0,0,1-.58-.52,3.77,3.77,0,0,1,0-.58c0-1,0-2.11,0-3.16a3.6,3.6,0,0,1,.06-.66.46.46,0,0,1,.38-.39,4.87,4.87,0,0,1,.76-.06c.48,0,1,0,1.44,0s.74-.15.77-.73c0-.26,0-.51,0-.77,0-1.47,0-2.94,0-4.41,0-1.17.17-1.34,1.32-1.35,1.34,0,2.69,0,4,0a2.42,2.42,0,0,1,.38,0c.59.05.74.18.78.75,0,.35,0,.7,0,1.05,0,1.44,0,2.88,0,4.32,0,1.06.08,1.13,1.15,1.14,1.54,0,3.07,0,4.61,0,1.28,0,1.34.07,1.34,1.36,0,.93,0,1.86,0,2.78a1.34,1.34,0,0,1,0,.2c0,1-.11,1.06-1.13,1.06h-4.51c-.25,0-.51,0-.77,0-.52,0-.65.16-.68.71a5.42,5.42,0,0,0,0,.57c0,4.73,0,9.46,0,14.19a11.91,11.91,0,0,0,.06,1.34A2.15,2.15,0,0,0,324.45,90c1,.07,1.92,0,2.88,0,.44,0,.89,0,1.34,0s.6.19.66.65a1.36,1.36,0,0,1,0,.2v3.64a1.33,1.33,0,0,1,0,.28c-.06.36-.2.52-.54.57a3.77,3.77,0,0,1-.58,0c-1.37,0-2.75,0-4.12,0a13.5,13.5,0,0,1-3.4-.5,6.22,6.22,0,0,1-4.43-4.39,12.41,12.41,0,0,1-.53-3.68c0-2.37,0-4.73,0-7.1Z"/><path d="M233.62,75.6V57.4a9.13,9.13,0,0,1,0-1,.65.65,0,0,1,.64-.61,3.85,3.85,0,0,1,.48,0H239c.94,0,1.1.18,1.15,1.12,0,.29,0,.58,0,.87v36c0,.38,0,.76,0,1.14a.56.56,0,0,1-.55.56,3.76,3.76,0,0,1-.58,0c-1.37,0-2.75,0-4.12,0-1.14,0-1.23-.1-1.24-1.28V75.6Z"/><path d="M40.34,128.66l-5.42,10.28v6.27H32.76v-6.27l-5.45-10.28H29.8l4.06,8,4-8Z"/><path d="M53.37,133a5.81,5.81,0,0,1,2.31,2.3,7.25,7.25,0,0,1,.83,3.53,7.1,7.1,0,0,1-.83,3.5,5.72,5.72,0,0,1-2.31,2.29,7.29,7.29,0,0,1-6.64,0,5.72,5.72,0,0,1-2.31-2.29,7,7,0,0,1-.85-3.5,7.15,7.15,0,0,1,.85-3.53,5.81,5.81,0,0,1,2.31-2.3,7.37,7.37,0,0,1,6.64,0Zm-5.44,1.6a3.8,3.8,0,0,0-1.57,1.58,5.38,5.38,0,0,0-.6,2.65,5.25,5.25,0,0,0,.6,2.61A3.88,3.88,0,0,0,47.93,143a4.68,4.68,0,0,0,4.25,0,3.94,3.94,0,0,0,1.57-1.59,5.25,5.25,0,0,0,.6-2.61,5.38,5.38,0,0,0-.6-2.65,3.85,3.85,0,0,0-1.57-1.58,4.6,4.6,0,0,0-4.25,0Z"/><path d="M72.47,132.32v12.89H70.33v-3a4.35,4.35,0,0,1-1.75,2.41,5.2,5.2,0,0,1-2.92.83A4.78,4.78,0,0,1,62,144a5.75,5.75,0,0,1-1.38-4.14v-7.51h2.13v7.3a4.16,4.16,0,0,0,1,3,3.5,3.5,0,0,0,2.68,1,3.67,3.67,0,0,0,2.81-1.13,4.71,4.71,0,0,0,1.06-3.33v-6.85Z"/><path d="M81.59,132.85a5.48,5.48,0,0,1,2.91-.74v2.32h-.65a4.56,4.56,0,0,0-3,.93,3.7,3.7,0,0,0-1.15,3.06v6.79H77.6V132.32h2.14v2.61A4.69,4.69,0,0,1,81.59,132.85Z"/><path d="M107.06,141.3a7,7,0,0,1-3,2.89,10.11,10.11,0,0,1-4.71,1H94.12V128.66h5.26a10.36,10.36,0,0,1,4.71,1,6.86,6.86,0,0,1,3,2.87,10,10,0,0,1,0,8.78Zm-2.89.32a7.34,7.34,0,0,0,0-9.41,6.77,6.77,0,0,0-5-1.68h-3v12.75h3A6.81,6.81,0,0,0,104.17,141.62Z"/><path d="M112.69,127.59a1.49,1.49,0,0,1,1-.37,1.54,1.54,0,0,1,1.06.37,1.33,1.33,0,0,1,0,1.9,1.53,1.53,0,0,1-1.06.36,1.49,1.49,0,0,1-1-.36,1.33,1.33,0,0,1,0-1.9Zm2.11,4.73v12.89h-2.14V132.32Z"/><path d="M128.4,133.09a5,5,0,0,1,1.82,2.52v-3.29h2.13v13.1a6.57,6.57,0,0,1-.75,3.17,5.41,5.41,0,0,1-2.11,2.16,6.36,6.36,0,0,1-3.17.77,6.85,6.85,0,0,1-4.25-1.25,5.59,5.59,0,0,1-2.09-3.4h2.11a3.65,3.65,0,0,0,1.43,2,4.47,4.47,0,0,0,2.68.74,4,4,0,0,0,2.88-1.11,4.15,4.15,0,0,0,1.14-3.11v-3.5a4.88,4.88,0,0,1-1.82,2.51,5.27,5.27,0,0,1-3.18.94,5.74,5.74,0,0,1-3-.8,5.45,5.45,0,0,1-2.11-2.29,7.68,7.68,0,0,1-.76-3.5,7.84,7.84,0,0,1,.76-3.53,5.54,5.54,0,0,1,2.11-2.3,5.83,5.83,0,0,1,3-.79A5.34,5.34,0,0,1,128.4,133.09Zm-5.73,2.22a5.64,5.64,0,0,0,0,6.93,4.12,4.12,0,0,0,3.16,1.25,4.37,4.37,0,0,0,2.26-.58,4,4,0,0,0,1.56-1.66,5.17,5.17,0,0,0,.57-2.47,5.26,5.26,0,0,0-.57-2.49,4,4,0,0,0-1.56-1.66,4.46,4.46,0,0,0-2.26-.57A4.16,4.16,0,0,0,122.67,135.31Z"/><path d="M137.49,127.59a1.54,1.54,0,0,1,1.06-.37,1.51,1.51,0,0,1,1,.37,1.33,1.33,0,0,1,0,1.9,1.5,1.5,0,0,1-1,.36,1.53,1.53,0,0,1-1.06-.36,1.33,1.33,0,0,1,0-1.9Zm2.11,4.73v12.89h-2.13V132.32Z"/><path d="M150.89,143.33v1.88h-1.6a4.1,4.1,0,0,1-2.94-.94,4.26,4.26,0,0,1-1-3.15v-7h-1.92v-1.85h1.92V129.1h2.16v3.22h3.33v1.85h-3.33v7a2.37,2.37,0,0,0,.46,1.7,2.16,2.16,0,0,0,1.58.46Z"/><path d="M163.66,133.09a4.89,4.89,0,0,1,1.82,2.52v-3.29h2.14v12.89h-2.14v-3.29a4.83,4.83,0,0,1-1.82,2.51,5.23,5.23,0,0,1-3.18.94,5.76,5.76,0,0,1-3-.8,5.49,5.49,0,0,1-2.1-2.29,7.56,7.56,0,0,1-.76-3.5,7.71,7.71,0,0,1,.76-3.53,5.58,5.58,0,0,1,2.1-2.3,5.85,5.85,0,0,1,3-.79A5.29,5.29,0,0,1,163.66,133.09Zm-5.72,2.22a5.64,5.64,0,0,0,0,6.93,4.11,4.11,0,0,0,3.15,1.25,4.41,4.41,0,0,0,2.27-.58,4.1,4.1,0,0,0,1.56-1.66,5.17,5.17,0,0,0,.56-2.47,5.25,5.25,0,0,0-.56-2.49,4,4,0,0,0-1.56-1.66,4.5,4.5,0,0,0-2.27-.57A4.15,4.15,0,0,0,157.94,135.31Z"/><path d="M174.87,127.84v17.37h-2.14V127.84Z"/><path d="M198.5,128.66v16.55h-2.16v-7.66h-8.4v7.66H185.8V128.66h2.14v7.16h8.4v-7.16Z"/><path d="M215.4,139.22H205.09a4.52,4.52,0,0,0,1.26,3.31,4.08,4.08,0,0,0,2.9,1.1,4.19,4.19,0,0,0,2.59-.78,3.24,3.24,0,0,0,1.28-2.1h2.28a5.42,5.42,0,0,1-1,2.39,5.35,5.35,0,0,1-2.1,1.64,6.9,6.9,0,0,1-2.92.59,6.53,6.53,0,0,1-3.28-.8,5.56,5.56,0,0,1-2.24-2.29,7.21,7.21,0,0,1-.81-3.5,7.36,7.36,0,0,1,.81-3.53,5.64,5.64,0,0,1,2.24-2.3,6.63,6.63,0,0,1,3.28-.79,6.5,6.5,0,0,1,3.28.79,5.54,5.54,0,0,1,2.13,2.14,5.94,5.94,0,0,1,.74,3A6.63,6.63,0,0,1,215.4,139.22Zm-2.53-3.43a3.51,3.51,0,0,0-1.48-1.43,4.57,4.57,0,0,0-2-.47,4.23,4.23,0,0,0-3,1.09,4.44,4.44,0,0,0-1.3,3.21h8.24A4.48,4.48,0,0,0,212.87,135.79Z"/><path d="M228.46,133.09a5,5,0,0,1,1.82,2.52v-3.29h2.13v12.89h-2.13v-3.29a4.88,4.88,0,0,1-1.82,2.51,5.27,5.27,0,0,1-3.18.94,5.76,5.76,0,0,1-3.05-.8,5.37,5.37,0,0,1-2.1-2.29,7.56,7.56,0,0,1-.77-3.5,7.71,7.71,0,0,1,.77-3.53,5.45,5.45,0,0,1,2.1-2.3,5.85,5.85,0,0,1,3.05-.79A5.34,5.34,0,0,1,228.46,133.09Zm-5.73,2.22a5.68,5.68,0,0,0,0,6.93,4.12,4.12,0,0,0,3.16,1.25,4.37,4.37,0,0,0,2.26-.58,4.12,4.12,0,0,0,1.57-1.66,5.29,5.29,0,0,0,.56-2.47,5.37,5.37,0,0,0-.56-2.49,4.06,4.06,0,0,0-1.57-1.66,4.46,4.46,0,0,0-2.26-.57A4.16,4.16,0,0,0,222.73,135.31Z"/><path d="M239.66,127.84v17.37h-2.13V127.84Z"/><path d="M251,143.33v1.88h-1.6a4.12,4.12,0,0,1-2.94-.94,4.26,4.26,0,0,1-1-3.15v-7h-1.92v-1.85h1.92V129.1h2.16v3.22h3.34v1.85h-3.34v7a2.37,2.37,0,0,0,.46,1.7,2.18,2.18,0,0,0,1.58.46Z"/><path d="M265.69,133.55a5.8,5.8,0,0,1,1.38,4.17v7.49h-2.13v-7.3a4.1,4.1,0,0,0-1-3,3.53,3.53,0,0,0-2.68-1,3.63,3.63,0,0,0-2.81,1.13,4.71,4.71,0,0,0-1.06,3.33v6.83h-2.14V127.84h2.14v7.53a4.41,4.41,0,0,1,1.75-2.42,5.09,5.09,0,0,1,2.9-.84A4.84,4.84,0,0,1,265.69,133.55Z"/><path d="M280,138.54v6.67h-2.14V128.66h5.26a6,6,0,0,1,4.25,1.32,4.76,4.76,0,0,1,1.41,3.63,4.62,4.62,0,0,1-1.45,3.63,6.13,6.13,0,0,1-4.21,1.3Zm5.74-2.61a3.06,3.06,0,0,0,.86-2.32,3.1,3.1,0,0,0-.86-2.36,4,4,0,0,0-2.8-.81H280v6.32h2.94A4,4,0,0,0,285.74,135.93Z"/><path d="M301.44,133.09a4.89,4.89,0,0,1,1.82,2.52v-3.29h2.14v12.89h-2.14v-3.29a4.83,4.83,0,0,1-1.82,2.51,5.27,5.27,0,0,1-3.18.94,5.76,5.76,0,0,1-3.05-.8,5.43,5.43,0,0,1-2.1-2.29,7.56,7.56,0,0,1-.77-3.5,7.71,7.71,0,0,1,.77-3.53,5.52,5.52,0,0,1,2.1-2.3,5.85,5.85,0,0,1,3.05-.79A5.34,5.34,0,0,1,301.44,133.09Zm-5.73,2.22a5.68,5.68,0,0,0,0,6.93,4.12,4.12,0,0,0,3.16,1.25,4.43,4.43,0,0,0,2.27-.58,4.17,4.17,0,0,0,1.56-1.66,5.29,5.29,0,0,0,.56-2.47,5.37,5.37,0,0,0-.56-2.49,4.1,4.1,0,0,0-1.56-1.66,4.53,4.53,0,0,0-2.27-.57A4.16,4.16,0,0,0,295.71,135.31Z"/><path d="M314.5,132.85a5.43,5.43,0,0,1,2.91-.74v2.32h-.66a4.58,4.58,0,0,0-3,.93,3.73,3.73,0,0,0-1.15,3.06v6.79h-2.13V132.32h2.13v2.61A4.71,4.71,0,0,1,314.5,132.85Z"/><path d="M327.38,143.33v1.88h-1.6a4.12,4.12,0,0,1-2.94-.94,4.26,4.26,0,0,1-1-3.15v-7h-1.92v-1.85h1.92V129.1H324v3.22h3.34v1.85H324v7a2.42,2.42,0,0,0,.46,1.7,2.21,2.21,0,0,0,1.59.46Z"/><path d="M342.12,133.55a5.8,5.8,0,0,1,1.38,4.17v7.49h-2.13v-7.3a4.1,4.1,0,0,0-1-3,3.53,3.53,0,0,0-2.68-1,3.63,3.63,0,0,0-2.81,1.13,4.71,4.71,0,0,0-1.06,3.33v6.83h-2.14V132.32h2.14v3.05a4.41,4.41,0,0,1,1.75-2.42,5.09,5.09,0,0,1,2.9-.84A4.84,4.84,0,0,1,342.12,133.55Z"/><path d="M360.26,139.22H350a4.52,4.52,0,0,0,1.26,3.31,4.08,4.08,0,0,0,2.9,1.1,4.19,4.19,0,0,0,2.59-.78,3.24,3.24,0,0,0,1.28-2.1h2.28a5.43,5.43,0,0,1-1.05,2.39,5.35,5.35,0,0,1-2.1,1.64,6.82,6.82,0,0,1-2.91.59,6.53,6.53,0,0,1-3.28-.8,5.58,5.58,0,0,1-2.25-2.29,7.21,7.21,0,0,1-.81-3.5,7.36,7.36,0,0,1,.81-3.53,5.67,5.67,0,0,1,2.25-2.3,6.63,6.63,0,0,1,3.28-.79,6.53,6.53,0,0,1,3.28.79,5.54,5.54,0,0,1,2.13,2.14,5.94,5.94,0,0,1,.74,3A6.63,6.63,0,0,1,360.26,139.22Zm-2.54-3.43a3.4,3.4,0,0,0-1.48-1.43,4.5,4.5,0,0,0-2-.47,4.28,4.28,0,0,0-3,1.09,4.48,4.48,0,0,0-1.29,3.21h8.24A4.38,4.38,0,0,0,357.72,135.79Z"/><path d="M368.85,132.85a5.43,5.43,0,0,1,2.91-.74v2.32h-.66a4.56,4.56,0,0,0-3,.93,3.7,3.7,0,0,0-1.15,3.06v6.79h-2.14V132.32H367v2.61A4.65,4.65,0,0,1,368.85,132.85Z"/></svg>