<svg xmlns="http://www.w3.org/2000/svg" xmlns:xlink="http://www.w3.org/1999/xlink" width="215" zoomAndPan="magnify" viewBox="0 0 161.25 127.499994" height="170" preserveAspectRatio="xMidYMid meet" version="1.0"><defs><clipPath id="7bf2c50933"><path d="M 95 0.046875 L 160 0.046875 L 160 126.851562 L 95 126.851562 Z M 95 0.046875 " clip-rule="nonzero"/></clipPath><clipPath id="a8ccbd6d68"><path d="M 143 0.046875 L 160.074219 0.046875 L 160.074219 126.851562 L 143 126.851562 Z M 143 0.046875 " clip-rule="nonzero"/></clipPath><clipPath id="e59f47b6b4"><path d="M 0 0.238281 L 65 0.238281 L 65 126.398438 L 0 126.398438 Z M 0 0.238281 " clip-rule="nonzero"/></clipPath><clipPath id="cf3cdf7431"><path d="M 48 0.238281 L 130 0.238281 L 130 126.398438 L 48 126.398438 Z M 48 0.238281 " clip-rule="nonzero"/></clipPath></defs><g clip-path="url(#7bf2c50933)"><path fill="#016080" d="M 156.1875 -1.550781 L 130.625 -1.550781 L 130.625 33.179688 L 95.890625 33.179688 L 95.890625 91.957031 L 130.625 91.957031 L 130.625 126.691406 C 212.539062 62.351562 87.65625 46.863281 156.1875 -1.550781 " fill-opacity="1" fill-rule="nonzero"/></g><g clip-path="url(#a8ccbd6d68)"><path fill="#016080" d="M 189.398438 33.179688 L 189.398438 -1.550781 L 157.625 -1.550781 C 101.855469 53.386719 236.789062 56.128906 167.785156 126.691406 L 189.398438 126.691406 L 189.398438 91.957031 L 224.132812 91.957031 L 224.132812 33.179688 L 189.398438 33.179688 " fill-opacity="1" fill-rule="nonzero"/></g><g clip-path="url(#e59f47b6b4)"><path fill="#fb7d11" d="M 61.21875 -1.550781 L 35.65625 -1.550781 L 35.65625 33.179688 L 0.925781 33.179688 L 0.925781 91.957031 L 35.65625 91.957031 L 35.65625 126.691406 C 117.570312 62.351562 -7.3125 46.863281 61.21875 -1.550781 " fill-opacity="1" fill-rule="nonzero"/></g><g clip-path="url(#cf3cdf7431)"><path fill="#016080" d="M 94.433594 33.179688 L 94.433594 -1.550781 L 62.660156 -1.550781 C 6.890625 53.386719 141.824219 56.128906 72.820312 126.691406 L 94.433594 126.691406 L 94.433594 91.957031 L 129.167969 91.957031 L 129.167969 33.179688 L 94.433594 33.179688 " fill-opacity="1" fill-rule="nonzero"/></g></svg>