<svg id="Layer_1" data-name="Layer 1" xmlns="http://www.w3.org/2000/svg" viewBox="0 0 311.48 133.66"><defs><style>.cls-1{fill:#fff;}.cls-2{fill:#00ace6;}</style></defs><path class="cls-1" d="M198.84,77.33v56.33H170.68V88.6c0-20.95-4.75-26.76-14.78-26.76-11.44,0-21.83,14.61-21.83,36.09v35.73H105.91V6.93h28.16V45.12a21.06,21.06,0,0,1-2.29,10c-1.41,2.82-3.17,6.34-.88,7.22,2.11.88,3-1.23,3.7-2.64C139,50.4,149.38,37.9,165.4,37.9,185.47,37.9,198.84,50.93,198.84,77.33Z"/><path class="cls-1" d="M239.31,58.15c5.46-12.33,10.74-18.84,33.1-18.84V66.42c-25.53-1.76-33.8,7.57-33.8,31.15v36.09H210.45V40.72h28.16v4.22a21.05,21.05,0,0,1-2.46,9.16c-1.41,2.81-2.47,6,.17,6.51C237.91,61,238.79,59.38,239.31,58.15Z"/><rect class="cls-1" x="281.38" y="40.72" width="28.16" height="92.94"/><path class="cls-1" d="M96.69,85.73A48.4,48.4,0,0,0,85.55,54.9L68.2,72.25A23.51,23.51,0,0,1,35.49,105L18.21,122.24A47.8,47.8,0,0,0,96.69,85.73Z"/><path class="cls-1" d="M26.55,78.07A23.51,23.51,0,0,1,56.36,63.3a23.17,23.17,0,0,1,6.09,3.11L79.77,49.09a48.56,48.56,0,0,0-31-11.27A47.65,47.65,0,0,0,1,85.46a48.63,48.63,0,0,0,11.34,31.06L29.66,99.2A23.49,23.49,0,0,1,26.55,78.07Z"/><path class="cls-2" d="M279.45,16a16,16,0,1,1,16,16A16.08,16.08,0,0,1,279.45,16Z"/></svg>