<svg width="22" height="23" viewBox="0 0 22 23" fill="none" xmlns="http://www.w3.org/2000/svg">
<path d="M9.38021 10.4668C11.5318 10.4668 13.276 8.72261 13.276 6.571C13.276 4.41939 11.5318 2.67517 9.38021 2.67517C7.2286 2.67517 5.48438 4.41939 5.48438 6.571C5.48438 8.72261 7.2286 10.4668 9.38021 10.4668Z" stroke="white" stroke-width="2" stroke-miterlimit="5"/>
<path d="M11.0614 19.5139C11.0076 19.5217 10.9535 19.5291 10.8994 19.5362C10.8453 19.5432 10.7911 19.5499 10.7368 19.5562C7.02968 19.9843 2.73438 18.6351 2.73438 15.5085V14.8114C2.73438 14.1839 3.24313 13.6752 3.87058 13.6752H11.1927" stroke="white" stroke-width="2" stroke-miterlimit="10" stroke-linecap="round"/>
<path fill-rule="evenodd" clip-rule="evenodd" d="M21.9487 16.2984C21.9487 18.9702 19.7828 21.1361 17.1111 21.1361C14.4393 21.1361 12.2734 18.9702 12.2734 16.2984C12.2734 13.6267 14.4393 11.4608 17.1111 11.4608C19.7828 11.4608 21.9487 13.6267 21.9487 16.2984ZM17.7753 12.8345C17.7753 12.4672 17.4776 12.1695 17.1103 12.1695C16.743 12.1695 16.4453 12.4672 16.4453 12.8345V15.589H13.6484C13.2812 15.589 12.9834 15.8868 12.9834 16.254C12.9834 16.6213 13.2812 16.919 13.6484 16.919H16.4453V19.6334C16.4453 20.0007 16.743 20.2984 17.1103 20.2984C17.4776 20.2984 17.7753 20.0007 17.7753 19.6334V16.919H20.568C20.9353 16.919 21.233 16.6213 21.233 16.254C21.233 15.8868 20.9353 15.589 20.568 15.589H17.7753V12.8345Z" fill="white"/>
</svg>
