<svg width="48" height="48" viewBox="0 0 48 48" fill="none" xmlns="http://www.w3.org/2000/svg">
<circle cx="24" cy="24" r="24" fill="#2E1E91"/>
<path d="M21.0846 27.5001C21.729 27.5001 22.2513 26.9777 22.2513 26.3334C22.2513 25.6891 21.729 25.1667 21.0846 25.1667C20.4403 25.1667 19.918 25.6891 19.918 26.3334C19.918 26.9777 20.4403 27.5001 21.0846 27.5001Z" fill="white"/>
<path d="M26.9167 27.5001C27.561 27.5001 28.0833 26.9777 28.0833 26.3334C28.0833 25.6891 27.561 25.1667 26.9167 25.1667C26.2723 25.1667 25.75 25.6891 25.75 26.3334C25.75 26.9777 26.2723 27.5001 26.9167 27.5001Z" fill="white"/>
<path d="M30.7083 12.0417H17.2917C16.6471 12.0417 16.125 12.5638 16.125 13.2084V21.9584H31.875V13.2084C31.875 12.5638 31.3529 12.0417 30.7083 12.0417Z" stroke="white" stroke-width="2" stroke-miterlimit="5" stroke-linecap="round" stroke-linejoin="round"/>
<path d="M23.707 19.9167C23.224 19.9167 22.832 19.5247 22.832 19.0417V15.5417C22.832 15.0587 23.224 14.6667 23.707 14.6667C24.19 14.6667 24.582 15.0587 24.582 15.5417V19.0417C24.582 19.5247 24.19 19.9167 23.707 19.9167Z" fill="white"/>
<path d="M26.332 17.2917C26.332 17.7747 25.94 18.1667 25.457 18.1667H21.957C21.474 18.1667 21.082 17.7747 21.082 17.2917C21.082 16.8087 21.474 16.4167 21.957 16.4167H25.457C25.94 16.4167 26.332 16.8087 26.332 17.2917Z" fill="white"/>
<path d="M31.8737 21.6667V24.5128C32.5597 24.8389 33.0404 25.5226 33.0404 26.3334C33.0404 27.461 32.1263 28.3751 30.9987 28.3751C30.9864 28.3751 30.9754 28.3716 30.9631 28.3716C30.0409 32.7664 27.2718 35.9584 23.9987 35.9584C20.7256 35.9584 17.9565 32.7664 17.0343 28.3716C17.022 28.3716 17.0109 28.3751 16.9987 28.3751C15.8711 28.3751 14.957 27.461 14.957 26.3334C14.957 25.5208 15.4359 24.8296 16.1237 24.5035V21.6667" stroke="white" stroke-width="2" stroke-miterlimit="5" stroke-linecap="round" stroke-linejoin="round"/>
<line x1="36.125" y1="13.0417" x2="36.125" y2="17.396" stroke="white" stroke-width="2" stroke-linecap="round"/>
<circle cx="36.125" cy="20.2764" r="1" fill="white"/>
</svg>
