<svg width="24" height="24" viewBox="0 0 24 24" fill="none" xmlns="http://www.w3.org/2000/svg">
<rect x="0.5" y="0.5" width="23" height="23" rx="11.5" fill="#FAF9FF"/>
<path d="M12 17.1667V19.1667" stroke="#FF475D" stroke-width="1.33" stroke-miterlimit="10" stroke-linecap="round" stroke-linejoin="round"/>
<path d="M14 10.0001V12.6667C14 13.7701 13.1033 14.6667 12 14.6667C11.2767 14.6667 10.6433 14.2834 10.2933 13.7067L9.57333 14.4267C10.12 15.1767 11.0033 15.6667 12 15.6667C13.6533 15.6667 15 14.3201 15 12.6667V9.00008L14 10.0001ZM10 7.66675C10 6.56341 10.8967 5.66675 12 5.66675C13.1033 5.66675 14 6.56341 14 7.66675V7.88008L14.9167 6.96341C14.6 5.64675 13.41 4.66675 12 4.66675C10.3467 4.66675 9 6.01341 9 7.66675V12.6667C9 12.7367 9.00333 12.8067 9.00667 12.8734L10 11.8801V7.66675Z" fill="#FF475D"/>
<path d="M7.5 11.5C7.5 11.5 7.5 11.8333 7.5 12.6667C7.5 15.152 9.51467 17.1667 12 17.1667" stroke="#FF475D" stroke-width="1.33" stroke-miterlimit="10" stroke-linecap="round" stroke-linejoin="round"/>
<path d="M12 17.1667V19.1667" stroke="#FF475D" stroke-width="1.33" stroke-miterlimit="10" stroke-linecap="round" stroke-linejoin="round"/>
<path d="M8 12.6667C8 13.0367 8.05 13.3933 8.14667 13.7333L7.35667 14.5233C7.12667 13.95 7 13.3233 7 12.6667V11.5C7 11.2233 7.22333 11 7.5 11C7.77667 11 8 11.2233 8 11.5V12.6667Z" fill="#FF475D"/>
<path d="M16.9984 11.5V12.6667C16.9984 15.4233 14.7551 17.6667 11.9984 17.6667C10.4518 17.6667 9.0651 16.96 8.14844 15.85L8.85844 15.14C9.58844 16.07 10.7251 16.6667 11.9984 16.6667C14.2051 16.6667 15.9984 14.8733 15.9984 12.6667V11.5C15.9984 11.2233 16.2218 11 16.4984 11C16.7751 11 16.9984 11.2233 16.9984 11.5Z" fill="#FF475D"/>
<path d="M5.83594 18.1666L18.1693 5.83325" stroke="#FF475D" stroke-width="1.33" stroke-miterlimit="10" stroke-linecap="round"/>
<rect x="0.5" y="0.5" width="23" height="23" rx="11.5" stroke="#FF475D"/>
</svg>
