<svg width="120" height="120" viewBox="0 0 120 120" fill="none" xmlns="http://www.w3.org/2000/svg">
<rect x="0.5" y="0.500244" width="119" height="119" rx="7.5" fill="#EFE8FF"/>
<path d="M50.668 38.3337V24.3337C50.668 23.6264 50.9489 22.9481 51.449 22.448C51.9491 21.9479 52.6274 21.667 53.3346 21.667H62.668L72.0013 31.0003V45.667C72.0013 46.3742 71.7204 47.0525 71.2203 47.5526C70.7202 48.0527 70.0419 48.3337 69.3346 48.3337H68.0013" stroke="#2E1E91" stroke-width="2" stroke-linecap="round" stroke-linejoin="round"/>
<path d="M62.668 21.667V31.0003H72.0013" stroke="#2E1E91" stroke-width="2" stroke-linecap="round" stroke-linejoin="round"/>
<path d="M48 49.1337V41.667H50.7627C51.36 41.667 51.8542 41.7665 52.2453 41.9657C52.6364 42.1648 52.928 42.4385 53.12 42.787C53.312 43.1354 53.408 43.5265 53.408 43.9603C53.408 44.3728 53.3156 44.7532 53.1307 45.1017C52.9458 45.443 52.6578 45.7203 52.2667 45.9337C51.8756 46.1399 51.3742 46.243 50.7627 46.243H49.3653V49.1337H48ZM49.3653 45.1337H50.6773C51.1538 45.1337 51.4951 45.0305 51.7013 44.8243C51.9147 44.611 52.0213 44.323 52.0213 43.9603C52.0213 43.5905 51.9147 43.3025 51.7013 43.0963C51.4951 42.883 51.1538 42.7763 50.6773 42.7763H49.3653V45.1337Z" fill="#2E1E91"/>
<path d="M54.4792 49.1337V41.667H57.0285C57.9032 41.667 58.6214 41.8234 59.1832 42.1363C59.7521 42.4421 60.1716 42.8759 60.4418 43.4377C60.7192 43.9923 60.8578 44.6465 60.8578 45.4003C60.8578 46.1541 60.7192 46.8119 60.4418 47.3737C60.1716 47.9283 59.7521 48.3621 59.1832 48.675C58.6214 48.9808 57.9032 49.1337 57.0285 49.1337H54.4792ZM55.8445 47.9603H56.9645C57.5903 47.9603 58.0845 47.8608 58.4472 47.6617C58.8098 47.4554 59.0694 47.1639 59.2258 46.787C59.3823 46.403 59.4605 45.9408 59.4605 45.4003C59.4605 44.867 59.3823 44.4083 59.2258 44.0243C59.0694 43.6403 58.8098 43.3452 58.4472 43.139C58.0845 42.9328 57.5903 42.8297 56.9645 42.8297H55.8445V47.9603Z" fill="#2E1E91"/>
<path d="M62.0625 49.1337V41.667H66.8838V42.7657H63.4278V44.8563H66.2225V45.9337H63.4278V49.1337H62.0625Z" fill="#2E1E91"/>
<path d="M28.0936 74.0002V64.2002H31.5376C32.2283 64.2002 32.7976 64.3122 33.2456 64.5362C33.703 64.7509 34.0436 65.0496 34.2676 65.4322C34.4916 65.8056 34.6036 66.2256 34.6036 66.6922C34.6036 67.3269 34.431 67.8262 34.0856 68.1902C33.7496 68.5542 33.3436 68.8062 32.8676 68.9462C33.2316 69.0116 33.563 69.1562 33.8616 69.3802C34.1603 69.6042 34.3936 69.8842 34.5616 70.2202C34.739 70.5562 34.8276 70.9249 34.8276 71.3262C34.8276 71.8209 34.7063 72.2736 34.4636 72.6842C34.221 73.0856 33.8616 73.4076 33.3856 73.6502C32.9096 73.8836 32.331 74.0002 31.6496 74.0002H28.0936ZM29.2696 68.4842H31.4536C32.079 68.4842 32.5596 68.3396 32.8956 68.0502C33.2316 67.7516 33.3996 67.3409 33.3996 66.8182C33.3996 66.3236 33.2316 65.9269 32.8956 65.6282C32.569 65.3296 32.0743 65.1802 31.4116 65.1802H29.2696V68.4842ZM29.2696 73.0202H31.5236C32.1956 73.0202 32.7136 72.8662 33.0776 72.5582C33.4416 72.2409 33.6236 71.8022 33.6236 71.2422C33.6236 70.6916 33.4323 70.2529 33.0496 69.9262C32.667 69.5902 32.149 69.4222 31.4956 69.4222H29.2696V73.0202ZM36.4455 74.0002V63.9202H37.6215V74.0002H36.4455ZM42.713 74.1682C42.0597 74.1682 41.4717 74.0189 40.949 73.7202C40.4263 73.4216 40.011 73.0016 39.703 72.4602C39.4043 71.9096 39.255 71.2656 39.255 70.5282C39.255 69.7909 39.409 69.1516 39.717 68.6102C40.025 68.0596 40.4403 67.6349 40.963 67.3362C41.495 67.0376 42.0877 66.8882 42.741 66.8882C43.3943 66.8882 43.9823 67.0376 44.505 67.3362C45.0277 67.6349 45.4383 68.0596 45.737 68.6102C46.045 69.1516 46.199 69.7909 46.199 70.5282C46.199 71.2656 46.045 71.9096 45.737 72.4602C45.429 73.0016 45.009 73.4216 44.477 73.7202C43.9543 74.0189 43.3663 74.1682 42.713 74.1682ZM42.713 73.1602C43.1143 73.1602 43.4877 73.0622 43.833 72.8662C44.1783 72.6702 44.4583 72.3762 44.673 71.9842C44.8877 71.5922 44.995 71.1069 44.995 70.5282C44.995 69.9496 44.8877 69.4642 44.673 69.0722C44.4677 68.6802 44.1923 68.3862 43.847 68.1902C43.5017 67.9942 43.133 67.8962 42.741 67.8962C42.3397 67.8962 41.9663 67.9942 41.621 68.1902C41.2757 68.3862 40.9957 68.6802 40.781 69.0722C40.5663 69.4642 40.459 69.9496 40.459 70.5282C40.459 71.1069 40.5663 71.5922 40.781 71.9842C40.9957 72.3762 41.271 72.6702 41.607 72.8662C41.9523 73.0622 42.321 73.1602 42.713 73.1602ZM50.9982 74.1682C50.3448 74.1682 49.7568 74.0189 49.2342 73.7202C48.7115 73.4216 48.2962 73.0016 47.9882 72.4602C47.6895 71.9096 47.5402 71.2656 47.5402 70.5282C47.5402 69.7909 47.6942 69.1516 48.0022 68.6102C48.3102 68.0596 48.7255 67.6349 49.2482 67.3362C49.7802 67.0376 50.3728 66.8882 51.0262 66.8882C51.6795 66.8882 52.2675 67.0376 52.7902 67.3362C53.3128 67.6349 53.7235 68.0596 54.0222 68.6102C54.3302 69.1516 54.4842 69.7909 54.4842 70.5282C54.4842 71.2656 54.3302 71.9096 54.0222 72.4602C53.7142 73.0016 53.2942 73.4216 52.7622 73.7202C52.2395 74.0189 51.6515 74.1682 50.9982 74.1682ZM50.9982 73.1602C51.3995 73.1602 51.7728 73.0622 52.1182 72.8662C52.4635 72.6702 52.7435 72.3762 52.9582 71.9842C53.1728 71.5922 53.2802 71.1069 53.2802 70.5282C53.2802 69.9496 53.1728 69.4642 52.9582 69.0722C52.7528 68.6802 52.4775 68.3862 52.1322 68.1902C51.7868 67.9942 51.4182 67.8962 51.0262 67.8962C50.6248 67.8962 50.2515 67.9942 49.9062 68.1902C49.5608 68.3862 49.2808 68.6802 49.0662 69.0722C48.8515 69.4642 48.7442 69.9496 48.7442 70.5282C48.7442 71.1069 48.8515 71.5922 49.0662 71.9842C49.2808 72.3762 49.5562 72.6702 49.8922 72.8662C50.2375 73.0622 50.6062 73.1602 50.9982 73.1602ZM59.2693 74.1682C58.5787 74.1682 57.972 74.0096 57.4493 73.6922C56.936 73.3749 56.5347 72.9409 56.2453 72.3902C55.9653 71.8396 55.8253 71.2142 55.8253 70.5142C55.8253 69.8142 55.97 69.1936 56.2593 68.6522C56.5487 68.1016 56.95 67.6722 57.4633 67.3642C57.9767 67.0469 58.5833 66.8882 59.2833 66.8882C59.8527 66.8882 60.3567 67.0049 60.7953 67.2382C61.234 67.4716 61.5747 67.7982 61.8173 68.2182V63.9202H62.9933V74.0002H61.9293L61.8173 72.8522C61.5933 73.1882 61.2713 73.4916 60.8513 73.7622C60.4313 74.0329 59.904 74.1682 59.2693 74.1682ZM59.3953 73.1462C59.862 73.1462 60.2727 73.0389 60.6273 72.8242C60.9913 72.6002 61.2713 72.2922 61.4673 71.9002C61.6727 71.5082 61.7753 71.0509 61.7753 70.5282C61.7753 70.0056 61.6727 69.5482 61.4673 69.1562C61.2713 68.7642 60.9913 68.4609 60.6273 68.2462C60.2727 68.0222 59.862 67.9102 59.3953 67.9102C58.938 67.9102 58.5273 68.0222 58.1633 68.2462C57.8087 68.4609 57.5287 68.7642 57.3233 69.1562C57.1273 69.5482 57.0293 70.0056 57.0293 70.5282C57.0293 71.0509 57.1273 71.5082 57.3233 71.9002C57.5287 72.2922 57.8087 72.6002 58.1633 72.8242C58.5273 73.0389 58.938 73.1462 59.3953 73.1462ZM71.3594 74.0002C70.7247 74.0002 70.2254 73.8462 69.8614 73.5382C69.4974 73.2302 69.3154 72.6749 69.3154 71.8722V68.0502H68.1114V67.0562H69.3154L69.4694 65.3902H70.4914V67.0562H72.5354V68.0502H70.4914V71.8722C70.4914 72.3109 70.5801 72.6096 70.7574 72.7682C70.9347 72.9176 71.2474 72.9922 71.6954 72.9922H72.4234V74.0002H71.3594ZM76.9601 74.1682C76.2974 74.1682 75.7094 74.0189 75.1961 73.7202C74.6827 73.4122 74.2767 72.9876 73.9781 72.4462C73.6887 71.9049 73.5441 71.2656 73.5441 70.5282C73.5441 69.8002 73.6887 69.1656 73.9781 68.6242C74.2674 68.0736 74.6687 67.6489 75.1821 67.3502C75.7047 67.0422 76.3067 66.8882 76.9881 66.8882C77.6601 66.8882 78.2387 67.0422 78.7241 67.3502C79.2187 67.6489 79.5967 68.0456 79.8581 68.5402C80.1194 69.0349 80.2501 69.5669 80.2501 70.1362C80.2501 70.2389 80.2454 70.3416 80.2361 70.4442C80.2361 70.5469 80.2361 70.6636 80.2361 70.7942H74.7061C74.7341 71.3262 74.8554 71.7696 75.0701 72.1242C75.2941 72.4696 75.5694 72.7309 75.8961 72.9082C76.2321 73.0856 76.5867 73.1742 76.9601 73.1742C77.4454 73.1742 77.8514 73.0622 78.1781 72.8382C78.5047 72.6142 78.7427 72.3109 78.8921 71.9282H80.0541C79.8674 72.5722 79.5081 73.1089 78.9761 73.5382C78.4534 73.9582 77.7814 74.1682 76.9601 74.1682ZM76.9601 67.8822C76.4001 67.8822 75.9007 68.0549 75.4621 68.4002C75.0327 68.7362 74.7854 69.2309 74.7201 69.8842H79.0881C79.0601 69.2589 78.8454 68.7689 78.4441 68.4142C78.0427 68.0596 77.5481 67.8822 76.9601 67.8822ZM84.4688 74.1682C83.6381 74.1682 82.9474 73.9582 82.3968 73.5382C81.8461 73.1182 81.5241 72.5489 81.4308 71.8302H82.6348C82.7094 72.1942 82.9008 72.5116 83.2088 72.7822C83.5261 73.0436 83.9508 73.1742 84.4828 73.1742C84.9774 73.1742 85.3414 73.0716 85.5748 72.8662C85.8081 72.6516 85.9248 72.3996 85.9248 72.1102C85.9248 71.6902 85.7708 71.4102 85.4628 71.2702C85.1641 71.1302 84.7394 71.0042 84.1888 70.8922C83.8154 70.8176 83.4421 70.7102 83.0688 70.5702C82.6954 70.4302 82.3828 70.2342 82.1308 69.9822C81.8788 69.7209 81.7528 69.3802 81.7528 68.9602C81.7528 68.3536 81.9768 67.8589 82.4248 67.4762C82.8821 67.0842 83.4981 66.8882 84.2728 66.8882C85.0101 66.8882 85.6121 67.0749 86.0788 67.4482C86.5548 67.8122 86.8301 68.3349 86.9048 69.0162H85.7428C85.6961 68.6616 85.5421 68.3862 85.2808 68.1902C85.0288 67.9849 84.6881 67.8822 84.2588 67.8822C83.8388 67.8822 83.5121 67.9709 83.2788 68.1482C83.0548 68.3256 82.9428 68.5589 82.9428 68.8482C82.9428 69.1282 83.0874 69.3476 83.3768 69.5062C83.6754 69.6649 84.0768 69.8002 84.5808 69.9122C85.0101 70.0056 85.4161 70.1222 85.7988 70.2622C86.1908 70.3929 86.5081 70.5936 86.7508 70.8642C87.0028 71.1256 87.1288 71.5082 87.1288 72.0122C87.1381 72.6376 86.9001 73.1556 86.4148 73.5662C85.9388 73.9676 85.2901 74.1682 84.4688 74.1682ZM91.2383 74.0002C90.6037 74.0002 90.1043 73.8462 89.7403 73.5382C89.3763 73.2302 89.1943 72.6749 89.1943 71.8722V68.0502H87.9903V67.0562H89.1943L89.3483 65.3902H90.3703V67.0562H92.4143V68.0502H90.3703V71.8722C90.3703 72.3109 90.459 72.6096 90.6363 72.7682C90.8137 72.9176 91.1263 72.9922 91.5743 72.9922H92.3023V74.0002H91.2383ZM28.2902 95.0002V88.0562H29.3542L29.4522 89.3862C29.6669 88.9289 29.9936 88.5649 30.4322 88.2942C30.8709 88.0236 31.4122 87.8882 32.0562 87.8882V89.1202H31.7342C31.3236 89.1202 30.9456 89.1949 30.6002 89.3442C30.2549 89.4842 29.9796 89.7269 29.7742 90.0722C29.5689 90.4176 29.4662 90.8936 29.4662 91.5002V95.0002H28.2902ZM36.2384 95.1682C35.5757 95.1682 34.9877 95.0189 34.4744 94.7202C33.9611 94.4122 33.5551 93.9876 33.2564 93.4462C32.9671 92.9049 32.8224 92.2656 32.8224 91.5282C32.8224 90.8002 32.9671 90.1656 33.2564 89.6242C33.5457 89.0736 33.9471 88.6489 34.4604 88.3502C34.9831 88.0422 35.5851 87.8882 36.2664 87.8882C36.9384 87.8882 37.5171 88.0422 38.0024 88.3502C38.4971 88.6489 38.8751 89.0456 39.1364 89.5402C39.3977 90.0349 39.5284 90.5669 39.5284 91.1362C39.5284 91.2389 39.5237 91.3416 39.5144 91.4442C39.5144 91.5469 39.5144 91.6636 39.5144 91.7942H33.9844C34.0124 92.3262 34.1337 92.7696 34.3484 93.1242C34.5724 93.4696 34.8477 93.7309 35.1744 93.9082C35.5104 94.0856 35.8651 94.1742 36.2384 94.1742C36.7237 94.1742 37.1297 94.0622 37.4564 93.8382C37.7831 93.6142 38.0211 93.3109 38.1704 92.9282H39.3324C39.1457 93.5722 38.7864 94.1089 38.2544 94.5382C37.7317 94.9582 37.0597 95.1682 36.2384 95.1682ZM36.2384 88.8822C35.6784 88.8822 35.1791 89.0549 34.7404 89.4002C34.3111 89.7362 34.0637 90.2309 33.9984 90.8842H38.3664C38.3384 90.2589 38.1237 89.7689 37.7224 89.4142C37.3211 89.0596 36.8264 88.8822 36.2384 88.8822ZM41.0871 98.0802V88.0562H42.1511L42.2631 89.2042C42.4871 88.8682 42.8044 88.5649 43.2151 88.2942C43.6351 88.0236 44.1671 87.8882 44.8111 87.8882C45.5018 87.8882 46.1038 88.0469 46.6171 88.3642C47.1304 88.6816 47.5271 89.1156 47.8071 89.6662C48.0964 90.2169 48.2411 90.8422 48.2411 91.5422C48.2411 92.2422 48.0964 92.8676 47.8071 93.4182C47.5271 93.9596 47.1258 94.3889 46.6031 94.7062C46.0898 95.0142 45.4878 95.1682 44.7971 95.1682C44.2278 95.1682 43.7191 95.0516 43.2711 94.8182C42.8324 94.5849 42.4964 94.2582 42.2631 93.8382V98.0802H41.0871ZM44.6711 94.1462C45.1378 94.1462 45.5484 94.0389 45.9031 93.8242C46.2578 93.6002 46.5378 93.2922 46.7431 92.9002C46.9484 92.5082 47.0511 92.0509 47.0511 91.5282C47.0511 91.0056 46.9484 90.5482 46.7431 90.1562C46.5378 89.7642 46.2578 89.4609 45.9031 89.2462C45.5484 89.0222 45.1378 88.9102 44.6711 88.9102C44.2044 88.9102 43.7938 89.0222 43.4391 89.2462C43.0844 89.4609 42.8044 89.7642 42.5991 90.1562C42.3938 90.5482 42.2911 91.0056 42.2911 91.5282C42.2911 92.0509 42.3938 92.5082 42.5991 92.9002C42.8044 93.2922 43.0844 93.6002 43.4391 93.8242C43.7938 94.0389 44.2044 94.1462 44.6711 94.1462ZM53.0421 95.1682C52.3888 95.1682 51.8008 95.0189 51.2781 94.7202C50.7554 94.4216 50.3401 94.0016 50.0321 93.4602C49.7334 92.9096 49.5841 92.2656 49.5841 91.5282C49.5841 90.7909 49.7381 90.1516 50.0461 89.6102C50.3541 89.0596 50.7694 88.6349 51.2921 88.3362C51.8241 88.0376 52.4168 87.8882 53.0701 87.8882C53.7234 87.8882 54.3114 88.0376 54.8341 88.3362C55.3568 88.6349 55.7674 89.0596 56.0661 89.6102C56.3741 90.1516 56.5281 90.7909 56.5281 91.5282C56.5281 92.2656 56.3741 92.9096 56.0661 93.4602C55.7581 94.0016 55.3381 94.4216 54.8061 94.7202C54.2834 95.0189 53.6954 95.1682 53.0421 95.1682ZM53.0421 94.1602C53.4434 94.1602 53.8168 94.0622 54.1621 93.8662C54.5074 93.6702 54.7874 93.3762 55.0021 92.9842C55.2168 92.5922 55.3241 92.1069 55.3241 91.5282C55.3241 90.9496 55.2168 90.4642 55.0021 90.0722C54.7968 89.6802 54.5214 89.3862 54.1761 89.1902C53.8308 88.9942 53.4621 88.8962 53.0701 88.8962C52.6688 88.8962 52.2954 88.9942 51.9501 89.1902C51.6048 89.3862 51.3248 89.6802 51.1101 90.0722C50.8954 90.4642 50.7881 90.9496 50.7881 91.5282C50.7881 92.1069 50.8954 92.5922 51.1101 92.9842C51.3248 93.3762 51.6001 93.6702 51.9361 93.8662C52.2814 94.0622 52.6501 94.1602 53.0421 94.1602ZM58.1633 95.0002V88.0562H59.2273L59.3253 89.3862C59.5399 88.9289 59.8666 88.5649 60.3053 88.2942C60.7439 88.0236 61.2853 87.8882 61.9293 87.8882V89.1202H61.6073C61.1966 89.1202 60.8186 89.1949 60.4733 89.3442C60.1279 89.4842 59.8526 89.7269 59.6473 90.0722C59.4419 90.4176 59.3393 90.8936 59.3393 91.5002V95.0002H58.1633ZM65.9932 95.0002C65.3585 95.0002 64.8592 94.8462 64.4952 94.5382C64.1312 94.2302 63.9492 93.6749 63.9492 92.8722V89.0502H62.7452V88.0562H63.9492L64.1032 86.3902H65.1252V88.0562H67.1692V89.0502H65.1252V92.8722C65.1252 93.3109 65.2139 93.6096 65.3912 93.7682C65.5685 93.9176 65.8812 93.9922 66.3292 93.9922H67.0572V95.0002H65.9932ZM69.0693 95.0702C68.8359 95.0702 68.6399 94.9956 68.4813 94.8462C68.3319 94.6876 68.2573 94.4962 68.2573 94.2722C68.2573 94.0482 68.3319 93.8616 68.4813 93.7122C68.6399 93.5536 68.8359 93.4742 69.0693 93.4742C69.2933 93.4742 69.4799 93.5536 69.6293 93.7122C69.7879 93.8616 69.8673 94.0482 69.8673 94.2722C69.8673 94.4962 69.7879 94.6876 69.6293 94.8462C69.4799 94.9956 69.2933 95.0702 69.0693 95.0702ZM71.3976 98.0802V88.0562H72.4616L72.5736 89.2042C72.7976 88.8682 73.115 88.5649 73.5256 88.2942C73.9456 88.0236 74.4776 87.8882 75.1216 87.8882C75.8123 87.8882 76.4143 88.0469 76.9276 88.3642C77.441 88.6816 77.8376 89.1156 78.1176 89.6662C78.407 90.2169 78.5516 90.8422 78.5516 91.5422C78.5516 92.2422 78.407 92.8676 78.1176 93.4182C77.8376 93.9596 77.4363 94.3889 76.9136 94.7062C76.4003 95.0142 75.7983 95.1682 75.1076 95.1682C74.5383 95.1682 74.0296 95.0516 73.5816 94.8182C73.143 94.5849 72.807 94.2582 72.5736 93.8382V98.0802H71.3976ZM74.9816 94.1462C75.4483 94.1462 75.859 94.0389 76.2136 93.8242C76.5683 93.6002 76.8483 93.2922 77.0536 92.9002C77.259 92.5082 77.3616 92.0509 77.3616 91.5282C77.3616 91.0056 77.259 90.5482 77.0536 90.1562C76.8483 89.7642 76.5683 89.4609 76.2136 89.2462C75.859 89.0222 75.4483 88.9102 74.9816 88.9102C74.515 88.9102 74.1043 89.0222 73.7496 89.2462C73.395 89.4609 73.115 89.7642 72.9096 90.1562C72.7043 90.5482 72.6016 91.0056 72.6016 91.5282C72.6016 92.0509 72.7043 92.5082 72.9096 92.9002C73.115 93.2922 73.395 93.6002 73.7496 93.8242C74.1043 94.0389 74.515 94.1462 74.9816 94.1462ZM83.3387 95.1682C82.648 95.1682 82.0413 95.0096 81.5187 94.6922C81.0053 94.3749 80.604 93.9409 80.3147 93.3902C80.0347 92.8396 79.8947 92.2142 79.8947 91.5142C79.8947 90.8142 80.0393 90.1936 80.3287 89.6522C80.618 89.1016 81.0193 88.6722 81.5327 88.3642C82.046 88.0469 82.6527 87.8882 83.3527 87.8882C83.922 87.8882 84.426 88.0049 84.8647 88.2382C85.3033 88.4716 85.644 88.7982 85.8867 89.2182V84.9202H87.0627V95.0002H85.9987L85.8867 93.8522C85.6627 94.1882 85.3407 94.4916 84.9207 94.7622C84.5007 95.0329 83.9733 95.1682 83.3387 95.1682ZM83.4647 94.1462C83.9313 94.1462 84.342 94.0389 84.6967 93.8242C85.0607 93.6002 85.3407 93.2922 85.5367 92.9002C85.742 92.5082 85.8447 92.0509 85.8447 91.5282C85.8447 91.0056 85.742 90.5482 85.5367 90.1562C85.3407 89.7642 85.0607 89.4609 84.6967 89.2462C84.342 89.0222 83.9313 88.9102 83.4647 88.9102C83.0073 88.9102 82.5967 89.0222 82.2327 89.2462C81.878 89.4609 81.598 89.7642 81.3927 90.1562C81.1967 90.5482 81.0987 91.0056 81.0987 91.5282C81.0987 92.0509 81.1967 92.5082 81.3927 92.9002C81.598 93.2922 81.878 93.6002 82.2327 93.8242C82.5967 94.0389 83.0073 94.1462 83.4647 94.1462ZM89.3577 95.0002V89.0502H88.3077V88.0562H89.3577V86.8522C89.3577 86.1802 89.5257 85.6902 89.8617 85.3822C90.1977 85.0742 90.6877 84.9202 91.3317 84.9202H92.0317V85.9282H91.5137C91.159 85.9282 90.907 86.0029 90.7577 86.1522C90.6083 86.2922 90.5337 86.5349 90.5337 86.8802V88.0562H92.2417V89.0502H90.5337V95.0002H89.3577Z" fill="#1B163A"/>
<rect x="0.5" y="0.500244" width="119" height="119" rx="7.5" stroke="#2E1E91"/>
</svg>
