<svg width="22" height="22" viewBox="0 0 22 22" fill="none" xmlns="http://www.w3.org/2000/svg">
<path d="M16.2708 18.5625H5.72917C4.46371 18.5625 3.4375 17.5363 3.4375 16.2708V5.72917C3.4375 4.46371 4.46371 3.4375 5.72917 3.4375H16.2708C17.5363 3.4375 18.5625 4.46371 18.5625 5.72917V16.2708C18.5625 17.5363 17.5363 18.5625 16.2708 18.5625Z" stroke="#7F7B92" stroke-width="1.5" stroke-miterlimit="10"/>
<path d="M3.4375 7.10413H18.5625" stroke="#7F7B92" stroke-width="1.5" stroke-miterlimit="10"/>
<path d="M7.10482 11.9167C7.73764 11.9167 8.25065 11.4037 8.25065 10.7708C8.25065 10.138 7.73764 9.625 7.10482 9.625C6.47199 9.625 5.95898 10.138 5.95898 10.7708C5.95898 11.4037 6.47199 11.9167 7.10482 11.9167Z" fill="#7F7B92"/>
<path d="M10.9993 11.9167C11.6322 11.9167 12.1452 11.4037 12.1452 10.7708C12.1452 10.138 11.6322 9.625 10.9993 9.625C10.3665 9.625 9.85352 10.138 9.85352 10.7708C9.85352 11.4037 10.3665 11.9167 10.9993 11.9167Z" fill="#7F7B92"/>
<path d="M7.10482 16.0417C7.73764 16.0417 8.25065 15.5287 8.25065 14.8958C8.25065 14.263 7.73764 13.75 7.10482 13.75C6.47199 13.75 5.95898 14.263 5.95898 14.8958C5.95898 15.5287 6.47199 16.0417 7.10482 16.0417Z" fill="#7F7B92"/>
<path d="M10.9993 16.0417C11.6322 16.0417 12.1452 15.5287 12.1452 14.8958C12.1452 14.263 11.6322 13.75 10.9993 13.75C10.3665 13.75 9.85352 14.263 9.85352 14.8958C9.85352 15.5287 10.3665 16.0417 10.9993 16.0417Z" fill="#7F7B92"/>
<path d="M14.8958 11.9167C15.5287 11.9167 16.0417 11.4037 16.0417 10.7708C16.0417 10.138 15.5287 9.625 14.8958 9.625C14.263 9.625 13.75 10.138 13.75 10.7708C13.75 11.4037 14.263 11.9167 14.8958 11.9167Z" fill="#7F7B92"/>
</svg>
