<svg width="48" height="48" viewBox="0 0 48 48" fill="none" xmlns="http://www.w3.org/2000/svg">
<rect width="48" height="48" rx="24" fill="#2E1E91"/>
<path d="M29.75 32.25H18.25C16.8695 32.25 15.75 31.1305 15.75 29.75V18.25C15.75 16.8695 16.8695 15.75 18.25 15.75H29.75C31.1305 15.75 32.25 16.8695 32.25 18.25V29.75C32.25 31.1305 31.1305 32.25 29.75 32.25Z" stroke="white" stroke-width="2" stroke-miterlimit="10"/>
<path d="M15.75 19.75H32.25" stroke="white" stroke-width="2" stroke-miterlimit="10"/>
<path d="M19.75 25C20.4404 25 21 24.4404 21 23.75C21 23.0596 20.4404 22.5 19.75 22.5C19.0596 22.5 18.5 23.0596 18.5 23.75C18.5 24.4404 19.0596 25 19.75 25Z" fill="white"/>
<path d="M24 25C24.6904 25 25.25 24.4404 25.25 23.75C25.25 23.0596 24.6904 22.5 24 22.5C23.3096 22.5 22.75 23.0596 22.75 23.75C22.75 24.4404 23.3096 25 24 25Z" fill="white"/>
<path d="M19.75 29.5C20.4404 29.5 21 28.9404 21 28.25C21 27.5596 20.4404 27 19.75 27C19.0596 27 18.5 27.5596 18.5 28.25C18.5 28.9404 19.0596 29.5 19.75 29.5Z" fill="white"/>
<path d="M24 29.5C24.6904 29.5 25.25 28.9404 25.25 28.25C25.25 27.5596 24.6904 27 24 27C23.3096 27 22.75 27.5596 22.75 28.25C22.75 28.9404 23.3096 29.5 24 29.5Z" fill="white"/>
<path d="M28.25 25C28.9404 25 29.5 24.4404 29.5 23.75C29.5 23.0596 28.9404 22.5 28.25 22.5C27.5596 22.5 27 23.0596 27 23.75C27 24.4404 27.5596 25 28.25 25Z" fill="white"/>
</svg>
