<svg width="40" height="40" viewBox="0 0 40 40" fill="none" xmlns="http://www.w3.org/2000/svg">
<rect width="40" height="40" rx="20" fill="#FFE8E8"/>
<path d="M25.2708 27.5625H14.7292C13.4637 27.5625 12.4375 26.5363 12.4375 25.2708V14.7292C12.4375 13.4637 13.4637 12.4375 14.7292 12.4375H25.2708C26.5363 12.4375 27.5625 13.4637 27.5625 14.7292V25.2708C27.5625 26.5363 26.5363 27.5625 25.2708 27.5625Z" stroke="#EA315B" stroke-width="2" stroke-miterlimit="10"/>
<path d="M12.4375 16.1042H27.5625" stroke="#EA315B" stroke-width="2" stroke-miterlimit="10"/>
<path d="M16.1048 20.9167C16.7376 20.9167 17.2507 20.4037 17.2507 19.7708C17.2507 19.138 16.7376 18.625 16.1048 18.625C15.472 18.625 14.959 19.138 14.959 19.7708C14.959 20.4037 15.472 20.9167 16.1048 20.9167Z" fill="#EA315B"/>
<path d="M19.9993 20.9167C20.6322 20.9167 21.1452 20.4037 21.1452 19.7708C21.1452 19.138 20.6322 18.625 19.9993 18.625C19.3665 18.625 18.8535 19.138 18.8535 19.7708C18.8535 20.4037 19.3665 20.9167 19.9993 20.9167Z" fill="#EA315B"/>
<path d="M16.1048 25.0417C16.7376 25.0417 17.2507 24.5287 17.2507 23.8958C17.2507 23.263 16.7376 22.75 16.1048 22.75C15.472 22.75 14.959 23.263 14.959 23.8958C14.959 24.5287 15.472 25.0417 16.1048 25.0417Z" fill="#EA315B"/>
<path d="M19.9993 25.0417C20.6322 25.0417 21.1452 24.5287 21.1452 23.8958C21.1452 23.263 20.6322 22.75 19.9993 22.75C19.3665 22.75 18.8535 23.263 18.8535 23.8958C18.8535 24.5287 19.3665 25.0417 19.9993 25.0417Z" fill="#EA315B"/>
<path d="M23.8958 20.9167C24.5287 20.9167 25.0417 20.4037 25.0417 19.7708C25.0417 19.138 24.5287 18.625 23.8958 18.625C23.263 18.625 22.75 19.138 22.75 19.7708C22.75 20.4037 23.263 20.9167 23.8958 20.9167Z" fill="#EA315B"/>
</svg>
