<svg width="24" height="24" viewBox="0 0 24 24" fill="none" xmlns="http://www.w3.org/2000/svg">
<g clip-path="url(#clip0_5367_34265)">
<path d="M21.4724 13.7769C21.719 12.7518 21.4152 11.6619 20.6797 10.9319C18.8243 9.09159 15.7379 8.17629 11.5062 8.21283C7.28034 8.24927 4.1801 9.21504 2.29252 11.0824C1.53853 11.8284 1.21547 12.9299 1.45048 13.9559L1.72404 15.1531C1.94724 16.1295 2.86344 16.7826 3.85591 16.6726L6.03599 16.4295C6.88755 16.3346 7.59376 15.7054 7.79293 14.8614L8.28411 12.7877C8.41569 12.2488 8.99595 12.0497 9.21465 11.9739C9.74442 11.7914 10.506 11.6953 11.4776 11.6864C13.5624 11.6684 14.1081 12.0723 14.2874 12.2047C14.4791 12.3466 14.6134 12.554 14.6649 12.7899L15.1073 14.7976C15.2925 15.6377 15.9884 16.2554 16.8385 16.3351L19.0252 16.5405C20.0191 16.634 20.9476 15.9599 21.1842 14.9771L21.4724 13.7769Z" stroke="white" stroke-width="2" stroke-miterlimit="10"/>
</g>
<defs>
<clipPath id="clip0_5367_34265">
<rect width="24" height="24" fill="white"/>
</clipPath>
</defs>
</svg>
