<svg width="12" height="12" viewBox="0 0 12 12" fill="none" xmlns="http://www.w3.org/2000/svg">
<path d="M11.5 9.5C11.5 9.76522 11.3946 10.0196 11.2071 10.2071C11.0196 10.3946 10.7652 10.5 10.5 10.5H1.5C1.23478 10.5 0.98043 10.3946 0.792893 10.2071C0.605357 10.0196 0.5 9.76522 0.5 9.5V4C0.5 3.73478 0.605357 3.48043 0.792893 3.29289C0.98043 3.10536 1.23478 3 1.5 3H3.5L4.5 1.5H7.5L8.5 3H10.5C10.7652 3 11.0196 3.10536 11.2071 3.29289C11.3946 3.48043 11.5 3.73478 11.5 4V9.5Z" stroke="#2E1E91" stroke-linecap="round" stroke-linejoin="round"/>
<path d="M6 8.5C7.10457 8.5 8 7.60457 8 6.5C8 5.39543 7.10457 4.5 6 4.5C4.89543 4.5 4 5.39543 4 6.5C4 7.60457 4.89543 8.5 6 8.5Z" stroke="#2E1E91" stroke-linecap="round" stroke-linejoin="round"/>
</svg>
