<svg width="81" height="80" viewBox="0 0 81 80" fill="none" xmlns="http://www.w3.org/2000/svg">
<circle cx="40.5" cy="40" r="40" fill="#FFE8E8"/>
<path d="M38.1493 26.4337L24.0326 50.0003C23.7416 50.5044 23.5876 51.0758 23.586 51.6579C23.5843 52.2399 23.7351 52.8122 24.0233 53.3179C24.3116 53.8235 24.7272 54.2449 25.2288 54.5401C25.7305 54.8353 26.3006 54.9939 26.8826 55.0003H55.116C55.698 54.9939 56.2682 54.8353 56.7698 54.5401C57.2714 54.2449 57.687 53.8235 57.9753 53.3179C58.2635 52.8122 58.4143 52.2399 58.4127 51.6579C58.411 51.0758 58.257 50.5044 57.966 50.0003L43.8493 26.4337C43.5522 25.9439 43.1338 25.5389 42.6346 25.2578C42.1354 24.9768 41.5722 24.8291 40.9993 24.8291C40.4264 24.8291 39.8632 24.9768 39.364 25.2578C38.8648 25.5389 38.4464 25.9439 38.1493 26.4337V26.4337Z" stroke="#FF475D" stroke-width="3" stroke-linecap="round" stroke-linejoin="round"/>
<path d="M41 35V41.6667" stroke="#FF475D" stroke-width="3" stroke-linecap="round" stroke-linejoin="round"/>
<path d="M41 48.333H41.0167" stroke="#FF475D" stroke-width="3" stroke-linecap="round" stroke-linejoin="round"/>
</svg>
