<svg width="44" height="44" viewBox="0 0 44 44" fill="none" xmlns="http://www.w3.org/2000/svg">
<rect width="44" height="44" rx="22" fill="#2E1E91"/>
<path d="M31.2734 21.2273C31.2769 22.5472 30.9685 23.8492 30.3734 25.0273C29.6679 26.4391 28.5832 27.6265 27.2409 28.4566C25.8986 29.2867 24.3517 29.7267 22.7734 29.7273C21.4536 29.7308 20.1516 29.4224 18.9734 28.8273L13.2734 30.7273L15.1734 25.0273C14.5784 23.8492 14.27 22.5472 14.2734 21.2273C14.274 19.6491 14.714 18.1022 15.5442 16.7599C16.3743 15.4176 17.5617 14.3329 18.9734 13.6273C20.1516 13.0323 21.4536 12.7239 22.7734 12.7273H23.2734C25.3578 12.8423 27.3265 13.7221 28.8026 15.1982C30.2787 16.6743 31.1584 18.643 31.2734 20.7273V21.2273Z" stroke="white" stroke-width="2" stroke-linecap="round" stroke-linejoin="round"/>
</svg>
