<svg width="48" height="48" viewBox="0 0 48 48" fill="none" xmlns="http://www.w3.org/2000/svg">
<circle cx="24" cy="24.0002" r="24" fill="#0FD197"/>
<path d="M27.793 15.5419H30.7096C31.6762 15.5419 32.4596 16.3253 32.4596 17.2919V33.0419C32.4596 34.0085 31.6762 34.7919 30.7096 34.7919H17.293C16.3264 34.7919 15.543 34.0085 15.543 33.0419V17.2919C15.543 16.3253 16.3264 15.5419 17.293 15.5419H20.2096" stroke="white" stroke-width="2" stroke-miterlimit="10" stroke-linecap="round" stroke-linejoin="round"/>
<path d="M26.0404 13.2086C25.59 13.2086 22.2773 13.2086 21.957 13.2086C20.9904 13.2086 20.207 13.992 20.207 14.9586C20.207 15.9252 20.9904 16.7086 21.957 16.7086C22.2773 16.7086 25.59 16.7086 26.0404 16.7086C27.0069 16.7086 27.7904 15.9252 27.7904 14.9586C27.7904 13.992 27.0069 13.2086 26.0404 13.2086Z" stroke="white" stroke-width="2" stroke-miterlimit="10" stroke-linecap="round" stroke-linejoin="round"/>
<path d="M19.043 23.1252H22.543" stroke="white" stroke-width="2" stroke-miterlimit="10" stroke-linecap="round"/>
<path d="M19.043 28.3752H22.543" stroke="white" stroke-width="2" stroke-miterlimit="10" stroke-linecap="round"/>
<path d="M25.457 23.1253L26.6237 24.292L28.957 21.9586" stroke="white" stroke-width="2" stroke-miterlimit="10" stroke-linecap="round" stroke-linejoin="round"/>
<path d="M26.043 30.1253L28.9596 27.2086" stroke="white" stroke-width="2" stroke-miterlimit="10" stroke-linecap="round" stroke-linejoin="round"/>
<path d="M28.9596 30.1253L26.043 27.2086" stroke="white" stroke-width="2" stroke-miterlimit="10" stroke-linecap="round" stroke-linejoin="round"/>
</svg>
