<svg width="48" height="48" viewBox="0 0 48 48" fill="none" xmlns="http://www.w3.org/2000/svg">
<rect width="48" height="48" rx="24" fill="#EFE8FF"/>
<path d="M31.9668 20.9793V24.0105C31.9668 24.5895 32.3426 25.0888 32.7046 25.5406C32.9808 25.8854 33.1467 26.3205 33.1467 26.7995C33.1467 27.9398 32.2223 28.8642 31.082 28.8642V28.8642C31.0609 28.8642 31.0429 28.8756 31.0385 28.8962C30.0984 33.3223 27.3042 36.533 24.003 36.533C20.7019 36.533 17.9077 33.3223 16.9676 28.8962C16.9632 28.8756 16.9452 28.8642 16.9241 28.8642V28.8642C15.7838 28.8642 14.8594 27.9398 14.8594 26.7995C14.8594 26.3189 15.025 25.8803 15.3017 25.5329C15.6627 25.0797 16.0392 24.5795 16.0392 24V22.0802C16.1173 20.8509 16.6941 18.2152 18.3512 16.6124C18.7022 16.2728 18.9503 15.8248 18.9503 15.3364V13.0228C18.9503 12.1944 19.6219 11.5228 20.4503 11.5228H27.5018C28.3302 11.5228 29.0018 12.1944 29.0018 13.0228V15.307C29.0018 15.8117 29.2574 16.2798 29.6657 16.5765C30.747 17.3623 32.1912 18.5753 32.4135 19.396C32.7406 20.6038 31.0508 23.2357 22.3818 20.212C21.7083 19.9771 20.9438 20.223 20.4495 20.7373C20.1592 21.0393 19.8 21.3706 19.3813 21.6845M23.9908 17.9553V14.1563M21.9775 16.1155H26.0887" stroke="#2E1E91" stroke-width="1.5" stroke-miterlimit="5" stroke-linecap="round" stroke-linejoin="round"/>
<path d="M21.1254 27.1089C21.7599 27.1089 22.2742 26.5946 22.2742 25.9601C22.2742 25.3256 21.7599 24.8113 21.1254 24.8113C20.4909 24.8113 19.9766 25.3256 19.9766 25.9601C19.9766 26.5946 20.4909 27.1089 21.1254 27.1089Z" fill="#2E1E91"/>
<path d="M26.8754 27.1089C27.5099 27.1089 28.0242 26.5946 28.0242 25.9601C28.0242 25.3256 27.5099 24.8113 26.8754 24.8113C26.2409 24.8113 25.7266 25.3256 25.7266 25.9601C25.7266 26.5946 26.2409 27.1089 26.8754 27.1089Z" fill="#2E1E91"/>
</svg>
