<svg width="20" height="20" viewBox="0 0 20 20" fill="none" xmlns="http://www.w3.org/2000/svg">
<path d="M10 17.71C13.797 17.71 16.875 14.6319 16.875 10.835C16.875 7.038 13.797 3.95996 10 3.95996C6.20304 3.95996 3.125 7.038 3.125 10.835C3.125 14.6319 6.20304 17.71 10 17.71Z" stroke="#0FD197" stroke-width="1.5" stroke-miterlimit="10"/>
<path d="M10 12.085C10.6904 12.085 11.25 11.5253 11.25 10.835C11.25 10.1446 10.6904 9.58496 10 9.58496C9.30964 9.58496 8.75 10.1446 8.75 10.835C8.75 11.5253 9.30964 12.085 10 12.085Z" fill="#0FD197"/>
<path d="M10.001 6.24898V10.0791" stroke="#0FD197" stroke-width="1.5" stroke-miterlimit="10" stroke-linecap="round" stroke-linejoin="round"/>
<path d="M10 3.95671V2.29004" stroke="#0FD197" stroke-width="1.5" stroke-miterlimit="10" stroke-linecap="round"/>
<path d="M14.8594 5.97367L16.0381 4.79492" stroke="#0FD197" stroke-width="1.5" stroke-miterlimit="10" stroke-linecap="round"/>
<path d="M4.78906 5.97367L3.61031 4.79492" stroke="#0FD197" stroke-width="1.5" stroke-miterlimit="10" stroke-linecap="round"/>
<path d="M8.95703 1.875H11.0404" stroke="#0FD197" stroke-width="1.5" stroke-miterlimit="10" stroke-linecap="round"/>
</svg>
