<svg width="71" height="27" viewBox="0 0 71 27" fill="none" xmlns="http://www.w3.org/2000/svg">
<path d="M6.93515 20.216C5.69915 20.216 4.63115 19.946 3.73115 19.406C2.84315 18.854 2.15315 18.092 1.66115 17.12C1.16915 16.136 0.923148 14.996 0.923148 13.7C0.923148 12.416 1.16915 11.288 1.66115 10.316C2.15315 9.332 2.84315 8.564 3.73115 8.012C4.63115 7.46 5.69915 7.184 6.93515 7.184C8.37515 7.184 9.54515 7.532 10.4451 8.228C11.3571 8.912 11.9391 9.872 12.1911 11.108H10.5171C10.3251 10.328 9.92915 9.704 9.32915 9.236C8.74115 8.756 7.94315 8.516 6.93515 8.516C6.03515 8.516 5.24915 8.726 4.57715 9.146C3.90515 9.554 3.38315 10.148 3.01115 10.928C2.65115 11.696 2.47115 12.62 2.47115 13.7C2.47115 14.78 2.65115 15.71 3.01115 16.49C3.38315 17.258 3.90515 17.852 4.57715 18.272C5.24915 18.68 6.03515 18.884 6.93515 18.884C7.94315 18.884 8.74115 18.656 9.32915 18.2C9.92915 17.732 10.3251 17.114 10.5171 16.346H12.1911C11.9391 17.558 11.3571 18.506 10.4451 19.19C9.54515 19.874 8.37515 20.216 6.93515 20.216ZM14.2742 20V7.04H15.7862V20H14.2742ZM22.3325 20.216C21.4925 20.216 20.7365 20.024 20.0645 19.64C19.3925 19.256 18.8585 18.716 18.4625 18.02C18.0785 17.312 17.8865 16.484 17.8865 15.536C17.8865 14.588 18.0845 13.766 18.4805 13.07C18.8765 12.362 19.4105 11.816 20.0825 11.432C20.7665 11.048 21.5285 10.856 22.3685 10.856C23.2085 10.856 23.9645 11.048 24.6365 11.432C25.3085 11.816 25.8365 12.362 26.2205 13.07C26.6165 13.766 26.8145 14.588 26.8145 15.536C26.8145 16.484 26.6165 17.312 26.2205 18.02C25.8245 18.716 25.2845 19.256 24.6005 19.64C23.9285 20.024 23.1725 20.216 22.3325 20.216ZM22.3325 18.92C22.8485 18.92 23.3285 18.794 23.7725 18.542C24.2165 18.29 24.5765 17.912 24.8525 17.408C25.1285 16.904 25.2665 16.28 25.2665 15.536C25.2665 14.792 25.1285 14.168 24.8525 13.664C24.5885 13.16 24.2345 12.782 23.7905 12.53C23.3465 12.278 22.8725 12.152 22.3685 12.152C21.8525 12.152 21.3725 12.278 20.9285 12.53C20.4845 12.782 20.1245 13.16 19.8485 13.664C19.5725 14.168 19.4345 14.792 19.4345 15.536C19.4345 16.28 19.5725 16.904 19.8485 17.408C20.1245 17.912 20.4785 18.29 20.9105 18.542C21.3545 18.794 21.8285 18.92 22.3325 18.92ZM32.3368 20.216C31.2688 20.216 30.3808 19.946 29.6728 19.406C28.9648 18.866 28.5508 18.134 28.4308 17.21H29.9788C30.0748 17.678 30.3208 18.086 30.7168 18.434C31.1248 18.77 31.6708 18.938 32.3548 18.938C32.9908 18.938 33.4588 18.806 33.7588 18.542C34.0588 18.266 34.2088 17.942 34.2088 17.57C34.2088 17.03 34.0108 16.67 33.6148 16.49C33.2308 16.31 32.6848 16.148 31.9768 16.004C31.4968 15.908 31.0168 15.77 30.5368 15.59C30.0568 15.41 29.6548 15.158 29.3308 14.834C29.0068 14.498 28.8448 14.06 28.8448 13.52C28.8448 12.74 29.1328 12.104 29.7088 11.612C30.2968 11.108 31.0888 10.856 32.0848 10.856C33.0328 10.856 33.8068 11.096 34.4068 11.576C35.0188 12.044 35.3728 12.716 35.4688 13.592H33.9748C33.9148 13.136 33.7168 12.782 33.3808 12.53C33.0568 12.266 32.6188 12.134 32.0668 12.134C31.5268 12.134 31.1068 12.248 30.8068 12.476C30.5188 12.704 30.3748 13.004 30.3748 13.376C30.3748 13.736 30.5608 14.018 30.9328 14.222C31.3168 14.426 31.8328 14.6 32.4808 14.744C33.0328 14.864 33.5548 15.014 34.0468 15.194C34.5508 15.362 34.9588 15.62 35.2708 15.968C35.5948 16.304 35.7568 16.796 35.7568 17.444C35.7688 18.248 35.4628 18.914 34.8388 19.442C34.2268 19.958 33.3928 20.216 32.3368 20.216ZM41.9308 20.216C41.0788 20.216 40.3228 20.024 39.6628 19.64C39.0028 19.244 38.4808 18.698 38.0968 18.002C37.7248 17.306 37.5388 16.484 37.5388 15.536C37.5388 14.6 37.7248 13.784 38.0968 13.088C38.4688 12.38 38.9848 11.834 39.6448 11.45C40.3168 11.054 41.0908 10.856 41.9668 10.856C42.8308 10.856 43.5748 11.054 44.1988 11.45C44.8348 11.834 45.3208 12.344 45.6568 12.98C45.9928 13.616 46.1608 14.3 46.1608 15.032C46.1608 15.164 46.1548 15.296 46.1428 15.428C46.1428 15.56 46.1428 15.71 46.1428 15.878H39.0328C39.0688 16.562 39.2248 17.132 39.5008 17.588C39.7888 18.032 40.1428 18.368 40.5628 18.596C40.9948 18.824 41.4508 18.938 41.9308 18.938C42.5548 18.938 43.0768 18.794 43.4968 18.506C43.9168 18.218 44.2228 17.828 44.4148 17.336H45.9088C45.6688 18.164 45.2068 18.854 44.5228 19.406C43.8508 19.946 42.9868 20.216 41.9308 20.216ZM41.9308 12.134C41.2108 12.134 40.5688 12.356 40.0048 12.8C39.4528 13.232 39.1348 13.868 39.0508 14.708H44.6668C44.6308 13.904 44.3548 13.274 43.8388 12.818C43.3228 12.362 42.6868 12.134 41.9308 12.134Z" fill="#7F7B92"/>
<path d="M65.5 8L54.5 19" stroke="#7F7B92" stroke-width="1.5" stroke-linecap="round" stroke-linejoin="round"/>
<path d="M54.5 8L65.5 19" stroke="#7F7B92" stroke-width="1.5" stroke-linecap="round" stroke-linejoin="round"/>
</svg>
