<svg width="45" height="44" viewBox="0 0 45 44" fill="none" xmlns="http://www.w3.org/2000/svg">
<rect x="0.5" width="44" height="44" rx="22" fill="#0FD197"/>
<path d="M21.7012 20.688C24.0484 20.688 25.9512 18.7852 25.9512 16.438C25.9512 14.0908 24.0484 12.188 21.7012 12.188C19.354 12.188 17.4512 14.0908 17.4512 16.438C17.4512 18.7852 19.354 20.688 21.7012 20.688Z" stroke="white" stroke-width="2" stroke-miterlimit="5"/>
<path d="M26 24.188H15.6907C15.0062 24.188 14.4512 24.743 14.4512 25.4275V26.188C14.4512 28.4554 16.522 29.866 19.0985 30.4197C19.5412 30.5148 19.9988 30.5847 20.4635 30.6292" stroke="white" stroke-width="2" stroke-miterlimit="10" stroke-linecap="round"/>
<path d="M23 28.3077L25.8125 31L32 24" stroke="white" stroke-width="2" stroke-linecap="round" stroke-linejoin="round"/>
</svg>
