<svg width="48" height="48" viewBox="0 0 48 48" fill="none" xmlns="http://www.w3.org/2000/svg">
<circle cx="24" cy="24" r="24" fill="#2E1E91"/>
<path d="M30.7057 13.2083H17.2891C16.3225 13.2083 15.5391 13.9917 15.5391 14.9583V33.0416C15.5391 34.0082 16.3225 34.7916 17.2891 34.7916H30.7057C31.6723 34.7916 32.4557 34.0082 32.4557 33.0416V14.9583C32.4557 13.9917 31.6723 13.2083 30.7057 13.2083Z" stroke="white" stroke-width="2" stroke-miterlimit="10" stroke-linejoin="round"/>
<path d="M19.0391 26.0417H21.9557" stroke="white" stroke-width="2" stroke-miterlimit="10" stroke-linecap="round"/>
<path d="M19.0391 21.9583H21.9557" stroke="white" stroke-width="2" stroke-miterlimit="10" stroke-linecap="round"/>
<path d="M19.0391 17.875H21.9557" stroke="white" stroke-width="2" stroke-miterlimit="10" stroke-linecap="round"/>
<path d="M19.0391 30.125H21.9557" stroke="white" stroke-width="2" stroke-miterlimit="10" stroke-linecap="round"/>
<path d="M25.4609 17.875V30.125" stroke="white" stroke-width="2" stroke-miterlimit="10" stroke-linecap="round"/>
<path d="M28.9609 18.75C29.4442 18.75 29.8359 18.3582 29.8359 17.875C29.8359 17.3918 29.4442 17 28.9609 17C28.4777 17 28.0859 17.3918 28.0859 17.875C28.0859 18.3582 28.4777 18.75 28.9609 18.75Z" fill="white"/>
<path d="M28.9609 22.8333C29.4442 22.8333 29.8359 22.4415 29.8359 21.9583C29.8359 21.475 29.4442 21.0833 28.9609 21.0833C28.4777 21.0833 28.0859 21.475 28.0859 21.9583C28.0859 22.4415 28.4777 22.8333 28.9609 22.8333Z" fill="white"/>
<path d="M28.9609 26.9167C29.4442 26.9167 29.8359 26.525 29.8359 26.0417C29.8359 25.5585 29.4442 25.1667 28.9609 25.1667C28.4777 25.1667 28.0859 25.5585 28.0859 26.0417C28.0859 26.525 28.4777 26.9167 28.9609 26.9167Z" fill="white"/>
<path d="M28.9609 31C29.4442 31 29.8359 30.6082 29.8359 30.125C29.8359 29.6418 29.4442 29.25 28.9609 29.25C28.4777 29.25 28.0859 29.6418 28.0859 30.125C28.0859 30.6082 28.4777 31 28.9609 31Z" fill="white"/>
</svg>
