<svg width="48" height="48" viewBox="0 0 48 48" fill="none" xmlns="http://www.w3.org/2000/svg">
<circle cx="24" cy="24" r="24" fill="#0FD197"/>
<path d="M30.7096 13.2084H17.293C16.3264 13.2084 15.543 13.9918 15.543 14.9584V33.0417C15.543 34.0083 16.3264 34.7917 17.293 34.7917H30.7096C31.6762 34.7917 32.4596 34.0083 32.4596 33.0417V14.9584C32.4596 13.9918 31.6762 13.2084 30.7096 13.2084Z" stroke="white" stroke-width="2" stroke-miterlimit="10" stroke-linejoin="round"/>
<path d="M19.043 26.0416H21.9596" stroke="white" stroke-width="2" stroke-miterlimit="10" stroke-linecap="round"/>
<path d="M19.043 21.9584H21.9596" stroke="white" stroke-width="2" stroke-miterlimit="10" stroke-linecap="round"/>
<path d="M19.043 17.875H21.9596" stroke="white" stroke-width="2" stroke-miterlimit="10" stroke-linecap="round"/>
<path d="M19.043 30.125H21.9596" stroke="white" stroke-width="2" stroke-miterlimit="10" stroke-linecap="round"/>
<path d="M25.457 17.875V30.125" stroke="white" stroke-width="2" stroke-miterlimit="10" stroke-linecap="round"/>
<path d="M28.957 18.75C29.4403 18.75 29.832 18.3582 29.832 17.875C29.832 17.3918 29.4403 17 28.957 17C28.4738 17 28.082 17.3918 28.082 17.875C28.082 18.3582 28.4738 18.75 28.957 18.75Z" fill="white"/>
<path d="M28.957 22.8334C29.4403 22.8334 29.832 22.4416 29.832 21.9584C29.832 21.4751 29.4403 21.0834 28.957 21.0834C28.4738 21.0834 28.082 21.4751 28.082 21.9584C28.082 22.4416 28.4738 22.8334 28.957 22.8334Z" fill="white"/>
<path d="M28.957 26.9166C29.4403 26.9166 29.832 26.5249 29.832 26.0416C29.832 25.5584 29.4403 25.1666 28.957 25.1666C28.4738 25.1666 28.082 25.5584 28.082 26.0416C28.082 26.5249 28.4738 26.9166 28.957 26.9166Z" fill="white"/>
<path d="M28.957 31C29.4403 31 29.832 30.6082 29.832 30.125C29.832 29.6418 29.4403 29.25 28.957 29.25C28.4738 29.25 28.082 29.6418 28.082 30.125C28.082 30.6082 28.4738 31 28.957 31Z" fill="white"/>
</svg>
