<svg width="40" height="41" viewBox="0 0 40 41" fill="none" xmlns="http://www.w3.org/2000/svg">
<rect y="0.5" width="40" height="40" rx="20" fill="#EFE8FF"/>
<path d="M24.7904 12.7916H15.207C14.5166 12.7916 13.957 13.3512 13.957 14.0416V26.9583C13.957 27.6487 14.5166 28.2083 15.207 28.2083H24.7904C25.4808 28.2083 26.0404 27.6487 26.0404 26.9583V14.0416C26.0404 13.3512 25.4808 12.7916 24.7904 12.7916Z" stroke="#2E1E91" stroke-width="1.5" stroke-miterlimit="10" stroke-linejoin="round"/>
<path d="M23.8555 21.9583H21.7721" stroke="#2E1E91" stroke-width="1.5" stroke-miterlimit="10" stroke-linecap="round"/>
<path d="M23.8555 19.0417H21.7721" stroke="#2E1E91" stroke-width="1.5" stroke-miterlimit="10" stroke-linecap="round"/>
<path d="M23.8555 16.125H21.7721" stroke="#2E1E91" stroke-width="1.5" stroke-miterlimit="10" stroke-linecap="round"/>
<path d="M23.8555 24.875H21.7721" stroke="#2E1E91" stroke-width="1.5" stroke-miterlimit="10" stroke-linecap="round"/>
<path d="M19.2695 16.125V24.875" stroke="#2E1E91" stroke-width="1.5" stroke-miterlimit="10" stroke-linecap="round"/>
<path d="M16.7695 16.75C16.4244 16.75 16.1445 16.4702 16.1445 16.125C16.1445 15.7798 16.4244 15.5 16.7695 15.5C17.1147 15.5 17.3945 15.7798 17.3945 16.125C17.3945 16.4702 17.1147 16.75 16.7695 16.75Z" fill="#2E1E91"/>
<path d="M16.7695 19.6667C16.4244 19.6667 16.1445 19.3869 16.1445 19.0417C16.1445 18.6966 16.4244 18.4167 16.7695 18.4167C17.1147 18.4167 17.3945 18.6966 17.3945 19.0417C17.3945 19.3869 17.1147 19.6667 16.7695 19.6667Z" fill="#2E1E91"/>
<path d="M16.7695 22.5833C16.4244 22.5833 16.1445 22.3034 16.1445 21.9583C16.1445 21.6131 16.4244 21.3333 16.7695 21.3333C17.1147 21.3333 17.3945 21.6131 17.3945 21.9583C17.3945 22.3034 17.1147 22.5833 16.7695 22.5833Z" fill="#2E1E91"/>
<path d="M16.7695 25.5C16.4244 25.5 16.1445 25.2202 16.1445 24.875C16.1445 24.5298 16.4244 24.25 16.7695 24.25C17.1147 24.25 17.3945 24.5298 17.3945 24.875C17.3945 25.2202 17.1147 25.5 16.7695 25.5Z" fill="#2E1E91"/>
</svg>
