<svg width="71" height="28" viewBox="0 0 71 28" fill="none" xmlns="http://www.w3.org/2000/svg">
<path d="M6.93515 20.716C5.69915 20.716 4.63115 20.446 3.73115 19.906C2.84315 19.354 2.15315 18.592 1.66115 17.62C1.16915 16.636 0.923148 15.496 0.923148 14.2C0.923148 12.916 1.16915 11.788 1.66115 10.816C2.15315 9.832 2.84315 9.064 3.73115 8.512C4.63115 7.96 5.69915 7.684 6.93515 7.684C8.37515 7.684 9.54515 8.032 10.4451 8.728C11.3571 9.412 11.9391 10.372 12.1911 11.608H10.5171C10.3251 10.828 9.92915 10.204 9.32915 9.736C8.74115 9.256 7.94315 9.016 6.93515 9.016C6.03515 9.016 5.24915 9.226 4.57715 9.646C3.90515 10.054 3.38315 10.648 3.01115 11.428C2.65115 12.196 2.47115 13.12 2.47115 14.2C2.47115 15.28 2.65115 16.21 3.01115 16.99C3.38315 17.758 3.90515 18.352 4.57715 18.772C5.24915 19.18 6.03515 19.384 6.93515 19.384C7.94315 19.384 8.74115 19.156 9.32915 18.7C9.92915 18.232 10.3251 17.614 10.5171 16.846H12.1911C11.9391 18.058 11.3571 19.006 10.4451 19.69C9.54515 20.374 8.37515 20.716 6.93515 20.716ZM14.2742 20.5V7.54H15.7862V20.5H14.2742ZM22.3325 20.716C21.4925 20.716 20.7365 20.524 20.0645 20.14C19.3925 19.756 18.8585 19.216 18.4625 18.52C18.0785 17.812 17.8865 16.984 17.8865 16.036C17.8865 15.088 18.0845 14.266 18.4805 13.57C18.8765 12.862 19.4105 12.316 20.0825 11.932C20.7665 11.548 21.5285 11.356 22.3685 11.356C23.2085 11.356 23.9645 11.548 24.6365 11.932C25.3085 12.316 25.8365 12.862 26.2205 13.57C26.6165 14.266 26.8145 15.088 26.8145 16.036C26.8145 16.984 26.6165 17.812 26.2205 18.52C25.8245 19.216 25.2845 19.756 24.6005 20.14C23.9285 20.524 23.1725 20.716 22.3325 20.716ZM22.3325 19.42C22.8485 19.42 23.3285 19.294 23.7725 19.042C24.2165 18.79 24.5765 18.412 24.8525 17.908C25.1285 17.404 25.2665 16.78 25.2665 16.036C25.2665 15.292 25.1285 14.668 24.8525 14.164C24.5885 13.66 24.2345 13.282 23.7905 13.03C23.3465 12.778 22.8725 12.652 22.3685 12.652C21.8525 12.652 21.3725 12.778 20.9285 13.03C20.4845 13.282 20.1245 13.66 19.8485 14.164C19.5725 14.668 19.4345 15.292 19.4345 16.036C19.4345 16.78 19.5725 17.404 19.8485 17.908C20.1245 18.412 20.4785 18.79 20.9105 19.042C21.3545 19.294 21.8285 19.42 22.3325 19.42ZM32.3368 20.716C31.2688 20.716 30.3808 20.446 29.6728 19.906C28.9648 19.366 28.5508 18.634 28.4308 17.71H29.9788C30.0748 18.178 30.3208 18.586 30.7168 18.934C31.1248 19.27 31.6708 19.438 32.3548 19.438C32.9908 19.438 33.4588 19.306 33.7588 19.042C34.0588 18.766 34.2088 18.442 34.2088 18.07C34.2088 17.53 34.0108 17.17 33.6148 16.99C33.2308 16.81 32.6848 16.648 31.9768 16.504C31.4968 16.408 31.0168 16.27 30.5368 16.09C30.0568 15.91 29.6548 15.658 29.3308 15.334C29.0068 14.998 28.8448 14.56 28.8448 14.02C28.8448 13.24 29.1328 12.604 29.7088 12.112C30.2968 11.608 31.0888 11.356 32.0848 11.356C33.0328 11.356 33.8068 11.596 34.4068 12.076C35.0188 12.544 35.3728 13.216 35.4688 14.092H33.9748C33.9148 13.636 33.7168 13.282 33.3808 13.03C33.0568 12.766 32.6188 12.634 32.0668 12.634C31.5268 12.634 31.1068 12.748 30.8068 12.976C30.5188 13.204 30.3748 13.504 30.3748 13.876C30.3748 14.236 30.5608 14.518 30.9328 14.722C31.3168 14.926 31.8328 15.1 32.4808 15.244C33.0328 15.364 33.5548 15.514 34.0468 15.694C34.5508 15.862 34.9588 16.12 35.2708 16.468C35.5948 16.804 35.7568 17.296 35.7568 17.944C35.7688 18.748 35.4628 19.414 34.8388 19.942C34.2268 20.458 33.3928 20.716 32.3368 20.716ZM41.9308 20.716C41.0788 20.716 40.3228 20.524 39.6628 20.14C39.0028 19.744 38.4808 19.198 38.0968 18.502C37.7248 17.806 37.5388 16.984 37.5388 16.036C37.5388 15.1 37.7248 14.284 38.0968 13.588C38.4688 12.88 38.9848 12.334 39.6448 11.95C40.3168 11.554 41.0908 11.356 41.9668 11.356C42.8308 11.356 43.5748 11.554 44.1988 11.95C44.8348 12.334 45.3208 12.844 45.6568 13.48C45.9928 14.116 46.1608 14.8 46.1608 15.532C46.1608 15.664 46.1548 15.796 46.1428 15.928C46.1428 16.06 46.1428 16.21 46.1428 16.378H39.0328C39.0688 17.062 39.2248 17.632 39.5008 18.088C39.7888 18.532 40.1428 18.868 40.5628 19.096C40.9948 19.324 41.4508 19.438 41.9308 19.438C42.5548 19.438 43.0768 19.294 43.4968 19.006C43.9168 18.718 44.2228 18.328 44.4148 17.836H45.9088C45.6688 18.664 45.2068 19.354 44.5228 19.906C43.8508 20.446 42.9868 20.716 41.9308 20.716ZM41.9308 12.634C41.2108 12.634 40.5688 12.856 40.0048 13.3C39.4528 13.732 39.1348 14.368 39.0508 15.208H44.6668C44.6308 14.404 44.3548 13.774 43.8388 13.318C43.3228 12.862 42.6868 12.634 41.9308 12.634Z" fill="#7F7B92"/>
<path d="M65.5 8.5L54.5 19.5" stroke="#7F7B92" stroke-width="1.5" stroke-linecap="round" stroke-linejoin="round"/>
<path d="M54.5 8.5L65.5 19.5" stroke="#7F7B92" stroke-width="1.5" stroke-linecap="round" stroke-linejoin="round"/>
</svg>
