<svg width="48" height="48" viewBox="0 0 48 48" fill="none" xmlns="http://www.w3.org/2000/svg">
<circle cx="24" cy="24" r="24" fill="#0FD197"/>
<circle cx="29.5238" cy="21.401" r="1.43397" fill="white"/>
<circle cx="23.266" cy="18.2362" r="1.43397" fill="white"/>
<circle cx="18.3558" cy="18.2362" r="1.43397" fill="white"/>
<mask id="path-5-inside-1_5367_32003" fill="white">
<path d="M13.5039 17.5278C13.5039 15.3187 15.2948 13.5278 17.5039 13.5278H30.4664C32.6756 13.5278 34.4664 15.3187 34.4664 17.5278V30.4992C34.4664 32.7084 32.6756 34.4992 30.4664 34.4992H17.5039C15.2948 34.4992 13.5039 32.7084 13.5039 30.4992V17.5278Z"/>
</mask>
<path d="M17.5039 15.5278H30.4664V11.5278H17.5039V15.5278ZM32.4664 17.5278V30.4992H36.4664V17.5278H32.4664ZM30.4664 32.4992H17.5039V36.4992H30.4664V32.4992ZM15.5039 30.4992V17.5278H11.5039V30.4992H15.5039ZM17.5039 32.4992C16.3993 32.4992 15.5039 31.6038 15.5039 30.4992H11.5039C11.5039 33.8129 14.1902 36.4992 17.5039 36.4992V32.4992ZM32.4664 30.4992C32.4664 31.6038 31.571 32.4992 30.4664 32.4992V36.4992C33.7801 36.4992 36.4664 33.8129 36.4664 30.4992H32.4664ZM30.4664 15.5278C31.571 15.5278 32.4664 16.4233 32.4664 17.5278H36.4664C36.4664 14.2141 33.7801 11.5278 30.4664 11.5278V15.5278ZM17.5039 11.5278C14.1902 11.5278 11.5039 14.2141 11.5039 17.5278H15.5039C15.5039 16.4233 16.3993 15.5278 17.5039 15.5278V11.5278Z" fill="white" mask="url(#path-5-inside-1_5367_32003)"/>
<path d="M24.7022 18.155C24.7022 17.6027 24.2545 17.155 23.7022 17.155C23.1499 17.155 22.7022 17.6027 22.7022 18.155H24.7022ZM18.8945 18.155C18.8945 17.6027 18.4468 17.155 17.8945 17.155C17.3422 17.155 16.8945 17.6027 16.8945 18.155H18.8945ZM22.7022 18.155V21.4038H24.7022V18.155H22.7022ZM18.8945 21.4038V18.155H16.8945V21.4038H18.8945ZM16.8945 21.4038C16.8945 23.5598 18.6423 25.3076 20.7984 25.3076V23.3076C19.7469 23.3076 18.8945 22.4552 18.8945 21.4038H16.8945ZM22.7022 21.4038C22.7022 22.4552 21.8498 23.3076 20.7984 23.3076V25.3076C22.9544 25.3076 24.7022 23.5598 24.7022 21.4038H22.7022Z" fill="white"/>
<path d="M21.7695 24.4209C21.7695 23.8686 21.3218 23.4209 20.7695 23.4209C20.2172 23.4209 19.7695 23.8686 19.7695 24.4209H21.7695ZM30.5592 21.085C30.5592 20.5327 30.1114 20.085 29.5592 20.085C29.0069 20.085 28.5592 20.5327 28.5592 21.085H30.5592ZM28.5592 24V25.7578H30.5592V24H28.5592ZM21.7695 25.7578V24.4209H19.7695V25.7578H21.7695ZM30.5592 24V21.085H28.5592V24H30.5592ZM19.7695 25.7578C19.7695 28.7373 22.1849 31.1526 25.1643 31.1526V29.1526C23.2894 29.1526 21.7695 27.6327 21.7695 25.7578H19.7695ZM28.5592 25.7578C28.5592 27.6327 27.0392 29.1526 25.1643 29.1526V31.1526C28.1438 31.1526 30.5592 28.7373 30.5592 25.7578H28.5592Z" fill="white"/>
</svg>
