<svg width="67" height="67" viewBox="0 0 67 67" fill="none" xmlns="http://www.w3.org/2000/svg">
<g clip-path="url(#clip0_5367_39288)">
<rect width="67" height="67" rx="33.5" fill="white"/>
<circle cx="33.4974" cy="30.7083" r="13.9583" fill="#ABA5D3"/>
<path d="M42.6033 51.3833V53.6364C40.1102 54.1425 38.2337 56.3467 38.2337 58.9891V60.4457C38.2337 61.4512 39.0488 62.2663 40.0543 62.2663H40.7826C41.3859 62.2663 41.875 61.7772 41.875 61.1739C41.875 60.5706 41.3859 60.0815 40.7826 60.0815H40.4185V58.9891C40.4185 57.1792 41.8857 55.712 43.6957 55.712C45.5056 55.712 46.9728 57.1792 46.9728 58.9891V60.0815H46.6087C46.0054 60.0815 45.5163 60.5706 45.5163 61.1739C45.5163 61.7772 46.0054 62.2663 46.6087 62.2663H47.337C48.3425 62.2663 49.1576 61.4512 49.1576 60.4457V58.9891C49.1576 56.3467 47.2811 54.1425 44.788 53.6364V52.0316C52.9952 54.7877 58.625 60.4556 58.625 67C58.625 76.2508 47.3762 83.75 33.5 83.75C19.6238 83.75 8.375 76.2508 8.375 67C8.375 60.4556 14.0048 54.7877 22.212 52.0316V54.6196C22.212 54.6893 22.2185 54.7576 22.231 54.8237C21.1534 55.251 20.3913 56.3028 20.3913 57.5326C20.3913 59.1414 21.6955 60.4457 23.3043 60.4457C24.9132 60.4457 26.2174 59.1414 26.2174 57.5326C26.2174 56.3028 25.4553 55.251 24.3777 54.8237C24.3902 54.7576 24.3967 54.6893 24.3967 54.6196V51.3833C27.2193 50.6515 30.2893 50.25 33.5 50.25C36.7107 50.25 39.7807 50.6515 42.6033 51.3833Z" fill="#ABA5D3"/>
<path d="M23.3043 58.2609C23.7066 58.2609 24.0326 57.9348 24.0326 57.5326C24.0326 57.1304 23.7066 56.8043 23.3043 56.8043C22.9021 56.8043 22.5761 57.1304 22.5761 57.5326C22.5761 57.9348 22.9021 58.2609 23.3043 58.2609Z" fill="#ABA5D3"/>
</g>
<defs>
<clipPath id="clip0_5367_39288">
<rect width="67" height="67" rx="33.5" fill="white"/>
</clipPath>
</defs>
</svg>
