<svg width="16" height="17" viewBox="0 0 16 17" fill="none" xmlns="http://www.w3.org/2000/svg">
<path d="M7.33594 3.16742H2.66927C2.31565 3.16742 1.97651 3.3079 1.72646 3.55794C1.47641 3.80799 1.33594 4.14713 1.33594 4.50075V13.8341C1.33594 14.1877 1.47641 14.5268 1.72646 14.7769C1.97651 15.0269 2.31565 15.1674 2.66927 15.1674H12.0026C12.3562 15.1674 12.6954 15.0269 12.9454 14.7769C13.1955 14.5268 13.3359 14.1877 13.3359 13.8341V9.16742" stroke="#2E1E91" stroke-linecap="round" stroke-linejoin="round"/>
<path d="M12.3359 2.16647C12.6012 1.90126 12.9609 1.75226 13.3359 1.75226C13.711 1.75226 14.0707 1.90126 14.3359 2.16647C14.6012 2.43169 14.7502 2.7914 14.7502 3.16647C14.7502 3.54154 14.6012 3.90126 14.3359 4.16647L8.0026 10.4998L5.33594 11.1665L6.0026 8.49981L12.3359 2.16647Z" stroke="#2E1E91" stroke-linecap="round" stroke-linejoin="round"/>
</svg>
