<svg width="52" height="52" viewBox="0 0 52 52" fill="none" xmlns="http://www.w3.org/2000/svg">
<rect width="52" height="52" rx="26" fill="#E6FFF3"/>
<path d="M18.3359 25.6777L19.1064 23.7209M23.8638 24.4956L23.5466 23.7209M19.1064 23.7209L19.2389 23.3844L21.3395 18.3309L23.5466 23.7209M19.1064 23.7209H23.5466" stroke="#0FD197" stroke-width="2" stroke-linecap="round" stroke-linejoin="round"/>
<path d="M21.4816 30.1406C20.1893 30.1439 18.9144 29.842 17.7608 29.2593L12.1797 31.1197L14.0401 25.5386C13.4574 24.385 13.1555 23.1102 13.1588 21.8178C13.1594 20.2725 13.5903 18.7578 14.4031 17.4435C15.2159 16.1292 16.3785 15.0671 17.7608 14.3763C18.9144 13.7936 20.1893 13.4917 21.4816 13.495H21.9712C24.0121 13.6076 25.9397 14.469 27.3851 15.9144C28.8304 17.3597 29.6918 19.2873 29.8044 21.3282" stroke="#0FD197" stroke-width="2" stroke-linecap="round" stroke-linejoin="round"/>
<path d="M22.3519 30.0101C22.3485 31.3024 22.6504 32.5773 23.2331 33.7308C23.9239 35.1131 24.986 36.2758 26.3003 37.0886C27.6146 37.9014 29.1293 38.3322 30.6746 38.3328C31.967 38.3362 33.2419 38.0343 34.3954 37.4516L39.9766 39.312L38.1162 33.7308C38.6988 32.5773 39.0008 31.3024 38.9974 30.0101C38.9968 28.4647 38.566 26.9501 37.7532 25.6358C36.9404 24.3214 35.7777 23.2594 34.3954 22.5685C33.2419 21.9859 31.967 21.6839 30.6746 21.6873H30.1851C28.1442 21.7999 26.2165 22.6613 24.7712 24.1066C23.3259 25.5519 22.4645 27.4796 22.3519 29.5205V30.0101Z" stroke="#0FD197" stroke-width="2" stroke-linecap="round" stroke-linejoin="round"/>
<path d="M30.7049 32.9515C29.0455 32.9515 28.5517 32.007 28.4318 31.6864C28.406 31.6173 28.3984 31.5442 28.3984 31.4704V27.6847C28.3984 27.6144 28.4052 27.5446 28.4305 27.479C28.5447 27.1827 29.0199 26.33 30.7049 26.33C32.3215 26.33 32.8242 27.1582 32.9551 27.4657C32.9864 27.5394 32.9955 27.6194 32.9955 27.6994V31.5378C32.9955 31.6114 32.988 31.6845 32.9615 31.7531C32.8422 32.0624 32.3557 32.9515 30.7049 32.9515ZM30.7049 32.9515C31.3053 34.2837 32.4557 34.5417 33.3203 34.698" stroke="#0FD197" stroke-width="2" stroke-linecap="round" stroke-linejoin="round"/>
</svg>
