<svg width="48" height="48" viewBox="0 0 48 48" fill="none" xmlns="http://www.w3.org/2000/svg">
<circle cx="24" cy="24" r="24" fill="#0FD197"/>
<path d="M18.3328 16.1505C18.3328 17.374 17.341 18.3658 16.1176 18.3658C14.8941 18.3658 13.9023 17.374 13.9023 16.1505C13.9023 14.9271 14.8941 13.9353 16.1176 13.9353C17.341 13.9353 18.3328 14.9271 18.3328 16.1505Z" stroke="white" stroke-width="2"/>
<circle cx="31.7894" cy="31.8214" r="2.21523" stroke="white" stroke-width="2"/>
<path d="M30.7936 28.9338C30.7936 29.4861 31.2413 29.9338 31.7936 29.9338C32.3458 29.9338 32.7936 29.4861 32.7936 28.9338L30.7936 28.9338ZM31.7936 18.0683L30.7936 18.0683L31.7936 18.0683ZM22.9531 15.0683C22.4008 15.0683 21.9531 15.516 21.9531 16.0683C21.9531 16.6206 22.4008 17.0683 22.9531 17.0683L22.9531 15.0683ZM32.7936 28.9338L32.7936 18.0683L30.7936 18.0683L30.7936 28.9338L32.7936 28.9338ZM29.7936 15.0683L22.9531 15.0683L22.9531 17.0683L29.7936 17.0683L29.7936 15.0683ZM32.7936 18.0683C32.7936 16.4115 31.4504 15.0683 29.7936 15.0683L29.7936 17.0683C30.3458 17.0683 30.7936 17.516 30.7936 18.0683L32.7936 18.0683Z" fill="white"/>
<path d="M17.1205 19C17.1205 18.4477 16.6728 18 16.1205 18C15.5682 18 15.1205 18.4477 15.1205 19L17.1205 19ZM16.1205 29.8655L17.1205 29.8655L16.1205 29.8655ZM24.9609 32.8655C25.5132 32.8655 25.9609 32.4178 25.9609 31.8655C25.9609 31.3132 25.5132 30.8655 24.9609 30.8655L24.9609 32.8655ZM15.1205 19L15.1205 29.8655L17.1205 29.8655L17.1205 19L15.1205 19ZM18.1205 32.8655L24.9609 32.8655L24.9609 30.8655L18.1205 30.8655L18.1205 32.8655ZM15.1205 29.8655C15.1205 31.5224 16.4637 32.8655 18.1205 32.8655L18.1205 30.8655C17.5682 30.8655 17.1205 30.4178 17.1205 29.8655L15.1205 29.8655Z" fill="white"/>
<path d="M24.1445 19.0936C24.535 19.4841 25.1681 19.4841 25.5587 19.0936C25.9492 18.7031 25.9492 18.0699 25.5587 17.6794L24.1445 19.0936ZM22.5333 16.0683L21.8262 15.3612C21.4357 15.7517 21.4357 16.3848 21.8262 16.7754L22.5333 16.0683ZM25.5587 14.4571C25.9492 14.0666 25.9492 13.4334 25.5587 13.0429C25.1682 12.6524 24.535 12.6524 24.1445 13.0429L25.5587 14.4571ZM25.5587 17.6794L23.2405 15.3612L21.8262 16.7754L24.1445 19.0936L25.5587 17.6794ZM23.2405 16.7754L25.5587 14.4571L24.1445 13.0429L21.8262 15.3612L23.2405 16.7754Z" fill="white"/>
<path d="M23.7657 28.84C23.3752 28.4495 22.742 28.4495 22.3515 28.84C21.961 29.2305 21.961 29.8637 22.3515 30.2542L23.7657 28.84ZM25.3768 31.8653L26.0839 32.5724C26.4744 32.1819 26.4744 31.5488 26.0839 31.1582L25.3768 31.8653ZM22.3515 33.4765C21.9609 33.867 21.9609 34.5002 22.3515 34.8907C22.742 35.2812 23.3751 35.2812 23.7657 34.8907L22.3515 33.4765ZM22.3515 30.2542L24.6697 32.5724L26.0839 31.1582L23.7657 28.84L22.3515 30.2542ZM24.6697 31.1582L22.3515 33.4765L23.7657 34.8907L26.0839 32.5724L24.6697 31.1582Z" fill="white"/>
</svg>
