<svg width="22" height="22" viewBox="0 0 22 22" fill="none" xmlns="http://www.w3.org/2000/svg">
<path d="M9.625 9.39587H12.375" stroke="#0FD197" stroke-width="1.33" stroke-miterlimit="10" stroke-linecap="round" stroke-linejoin="round"/>
<path d="M11 8.02087V10.7709" stroke="#0FD197" stroke-width="1.33" stroke-miterlimit="10" stroke-linecap="round" stroke-linejoin="round"/>
<path d="M8.02148 13.0625H13.9798" stroke="#0FD197" stroke-width="1.33" stroke-miterlimit="10" stroke-linecap="round" stroke-linejoin="round"/>
<path d="M8.02148 15.3542H13.9798" stroke="#0FD197" stroke-width="1.33" stroke-miterlimit="10" stroke-linecap="round" stroke-linejoin="round"/>
<path d="M13.9785 3.89575H16.2702C17.0296 3.89575 17.6452 4.51129 17.6452 5.27075V17.6458C17.6452 18.4052 17.0296 19.0208 16.2702 19.0208H5.72852C4.96906 19.0208 4.35352 18.4052 4.35352 17.6458V5.27075C4.35352 4.51129 4.96906 3.89575 5.72852 3.89575H8.02018" stroke="#0FD197" stroke-width="1.33" stroke-miterlimit="10" stroke-linecap="round" stroke-linejoin="round"/>
<path d="M12.6048 2.0625C12.251 2.0625 9.64811 2.0625 9.39648 2.0625C8.63703 2.0625 8.02148 2.67804 8.02148 3.4375C8.02148 4.19696 8.63703 4.8125 9.39648 4.8125C9.64811 4.8125 12.251 4.8125 12.6048 4.8125C13.3643 4.8125 13.9798 4.19696 13.9798 3.4375C13.9798 2.67804 13.3643 2.0625 12.6048 2.0625Z" stroke="#0FD197" stroke-width="1.33" stroke-miterlimit="10" stroke-linecap="round" stroke-linejoin="round"/>
</svg>
