<svg width="44" height="44" viewBox="0 0 44 44" fill="none" xmlns="http://www.w3.org/2000/svg">
<rect width="44" height="44" rx="22" fill="#0FD197"/>
<g clip-path="url(#clip0_5367_55617)">
<path d="M20.2363 20.8729C22.5835 20.8729 24.4863 18.9701 24.4863 16.6229C24.4863 14.2757 22.5835 12.3729 20.2363 12.3729C17.8891 12.3729 15.9863 14.2757 15.9863 16.6229C15.9863 18.9701 17.8891 20.8729 20.2363 20.8729Z" stroke="white" stroke-width="2" stroke-miterlimit="5"/>
<path d="M22.0704 30.7424C22.0116 30.7509 21.9527 30.759 21.8936 30.7667C21.8346 30.7744 21.7755 30.7816 21.7162 30.7885C17.6721 31.2556 12.9863 29.7837 12.9863 26.3729V25.6124C12.9863 24.9279 13.5413 24.3729 14.2258 24.3729H22.2136" stroke="white" stroke-width="2" stroke-miterlimit="10" stroke-linecap="round"/>
<path d="M28.662 31.838C31.2043 31.838 33.2653 29.777 33.2653 27.2347C33.2653 24.6923 31.2043 22.6313 28.662 22.6313C26.1196 22.6313 24.0586 24.6923 24.0586 27.2347C24.0586 29.777 26.1196 31.838 28.662 31.838Z" stroke="white" stroke-width="2" stroke-linecap="round" stroke-linejoin="round"/>
<path d="M28.6602 25.9195V27.8924H30.066" stroke="white" stroke-width="2" stroke-linecap="round" stroke-linejoin="round"/>
</g>
<defs>
<clipPath id="clip0_5367_55617">
<rect width="24" height="24" fill="white" transform="translate(10 10)"/>
</clipPath>
</defs>
</svg>
