<svg width="102" height="101" viewBox="0 0 102 101" fill="none" xmlns="http://www.w3.org/2000/svg">
<g opacity="0.16">
<path d="M0 1.90548C0 0.853113 0.849995 0 1.89852 0C2.94704 0 3.79703 0.853113 3.79703 1.90548C3.79703 2.95785 2.94704 3.81096 1.89852 3.81096C0.849995 3.81096 0 2.95785 0 1.90548Z" fill="white"/>
<path d="M55.8923 1.90548C55.8923 0.853113 56.7423 0 57.7908 0C58.8394 0 59.6894 0.853113 59.6894 1.90548C59.6894 2.95785 58.8394 3.81096 57.7908 3.81096C56.7423 3.81096 55.8923 2.95785 55.8923 1.90548Z" fill="white"/>
<path d="M0 29.9542C0 28.9018 0.849995 28.0487 1.89852 28.0487C2.94704 28.0487 3.79703 28.9018 3.79703 29.9542C3.79703 31.0065 2.94704 31.8597 1.89852 31.8597C0.849995 31.8597 0 31.0065 0 29.9542Z" fill="white"/>
<path d="M55.8923 29.9542C55.8923 28.9018 56.7423 28.0487 57.7908 28.0487C58.8394 28.0487 59.6894 28.9018 59.6894 29.9542C59.6894 31.0065 58.8394 31.8597 57.7908 31.8597C56.7423 31.8597 55.8923 31.0065 55.8923 29.9542Z" fill="white"/>
<path d="M27.9462 1.90548C27.9462 0.853113 28.7962 0 29.8447 0C30.8932 0 31.7432 0.853113 31.7432 1.90548C31.7432 2.95785 30.8932 3.81096 29.8447 3.81096C28.7962 3.81096 27.9462 2.95785 27.9462 1.90548Z" fill="white"/>
<path d="M83.8385 1.90548C83.8385 0.853113 84.6885 0 85.737 0C86.7855 0 87.6355 0.853113 87.6355 1.90548C87.6355 2.95785 86.7855 3.81096 85.737 3.81096C84.6885 3.81096 83.8385 2.95785 83.8385 1.90548Z" fill="white"/>
<path d="M27.9462 29.9542C27.9462 28.9018 28.7962 28.0487 29.8447 28.0487C30.8932 28.0487 31.7432 28.9018 31.7432 29.9542C31.7432 31.0065 30.8932 31.8597 29.8447 31.8597C28.7962 31.8597 27.9462 31.0065 27.9462 29.9542Z" fill="white"/>
<path d="M83.8385 29.9542C83.8385 28.9018 84.6885 28.0487 85.737 28.0487C86.7855 28.0487 87.6355 28.9018 87.6355 29.9542C87.6355 31.0065 86.7855 31.8597 85.737 31.8597C84.6885 31.8597 83.8385 31.0065 83.8385 29.9542Z" fill="white"/>
<path d="M0 15.9298C0 14.8775 0.849995 14.0243 1.89852 14.0243C2.94704 14.0243 3.79703 14.8775 3.79703 15.9298C3.79703 16.9822 2.94704 17.8353 1.89852 17.8353C0.849995 17.8353 0 16.9822 0 15.9298Z" fill="white"/>
<path d="M55.8923 15.9298C55.8923 14.8775 56.7423 14.0243 57.7908 14.0243C58.8394 14.0243 59.6894 14.8775 59.6894 15.9298C59.6894 16.9822 58.8394 17.8353 57.7908 17.8353C56.7423 17.8353 55.8923 16.9822 55.8923 15.9298Z" fill="white"/>
<path d="M0 43.9785C0 42.9261 0.849995 42.073 1.89852 42.073C2.94704 42.073 3.79703 42.9261 3.79703 43.9785C3.79703 45.0309 2.94704 45.884 1.89852 45.884C0.849995 45.884 0 45.0309 0 43.9785Z" fill="white"/>
<path d="M55.8923 43.9785C55.8923 42.9261 56.7423 42.073 57.7908 42.073C58.8394 42.073 59.6894 42.9261 59.6894 43.9785C59.6894 45.0309 58.8394 45.884 57.7908 45.884C56.7423 45.884 55.8923 45.0309 55.8923 43.9785Z" fill="white"/>
<path d="M27.9462 15.9298C27.9462 14.8775 28.7962 14.0243 29.8447 14.0243C30.8932 14.0243 31.7432 14.8775 31.7432 15.9298C31.7432 16.9822 30.8932 17.8353 29.8447 17.8353C28.7962 17.8353 27.9462 16.9822 27.9462 15.9298Z" fill="white"/>
<path d="M83.8385 15.9298C83.8385 14.8775 84.6885 14.0243 85.737 14.0243C86.7855 14.0243 87.6355 14.8775 87.6355 15.9298C87.6355 16.9822 86.7855 17.8353 85.737 17.8353C84.6885 17.8353 83.8385 16.9822 83.8385 15.9298Z" fill="white"/>
<path d="M27.9462 43.9785C27.9462 42.9261 28.7962 42.073 29.8447 42.073C30.8932 42.073 31.7432 42.9261 31.7432 43.9785C31.7432 45.0309 30.8932 45.884 29.8447 45.884C28.7962 45.884 27.9462 45.0309 27.9462 43.9785Z" fill="white"/>
<path d="M83.8385 43.9785C83.8385 42.9261 84.6885 42.073 85.737 42.073C86.7855 42.073 87.6355 42.9261 87.6355 43.9785C87.6355 45.0309 86.7855 45.884 85.737 45.884C84.6885 45.884 83.8385 45.0309 83.8385 43.9785Z" fill="white"/>
<path d="M13.9731 1.90548C13.9731 0.853113 14.8231 0 15.8716 0C16.9201 0 17.7701 0.853113 17.7701 1.90548C17.7701 2.95785 16.9201 3.81096 15.8716 3.81096C14.8231 3.81096 13.9731 2.95785 13.9731 1.90548Z" fill="white"/>
<path d="M69.8654 1.90548C69.8654 0.853113 70.7154 0 71.7639 0C72.8124 0 73.6624 0.853113 73.6624 1.90548C73.6624 2.95785 72.8124 3.81096 71.7639 3.81096C70.7154 3.81096 69.8654 2.95785 69.8654 1.90548Z" fill="white"/>
<path d="M13.9731 29.9542C13.9731 28.9018 14.8231 28.0487 15.8716 28.0487C16.9201 28.0487 17.7701 28.9018 17.7701 29.9542C17.7701 31.0065 16.9201 31.8597 15.8716 31.8597C14.8231 31.8597 13.9731 31.0065 13.9731 29.9542Z" fill="white"/>
<path d="M69.8654 29.9542C69.8654 28.9018 70.7154 28.0487 71.7639 28.0487C72.8124 28.0487 73.6624 28.9018 73.6624 29.9542C73.6624 31.0065 72.8124 31.8597 71.7639 31.8597C70.7154 31.8597 69.8654 31.0065 69.8654 29.9542Z" fill="white"/>
<path d="M41.9192 1.90548C41.9192 0.853113 42.7692 0 43.8178 0C44.8663 0 45.7163 0.853113 45.7163 1.90548C45.7163 2.95785 44.8663 3.81096 43.8178 3.81096C42.7692 3.81096 41.9192 2.95785 41.9192 1.90548Z" fill="white"/>
<path d="M97.8116 1.90548C97.8116 0.853113 98.6616 0 99.7101 0C100.759 0 101.609 0.853113 101.609 1.90548C101.609 2.95785 100.759 3.81096 99.7101 3.81096C98.6616 3.81096 97.8116 2.95785 97.8116 1.90548Z" fill="white"/>
<path d="M41.9192 29.9542C41.9192 28.9018 42.7692 28.0487 43.8178 28.0487C44.8663 28.0487 45.7163 28.9018 45.7163 29.9542C45.7163 31.0065 44.8663 31.8597 43.8178 31.8597C42.7692 31.8597 41.9192 31.0065 41.9192 29.9542Z" fill="white"/>
<path d="M97.8116 29.9542C97.8116 28.9018 98.6616 28.0487 99.7101 28.0487C100.759 28.0487 101.609 28.9018 101.609 29.9542C101.609 31.0065 100.759 31.8597 99.7101 31.8597C98.6616 31.8597 97.8116 31.0065 97.8116 29.9542Z" fill="white"/>
<path d="M13.9731 15.9298C13.9731 14.8775 14.8231 14.0243 15.8716 14.0243C16.9201 14.0243 17.7701 14.8775 17.7701 15.9298C17.7701 16.9822 16.9201 17.8353 15.8716 17.8353C14.8231 17.8353 13.9731 16.9822 13.9731 15.9298Z" fill="white"/>
<path d="M69.8654 15.9298C69.8654 14.8775 70.7154 14.0243 71.7639 14.0243C72.8124 14.0243 73.6624 14.8775 73.6624 15.9298C73.6624 16.9822 72.8124 17.8353 71.7639 17.8353C70.7154 17.8353 69.8654 16.9822 69.8654 15.9298Z" fill="white"/>
<path d="M13.9731 43.9785C13.9731 42.9261 14.8231 42.073 15.8716 42.073C16.9201 42.073 17.7701 42.9261 17.7701 43.9785C17.7701 45.0309 16.9201 45.884 15.8716 45.884C14.8231 45.884 13.9731 45.0309 13.9731 43.9785Z" fill="white"/>
<path d="M69.8654 43.9785C69.8654 42.9261 70.7154 42.073 71.7639 42.073C72.8124 42.073 73.6624 42.9261 73.6624 43.9785C73.6624 45.0309 72.8124 45.884 71.7639 45.884C70.7154 45.884 69.8654 45.0309 69.8654 43.9785Z" fill="white"/>
<path d="M41.9192 15.9298C41.9192 14.8775 42.7692 14.0243 43.8178 14.0243C44.8663 14.0243 45.7163 14.8775 45.7163 15.9298C45.7163 16.9822 44.8663 17.8353 43.8178 17.8353C42.7692 17.8353 41.9192 16.9822 41.9192 15.9298Z" fill="white"/>
<path d="M97.8116 15.9298C97.8116 14.8775 98.6616 14.0243 99.7101 14.0243C100.759 14.0243 101.609 14.8775 101.609 15.9298C101.609 16.9822 100.759 17.8353 99.7101 17.8353C98.6616 17.8353 97.8116 16.9822 97.8116 15.9298Z" fill="white"/>
<path d="M41.9192 43.9785C41.9192 42.9261 42.7692 42.073 43.8178 42.073C44.8663 42.073 45.7163 42.9261 45.7163 43.9785C45.7163 45.0309 44.8663 45.884 43.8178 45.884C42.7692 45.884 41.9192 45.0309 41.9192 43.9785Z" fill="white"/>
<path d="M97.8116 43.9785C97.8116 42.9261 98.6616 42.073 99.7101 42.073C100.759 42.073 101.609 42.9261 101.609 43.9785C101.609 45.0309 100.759 45.884 99.7101 45.884C98.6616 45.884 97.8116 45.0309 97.8116 43.9785Z" fill="white"/>
<path d="M0 56.7833C0 55.731 0.849995 54.8779 1.89852 54.8779C2.94704 54.8779 3.79703 55.731 3.79703 56.7833C3.79703 57.8357 2.94704 58.6888 1.89852 58.6888C0.849995 58.6888 0 57.8357 0 56.7833Z" fill="white"/>
<path d="M55.8923 56.7833C55.8923 55.731 56.7423 54.8779 57.7908 54.8779C58.8394 54.8779 59.6894 55.731 59.6894 56.7833C59.6894 57.8357 58.8394 58.6888 57.7908 58.6888C56.7423 58.6888 55.8923 57.8357 55.8923 56.7833Z" fill="white"/>
<path d="M0 84.832C0 83.7797 0.849995 82.9266 1.89852 82.9266C2.94704 82.9266 3.79703 83.7797 3.79703 84.832C3.79703 85.8844 2.94704 86.7375 1.89852 86.7375C0.849995 86.7375 0 85.8844 0 84.832Z" fill="white"/>
<path d="M55.8923 84.832C55.8923 83.7797 56.7423 82.9266 57.7908 82.9266C58.8394 82.9266 59.6894 83.7797 59.6894 84.832C59.6894 85.8844 58.8394 86.7375 57.7908 86.7375C56.7423 86.7375 55.8923 85.8844 55.8923 84.832Z" fill="white"/>
<path d="M27.9462 56.7833C27.9462 55.731 28.7962 54.8779 29.8447 54.8779C30.8932 54.8779 31.7432 55.731 31.7432 56.7833C31.7432 57.8357 30.8932 58.6888 29.8447 58.6888C28.7962 58.6888 27.9462 57.8357 27.9462 56.7833Z" fill="white"/>
<path d="M83.8385 56.7833C83.8385 55.731 84.6885 54.8779 85.737 54.8779C86.7855 54.8779 87.6355 55.731 87.6355 56.7833C87.6355 57.8357 86.7855 58.6888 85.737 58.6888C84.6885 58.6888 83.8385 57.8357 83.8385 56.7833Z" fill="white"/>
<path d="M27.9462 84.832C27.9462 83.7797 28.7962 82.9266 29.8447 82.9266C30.8932 82.9266 31.7432 83.7797 31.7432 84.832C31.7432 85.8844 30.8932 86.7375 29.8447 86.7375C28.7962 86.7375 27.9462 85.8844 27.9462 84.832Z" fill="white"/>
<path d="M83.8385 84.832C83.8385 83.7797 84.6885 82.9266 85.737 82.9266C86.7855 82.9266 87.6355 83.7797 87.6355 84.832C87.6355 85.8844 86.7855 86.7375 85.737 86.7375C84.6885 86.7375 83.8385 85.8844 83.8385 84.832Z" fill="white"/>
<path d="M0 70.8077C0 69.7553 0.849995 68.9022 1.89852 68.9022C2.94704 68.9022 3.79703 69.7553 3.79703 70.8077C3.79703 71.8601 2.94704 72.7132 1.89852 72.7132C0.849995 72.7132 0 71.8601 0 70.8077Z" fill="white"/>
<path d="M55.8923 70.8077C55.8923 69.7553 56.7423 68.9022 57.7908 68.9022C58.8394 68.9022 59.6894 69.7553 59.6894 70.8077C59.6894 71.8601 58.8394 72.7132 57.7908 72.7132C56.7423 72.7132 55.8923 71.8601 55.8923 70.8077Z" fill="white"/>
<path d="M0 98.8564C0 97.804 0.849995 96.9509 1.89852 96.9509C2.94704 96.9509 3.79703 97.804 3.79703 98.8564C3.79703 99.9088 2.94704 100.762 1.89852 100.762C0.849995 100.762 0 99.9088 0 98.8564Z" fill="white"/>
<path d="M55.8923 98.8564C55.8923 97.804 56.7423 96.9509 57.7908 96.9509C58.8394 96.9509 59.6894 97.804 59.6894 98.8564C59.6894 99.9088 58.8394 100.762 57.7908 100.762C56.7423 100.762 55.8923 99.9088 55.8923 98.8564Z" fill="white"/>
<path d="M27.9462 70.8077C27.9462 69.7553 28.7962 68.9022 29.8447 68.9022C30.8932 68.9022 31.7432 69.7553 31.7432 70.8077C31.7432 71.8601 30.8932 72.7132 29.8447 72.7132C28.7962 72.7132 27.9462 71.8601 27.9462 70.8077Z" fill="white"/>
<path d="M83.8385 70.8077C83.8385 69.7553 84.6885 68.9022 85.737 68.9022C86.7855 68.9022 87.6355 69.7553 87.6355 70.8077C87.6355 71.8601 86.7855 72.7132 85.737 72.7132C84.6885 72.7132 83.8385 71.8601 83.8385 70.8077Z" fill="white"/>
<path d="M27.9462 98.8564C27.9462 97.804 28.7962 96.9509 29.8447 96.9509C30.8932 96.9509 31.7432 97.804 31.7432 98.8564C31.7432 99.9088 30.8932 100.762 29.8447 100.762C28.7962 100.762 27.9462 99.9088 27.9462 98.8564Z" fill="white"/>
<path d="M83.8385 98.8564C83.8385 97.804 84.6885 96.9509 85.737 96.9509C86.7855 96.9509 87.6355 97.804 87.6355 98.8564C87.6355 99.9088 86.7855 100.762 85.737 100.762C84.6885 100.762 83.8385 99.9088 83.8385 98.8564Z" fill="white"/>
<path d="M13.9731 56.7833C13.9731 55.731 14.8231 54.8779 15.8716 54.8779C16.9201 54.8779 17.7701 55.731 17.7701 56.7833C17.7701 57.8357 16.9201 58.6888 15.8716 58.6888C14.8231 58.6888 13.9731 57.8357 13.9731 56.7833Z" fill="white"/>
<path d="M69.8654 56.7833C69.8654 55.731 70.7154 54.8779 71.7639 54.8779C72.8124 54.8779 73.6624 55.731 73.6624 56.7833C73.6624 57.8357 72.8124 58.6888 71.7639 58.6888C70.7154 58.6888 69.8654 57.8357 69.8654 56.7833Z" fill="white"/>
<path d="M13.9731 84.832C13.9731 83.7797 14.8231 82.9266 15.8716 82.9266C16.9201 82.9266 17.7701 83.7797 17.7701 84.832C17.7701 85.8844 16.9201 86.7375 15.8716 86.7375C14.8231 86.7375 13.9731 85.8844 13.9731 84.832Z" fill="white"/>
<path d="M69.8654 84.832C69.8654 83.7797 70.7154 82.9266 71.7639 82.9266C72.8124 82.9266 73.6624 83.7797 73.6624 84.832C73.6624 85.8844 72.8124 86.7375 71.7639 86.7375C70.7154 86.7375 69.8654 85.8844 69.8654 84.832Z" fill="white"/>
<path d="M41.9192 56.7833C41.9192 55.731 42.7692 54.8779 43.8178 54.8779C44.8663 54.8779 45.7163 55.731 45.7163 56.7833C45.7163 57.8357 44.8663 58.6888 43.8178 58.6888C42.7692 58.6888 41.9192 57.8357 41.9192 56.7833Z" fill="white"/>
<path d="M97.8116 56.7833C97.8116 55.731 98.6616 54.8779 99.7101 54.8779C100.759 54.8779 101.609 55.731 101.609 56.7833C101.609 57.8357 100.759 58.6888 99.7101 58.6888C98.6616 58.6888 97.8116 57.8357 97.8116 56.7833Z" fill="white"/>
<path d="M41.9192 84.832C41.9192 83.7797 42.7692 82.9266 43.8178 82.9266C44.8663 82.9266 45.7163 83.7797 45.7163 84.832C45.7163 85.8844 44.8663 86.7375 43.8178 86.7375C42.7692 86.7375 41.9192 85.8844 41.9192 84.832Z" fill="white"/>
<path d="M97.8116 84.832C97.8116 83.7797 98.6616 82.9266 99.7101 82.9266C100.759 82.9266 101.609 83.7797 101.609 84.832C101.609 85.8844 100.759 86.7375 99.7101 86.7375C98.6616 86.7375 97.8116 85.8844 97.8116 84.832Z" fill="white"/>
<path d="M13.9731 70.8077C13.9731 69.7553 14.8231 68.9022 15.8716 68.9022C16.9201 68.9022 17.7701 69.7553 17.7701 70.8077C17.7701 71.8601 16.9201 72.7132 15.8716 72.7132C14.8231 72.7132 13.9731 71.8601 13.9731 70.8077Z" fill="white"/>
<path d="M69.8654 70.8077C69.8654 69.7553 70.7154 68.9022 71.7639 68.9022C72.8124 68.9022 73.6624 69.7553 73.6624 70.8077C73.6624 71.8601 72.8124 72.7132 71.7639 72.7132C70.7154 72.7132 69.8654 71.8601 69.8654 70.8077Z" fill="white"/>
<path d="M13.9731 98.8564C13.9731 97.804 14.8231 96.9509 15.8716 96.9509C16.9201 96.9509 17.7701 97.804 17.7701 98.8564C17.7701 99.9088 16.9201 100.762 15.8716 100.762C14.8231 100.762 13.9731 99.9088 13.9731 98.8564Z" fill="white"/>
<path d="M69.8654 98.8564C69.8654 97.804 70.7154 96.9509 71.7639 96.9509C72.8124 96.9509 73.6624 97.804 73.6624 98.8564C73.6624 99.9088 72.8124 100.762 71.7639 100.762C70.7154 100.762 69.8654 99.9088 69.8654 98.8564Z" fill="white"/>
<path d="M41.9192 70.8077C41.9192 69.7553 42.7692 68.9022 43.8178 68.9022C44.8663 68.9022 45.7163 69.7553 45.7163 70.8077C45.7163 71.8601 44.8663 72.7132 43.8178 72.7132C42.7692 72.7132 41.9192 71.8601 41.9192 70.8077Z" fill="white"/>
<path d="M97.8116 70.8077C97.8116 69.7553 98.6616 68.9022 99.7101 68.9022C100.759 68.9022 101.609 69.7553 101.609 70.8077C101.609 71.8601 100.759 72.7132 99.7101 72.7132C98.6616 72.7132 97.8116 71.8601 97.8116 70.8077Z" fill="white"/>
<path d="M41.9192 98.8564C41.9192 97.804 42.7692 96.9509 43.8178 96.9509C44.8663 96.9509 45.7163 97.804 45.7163 98.8564C45.7163 99.9088 44.8663 100.762 43.8178 100.762C42.7692 100.762 41.9192 99.9088 41.9192 98.8564Z" fill="white"/>
<path d="M97.8116 98.8564C97.8116 97.804 98.6616 96.9509 99.7101 96.9509C100.759 96.9509 101.609 97.804 101.609 98.8564C101.609 99.9088 100.759 100.762 99.7101 100.762C98.6616 100.762 97.8116 99.9088 97.8116 98.8564Z" fill="white"/>
</g>
</svg>
