<svg width="48" height="48" viewBox="0 0 48 48" fill="none" xmlns="http://www.w3.org/2000/svg">
<rect width="48" height="48" rx="12" fill="#EFE8FF"/>
<g clip-path="url(#clip0_30_1083)">
<path d="M34.8182 23.0986C34.8222 24.6384 34.4624 26.1575 33.7682 27.5319C32.945 29.179 31.6796 30.5643 30.1135 31.5327C28.5475 32.5012 26.7428 33.0145 24.9015 33.0153C23.3617 33.0193 21.8426 32.6595 20.4682 31.9653L13.8182 34.1819L16.0348 27.5319C15.3406 26.1575 14.9808 24.6384 14.9848 23.0986C14.9856 21.2573 15.4989 19.4526 16.4673 17.8866C17.4358 16.3205 18.8211 15.0551 20.4682 14.2319C21.8426 13.5377 23.3617 13.1779 24.9015 13.1819H25.4848C27.9166 13.3161 30.2134 14.3425 31.9355 16.0646C33.6576 17.7867 34.684 20.0835 34.8182 22.5153V23.0986Z" stroke="#2E1E91" stroke-width="2" stroke-linecap="round" stroke-linejoin="round"/>
<path d="M25 27.6667V23" stroke="#2E1E91" stroke-width="2" stroke-linecap="round" stroke-linejoin="round"/>
<path d="M25 18.3333H25.0136" stroke="#2E1E91" stroke-width="2" stroke-linecap="round" stroke-linejoin="round"/>
</g>
<defs>
<clipPath id="clip0_30_1083">
<rect width="28" height="28" fill="white" transform="translate(10 10)"/>
</clipPath>
</defs>
</svg>
