<svg width="32" height="32" viewBox="0 0 32 32" fill="none" xmlns="http://www.w3.org/2000/svg">
<rect width="32" height="32" rx="16" fill="#0FD197"/>
<path fill-rule="evenodd" clip-rule="evenodd" d="M19.6225 17.5682C19.4249 17.4699 18.4564 16.9962 18.2761 16.9303C18.0958 16.865 17.9646 16.8326 17.8327 17.0292C17.7014 17.2245 17.3242 17.6665 17.2095 17.7971C17.0942 17.9284 16.9795 17.9443 16.7826 17.8466C16.5857 17.7477 15.9507 17.5412 15.1983 16.8735C14.613 16.3537 14.2172 15.7118 14.1025 15.5152C13.9879 15.3192 14.0899 15.213 14.1887 15.1154C14.2775 15.0276 14.3856 14.8864 14.4844 14.7723C14.5831 14.6575 14.6156 14.5757 14.6812 14.4444C14.7475 14.3138 14.7144 14.1997 14.6647 14.1014C14.6156 14.0031 14.2219 13.0379 14.0575 12.6454C13.8977 12.2634 13.7353 12.3155 13.6146 12.3089C13.4993 12.3036 13.368 12.3023 13.2368 12.3023C13.1055 12.3023 12.8921 12.3511 12.7118 12.5477C12.5308 12.7437 12.0224 13.218 12.0224 14.1832C12.0224 15.1477 12.7277 16.0799 12.8265 16.2112C12.9252 16.3418 14.2152 18.3223 16.1913 19.1713C16.662 19.3732 17.0286 19.4939 17.3143 19.5837C17.7863 19.7334 18.2158 19.7123 18.5552 19.6615C18.9331 19.6054 19.7206 19.1872 19.885 18.7293C20.0487 18.2715 20.0487 17.8789 19.9997 17.7971C19.9506 17.7153 19.8194 17.6665 19.6218 17.5682H19.6225ZM16.0282 22.4521H16.0256C14.8519 22.4523 13.6997 22.1383 12.6899 21.543L12.4513 21.4019L9.9707 22.0497L10.6329 19.643L10.4771 19.3963C9.82097 18.3568 9.47372 17.1538 9.47551 15.9262C9.47684 12.3307 12.4161 9.40549 16.0309 9.40549C17.7809 9.40549 19.4263 10.085 20.6632 11.3174C21.2733 11.922 21.7569 12.6411 22.086 13.433C22.415 14.2249 22.5831 15.0739 22.5803 15.9308C22.579 19.5263 19.6397 22.4521 16.0282 22.4521ZM21.6045 10.3812C20.8742 9.64953 20.0051 9.06938 19.0478 8.67438C18.0905 8.27938 17.0639 8.07739 16.0276 8.08011C11.683 8.08011 8.14574 11.5997 8.14441 15.9255C8.1424 17.3022 8.50528 18.655 9.19643 19.8476L8.07812 23.9134L12.257 22.8222C13.413 23.449 14.7085 23.7775 16.0249 23.7775H16.0282C20.3729 23.7775 23.9101 20.2579 23.9114 15.9314C23.9146 14.9005 23.7124 13.8791 23.3164 12.9264C22.9205 11.9738 22.3386 11.1087 21.6045 10.3812Z" fill="white"/>
</svg>
