<svg width="48" height="48" viewBox="0 0 48 48" fill="none" xmlns="http://www.w3.org/2000/svg">
<circle cx="24" cy="24" r="24" fill="#2E1E91"/>
<path d="M15.4913 32.5084C13.3259 30.3431 13.3259 26.8322 15.4913 24.6668L20.0797 20.0784L24.6681 15.4901C26.8335 13.3247 30.3443 13.3247 32.5097 15.49C34.6751 17.6554 34.6751 21.1663 32.5097 23.3317L27.9213 27.9201L23.3329 32.5084C21.1675 34.6738 17.6567 34.6738 15.4913 32.5084Z" stroke="white" stroke-width="2"/>
<circle cx="18.9961" cy="24.8376" r="0.875" fill="white"/>
<circle cx="17.832" cy="30.6709" r="0.875" fill="white"/>
<circle cx="23.082" cy="28.9304" r="0.875" fill="white"/>
<circle cx="21.9297" cy="26.009" r="0.875" fill="white"/>
<circle cx="19.582" cy="28.3364" r="0.875" fill="white"/>
<circle cx="20.7461" cy="31.2412" r="0.875" fill="white"/>
<circle cx="16.6641" cy="27.759" r="0.875" fill="white"/>
</svg>
