<svg width="22" height="23" viewBox="0 0 22 23" fill="none" xmlns="http://www.w3.org/2000/svg">
<path d="M19.5 10.7917C19.5032 12.0016 19.2205 13.1951 18.675 14.275C18.0282 15.5691 17.0339 16.6576 15.8035 17.4185C14.5731 18.1795 13.1551 18.5828 11.7083 18.5834C10.4985 18.5865 9.30494 18.3038 8.225 17.7584L3 19.5L4.74167 14.275C4.19619 13.1951 3.91351 12.0016 3.91667 10.7917C3.91723 9.34497 4.32056 7.92697 5.08149 6.69653C5.84242 5.46609 6.9309 4.4718 8.225 3.82503C9.30494 3.27955 10.4985 2.99687 11.7083 3.00003H12.1667C14.0773 3.10544 15.882 3.91189 17.235 5.26498C18.5881 6.61807 19.3946 8.42271 19.5 10.3334V10.7917Z" stroke="white" stroke-width="2" stroke-linecap="round" stroke-linejoin="round"/>
</svg>
