<svg width="22" height="23" viewBox="0 0 22 23" fill="none" xmlns="http://www.w3.org/2000/svg">
<path d="M9.625 9.89575H12.375" stroke="white" stroke-width="2" stroke-miterlimit="10" stroke-linecap="round" stroke-linejoin="round"/>
<path d="M11 8.52075V11.2708" stroke="white" stroke-width="2" stroke-miterlimit="10" stroke-linecap="round" stroke-linejoin="round"/>
<path d="M8.02148 13.5625H13.9798" stroke="white" stroke-width="2" stroke-miterlimit="10" stroke-linecap="round" stroke-linejoin="round"/>
<path d="M8.02148 15.854H13.9798" stroke="white" stroke-width="2" stroke-miterlimit="10" stroke-linecap="round" stroke-linejoin="round"/>
<path d="M13.9785 4.396H16.2702C17.0296 4.396 17.6452 5.01154 17.6452 5.771V18.146C17.6452 18.9055 17.0296 19.521 16.2702 19.521H5.72852C4.96906 19.521 4.35352 18.9055 4.35352 18.146V5.771C4.35352 5.01154 4.96906 4.396 5.72852 4.396H8.02018" stroke="white" stroke-width="2" stroke-miterlimit="10" stroke-linecap="round" stroke-linejoin="round"/>
<path d="M12.6048 2.5625C12.251 2.5625 9.64811 2.5625 9.39648 2.5625C8.63703 2.5625 8.02148 3.17804 8.02148 3.9375C8.02148 4.69696 8.63703 5.3125 9.39648 5.3125C9.64811 5.3125 12.251 5.3125 12.6048 5.3125C13.3643 5.3125 13.9798 4.69696 13.9798 3.9375C13.9798 3.17804 13.3643 2.5625 12.6048 2.5625Z" stroke="white" stroke-width="2" stroke-miterlimit="10" stroke-linecap="round" stroke-linejoin="round"/>
</svg>
