<svg width="22" height="23" viewBox="0 0 22 23" fill="none" xmlns="http://www.w3.org/2000/svg">
<path d="M16.2708 19.0625H5.72917C4.46371 19.0625 3.4375 18.0363 3.4375 16.7708V6.22917C3.4375 4.96371 4.46371 3.9375 5.72917 3.9375H16.2708C17.5363 3.9375 18.5625 4.96371 18.5625 6.22917V16.7708C18.5625 18.0363 17.5363 19.0625 16.2708 19.0625Z" stroke="white" stroke-width="2" stroke-miterlimit="10"/>
<path d="M3.4375 7.60425H18.5625" stroke="white" stroke-width="2" stroke-miterlimit="10"/>
<path d="M7.10482 12.4167C7.73764 12.4167 8.25065 11.9037 8.25065 11.2708C8.25065 10.638 7.73764 10.125 7.10482 10.125C6.47199 10.125 5.95898 10.638 5.95898 11.2708C5.95898 11.9037 6.47199 12.4167 7.10482 12.4167Z" fill="white"/>
<path d="M10.9993 12.4167C11.6322 12.4167 12.1452 11.9037 12.1452 11.2708C12.1452 10.638 11.6322 10.125 10.9993 10.125C10.3665 10.125 9.85352 10.638 9.85352 11.2708C9.85352 11.9037 10.3665 12.4167 10.9993 12.4167Z" fill="white"/>
<path d="M7.10482 16.5417C7.73764 16.5417 8.25065 16.0287 8.25065 15.3958C8.25065 14.763 7.73764 14.25 7.10482 14.25C6.47199 14.25 5.95898 14.763 5.95898 15.3958C5.95898 16.0287 6.47199 16.5417 7.10482 16.5417Z" fill="white"/>
<path d="M10.9993 16.5417C11.6322 16.5417 12.1452 16.0287 12.1452 15.3958C12.1452 14.763 11.6322 14.25 10.9993 14.25C10.3665 14.25 9.85352 14.763 9.85352 15.3958C9.85352 16.0287 10.3665 16.5417 10.9993 16.5417Z" fill="white"/>
<path d="M14.8958 12.4167C15.5287 12.4167 16.0417 11.9037 16.0417 11.2708C16.0417 10.638 15.5287 10.125 14.8958 10.125C14.263 10.125 13.75 10.638 13.75 11.2708C13.75 11.9037 14.263 12.4167 14.8958 12.4167Z" fill="white"/>
</svg>
