<svg width="44" height="44" viewBox="0 0 44 44" fill="none" xmlns="http://www.w3.org/2000/svg">
<rect width="44" height="44" rx="22" fill="#2E1E91"/>
<path d="M27.75 30.25H16.25C14.8695 30.25 13.75 29.1305 13.75 27.75V16.25C13.75 14.8695 14.8695 13.75 16.25 13.75H27.75C29.1305 13.75 30.25 14.8695 30.25 16.25V27.75C30.25 29.1305 29.1305 30.25 27.75 30.25Z" stroke="white" stroke-width="2" stroke-miterlimit="10"/>
<path d="M13.75 17.75H30.25" stroke="white" stroke-width="2" stroke-miterlimit="10"/>
<path d="M17.75 23C18.4404 23 19 22.4404 19 21.75C19 21.0596 18.4404 20.5 17.75 20.5C17.0596 20.5 16.5 21.0596 16.5 21.75C16.5 22.4404 17.0596 23 17.75 23Z" fill="white"/>
<path d="M22 23C22.6904 23 23.25 22.4404 23.25 21.75C23.25 21.0596 22.6904 20.5 22 20.5C21.3096 20.5 20.75 21.0596 20.75 21.75C20.75 22.4404 21.3096 23 22 23Z" fill="white"/>
<path d="M17.75 27.5C18.4404 27.5 19 26.9404 19 26.25C19 25.5596 18.4404 25 17.75 25C17.0596 25 16.5 25.5596 16.5 26.25C16.5 26.9404 17.0596 27.5 17.75 27.5Z" fill="white"/>
<path d="M22 27.5C22.6904 27.5 23.25 26.9404 23.25 26.25C23.25 25.5596 22.6904 25 22 25C21.3096 25 20.75 25.5596 20.75 26.25C20.75 26.9404 21.3096 27.5 22 27.5Z" fill="white"/>
<path d="M26.25 23C26.9404 23 27.5 22.4404 27.5 21.75C27.5 21.0596 26.9404 20.5 26.25 20.5C25.5596 20.5 25 21.0596 25 21.75C25 22.4404 25.5596 23 26.25 23Z" fill="white"/>
</svg>
