<svg width="32" height="32" viewBox="0 0 32 32" fill="none" xmlns="http://www.w3.org/2000/svg">
<rect y="0.00012207" width="32" height="32" rx="16" fill="#E6FFF3"/>
<path d="M23.5 15.5835C23.5029 16.6834 23.2459 17.7684 22.75 18.7501C22.162 19.9266 21.2581 20.9161 20.1395 21.6079C19.021 22.2996 17.7319 22.6663 16.4167 22.6668C15.3168 22.6697 14.2318 22.4127 13.25 21.9168L8.5 23.5001L10.0833 18.7501C9.58744 17.7684 9.33047 16.6834 9.33333 15.5835C9.33384 14.2683 9.70051 12.9792 10.3923 11.8606C11.084 10.742 12.0735 9.83812 13.25 9.25015C14.2318 8.75426 15.3168 8.49728 16.4167 8.50015H16.8333C18.5703 8.59597 20.2109 9.32911 21.441 10.5592C22.671 11.7893 23.4042 13.4299 23.5 15.1668V15.5835Z" stroke="#0FD197" stroke-width="1.5" stroke-linecap="round" stroke-linejoin="round"/>
</svg>
