<svg width="24" height="24" viewBox="0 0 24 24" fill="none" xmlns="http://www.w3.org/2000/svg">
<path d="M12 19.75V22.75" stroke="white" stroke-width="2" stroke-miterlimit="10" stroke-linecap="round" stroke-linejoin="round"/>
<path d="M15 9V13C15 14.655 13.655 16 12 16C10.915 16 9.965 15.425 9.44 14.56L8.36 15.64C9.18 16.765 10.505 17.5 12 17.5C14.48 17.5 16.5 15.48 16.5 13V7.5L15 9ZM9 5.5C9 3.845 10.345 2.5 12 2.5C13.655 2.5 15 3.845 15 5.5V5.82L16.375 4.445C15.9 2.47 14.115 1 12 1C9.52 1 7.5 3.02 7.5 5.5V13C7.5 13.105 7.505 13.21 7.51 13.31L9 11.82V5.5Z" fill="white"/>
<path d="M5.25 11.25C5.25 11.25 5.25 11.75 5.25 13C5.25 16.728 8.272 19.75 12 19.75" stroke="white" stroke-width="2" stroke-miterlimit="10" stroke-linecap="round" stroke-linejoin="round"/>
<path d="M12 19.75V22.75" stroke="white" stroke-width="2" stroke-miterlimit="10" stroke-linecap="round" stroke-linejoin="round"/>
<path d="M6 13C6 13.555 6.075 14.09 6.22 14.6L5.035 15.785C4.69 14.925 4.5 13.985 4.5 13V11.25C4.5 10.835 4.835 10.5 5.25 10.5C5.665 10.5 6 10.835 6 11.25V13Z" fill="white"/>
<path d="M19.5016 11.25V13C19.5016 17.135 16.1366 20.5 12.0016 20.5C9.68156 20.5 7.60156 19.44 6.22656 17.775L7.29156 16.71C8.38656 18.105 10.0916 19 12.0016 19C15.3116 19 18.0016 16.31 18.0016 13V11.25C18.0016 10.835 18.3366 10.5 18.7516 10.5C19.1666 10.5 19.5016 10.835 19.5016 11.25Z" fill="white"/>
<path d="M2.75 21.25L21.25 2.75" stroke="#FF475D" stroke-width="2" stroke-miterlimit="10" stroke-linecap="round"/>
</svg>
