<svg width="16" height="16" viewBox="0 0 16 16" fill="none" xmlns="http://www.w3.org/2000/svg">
<path d="M8 13.1667V15.1667" stroke="#FF475D" stroke-width="1.33" stroke-miterlimit="10" stroke-linecap="round" stroke-linejoin="round"/>
<path d="M10 6.00008V8.66675C10 9.77008 9.10333 10.6667 8 10.6667C7.27667 10.6667 6.64333 10.2834 6.29333 9.70675L5.57333 10.4267C6.12 11.1767 7.00333 11.6667 8 11.6667C9.65333 11.6667 11 10.3201 11 8.66675V5.00008L10 6.00008ZM6 3.66675C6 2.56341 6.89667 1.66675 8 1.66675C9.10333 1.66675 10 2.56341 10 3.66675V3.88008L10.9167 2.96341C10.6 1.64675 9.41 0.666748 8 0.666748C6.34667 0.666748 5 2.01341 5 3.66675V8.66675C5 8.73675 5.00333 8.80675 5.00667 8.87341L6 7.88008V3.66675Z" fill="#FF475D"/>
<path d="M3.5 7.5C3.5 7.5 3.5 7.83333 3.5 8.66667C3.5 11.152 5.51467 13.1667 8 13.1667" stroke="#FF475D" stroke-width="1.33" stroke-miterlimit="10" stroke-linecap="round" stroke-linejoin="round"/>
<path d="M8 13.1667V15.1667" stroke="#FF475D" stroke-width="1.33" stroke-miterlimit="10" stroke-linecap="round" stroke-linejoin="round"/>
<path d="M4 8.66667C4 9.03667 4.05 9.39333 4.14667 9.73333L3.35667 10.5233C3.12667 9.95 3 9.32333 3 8.66667V7.5C3 7.22333 3.22333 7 3.5 7C3.77667 7 4 7.22333 4 7.5V8.66667Z" fill="#FF475D"/>
<path d="M12.9984 7.5V8.66667C12.9984 11.4233 10.7551 13.6667 7.99844 13.6667C6.45177 13.6667 5.0651 12.96 4.14844 11.85L4.85844 11.14C5.58844 12.07 6.7251 12.6667 7.99844 12.6667C10.2051 12.6667 11.9984 10.8733 11.9984 8.66667V7.5C11.9984 7.22333 12.2218 7 12.4984 7C12.7751 7 12.9984 7.22333 12.9984 7.5Z" fill="#FF475D"/>
<path d="M1.83594 14.1666L14.1693 1.83325" stroke="#FF475D" stroke-width="1.33" stroke-miterlimit="10" stroke-linecap="round"/>
</svg>
