<svg width="48" height="48" viewBox="0 0 48 48" fill="none" xmlns="http://www.w3.org/2000/svg">
<circle cx="24" cy="24" r="24" fill="#2E1E91"/>
<path d="M26.1292 13.6282L17.027 13.6282C16.5267 13.6282 16.0469 13.8632 15.6931 14.2814C15.3394 14.6997 15.1406 15.267 15.1406 15.8585V31.4709C15.1406 32.0625 15.3394 32.6298 15.6931 33.048C16.0469 33.4663 16.5267 33.7013 17.027 33.7013H30.2316C30.7319 33.7013 31.2117 33.4663 31.5654 33.048C31.9192 32.6298 32.1179 32.0625 32.1179 31.4709V23.2881" stroke="white" stroke-width="2" stroke-linecap="round" stroke-linejoin="round"/>
<path d="M31.6394 13.2875C32.0128 12.9141 32.5192 12.7043 33.0472 12.7043C33.5752 12.7043 34.0816 12.9141 34.4549 13.2875C34.8283 13.6608 35.0381 14.1672 35.0381 14.6952C35.0381 15.2232 34.8283 15.7296 34.4549 16.103L25.5392 25.0187L21.7852 25.9572L22.7237 22.2032L31.6394 13.2875Z" stroke="white" stroke-width="2" stroke-linecap="round" stroke-linejoin="round"/>
</svg>
