<svg width="28" height="28" viewBox="0 0 28 28" fill="none" xmlns="http://www.w3.org/2000/svg">
<path d="M11.6734 6.75769C8.04288 6.92869 5.24988 10.0562 5.24988 13.6907V17.5002L3.84638 20.3242C3.53438 20.9877 4.01788 21.7502 4.75088 21.7502H19.2484C19.9814 21.7502 20.4654 20.9877 20.1534 20.3242L18.7499 17.5002V13.5002C18.7499 9.66419 15.5499 6.57519 11.6734 6.75769Z" stroke="#2E1E91" stroke-width="2" stroke-miterlimit="10" stroke-linecap="round" stroke-linejoin="round"/>
<path d="M14.25 22.5C14.25 23.7425 13.2425 24.75 12 24.75C10.7575 24.75 9.75 23.7425 9.75 22.5" stroke="#2E1E91" stroke-width="2" stroke-miterlimit="10" stroke-linecap="round" stroke-linejoin="round"/>
<rect x="12" width="16" height="16" rx="8" fill="#EA315B"/>
<path d="M17.1843 12V10.884C17.6963 10.46 18.1923 10.04 18.6723 9.624C19.1603 9.208 19.5923 8.796 19.9683 8.388C20.3523 7.98 20.6563 7.584 20.8803 7.2C21.1123 6.808 21.2283 6.428 21.2283 6.06C21.2283 5.716 21.1323 5.412 20.9403 5.148C20.7563 4.884 20.4483 4.752 20.0163 4.752C19.5763 4.752 19.2443 4.896 19.0203 5.184C18.7963 5.472 18.6843 5.82 18.6843 6.228H17.1963C17.2123 5.612 17.3483 5.1 17.6043 4.692C17.8603 4.276 18.2003 3.968 18.6243 3.768C19.0483 3.56 19.5243 3.456 20.0523 3.456C20.9083 3.456 21.5723 3.692 22.0443 4.164C22.5243 4.628 22.7643 5.232 22.7643 5.976C22.7643 6.44 22.6563 6.892 22.4403 7.332C22.2323 7.772 21.9563 8.196 21.6123 8.604C21.2683 9.012 20.8963 9.396 20.4963 9.756C20.0963 10.108 19.7083 10.436 19.3323 10.74H22.9683V12H17.1843Z" fill="white"/>
</svg>
