<svg width="33" height="32" viewBox="0 0 33 32" fill="none" xmlns="http://www.w3.org/2000/svg">
<rect x="0.832031" width="32" height="32" rx="16" fill="#E6FFF3"/>
<path d="M13.1259 8.65334C12.2834 8.9025 11.6234 9.57584 11.403 10.4108C10.848 12.5167 11.4734 15.1254 13.263 18.1642C15.05 21.1988 17.0388 23.0338 19.173 23.6179C20.0255 23.8513 20.955 23.6254 21.5975 23.0283L22.3475 22.3321C22.9592 21.7642 23.0488 20.8308 22.5559 20.1604L21.4721 18.6883C21.0488 18.1133 20.3005 17.8658 19.6084 18.0738L17.9071 18.5833C17.4634 18.7129 17.078 18.3771 16.9321 18.2508C16.5796 17.9446 16.193 17.435 15.7817 16.7375C14.9 15.2404 14.9642 14.6783 14.985 14.4938C15.0075 14.2963 15.1013 14.1129 15.25 13.9775L16.5146 12.8217C17.0438 12.3379 17.1996 11.5783 16.903 10.9317L16.14 9.26792C15.7934 8.51167 14.92 8.1225 14.1121 8.36125L13.1259 8.65334Z" stroke="#0FD197" stroke-width="1.5" stroke-miterlimit="10"/>
</svg>
