<svg width="9" height="8" viewBox="0 0 9 8" fill="none" xmlns="http://www.w3.org/2000/svg">
<path d="M8.73198 6.77125C8.56615 7.23625 7.75365 7.68417 7.38865 7.71667C7.02365 7.75 6.68156 7.88167 5.00073 7.21917C2.97781 6.42167 1.70073 4.34792 1.60156 4.21583C1.50198 4.0825 0.789062 3.13708 0.789062 2.15792C0.789062 1.17875 1.30323 0.697083 1.48573 0.49875C1.66865 0.299583 1.88406 0.25 2.01698 0.25C2.14948 0.25 2.2824 0.25 2.39823 0.254583C2.54031 0.26 2.6974 0.2675 2.84615 0.598334C3.02323 0.992084 3.4099 1.97625 3.45948 2.07583C3.50906 2.17542 3.5424 2.29208 3.47615 2.42417C3.4099 2.55667 3.37656 2.63958 3.27781 2.75583C3.17823 2.87208 3.06906 3.015 2.97948 3.10417C2.8799 3.20292 2.77615 3.31167 2.89198 3.51C3.00823 3.70917 3.40698 4.36083 3.99865 4.88792C4.75948 5.56583 5.39948 5.77542 5.59906 5.87583C5.79823 5.97542 5.91406 5.95875 6.03031 5.82542C6.14656 5.69292 6.52781 5.245 6.66031 5.04583C6.79281 4.84667 6.92573 4.88 7.10823 4.94625C7.29073 5.0125 8.26906 5.49417 8.46781 5.59375C8.66698 5.69333 8.79948 5.74292 8.84906 5.82583C8.89781 5.90792 8.89781 6.30625 8.73198 6.77125Z" fill="#0FD197"/>
</svg>
