<svg width="44" height="44" viewBox="0 0 44 44" fill="none" xmlns="http://www.w3.org/2000/svg">
<rect width="44" height="44" rx="22" fill="#2E1E91"/>
<path d="M20.5 20.25H23.5" stroke="white" stroke-width="2" stroke-miterlimit="10" stroke-linecap="round" stroke-linejoin="round"/>
<path d="M22 18.75V21.75" stroke="white" stroke-width="1.33" stroke-miterlimit="10" stroke-linecap="round" stroke-linejoin="round"/>
<path d="M18.75 24.25H25.25" stroke="white" stroke-width="2" stroke-miterlimit="10" stroke-linecap="round" stroke-linejoin="round"/>
<path d="M18.75 26.75H25.25" stroke="white" stroke-width="2" stroke-miterlimit="10" stroke-linecap="round" stroke-linejoin="round"/>
<path d="M25.25 14.25H27.75C28.5785 14.25 29.25 14.9215 29.25 15.75V29.25C29.25 30.0785 28.5785 30.75 27.75 30.75H16.25C15.4215 30.75 14.75 30.0785 14.75 29.25V15.75C14.75 14.9215 15.4215 14.25 16.25 14.25H18.75" stroke="white" stroke-width="2" stroke-miterlimit="10" stroke-linecap="round" stroke-linejoin="round"/>
<path d="M23.75 12.25C23.364 12.25 20.5245 12.25 20.25 12.25C19.4215 12.25 18.75 12.9215 18.75 13.75C18.75 14.5785 19.4215 15.25 20.25 15.25C20.5245 15.25 23.364 15.25 23.75 15.25C24.5785 15.25 25.25 14.5785 25.25 13.75C25.25 12.9215 24.5785 12.25 23.75 12.25Z" stroke="white" stroke-width="2" stroke-miterlimit="10" stroke-linecap="round" stroke-linejoin="round"/>
</svg>
