<svg width="22" height="22" viewBox="0 0 22 22" fill="none" xmlns="http://www.w3.org/2000/svg">
<path d="M9.625 9.396H12.375" stroke="#2E1E91" stroke-width="1.33" stroke-miterlimit="10" stroke-linecap="round" stroke-linejoin="round"/>
<path d="M11 8.021V10.771" stroke="#2E1E91" stroke-width="1.33" stroke-miterlimit="10" stroke-linecap="round" stroke-linejoin="round"/>
<path d="M8.02344 13.0625H13.9818" stroke="#2E1E91" stroke-width="1.33" stroke-miterlimit="10" stroke-linecap="round" stroke-linejoin="round"/>
<path d="M8.02344 15.3545H13.9818" stroke="#2E1E91" stroke-width="1.33" stroke-miterlimit="10" stroke-linecap="round" stroke-linejoin="round"/>
<path d="M13.9766 3.89551H16.2682C17.0277 3.89551 17.6432 4.51105 17.6432 5.27051V17.6455C17.6432 18.405 17.0277 19.0205 16.2682 19.0205H5.72656C4.9671 19.0205 4.35156 18.405 4.35156 17.6455V5.27051C4.35156 4.51105 4.9671 3.89551 5.72656 3.89551H8.01823" stroke="#2E1E91" stroke-width="1.33" stroke-miterlimit="10" stroke-linecap="round" stroke-linejoin="round"/>
<path d="M12.6068 2.0625C12.2529 2.0625 9.65006 2.0625 9.39844 2.0625C8.63898 2.0625 8.02344 2.67804 8.02344 3.4375C8.02344 4.19696 8.63898 4.8125 9.39844 4.8125C9.65006 4.8125 12.2529 4.8125 12.6068 4.8125C13.3662 4.8125 13.9818 4.19696 13.9818 3.4375C13.9818 2.67804 13.3662 2.0625 12.6068 2.0625Z" stroke="#2E1E91" stroke-width="1.33" stroke-miterlimit="10" stroke-linecap="round" stroke-linejoin="round"/>
</svg>
