<svg width="48" height="48" viewBox="0 0 48 48" fill="none" xmlns="http://www.w3.org/2000/svg">
<circle cx="24" cy="24" r="24" fill="#0FD197"/>
<path d="M21.9427 22.6845C24.6811 22.6845 26.901 20.4646 26.901 17.7262C26.901 14.9877 24.6811 12.7678 21.9427 12.7678C19.2043 12.7678 16.9844 14.9877 16.9844 17.7262C16.9844 20.4646 19.2043 22.6845 21.9427 22.6845Z" stroke="white" stroke-width="2" stroke-miterlimit="5"/>
<path d="M26.2895 33.5296C26.2209 33.5396 25.5625 33.9754 24.7269 34.0842C24.6581 34.0932 23.7384 34.2447 23.6693 34.2527C18.9511 34.7976 13.4844 33.0804 13.4844 29.1012V28.2139C13.4844 27.4153 14.1319 26.7678 14.9305 26.7678H24.2496" stroke="white" stroke-width="2" stroke-miterlimit="10" stroke-linecap="round"/>
<path d="M28.5506 22.9956C27.8269 23.2096 27.26 23.788 27.0706 24.5052C26.5939 26.3141 27.1311 28.5549 28.6683 31.1651C30.2034 33.7717 31.9116 35.3479 33.7448 35.8497C34.4771 36.0501 35.2756 35.8561 35.8274 35.3432L36.4717 34.7452C36.9971 34.2573 37.074 33.4556 36.6506 32.8798L35.7197 31.6153C35.3561 31.1214 34.7133 30.9088 34.1188 31.0874L32.6575 31.5251C32.2763 31.6364 31.9453 31.348 31.82 31.2395C31.5172 30.9765 31.1851 30.5387 30.8318 29.9396C30.0745 28.6537 30.1296 28.1709 30.1475 28.0123C30.1669 27.8427 30.2474 27.6852 30.3751 27.5689L31.4614 26.576C31.9159 26.1605 32.0498 25.5081 31.795 24.9526L31.1396 23.5235C30.8419 22.8739 30.0917 22.5396 29.3977 22.7447L28.5506 22.9956Z" stroke="white" stroke-width="2" stroke-miterlimit="10"/>
</svg>
