<svg width="48" height="48" viewBox="0 0 48 48" fill="none" xmlns="http://www.w3.org/2000/svg">
<rect width="48" height="48" rx="24" fill="#EFE8FF"/>
<path d="M18.4609 21.375C18.4609 21.375 24.0026 21.375 26.6276 19.0417C26.6276 19.0417 31.2943 19.625 31.2943 24.875C30.9898 30.4231 27.8503 34.7917 24.0026 34.7917C20.1549 34.7917 17.0154 30.4231 16.7109 24.875" stroke="#2E1E91" stroke-width="2" stroke-miterlimit="10" stroke-linecap="round" stroke-linejoin="round"/>
<path d="M27.3139 33.625H33.0417C34.3302 33.625 35.375 32.5802 35.375 31.2916V28.375C35.375 17.2916 29.9926 14.6666 27.5 14.6666C27.5 14.6666 26.3333 13.2083 23.4167 13.2083C17.7146 13.2083 12.625 17.2916 12.625 28.375V31.2916C12.625 32.5802 13.6697 33.625 14.9583 33.625H20.703" stroke="#2E1E91" stroke-width="2" stroke-miterlimit="10" stroke-linecap="round" stroke-linejoin="round"/>
<path d="M21.1332 26.0654C21.7677 26.0654 22.282 25.5511 22.282 24.9166C22.282 24.2821 21.7677 23.7678 21.1332 23.7678C20.4987 23.7678 19.9844 24.2821 19.9844 24.9166C19.9844 25.5511 20.4987 26.0654 21.1332 26.0654Z" fill="#2E1E91"/>
<path d="M26.8832 26.0654C27.5177 26.0654 28.032 25.5511 28.032 24.9166C28.032 24.2821 27.5177 23.7678 26.8832 23.7678C26.2487 23.7678 25.7344 24.2821 25.7344 24.9166C25.7344 25.5511 26.2487 26.0654 26.8832 26.0654Z" fill="#2E1E91"/>
</svg>
