<svg width="32" height="32" viewBox="0 0 32 32" fill="none" xmlns="http://www.w3.org/2000/svg">
<path d="M6.66797 19.3332V5.33317C6.66797 4.62593 6.94892 3.94765 7.44902 3.44755C7.94911 2.94746 8.62739 2.6665 9.33464 2.6665H18.668L28.0013 11.9998V26.6665C28.0013 27.3737 27.7204 28.052 27.2203 28.5521C26.7202 29.0522 26.0419 29.3332 25.3346 29.3332H24.0013" stroke="#2E1E91" stroke-width="2" stroke-linecap="round" stroke-linejoin="round"/>
<path d="M18.668 2.6665V11.9998H28.0013" stroke="#2E1E91" stroke-width="2" stroke-linecap="round" stroke-linejoin="round"/>
<path d="M4 30.1332V22.6665H6.76267C7.36 22.6665 7.85422 22.7661 8.24533 22.9652C8.63644 23.1643 8.928 23.4381 9.12 23.7865C9.312 24.1349 9.408 24.5261 9.408 24.9598C9.408 25.3723 9.31556 25.7527 9.13067 26.1012C8.94578 26.4425 8.65778 26.7198 8.26667 26.9332C7.87556 27.1394 7.37422 27.2425 6.76267 27.2425H5.36533V30.1332H4ZM5.36533 26.1332H6.67733C7.15378 26.1332 7.49511 26.0301 7.70133 25.8238C7.91467 25.6105 8.02133 25.3225 8.02133 24.9598C8.02133 24.5901 7.91467 24.3021 7.70133 24.0958C7.49511 23.8825 7.15378 23.7758 6.67733 23.7758H5.36533V26.1332Z" fill="#2E1E91"/>
<path d="M10.4792 30.1332V22.6665H13.0285C13.9032 22.6665 14.6214 22.8229 15.1832 23.1358C15.7521 23.4416 16.1716 23.8754 16.4418 24.4372C16.7192 24.9918 16.8578 25.6461 16.8578 26.3998C16.8578 27.1536 16.7192 27.8114 16.4418 28.3732C16.1716 28.9278 15.7521 29.3616 15.1832 29.6745C14.6214 29.9803 13.9032 30.1332 13.0285 30.1332H10.4792ZM11.8445 28.9598H12.9645C13.5903 28.9598 14.0845 28.8603 14.4472 28.6612C14.8098 28.4549 15.0694 28.1634 15.2258 27.7865C15.3823 27.4025 15.4605 26.9403 15.4605 26.3998C15.4605 25.8665 15.3823 25.4078 15.2258 25.0238C15.0694 24.6398 14.8098 24.3447 14.4472 24.1385C14.0845 23.9323 13.5903 23.8292 12.9645 23.8292H11.8445V28.9598Z" fill="#2E1E91"/>
<path d="M18.0625 30.1332V22.6665H22.8838V23.7652H19.4278V25.8558H22.2225V26.9332H19.4278V30.1332H18.0625Z" fill="#2E1E91"/>
</svg>
