<svg width="45" height="44" viewBox="0 0 45 44" fill="none" xmlns="http://www.w3.org/2000/svg">
<rect x="0.5" width="44" height="44" rx="22" fill="#0FD197"/>
<g clip-path="url(#clip0_5367_55627)">
<path d="M25.75 14.2501H28.25C29.0785 14.2501 29.75 14.9216 29.75 15.7501V16.0001M19.25 14.2501H16.75C15.9215 14.2501 15.25 14.9216 15.25 15.7501C15.25 21.0221 15.25 23.978 15.25 29.2501C15.25 30.0786 15.9215 30.7501 16.75 30.7501H28.25C29.0785 30.7501 29.75 30.0786 29.75 29.2501V27.3254" stroke="white" stroke-width="2" stroke-miterlimit="10" stroke-linecap="round" stroke-linejoin="round"/>
<path d="M18.9434 19.236H24.6165M18.9434 22.5001H20.5549H21.7837" stroke="white" stroke-width="1.6" stroke-linecap="round" stroke-linejoin="round"/>
<path d="M30.8059 18.2448C31.0678 17.9628 31.4296 17.7978 31.8118 17.7861C32.194 17.7744 32.5652 17.9169 32.8438 18.1823C33.1225 18.4477 33.2857 18.8143 33.2975 19.2013C33.3094 19.5883 33.169 19.9642 32.9071 20.2462L26.6542 26.9796L23.9581 27.7509L24.553 24.9783L30.8059 18.2448Z" stroke="white" stroke-width="2" stroke-linecap="round" stroke-linejoin="round"/>
<path d="M24.25 12.25C23.864 12.25 21.0245 12.25 20.75 12.25C19.9215 12.25 19.25 12.9215 19.25 13.75C19.25 14.5785 19.9215 15.25 20.75 15.25C21.0245 15.25 23.864 15.25 24.25 15.25C25.0785 15.25 25.75 14.5785 25.75 13.75C25.75 12.9215 25.0785 12.25 24.25 12.25Z" stroke="white" stroke-width="2" stroke-miterlimit="10" stroke-linecap="round" stroke-linejoin="round"/>
</g>
<defs>
<clipPath id="clip0_5367_55627">
<rect width="24" height="24" fill="white" transform="translate(10.5 10)"/>
</clipPath>
</defs>
</svg>
