<svg width="25" height="25" viewBox="0 0 25 25" fill="none" xmlns="http://www.w3.org/2000/svg">
<path d="M8.38854 3.684C7.37754 3.983 6.58554 4.791 6.32104 5.793C5.65504 8.32 6.40554 11.4505 8.55304 15.097C10.6975 18.7385 13.084 20.9405 15.645 21.6415C16.668 21.9215 17.7835 21.6505 18.5545 20.934L19.4545 20.0985C20.1885 19.417 20.296 18.297 19.7045 17.4925L18.404 15.726C17.896 15.036 16.998 14.739 16.1675 14.9885L14.126 15.6C13.5935 15.7555 13.131 15.3525 12.956 15.201C12.533 14.8335 12.069 14.222 11.5755 13.385C10.5175 11.5885 10.5945 10.914 10.6195 10.6925C10.6465 10.4555 10.759 10.2355 10.9375 10.073L12.455 8.686C13.09 8.1055 13.277 7.194 12.921 6.418L12.0055 4.4215C11.5895 3.514 10.5415 3.047 9.57204 3.3335L8.38854 3.684Z" stroke="#1B163A" stroke-width="1.5" stroke-miterlimit="10"/>
</svg>
