<svg width="24" height="24" viewBox="0 0 24 24" fill="none" xmlns="http://www.w3.org/2000/svg">
<path d="M7.5526 3.184C6.5416 3.483 5.74961 4.291 5.48511 5.293C4.81911 7.82 5.56961 10.9505 7.71711 14.597C9.86161 18.2385 12.2481 20.4405 14.8091 21.1415C15.8321 21.4215 16.9476 21.1505 17.7186 20.434L18.6186 19.5985C19.3526 18.917 19.4601 17.797 18.8686 16.9925L17.5681 15.226C17.0601 14.536 16.1621 14.239 15.3316 14.4885L13.2901 15.1C12.7576 15.2555 12.2951 14.8525 12.1201 14.701C11.6971 14.3335 11.2331 13.722 10.7396 12.885C9.68161 11.0885 9.75861 10.414 9.78361 10.1925C9.81061 9.9555 9.9231 9.7355 10.1016 9.573L11.6191 8.186C12.2541 7.6055 12.4411 6.694 12.0851 5.918L11.1696 3.9215C10.7536 3.014 9.70561 2.547 8.73611 2.8335L7.5526 3.184Z" stroke="white" stroke-width="2" stroke-miterlimit="10"/>
</svg>
