<svg width="32" height="32" viewBox="0 0 32 32" fill="none" xmlns="http://www.w3.org/2000/svg">
<rect width="32" height="32" rx="16" fill="#0FD197"/>
<path d="M12.2938 8.65334C11.4513 8.9025 10.7913 9.57584 10.5709 10.4108C10.0159 12.5167 10.6413 15.1254 12.4309 18.1642C14.218 21.1988 16.2068 23.0338 18.3409 23.6179C19.1934 23.8513 20.123 23.6254 20.7655 23.0283L21.5155 22.3321C22.1272 21.7642 22.2168 20.8308 21.7238 20.1604L20.6401 18.6883C20.2168 18.1133 19.4684 17.8658 18.7763 18.0738L17.0751 18.5833C16.6313 18.7129 16.2459 18.3771 16.1001 18.2508C15.7476 17.9446 15.3609 17.435 14.9497 16.7375C14.068 15.2404 14.1322 14.6783 14.153 14.4938C14.1755 14.2963 14.2693 14.1129 14.418 13.9775L15.6826 12.8217C16.2118 12.3379 16.3676 11.5783 16.0709 10.9317L15.308 9.26792C14.9613 8.51167 14.088 8.1225 13.2801 8.36125L12.2938 8.65334Z" stroke="white" stroke-width="1.5" stroke-miterlimit="10"/>
</svg>
