<svg width="48" height="48" viewBox="0 0 48 48" fill="none" xmlns="http://www.w3.org/2000/svg">
<circle cx="24" cy="24.0002" r="24" fill="#2E1E91"/>
<path d="M30.5911 18.4081C32.3631 18.4081 33.7995 16.9717 33.7995 15.1998C33.7995 13.4279 32.3631 11.9915 30.5911 11.9915C28.8192 11.9915 27.3828 13.4279 27.3828 15.1998C27.3828 16.9717 28.8192 18.4081 30.5911 18.4081Z" stroke="white" stroke-width="2" stroke-miterlimit="10"/>
<path d="M36.1341 22.6287C36.1341 21.9083 35.5502 21.325 34.8304 21.325H26.3545C25.6341 21.325 25.0508 21.9089 25.0508 22.6287C25.0508 22.6287 25.0508 29.0891 25.0508 29.1994C25.0508 32.2601 27.5317 34.741 30.5924 34.741C33.6532 34.741 36.1341 32.2601 36.1341 29.1994C36.1341 29.0891 36.1341 22.6287 36.1341 22.6287Z" stroke="white" stroke-width="2" stroke-miterlimit="10"/>
<path d="M14.3763 16.9999C15.1817 16.9999 15.8346 16.347 15.8346 15.5416C15.8346 14.7362 15.1817 14.0833 14.3763 14.0833C13.5709 14.0833 12.918 14.7362 12.918 15.5416C12.918 16.347 13.5709 16.9999 14.3763 16.9999Z" fill="white"/>
<path d="M20.2083 16.9999C21.0137 16.9999 21.6667 16.347 21.6667 15.5416C21.6667 14.7362 21.0137 14.0833 20.2083 14.0833C19.4029 14.0833 18.75 14.7362 18.75 15.5416C18.75 16.347 19.4029 16.9999 20.2083 16.9999Z" fill="white"/>
<path d="M30.7083 26.3334C31.5137 26.3334 32.1667 25.6805 32.1667 24.8751C32.1667 24.0697 31.5137 23.4167 30.7083 23.4167C29.9029 23.4167 29.25 24.0697 29.25 24.8751C29.25 25.6805 29.9029 26.3334 30.7083 26.3334Z" fill="white"/>
<path d="M14.3757 15.5417H13.9901C11.9415 15.5417 10.7404 17.8482 11.9152 19.5265L17.2924 27.2084L22.3324 19.4547C23.4273 17.7695 22.2186 15.5417 20.209 15.5417" stroke="white" stroke-width="2" stroke-miterlimit="10" stroke-linecap="round" stroke-linejoin="round"/>
<path d="M17.293 27.4999V28.0833C17.293 31.788 20.2966 34.7916 24.0013 34.7916C27.7061 34.7916 30.7096 31.788 30.7096 28.0833V25.4583" stroke="white" stroke-width="2" stroke-miterlimit="10" stroke-linecap="round" stroke-linejoin="round"/>
</svg>
