<svg width="81" height="81" viewBox="0 0 81 81" fill="none" xmlns="http://www.w3.org/2000/svg">
<circle cx="40.5" cy="40.5" r="40" fill="#E6FFF3"/>
<path d="M38 37.5835H43" stroke="#0FD197" stroke-width="3" stroke-miterlimit="10" stroke-linecap="round" stroke-linejoin="round"/>
<path d="M40.5 35.0835V40.0835" stroke="#0FD197" stroke-width="3" stroke-miterlimit="10" stroke-linecap="round" stroke-linejoin="round"/>
<path d="M35.0859 44.25H45.9193" stroke="#0FD197" stroke-width="3" stroke-miterlimit="10" stroke-linecap="round" stroke-linejoin="round"/>
<path d="M35.0859 48.4165H45.9193" stroke="#0FD197" stroke-width="3" stroke-miterlimit="10" stroke-linecap="round" stroke-linejoin="round"/>
<path d="M45.9141 27.5835H50.0807C51.4616 27.5835 52.5807 28.7027 52.5807 30.0835V52.5835C52.5807 53.9643 51.4616 55.0835 50.0807 55.0835H30.9141C29.5332 55.0835 28.4141 53.9643 28.4141 52.5835V30.0835C28.4141 28.7027 29.5332 27.5835 30.9141 27.5835H35.0807" stroke="#0FD197" stroke-width="3" stroke-miterlimit="10" stroke-linecap="round" stroke-linejoin="round"/>
<path d="M43.4193 24.25C42.7759 24.25 38.0434 24.25 37.5859 24.25C36.2051 24.25 35.0859 25.3692 35.0859 26.75C35.0859 28.1308 36.2051 29.25 37.5859 29.25C38.0434 29.25 42.7759 29.25 43.4193 29.25C44.8001 29.25 45.9193 28.1308 45.9193 26.75C45.9193 25.3692 44.8001 24.25 43.4193 24.25Z" stroke="#0FD197" stroke-width="3" stroke-miterlimit="10" stroke-linecap="round" stroke-linejoin="round"/>
</svg>
