<svg width="48" height="48" viewBox="0 0 48 48" fill="none" xmlns="http://www.w3.org/2000/svg">
<rect width="48" height="48" rx="24" fill="#FFE8E8"/>
<path d="M22.2012 23.25C24.5484 23.25 26.4512 21.3472 26.4512 19C26.4512 16.6528 24.5484 14.75 22.2012 14.75C19.854 14.75 17.9512 16.6528 17.9512 19C17.9512 21.3472 19.854 23.25 22.2012 23.25Z" stroke="#EA315B" stroke-width="2" stroke-miterlimit="5"/>
<path d="M29.4512 28.75C29.4512 34.75 14.9512 34.75 14.9512 28.75V27.9895C14.9512 27.305 15.5062 26.75 16.1907 26.75H28.2122C28.8967 26.75 29.4517 27.305 29.4517 27.9895V28.75H29.4512Z" stroke="#EA315B" stroke-width="2" stroke-miterlimit="10"/>
<path d="M33.209 18L33.209 22" stroke="#EA315B" stroke-width="2" stroke-linecap="round" stroke-linejoin="round"/>
<path d="M33.209 26L33.199 26" stroke="#EA315B" stroke-width="2" stroke-linecap="round" stroke-linejoin="round"/>
</svg>
