<svg width="48" height="48" viewBox="0 0 48 48" fill="none" xmlns="http://www.w3.org/2000/svg">
<rect width="48" height="48" rx="24" fill="#E6FFF3"/>
<path d="M27.25 16.25H29.75C30.5785 16.25 31.25 16.9215 31.25 17.75V18M20.75 16.25H18.25C17.4215 16.25 16.75 16.9215 16.75 17.75C16.75 23.0221 16.75 25.9779 16.75 31.25C16.75 32.0785 17.4215 32.75 18.25 32.75H29.75C30.5785 32.75 31.25 32.0785 31.25 31.25V29.3253" stroke="#0FD197" stroke-width="2" stroke-miterlimit="10" stroke-linecap="round" stroke-linejoin="round"/>
<path d="M20.4434 21.2363H26.1165M20.4434 24.5004H22.0549H23.2837" stroke="#0FD197" stroke-width="1.6" stroke-linecap="round" stroke-linejoin="round"/>
<path d="M32.3059 20.2448C32.5678 19.9628 32.9296 19.7978 33.3118 19.7861C33.694 19.7744 34.0652 19.9169 34.3438 20.1823C34.6225 20.4477 34.7857 20.8143 34.7975 21.2013C34.8094 21.5883 34.669 21.9642 34.4071 22.2462L28.1542 28.9796L25.4581 29.7509L26.053 26.9783L32.3059 20.2448Z" stroke="#0FD197" stroke-width="2" stroke-linecap="round" stroke-linejoin="round"/>
<path d="M25.75 14.25C25.364 14.25 22.5245 14.25 22.25 14.25C21.4215 14.25 20.75 14.9215 20.75 15.75C20.75 16.5785 21.4215 17.25 22.25 17.25C22.5245 17.25 25.364 17.25 25.75 17.25C26.5785 17.25 27.25 16.5785 27.25 15.75C27.25 14.9215 26.5785 14.25 25.75 14.25Z" stroke="#0FD197" stroke-width="2" stroke-miterlimit="10" stroke-linecap="round" stroke-linejoin="round"/>
</svg>
