<svg width="45" height="44" viewBox="0 0 45 44" fill="none" xmlns="http://www.w3.org/2000/svg">
<rect x="0.5" width="44" height="44" rx="22" fill="#EA315B"/>
<path d="M20.7012 21.25C23.0484 21.25 24.9512 19.3472 24.9512 17C24.9512 14.6528 23.0484 12.75 20.7012 12.75C18.354 12.75 16.4512 14.6528 16.4512 17C16.4512 19.3472 18.354 21.25 20.7012 21.25Z" stroke="white" stroke-width="2" stroke-miterlimit="5"/>
<path d="M27.9512 26.75C27.9512 32.75 13.4512 32.75 13.4512 26.75V25.9895C13.4512 25.305 14.0062 24.75 14.6907 24.75H26.7122C27.3967 24.75 27.9517 25.305 27.9517 25.9895V26.75H27.9512Z" stroke="white" stroke-width="2" stroke-miterlimit="10"/>
<path d="M31.709 16L31.709 20" stroke="white" stroke-width="2" stroke-linecap="round" stroke-linejoin="round"/>
<path d="M31.709 24L31.699 24" stroke="white" stroke-width="2" stroke-linecap="round" stroke-linejoin="round"/>
</svg>
