<svg width="22" height="22" viewBox="0 0 22 22" fill="none" xmlns="http://www.w3.org/2000/svg">
<path d="M16.2702 2.52087H5.72852C4.96906 2.52087 4.35352 3.13642 4.35352 3.89587V18.1042C4.35352 18.8637 4.96906 19.4792 5.72852 19.4792H16.2702C17.0296 19.4792 17.6452 18.8637 17.6452 18.1042V3.89587C17.6452 3.13642 17.0296 2.52087 16.2702 2.52087Z" stroke="#EA315B" stroke-width="1.33" stroke-miterlimit="10" stroke-linejoin="round"/>
<path d="M15.2422 12.604H12.9505" stroke="#EA315B" stroke-width="1.33" stroke-miterlimit="10" stroke-linecap="round"/>
<path d="M15.2422 9.396H12.9505" stroke="#EA315B" stroke-width="1.33" stroke-miterlimit="10" stroke-linecap="round"/>
<path d="M15.2422 6.1875H12.9505" stroke="#EA315B" stroke-width="1.33" stroke-miterlimit="10" stroke-linecap="round"/>
<path d="M15.2422 15.8125H12.9505" stroke="#EA315B" stroke-width="1.33" stroke-miterlimit="10" stroke-linecap="round"/>
<path d="M10.1953 6.1875V15.8125" stroke="#EA315B" stroke-width="1.33" stroke-miterlimit="10" stroke-linecap="round"/>
<path d="M7.44531 6.875C7.06562 6.875 6.75781 6.5672 6.75781 6.1875C6.75781 5.8078 7.06562 5.5 7.44531 5.5C7.82501 5.5 8.13281 5.8078 8.13281 6.1875C8.13281 6.5672 7.82501 6.875 7.44531 6.875Z" fill="#EA315B"/>
<path d="M7.44531 10.0835C7.06562 10.0835 6.75781 9.77569 6.75781 9.396C6.75781 9.0163 7.06562 8.7085 7.44531 8.7085C7.82501 8.7085 8.13281 9.0163 8.13281 9.396C8.13281 9.77569 7.82501 10.0835 7.44531 10.0835Z" fill="#EA315B"/>
<path d="M7.44531 13.2915C7.06562 13.2915 6.75781 12.9837 6.75781 12.604C6.75781 12.2243 7.06562 11.9165 7.44531 11.9165C7.82501 11.9165 8.13281 12.2243 8.13281 12.604C8.13281 12.9837 7.82501 13.2915 7.44531 13.2915Z" fill="#EA315B"/>
<path d="M7.44531 16.5C7.06562 16.5 6.75781 16.1922 6.75781 15.8125C6.75781 15.4328 7.06562 15.125 7.44531 15.125C7.82501 15.125 8.13281 15.4328 8.13281 15.8125C8.13281 16.1922 7.82501 16.5 7.44531 16.5Z" fill="#EA315B"/>
</svg>
