<svg width="48" height="48" viewBox="0 0 48 48" fill="none" xmlns="http://www.w3.org/2000/svg">
<circle cx="24" cy="24" r="24" fill="#0FD197"/>
<path d="M21.0846 27.4991C21.729 27.4991 22.2513 26.9768 22.2513 26.3324C22.2513 25.6881 21.729 25.1658 21.0846 25.1658C20.4403 25.1658 19.918 25.6881 19.918 26.3324C19.918 26.9768 20.4403 27.4991 21.0846 27.4991Z" fill="white"/>
<path d="M26.9167 27.4991C27.561 27.4991 28.0833 26.9768 28.0833 26.3324C28.0833 25.6881 27.561 25.1658 26.9167 25.1658C26.2723 25.1658 25.75 25.6881 25.75 26.3324C25.75 26.9768 26.2723 27.4991 26.9167 27.4991Z" fill="white"/>
<path d="M30.7083 12.0408H17.2917C16.6471 12.0408 16.125 12.5629 16.125 13.2074V21.9574H31.875V13.2074C31.875 12.5629 31.3529 12.0408 30.7083 12.0408Z" stroke="white" stroke-width="2" stroke-miterlimit="5" stroke-linecap="round" stroke-linejoin="round"/>
<path d="M31.8737 21.6658V24.5119C32.5597 24.8379 33.0404 25.5216 33.0404 26.3324C33.0404 27.46 32.1263 28.3741 30.9987 28.3741C30.9864 28.3741 30.9754 28.3706 30.9631 28.3706C30.0409 32.7654 27.2718 35.9574 23.9987 35.9574C20.7256 35.9574 17.9565 32.7654 17.0343 28.3706C17.022 28.3706 17.0109 28.3741 16.9987 28.3741C15.8711 28.3741 14.957 27.46 14.957 26.3324C14.957 25.5199 15.4359 24.8286 16.1237 24.5025V21.6658" stroke="white" stroke-width="2" stroke-miterlimit="5" stroke-linecap="round" stroke-linejoin="round"/>
<path d="M24 14.999L24.618 16.3155L26 16.5279L25 17.5521L25.236 18.999L24 18.3155L22.764 18.999L23 17.5521L22 16.5279L23.382 16.3155L24 14.999Z" stroke="white" stroke-width="2" stroke-linecap="round" stroke-linejoin="round"/>
</svg>
