<svg width="48" height="48" viewBox="0 0 48 48" fill="none" xmlns="http://www.w3.org/2000/svg">
<circle cx="24" cy="24.0002" r="24" fill="#0FD197"/>
<path d="M21.0846 27.4998C21.729 27.4998 22.2513 26.9775 22.2513 26.3332C22.2513 25.6888 21.729 25.1665 21.0846 25.1665C20.4403 25.1665 19.918 25.6888 19.918 26.3332C19.918 26.9775 20.4403 27.4998 21.0846 27.4998Z" fill="white"/>
<path d="M26.9167 27.4998C27.561 27.4998 28.0833 26.9775 28.0833 26.3332C28.0833 25.6888 27.561 25.1665 26.9167 25.1665C26.2723 25.1665 25.75 25.6888 25.75 26.3332C25.75 26.9775 26.2723 27.4998 26.9167 27.4998Z" fill="white"/>
<path d="M30.7083 12.0415H17.2917C16.6471 12.0415 16.125 12.5636 16.125 13.2082V21.9582H31.875V13.2082C31.875 12.5636 31.3529 12.0415 30.7083 12.0415Z" stroke="white" stroke-width="2" stroke-miterlimit="5" stroke-linecap="round" stroke-linejoin="round"/>
<path d="M23.707 19.9165C23.224 19.9165 22.832 19.5245 22.832 19.0415V15.5415C22.832 15.0585 23.224 14.6665 23.707 14.6665C24.19 14.6665 24.582 15.0585 24.582 15.5415V19.0415C24.582 19.5245 24.19 19.9165 23.707 19.9165Z" fill="white"/>
<path d="M26.332 17.2915C26.332 17.7745 25.94 18.1665 25.457 18.1665H21.957C21.474 18.1665 21.082 17.7745 21.082 17.2915C21.082 16.8085 21.474 16.4165 21.957 16.4165H25.457C25.94 16.4165 26.332 16.8085 26.332 17.2915Z" fill="white"/>
<path d="M31.8737 21.6665V24.5126C32.5597 24.8387 33.0404 25.5223 33.0404 26.3332C33.0404 27.4608 32.1263 28.3748 30.9987 28.3748C30.9864 28.3748 30.9754 28.3713 30.9631 28.3713C30.0409 32.7662 27.2718 35.9582 23.9987 35.9582C20.7256 35.9582 17.9565 32.7662 17.0343 28.3713C17.022 28.3713 17.0109 28.3748 16.9987 28.3748C15.8711 28.3748 14.957 27.4608 14.957 26.3332C14.957 25.5206 15.4359 24.8293 16.1237 24.5033V21.6665" stroke="white" stroke-width="2" stroke-miterlimit="5" stroke-linecap="round" stroke-linejoin="round"/>
</svg>
