<svg width="48" height="48" viewBox="0 0 48 48" fill="none" xmlns="http://www.w3.org/2000/svg">
<circle cx="24" cy="24" r="24" fill="#0FD197"/>
<path d="M21.0846 27.4995C21.729 27.4995 22.2513 26.9771 22.2513 26.3328C22.2513 25.6885 21.729 25.1661 21.0846 25.1661C20.4403 25.1661 19.918 25.6885 19.918 26.3328C19.918 26.9771 20.4403 27.4995 21.0846 27.4995Z" fill="white"/>
<path d="M26.9167 27.4995C27.561 27.4995 28.0833 26.9771 28.0833 26.3328C28.0833 25.6885 27.561 25.1661 26.9167 25.1661C26.2723 25.1661 25.75 25.6885 25.75 26.3328C25.75 26.9771 26.2723 27.4995 26.9167 27.4995Z" fill="white"/>
<path d="M30.7083 12.0411H17.2917C16.6471 12.0411 16.125 12.5632 16.125 13.2078V21.9578H31.875V13.2078C31.875 12.5632 31.3529 12.0411 30.7083 12.0411Z" stroke="white" stroke-width="2" stroke-miterlimit="5" stroke-linecap="round" stroke-linejoin="round"/>
<path d="M23.707 19.9161C23.224 19.9161 22.832 19.5241 22.832 19.0411V15.5411C22.832 15.0581 23.224 14.6661 23.707 14.6661C24.19 14.6661 24.582 15.0581 24.582 15.5411V19.0411C24.582 19.5241 24.19 19.9161 23.707 19.9161Z" fill="white"/>
<path d="M26.332 17.2911C26.332 17.7741 25.94 18.1661 25.457 18.1661H21.957C21.474 18.1661 21.082 17.7741 21.082 17.2911C21.082 16.8081 21.474 16.4161 21.957 16.4161H25.457C25.94 16.4161 26.332 16.8081 26.332 17.2911Z" fill="white"/>
<path d="M31.8737 21.6661V24.5122C32.5597 24.8383 33.0404 25.522 33.0404 26.3328C33.0404 27.4604 32.1263 28.3745 30.9987 28.3745C30.9864 28.3745 30.9754 28.371 30.9631 28.371C30.0409 32.7658 27.2718 35.9578 23.9987 35.9578C20.7256 35.9578 17.9565 32.7658 17.0343 28.371C17.022 28.371 17.0109 28.3745 16.9987 28.3745C15.8711 28.3745 14.957 27.4604 14.957 26.3328C14.957 25.5202 15.4359 24.829 16.1237 24.5029V21.6661" stroke="white" stroke-width="2" stroke-miterlimit="5" stroke-linecap="round" stroke-linejoin="round"/>
</svg>
