<svg width="22" height="23" viewBox="0 0 22 23" fill="none" xmlns="http://www.w3.org/2000/svg">
<path d="M11.8703 2.54114H5.77326C5.31125 2.54114 4.86816 2.72991 4.54147 3.06594C4.21478 3.40196 4.03125 3.85771 4.03125 4.33292V18.6672C4.03125 19.1424 4.21478 19.5982 4.54147 19.9342C4.86816 20.2702 5.31125 20.459 5.77326 20.459H16.2253C16.6873 20.459 17.1304 20.2702 17.4571 19.9342C17.7838 19.5982 17.9673 19.1424 17.9673 18.6672V8.81238L11.8703 2.54114Z" stroke="white" stroke-width="2" stroke-linecap="round" stroke-linejoin="round"/>
<path d="M11.8125 2.78748V8.76009H17.7851" stroke="white" stroke-width="2" stroke-linecap="round" stroke-linejoin="round"/>
<path d="M7.01562 15.9795L9.50421 13.4909L11.9928 15.9795L14.9791 12.9932" stroke="white" stroke-width="1.5" stroke-linecap="round" stroke-linejoin="round"/>
<circle cx="7.01106" cy="15.9796" r="0.995436" fill="white"/>
<circle cx="9.47981" cy="13.4908" r="0.995436" fill="white"/>
<circle cx="14.9798" cy="12.9284" r="0.995436" fill="white"/>
<circle cx="11.9954" cy="16.0751" r="0.995436" fill="white"/>
</svg>
