<svg width="16" height="16" viewBox="0 0 16 16" fill="none" xmlns="http://www.w3.org/2000/svg">
<path d="M8 13.5C11.0376 13.5 13.5 11.0376 13.5 8C13.5 4.96243 11.0376 2.5 8 2.5C4.96243 2.5 2.5 4.96243 2.5 8C2.5 11.0376 4.96243 13.5 8 13.5Z" stroke="#2E1E91" stroke-width="1.33" stroke-miterlimit="10"/>
<path d="M8 9.6665C8.55228 9.6665 9 9.21879 9 8.6665C9 8.11422 8.55228 7.6665 8 7.6665C7.44772 7.6665 7 8.11422 7 8.6665C7 9.21879 7.44772 9.6665 8 9.6665Z" fill="#2E1E91"/>
<path d="M8.00346 5.38375L8.00427 8.06336" stroke="#2E1E91" stroke-width="1.33" stroke-miterlimit="10" stroke-linecap="round" stroke-linejoin="round"/>
<path d="M10.556 8.66538L7.99324 8.66784" stroke="#2E1E91" stroke-width="1.33" stroke-miterlimit="10" stroke-linecap="round" stroke-linejoin="round"/>
</svg>
