<svg width="20" height="20" viewBox="0 0 20 20" fill="none" xmlns="http://www.w3.org/2000/svg">
<path d="M0 10C0 4.47715 4.47715 0 10 0C15.5228 0 20 4.47715 20 10V17.1429C20 18.7208 18.7208 20 17.1429 20H10C4.47715 20 0 15.5228 0 10Z" fill="#EFE8FF"/>
<path d="M10 15.5C13.0376 15.5 15.5 13.0376 15.5 10C15.5 6.96243 13.0376 4.5 10 4.5C6.96243 4.5 4.5 6.96243 4.5 10C4.5 13.0376 6.96243 15.5 10 15.5Z" stroke="#2E1E91" stroke-width="1.33" stroke-miterlimit="10"/>
<path d="M10 11.6665C10.5523 11.6665 11 11.2188 11 10.6665C11 10.1142 10.5523 9.6665 10 9.6665C9.44772 9.6665 9 10.1142 9 10.6665C9 11.2188 9.44772 11.6665 10 11.6665Z" fill="#2E1E91"/>
<path d="M10.0035 7.38375L10.0043 10.0634" stroke="#2E1E91" stroke-width="1.33" stroke-miterlimit="10" stroke-linecap="round" stroke-linejoin="round"/>
<path d="M12.556 10.6654L9.99324 10.6678" stroke="#2E1E91" stroke-width="1.33" stroke-miterlimit="10" stroke-linecap="round" stroke-linejoin="round"/>
</svg>
