<svg width="24" height="24" viewBox="0 0 24 24" fill="none" xmlns="http://www.w3.org/2000/svg">
<rect x="0.5" y="0.5" width="23" height="23" rx="11.5" fill="#FAF9FF"/>
<path d="M13 6.66634C13 6.11406 12.5523 5.66634 12 5.66634C11.4477 5.66634 11 6.11406 11 6.66634L13 6.66634ZM11 17.333C11 17.8853 11.4477 18.333 12 18.333C12.5523 18.333 13 17.8853 13 17.333L11 17.333ZM13 17.333C13 17.3278 13 17.3226 13 17.3174C13 17.3122 13 17.307 13 17.3018C13 17.2966 13 17.2915 13 17.2863C13 17.2811 13 17.2759 13 17.2708C13 17.2656 13 17.2605 13 17.2553C13 17.2502 13 17.245 13 17.2399C13 17.2347 13 17.2296 13 17.2245C13 17.2193 13 17.2142 13 17.2091C13 17.204 13 17.1988 13 17.1937C13 17.1886 13 17.1835 13 17.1784C13 17.1733 13 17.1682 13 17.1632C13 17.1581 13 17.153 13 17.1479C13 17.1428 13 17.1378 13 17.1327C13 17.1276 13 17.1226 13 17.1175C13 17.1125 13 17.1074 13 17.1024C13 17.0973 13 17.0923 13 17.0873C13 17.0822 13 17.0772 13 17.0722C13 17.0672 13 17.0622 13 17.0571C13 17.0521 13 17.0471 13 17.0421C13 17.0371 13 17.0321 13 17.0271C13 17.0222 13 17.0172 13 17.0122C13 17.0072 13 17.0022 13 16.9973C13 16.9923 13 16.9873 13 16.9824C13 16.9774 13 16.9725 13 16.9675C13 16.9626 13 16.9576 13 16.9527C13 16.9478 13 16.9428 13 16.9379C13 16.933 13 16.9281 13 16.9232C13 16.9182 13 16.9133 13 16.9084C13 16.9035 13 16.8986 13 16.8937C13 16.8888 13 16.884 13 16.8791C13 16.8742 13 16.8693 13 16.8644C13 16.8596 13 16.8547 13 16.8498C13 16.845 13 16.8401 13 16.8353C13 16.8304 13 16.8256 13 16.8207C13 16.8159 13 16.8111 13 16.8062C13 16.8014 13 16.7966 13 16.7917C13 16.7869 13 16.7821 13 16.7773C13 16.7725 13 16.7677 13 16.7629C13 16.7581 13 16.7533 13 16.7485C13 16.7437 13 16.7389 13 16.7341C13 16.7294 13 16.7246 13 16.7198C13 16.715 13 16.7103 13 16.7055C13 16.7008 13 16.696 13 16.6913C13 16.6865 13 16.6818 13 16.677C13 16.6723 13 16.6676 13 16.6628C13 16.6581 13 16.6534 13 16.6487C13 16.6439 13 16.6392 13 16.6345C13 16.6298 13 16.6251 13 16.6204C13 16.6157 13 16.611 13 16.6063C13 16.6016 13 16.5969 13 16.5923C13 16.5876 13 16.5829 13 16.5782C13 16.5736 13 16.5689 13 16.5642C13 16.5596 13 16.5549 13 16.5503C13 16.5456 13 16.541 13 16.5364C13 16.5317 13 16.5271 13 16.5224C13 16.5178 13 16.5132 13 16.5086C13 16.504 13 16.4993 13 16.4947C13 16.4901 13 16.4855 13 16.4809C13 16.4763 13 16.4717 13 16.4671C13 16.4625 13 16.4579 13 16.4534C13 16.4488 13 16.4442 13 16.4396C13 16.4351 13 16.4305 13 16.4259C13 16.4214 13 16.4168 13 16.4123C13 16.4077 13 16.4032 13 16.3986C13 16.3941 13 16.3895 13 16.385C13 16.3805 13 16.3759 13 16.3714C13 16.3669 13 16.3624 13 16.3579C13 16.3534 13 16.3488 13 16.3443C13 16.3398 13 16.3353 13 16.3308C13 16.3263 13 16.3219 13 16.3174C13 16.3129 13 16.3084 13 16.3039C13 16.2994 13 16.295 13 16.2905C13 16.286 13 16.2816 13 16.2771C13 16.2727 13 16.2682 13 16.2638C13 16.2593 13 16.2549 13 16.2504C13 16.246 13 16.2416 13 16.2371C13 16.2327 13 16.2283 13 16.2239C13 16.2194 13 16.215 13 16.2106C13 16.2062 13 16.2018 13 16.1974C13 16.193 13 16.1886 13 16.1842C13 16.1798 13 16.1754 13 16.171C13 16.1666 13 16.1623 13 16.1579C13 16.1535 13 16.1491 13 16.1448C13 16.1404 13 16.1361 13 16.1317C13 16.1273 13 16.123 13 16.1186C13 16.1143 13 16.11 13 16.1056C13 16.1013 13 16.0969 13 16.0926C13 16.0883 13 16.084 13 16.0796C13 16.0753 13 16.071 13 16.0667C13 16.0624 13 16.0581 13 16.0538C13 16.0495 13 16.0452 13 16.0409C13 16.0366 13 16.0323 13 16.028C13 16.0237 13 16.0194 13 16.0152C13 16.0109 13 16.0066 13 16.0023C13 15.9981 13 15.9938 13 15.9896C13 15.9853 13 15.981 13 15.9768C13 15.9725 13 15.9683 13 15.9641C13 15.9598 13 15.9556 13 15.9513C13 15.9471 13 15.9429 13 15.9387C13 15.9344 13 15.9302 13 15.926C13 15.9218 13 15.9176 13 15.9134C13 15.9092 13 15.905 13 15.9008C13 15.8966 13 15.8924 13 15.8882C13 15.884 13 15.8798 13 15.8756C13 15.8714 13 15.8673 13 15.8631C13 15.8589 13 15.8548 13 15.8506C13 15.8464 13 15.8423 13 15.8381C13 15.834 13 15.8298 13 15.8257C13 15.8215 13 15.8174 13 15.8132C13 15.8091 13 15.805 13 15.8008C13 15.7967 13 15.7926 13 15.7884C13 15.7843 13 15.7802 13 15.7761C13 15.772 13 15.7679 13 15.7638C13 15.7597 13 15.7556 13 15.7515C13 15.7474 13 15.7433 13 15.7392C13 15.7351 13 15.731 13 15.7269C13 15.7228 13 15.7188 13 15.7147C13 15.7106 13 15.7066 13 15.7025C13 15.6984 13 15.6944 13 15.6903C13 15.6863 13 15.6822 13 15.6782C13 15.6741 13 15.6701 13 15.666C13 15.662 13 15.658 13 15.6539C13 15.6499 13 15.6459 13 15.6418C13 15.6378 13 15.6338 13 15.6298C13 15.6258 13 15.6218 13 15.6177C13 15.6137 13 15.6097 13 15.6057C13 15.6017 13 15.5977 13 15.5937C13 15.5898 13 15.5858 13 15.5818C13 15.5778 13 15.5738 13 15.5698C13 15.5659 13 15.5619 13 15.5579C13 15.554 13 15.55 13 15.546C13 15.5421 13 15.5381 13 15.5342C13 15.5302 13 15.5263 13 15.5223C13 15.5184 13 15.5144 13 15.5105C13 15.5066 13 15.5026 13 15.4987C13 15.4948 13 15.4908 13 15.4869C13 15.483 13 15.4791 13 15.4752C13 15.4713 13 15.4673 13 15.4634C13 15.4595 13 15.4556 13 15.4517C13 15.4478 13 15.4439 13 15.44C13 15.4362 13 15.4323 13 15.4284C13 15.4245 13 15.4206 13 15.4167C13 15.4129 13 15.409 13 15.4051C13 15.4013 13 15.3974 13 15.3935C13 15.3897 13 15.3858 13 15.382C13 15.3781 13 15.3743 13 15.3704C13 15.3666 13 15.3627 13 15.3589C13 15.355 13 15.3512 13 15.3474C13 15.3435 13 15.3397 13 15.3359C13 15.3321 13 15.3283 13 15.3244C13 15.3206 13 15.3168 13 15.313C13 15.3092 13 15.3054 13 15.3016C13 15.2978 13 15.294 13 15.2902C13 15.2864 13 15.2826 13 15.2788C13 15.275 13 15.2712 13 15.2675C13 15.2637 13 15.2599 13 15.2561C13 15.2524 13 15.2486 13 15.2448C13 15.2411 13 15.2373 13 15.2335C13 15.2298 13 15.226 13 15.2223C13 15.2185 13 15.2148 13 15.211C13 15.2073 13 15.2035 13 15.1998C13 15.1961 13 15.1923 13 15.1886C13 15.1849 13 15.1811 13 15.1774C13 15.1737 13 15.17 13 15.1663C13 15.1625 13 15.1588 13 15.1551C13 15.1514 13 15.1477 13 15.144C13 15.1403 13 15.1366 13 15.1329C13 15.1292 13 15.1255 13 15.1218C13 15.1181 13 15.1145 13 15.1108C13 15.1071 13 15.1034 13 15.0997C13 15.0961 13 15.0924 13 15.0887C13 15.085 13 15.0814 13 15.0777C13 15.0741 13 15.0704 13 15.0667C13 15.0631 13 15.0594 13 15.0558C13 15.0521 13 15.0485 13 15.0449C13 15.0412 13 15.0376 13 15.0339C13 15.0303 13 15.0267 13 15.023C13 15.0194 13 15.0158 13 15.0122C13 15.0085 13 15.0049 13 15.0013C13 14.9977 13 14.9941 13 14.9905C13 14.9869 13 14.9833 13 14.9797C13 14.9761 13 14.9725 13 14.9689C13 14.9653 13 14.9617 13 14.9581C13 14.9545 13 14.9509 13 14.9473C13 14.9437 13 14.9402 13 14.9366C13 14.933 13 14.9294 13 14.9259C13 14.9223 13 14.9187 13 14.9152C13 14.9116 13 14.9081 13 14.9045C13 14.9009 13 14.8974 13 14.8938C13 14.8903 13 14.8867 13 14.8832C13 14.8796 13 14.8761 13 14.8726C13 14.869 13 14.8655 13 14.862C13 14.8584 13 14.8549 13 14.8514C13 14.8478 13 14.8443 13 14.8408C13 14.8373 13 14.8338 13 14.8303C13 14.8267 13 14.8232 13 14.8197C13 14.8162 13 14.8127 13 14.8092C13 14.8057 13 14.8022 13 14.7987C13 14.7952 13 14.7917 13 14.7882C13 14.7847 13 14.7813 13 14.7778C13 14.7743 13 14.7708 13 14.7673C13 14.7639 13 14.7604 13 14.7569C13 14.7534 13 14.75 13 14.7465C13 14.743 13 14.7396 13 14.7361C13 14.7327 13 14.7292 13 14.7258C13 14.7223 13 14.7189 13 14.7154C13 14.712 13 14.7085 13 14.7051C13 14.7016 13 14.6982 13 14.6948C13 14.6913 13 14.6879 13 14.6845C13 14.681 13 14.6776 13 14.6742C13 14.6708 13 14.6673 13 14.6639C13 14.6605 13 14.6571 13 14.6537C13 14.6503 13 14.6468 13 14.6434C13 14.64 13 14.6366 13 14.6332C13 14.6298 13 14.6264 13 14.623C13 14.6196 13 14.6162 13 14.6128C13 14.6095 13 14.6061 13 14.6027C13 14.5993 13 14.5959 13 14.5925C13 14.5892 13 14.5858 13 14.5824C13 14.579 13 14.5757 13 14.5723C13 14.5689 13 14.5656 13 14.5622C13 14.5588 13 14.5555 13 14.5521C13 14.5488 13 14.5454 13 14.5421C13 14.5387 13 14.5354 13 14.532C13 14.5287 13 14.5253 13 14.522C13 14.5186 13 14.5153 13 14.512C13 14.5086 13 14.5053 13 14.502C13 14.4986 13 14.4953 13 14.492C13 14.4887 13 14.4853 13 14.482C13 14.4787 13 14.4754 13 14.4721C13 14.4688 13 14.4654 13 14.4621C13 14.4588 13 14.4555 13 14.4522C13 14.4489 13 14.4456 13 14.4423C13 14.439 13 14.4357 13 14.4324C13 14.4291 13 14.4258 13 14.4225C13 14.4193 13 14.416 13 14.4127C13 14.4094 13 14.4061 13 14.4028C13 14.3996 13 14.3963 13 14.393C13 14.3897 13 14.3865 13 14.3832C13 14.3799 13 14.3767 13 14.3734C13 14.3701 13 14.3669 13 14.3636C13 14.3604 13 14.3571 13 14.3539C13 14.3506 13 14.3474 13 14.3441C13 14.3409 13 14.3376 13 14.3344C13 14.3311 13 14.3279 13 14.3246C13 14.3214 13 14.3182 13 14.3149C13 14.3117 13 14.3085 13 14.3052C13 14.302 13 14.2988 13 14.2956C13 14.2923 13 14.2891 13 14.2859C13 14.2827 13 14.2795 13 14.2762C13 14.273 13 14.2698 13 14.2666C13 14.2634 13 14.2602 13 14.257C13 14.2538 13 14.2506 13 14.2474C13 14.2442 13 14.241 13 14.2378C13 14.2346 13 14.2314 13 14.2282C13 14.225 13 14.2218 13 14.2186C13 14.2154 13 14.2123 13 14.2091C13 14.2059 13 14.2027 13 14.1995C13 14.1964 13 14.1932 13 14.19C13 14.1868 13 14.1837 13 14.1805C13 14.1773 13 14.1742 13 14.171C13 14.1678 13 14.1647 13 14.1615C13 14.1583 13 14.1552 13 14.152C13 14.1489 13 14.1457 13 14.1426C13 14.1394 13 14.1363 13 14.1331C13 14.13 13 14.1268 13 14.1237C13 14.1205 13 14.1174 13 14.1143C13 14.1111 13 14.108 13 14.1049C13 14.1017 13 14.0986 13 14.0955C13 14.0923 13 14.0892 13 14.0861C13 14.0829 13 14.0798 13 14.0767C13 14.0736 13 14.0705 13 14.0673C13 14.0642 13 14.0611 13 14.058C13 14.0549 13 14.0518 13 14.0487C13 14.0455 13 14.0424 13 14.0393C13 14.0362 13 14.0331 13 14.03C13 14.0269 13 14.0238 13 14.0207C13 14.0176 13 14.0145 13 14.0114C13 14.0084 13 14.0053 13 14.0022C13 13.9991 13 13.996 13 13.9929C13 13.9898 13 13.9867 13 13.9837C13 13.9806 13 13.9775 13 13.9744C13 13.9713 13 13.9683 13 13.9652C13 13.9621 13 13.959 13 13.956C13 13.9529 13 13.9498 13 13.9468C13 13.9437 13 13.9406 13 13.9376C13 13.9345 13 13.9315 13 13.9284C13 13.9253 13 13.9223 13 13.9192C13 13.9162 13 13.9131 13 13.9101C13 13.907 13 13.904 13 13.9009C13 13.8979 13 13.8948 13 13.8918C13 13.8887 13 13.8857 13 13.8827C13 13.8796 13 13.8766 13 13.8735C13 13.8705 13 13.8675 13 13.8644C13 13.8614 13 13.8584 13 13.8553C13 13.8523 13 13.8493 13 13.8463C13 13.8432 13 13.8402 13 13.8372C13 13.8342 13 13.8312 13 13.8281C13 13.8251 13 13.8221 13 13.8191C13 13.8161 13 13.8131 13 13.81C13 13.807 13 13.804 13 13.801C13 13.798 13 13.795 13 13.792C13 13.789 13 13.786 13 13.783C13 13.78 13 13.777 13 13.774C13 13.771 13 13.768 13 13.765C13 13.762 13 13.759 13 13.756C13 13.753 13 13.75 13 13.747C13 13.744 13 13.7411 13 13.7381C13 13.7351 13 13.7321 13 13.7291C13 13.7261 13 13.7232 13 13.7202C13 13.7172 13 13.7142 13 13.7112C13 13.7083 13 13.7053 13 13.7023C13 13.6993 13 13.6964 13 13.6934C13 13.6904 13 13.6875 13 13.6845C13 13.6815 13 13.6786 13 13.6756C13 13.6726 13 13.6697 13 13.6667C13 13.6638 13 13.6608 13 13.6578C13 13.6549 13 13.6519 13 13.649C13 13.646 13 13.6431 13 13.6401C13 13.6372 13 13.6342 13 13.6313C13 13.6283 13 13.6254 13 13.6224C13 13.6195 13 13.6165 13 13.6136C13 13.6106 13 13.6077 13 13.6048C13 13.6018 13 13.5989 13 13.5959C13 13.593 13 13.5901 13 13.5871C13 13.5842 13 13.5813 13 13.5783C13 13.5754 13 13.5725 13 13.5695C13 13.5666 13 13.5637 13 13.5608C13 13.5578 13 13.5549 13 13.552C13 13.549 13 13.5461 13 13.5432C13 13.5403 13 13.5374 13 13.5344C13 13.5315 13 13.5286 13 13.5257C13 13.5228 13 13.5199 13 13.5169C13 13.514 13 13.5111 13 13.5082C13 13.5053 13 13.5024 13 13.4995C13 13.4966 13 13.4937 13 13.4908C13 13.4878 13 13.4849 13 13.482C13 13.4791 13 13.4762 13 13.4733C13 13.4704 13 13.4675 13 13.4646C13 13.4617 13 13.4588 13 13.4559C13 13.453 13 13.4501 13 13.4473C13 13.4444 13 13.4415 13 13.4386C13 13.4357 13 13.4328 13 13.4299C13 13.427 13 13.4241 13 13.4212C13 13.4183 13 13.4155 13 13.4126C13 13.4097 13 13.4068 13 13.4039C13 13.401 13 13.3982 13 13.3953C13 13.3924 13 13.3895 13 13.3866C13 13.3838 13 13.3809 13 13.378C13 13.3751 13 13.3723 13 13.3694C13 13.3665 13 13.3636 13 13.3608C13 13.3579 13 13.355 13 13.3521C13 13.3493 13 13.3464 13 13.3435C13 13.3407 13 13.3378 13 13.3349C13 13.3321 13 13.3292 13 13.3263C13 13.3235 13 13.3206 13 13.3178C13 13.3149 13 13.312 13 13.3092C13 13.3063 13 13.3034 13 13.3006C13 13.2977 13 13.2949 13 13.292C13 13.2892 13 13.2863 13 13.2835C13 13.2806 13 13.2777 13 13.2749C13 13.272 13 13.2692 13 13.2663C13 13.2635 13 13.2606 13 13.2578C13 13.2549 13 13.2521 13 13.2492C13 13.2464 13 13.2435 13 13.2407C13 13.2379 13 13.235 13 13.2322C13 13.2293 13 13.2265 13 13.2236C13 13.2208 13 13.218 13 13.2151C13 13.2123 13 13.2094 13 13.2066C13 13.2038 13 13.2009 13 13.1981C13 13.1952 13 13.1924 13 13.1896C13 13.1867 13 13.1839 13 13.1811C13 13.1782 13 13.1754 13 13.1726C13 13.1697 13 13.1669 13 13.1641C13 13.1612 13 13.1584 13 13.1556C13 13.1527 13 13.1499 13 13.1471C13 13.1443 13 13.1414 13 13.1386C13 13.1358 13 13.1329 13 13.1301C13 13.1273 13 13.1245 13 13.1216C13 13.1188 13 13.116 13 13.1132C13 13.1104 13 13.1075 13 13.1047C13 13.1019 13 13.0991 13 13.0962C13 13.0934 13 13.0906 13 13.0878C13 13.085 13 13.0821 13 13.0793C13 13.0765 13 13.0737 13 13.0709C13 13.0681 13 13.0652 13 13.0624C13 13.0596 13 13.0568 13 13.054C13 13.0512 13 13.0484 13 13.0455C13 13.0427 13 13.0399 13 13.0371C13 13.0343 13 13.0315 13 13.0287C13 13.0259 13 13.023 13 13.0202C13 13.0174 13 13.0146 13 13.0118C13 13.009 13 13.0062 13 13.0034C13 13.0006 13 12.9978 13 12.995C13 12.9922 13 12.9893 13 12.9865C13 12.9837 13 12.9809 13 12.9781C13 12.9753 13 12.9725 13 12.9697C13 12.9669 13 12.9641 13 12.9613C13 12.9585 13 12.9557 13 12.9529C13 12.9501 13 12.9473 13 12.9445C13 12.9417 13 12.9389 13 12.9361C13 12.9333 13 12.9305 13 12.9277C13 12.9249 13 12.9221 13 12.9193C13 12.9165 13 12.9137 13 12.9109C13 12.9081 13 12.9053 13 12.9025C13 12.8997 13 12.8969 13 12.8941C13 12.8913 13 12.8885 13 12.8857C13 12.8829 13 12.8801 13 12.8773C13 12.8745 13 12.8717 13 12.8689C13 12.8661 13 12.8633 13 12.8605C13 12.8577 13 12.8549 13 12.8521C13 12.8493 13 12.8466 13 12.8438C13 12.841 13 12.8382 13 12.8354C13 12.8326 13 12.8298 13 12.827C13 12.8242 13 12.8214 13 12.8186C13 12.8158 13 12.813 13 12.8102C13 12.8074 13 12.8047 13 12.8019C13 12.7991 13 12.7963 13 12.7935C13 12.7907 13 12.7879 13 12.7851C13 12.7823 13 12.7795 13 12.7767C13 12.7739 13 12.7712 13 12.7684C13 12.7656 13 12.7628 13 12.76C13 12.7572 13 12.7544 13 12.7516C13 12.7488 13 12.746 13 12.7432C13 12.7405 13 12.7377 13 12.7349C13 12.7321 13 12.7293 13 12.7265C13 12.7237 13 12.7209 13 12.7181C13 12.7153 13 12.7126 13 12.7098C13 12.707 13 12.7042 13 12.7014C13 12.6986 13 12.6958 13 12.693C13 12.6902 13 12.6874 13 12.6847C13 12.6819 13 12.6791 13 12.6763C13 12.6735 13 12.6707 13 12.6679C13 12.6651 13 12.6623 13 12.6596C13 12.6568 13 12.654 13 12.6512C13 12.6484 13 12.6456 13 12.6428C13 12.64 13 12.6372 13 12.6344C13 12.6316 13 12.6289 13 12.6261C13 12.6233 13 12.6205 13 12.6177C13 12.6149 13 12.6121 13 12.6093C13 12.6065 13 12.6037 13 12.601C13 12.5982 13 12.5954 13 12.5926C13 12.5898 13 12.587 13 12.5842C13 12.5814 13 12.5786 13 12.5758C13 12.573 13 12.5702 13 12.5674C13 12.5647 13 12.5619 13 12.5591C13 12.5563 13 12.5535 13 12.5507C13 12.5479 13 12.5451 13 12.5423C13 12.5395 13 12.5367 13 12.5339C13 12.5311 13 12.5283 13 12.5255C13 12.5227 13 12.52 13 12.5172C13 12.5144 13 12.5116 13 12.5088C13 12.506 13 12.5032 13 12.5004C13 12.4976 13 12.4948 13 12.492C13 12.4892 13 12.4864 13 12.4836C13 12.4808 13 12.478 13 12.4752C13 12.4724 13 12.4696 13 12.4668C13 12.464 13 12.4612 13 12.4584C13 12.4556 13 12.4528 13 12.45C13 12.4472 13 12.4444 13 12.4416C13 12.4388 13 12.436 13 12.4332C13 12.4304 13 12.4276 13 12.4248C13 12.422 13 12.4192 13 12.4164C13 12.4136 13 12.4108 13 12.408C13 12.4052 13 12.4024 13 12.3996C13 12.3968 13 12.394 13 12.3911C13 12.3883 13 12.3855 13 12.3827C13 12.3799 13 12.3771 13 12.3743C13 12.3715 13 12.3687 13 12.3659C13 12.3631 13 12.3603 13 12.3574C13 12.3546 13 12.3518 13 12.349C13 12.3462 13 12.3434 13 12.3406C13 12.3378 13 12.335 13 12.3321C13 12.3293 13 12.3265 13 12.3237C13 12.3209 13 12.3181 13 12.3153C13 12.3124 13 12.3096 13 12.3068C13 12.304 13 12.3012 13 12.2984C13 12.2955 13 12.2927 13 12.2899C13 12.2871 13 12.2843 13 12.2814C13 12.2786 13 12.2758 13 12.273C13 12.2702 13 12.2673 13 12.2645C13 12.2617 13 12.2589 13 12.256C13 12.2532 13 12.2504 13 12.2476C13 12.2447 13 12.2419 13 12.2391C13 12.2363 13 12.2334 13 12.2306C13 12.2278 13 12.2249 13 12.2221C13 12.2193 13 12.2165 13 12.2136C13 12.2108 13 12.208 13 12.2051C13 12.2023 13 12.1995 13 12.1966C13 12.1938 13 12.191 13 12.1881C13 12.1853 13 12.1824 13 12.1796C13 12.1768 13 12.1739 13 12.1711C13 12.1683 13 12.1654 13 12.1626C13 12.1597 13 12.1569 13 12.154C13 12.1512 13 12.1484 13 12.1455C13 12.1427 13 12.1398 13 12.137C13 12.1341 13 12.1313 13 12.1284C13 12.1256 13 12.1227 13 12.1199C13 12.117 13 12.1142 13 12.1113C13 12.1085 13 12.1056 13 12.1028C13 12.0999 13 12.0971 13 12.0942C13 12.0914 13 12.0885 13 12.0857C13 12.0828 13 12.0799 13 12.0771C13 12.0742 13 12.0714 13 12.0685C13 12.0657 13 12.0628 13 12.0599C13 12.0571 13 12.0542 13 12.0513C13 12.0485 13 12.0456 13 12.0427C13 12.0399 13 12.037 13 12.0341C13 12.0313 13 12.0284 13 12.0255C13 12.0227 13 12.0198 13 12.0169C13 12.014 13 12.0112 13 12.0083C13 12.0054 13 12.0026 13 11.9997L11 11.9997C11 12.0026 11 12.0054 11 12.0083C11 12.0112 11 12.014 11 12.0169C11 12.0198 11 12.0227 11 12.0255C11 12.0284 11 12.0313 11 12.0341C11 12.037 11 12.0399 11 12.0427C11 12.0456 11 12.0485 11 12.0513C11 12.0542 11 12.0571 11 12.0599C11 12.0628 11 12.0657 11 12.0685C11 12.0714 11 12.0742 11 12.0771C11 12.0799 11 12.0828 11 12.0857C11 12.0885 11 12.0914 11 12.0942C11 12.0971 11 12.0999 11 12.1028C11 12.1056 11 12.1085 11 12.1113C11 12.1142 11 12.117 11 12.1199C11 12.1227 11 12.1256 11 12.1284C11 12.1313 11 12.1341 11 12.137C11 12.1398 11 12.1427 11 12.1455C11 12.1484 11 12.1512 11 12.154C11 12.1569 11 12.1597 11 12.1626C11 12.1654 11 12.1683 11 12.1711C11 12.1739 11 12.1768 11 12.1796C11 12.1824 11 12.1853 11 12.1881C11 12.191 11 12.1938 11 12.1966C11 12.1995 11 12.2023 11 12.2051C11 12.208 11 12.2108 11 12.2136C11 12.2165 11 12.2193 11 12.2221C11 12.2249 11 12.2278 11 12.2306C11 12.2334 11 12.2363 11 12.2391C11 12.2419 11 12.2447 11 12.2476C11 12.2504 11 12.2532 11 12.256C11 12.2589 11 12.2617 11 12.2645C11 12.2673 11 12.2702 11 12.273C11 12.2758 11 12.2786 11 12.2814C11 12.2843 11 12.2871 11 12.2899C11 12.2927 11 12.2955 11 12.2984C11 12.3012 11 12.304 11 12.3068C11 12.3096 11 12.3124 11 12.3153C11 12.3181 11 12.3209 11 12.3237C11 12.3265 11 12.3293 11 12.3321C11 12.335 11 12.3378 11 12.3406C11 12.3434 11 12.3462 11 12.349C11 12.3518 11 12.3546 11 12.3574C11 12.3603 11 12.3631 11 12.3659C11 12.3687 11 12.3715 11 12.3743C11 12.3771 11 12.3799 11 12.3827C11 12.3855 11 12.3883 11 12.3911C11 12.394 11 12.3968 11 12.3996C11 12.4024 11 12.4052 11 12.408C11 12.4108 11 12.4136 11 12.4164C11 12.4192 11 12.422 11 12.4248C11 12.4276 11 12.4304 11 12.4332C11 12.436 11 12.4388 11 12.4416C11 12.4444 11 12.4472 11 12.45C11 12.4528 11 12.4556 11 12.4584C11 12.4612 11 12.464 11 12.4668C11 12.4696 11 12.4724 11 12.4752C11 12.478 11 12.4808 11 12.4836C11 12.4864 11 12.4892 11 12.492C11 12.4948 11 12.4976 11 12.5004C11 12.5032 11 12.506 11 12.5088C11 12.5116 11 12.5144 11 12.5172C11 12.52 11 12.5227 11 12.5255C11 12.5283 11 12.5311 11 12.5339C11 12.5367 11 12.5395 11 12.5423C11 12.5451 11 12.5479 11 12.5507C11 12.5535 11 12.5563 11 12.5591C11 12.5619 11 12.5647 11 12.5674C11 12.5702 11 12.573 11 12.5758C11 12.5786 11 12.5814 11 12.5842C11 12.587 11 12.5898 11 12.5926C11 12.5954 11 12.5982 11 12.601C11 12.6037 11 12.6065 11 12.6093C11 12.6121 11 12.6149 11 12.6177C11 12.6205 11 12.6233 11 12.6261C11 12.6289 11 12.6316 11 12.6344C11 12.6372 11 12.64 11 12.6428C11 12.6456 11 12.6484 11 12.6512C11 12.654 11 12.6568 11 12.6596C11 12.6623 11 12.6651 11 12.6679C11 12.6707 11 12.6735 11 12.6763C11 12.6791 11 12.6819 11 12.6847C11 12.6874 11 12.6902 11 12.693C11 12.6958 11 12.6986 11 12.7014C11 12.7042 11 12.707 11 12.7098C11 12.7126 11 12.7153 11 12.7181C11 12.7209 11 12.7237 11 12.7265C11 12.7293 11 12.7321 11 12.7349C11 12.7377 11 12.7405 11 12.7432C11 12.746 11 12.7488 11 12.7516C11 12.7544 11 12.7572 11 12.76C11 12.7628 11 12.7656 11 12.7684C11 12.7712 11 12.7739 11 12.7767C11 12.7795 11 12.7823 11 12.7851C11 12.7879 11 12.7907 11 12.7935C11 12.7963 11 12.7991 11 12.8019C11 12.8047 11 12.8074 11 12.8102C11 12.813 11 12.8158 11 12.8186C11 12.8214 11 12.8242 11 12.827C11 12.8298 11 12.8326 11 12.8354C11 12.8382 11 12.841 11 12.8438C11 12.8466 11 12.8493 11 12.8521C11 12.8549 11 12.8577 11 12.8605C11 12.8633 11 12.8661 11 12.8689C11 12.8717 11 12.8745 11 12.8773C11 12.8801 11 12.8829 11 12.8857C11 12.8885 11 12.8913 11 12.8941C11 12.8969 11 12.8997 11 12.9025C11 12.9053 11 12.9081 11 12.9109C11 12.9137 11 12.9165 11 12.9193C11 12.9221 11 12.9249 11 12.9277C11 12.9305 11 12.9333 11 12.9361C11 12.9389 11 12.9417 11 12.9445C11 12.9473 11 12.9501 11 12.9529C11 12.9557 11 12.9585 11 12.9613C11 12.9641 11 12.9669 11 12.9697C11 12.9725 11 12.9753 11 12.9781C11 12.9809 11 12.9837 11 12.9865C11 12.9893 11 12.9922 11 12.995C11 12.9978 11 13.0006 11 13.0034C11 13.0062 11 13.009 11 13.0118C11 13.0146 11 13.0174 11 13.0202C11 13.023 11 13.0259 11 13.0287C11 13.0315 11 13.0343 11 13.0371C11 13.0399 11 13.0427 11 13.0455C11 13.0484 11 13.0512 11 13.054C11 13.0568 11 13.0596 11 13.0624C11 13.0652 11 13.0681 11 13.0709C11 13.0737 11 13.0765 11 13.0793C11 13.0821 11 13.085 11 13.0878C11 13.0906 11 13.0934 11 13.0962C11 13.0991 11 13.1019 11 13.1047C11 13.1075 11 13.1104 11 13.1132C11 13.116 11 13.1188 11 13.1216C11 13.1245 11 13.1273 11 13.1301C11 13.1329 11 13.1358 11 13.1386C11 13.1414 11 13.1443 11 13.1471C11 13.1499 11 13.1527 11 13.1556C11 13.1584 11 13.1612 11 13.1641C11 13.1669 11 13.1697 11 13.1726C11 13.1754 11 13.1782 11 13.1811C11 13.1839 11 13.1867 11 13.1896C11 13.1924 11 13.1952 11 13.1981C11 13.2009 11 13.2038 11 13.2066C11 13.2094 11 13.2123 11 13.2151C11 13.218 11 13.2208 11 13.2236C11 13.2265 11 13.2293 11 13.2322C11 13.235 11 13.2379 11 13.2407C11 13.2435 11 13.2464 11 13.2492C11 13.2521 11 13.2549 11 13.2578C11 13.2606 11 13.2635 11 13.2663C11 13.2692 11 13.272 11 13.2749C11 13.2777 11 13.2806 11 13.2835C11 13.2863 11 13.2892 11 13.292C11 13.2949 11 13.2977 11 13.3006C11 13.3034 11 13.3063 11 13.3092C11 13.312 11 13.3149 11 13.3178C11 13.3206 11 13.3235 11 13.3263C11 13.3292 11 13.3321 11 13.3349C11 13.3378 11 13.3407 11 13.3435C11 13.3464 11 13.3493 11 13.3521C11 13.355 11 13.3579 11 13.3608C11 13.3636 11 13.3665 11 13.3694C11 13.3723 11 13.3751 11 13.378C11 13.3809 11 13.3838 11 13.3866C11 13.3895 11 13.3924 11 13.3953C11 13.3982 11 13.401 11 13.4039C11 13.4068 11 13.4097 11 13.4126C11 13.4155 11 13.4183 11 13.4212C11 13.4241 11 13.427 11 13.4299C11 13.4328 11 13.4357 11 13.4386C11 13.4415 11 13.4444 11 13.4473C11 13.4501 11 13.453 11 13.4559C11 13.4588 11 13.4617 11 13.4646C11 13.4675 11 13.4704 11 13.4733C11 13.4762 11 13.4791 11 13.482C11 13.4849 11 13.4878 11 13.4908C11 13.4937 11 13.4966 11 13.4995C11 13.5024 11 13.5053 11 13.5082C11 13.5111 11 13.514 11 13.5169C11 13.5199 11 13.5228 11 13.5257C11 13.5286 11 13.5315 11 13.5344C11 13.5374 11 13.5403 11 13.5432C11 13.5461 11 13.549 11 13.552C11 13.5549 11 13.5578 11 13.5608C11 13.5637 11 13.5666 11 13.5695C11 13.5725 11 13.5754 11 13.5783C11 13.5813 11 13.5842 11 13.5871C11 13.5901 11 13.593 11 13.5959C11 13.5989 11 13.6018 11 13.6048C11 13.6077 11 13.6106 11 13.6136C11 13.6165 11 13.6195 11 13.6224C11 13.6254 11 13.6283 11 13.6313C11 13.6342 11 13.6372 11 13.6401C11 13.6431 11 13.646 11 13.649C11 13.6519 11 13.6549 11 13.6578C11 13.6608 11 13.6638 11 13.6667C11 13.6697 11 13.6726 11 13.6756C11 13.6786 11 13.6815 11 13.6845C11 13.6875 11 13.6904 11 13.6934C11 13.6964 11 13.6993 11 13.7023C11 13.7053 11 13.7083 11 13.7112C11 13.7142 11 13.7172 11 13.7202C11 13.7232 11 13.7261 11 13.7291C11 13.7321 11 13.7351 11 13.7381C11 13.7411 11 13.744 11 13.747C11 13.75 11 13.753 11 13.756C11 13.759 11 13.762 11 13.765C11 13.768 11 13.771 11 13.774C11 13.777 11 13.78 11 13.783C11 13.786 11 13.789 11 13.792C11 13.795 11 13.798 11 13.801C11 13.804 11 13.807 11 13.81C11 13.8131 11 13.8161 11 13.8191C11 13.8221 11 13.8251 11 13.8281C11 13.8312 11 13.8342 11 13.8372C11 13.8402 11 13.8432 11 13.8463C11 13.8493 11 13.8523 11 13.8553C11 13.8584 11 13.8614 11 13.8644C11 13.8675 11 13.8705 11 13.8735C11 13.8766 11 13.8796 11 13.8827C11 13.8857 11 13.8887 11 13.8918C11 13.8948 11 13.8979 11 13.9009C11 13.904 11 13.907 11 13.9101C11 13.9131 11 13.9162 11 13.9192C11 13.9223 11 13.9253 11 13.9284C11 13.9315 11 13.9345 11 13.9376C11 13.9406 11 13.9437 11 13.9468C11 13.9498 11 13.9529 11 13.956C11 13.959 11 13.9621 11 13.9652C11 13.9683 11 13.9713 11 13.9744C11 13.9775 11 13.9806 11 13.9837C11 13.9867 11 13.9898 11 13.9929C11 13.996 11 13.9991 11 14.0022C11 14.0053 11 14.0084 11 14.0114C11 14.0145 11 14.0176 11 14.0207C11 14.0238 11 14.0269 11 14.03C11 14.0331 11 14.0362 11 14.0393C11 14.0424 11 14.0455 11 14.0487C11 14.0518 11 14.0549 11 14.058C11 14.0611 11 14.0642 11 14.0673C11 14.0705 11 14.0736 11 14.0767C11 14.0798 11 14.0829 11 14.0861C11 14.0892 11 14.0923 11 14.0955C11 14.0986 11 14.1017 11 14.1049C11 14.108 11 14.1111 11 14.1143C11 14.1174 11 14.1205 11 14.1237C11 14.1268 11 14.13 11 14.1331C11 14.1363 11 14.1394 11 14.1426C11 14.1457 11 14.1489 11 14.152C11 14.1552 11 14.1583 11 14.1615C11 14.1647 11 14.1678 11 14.171C11 14.1742 11 14.1773 11 14.1805C11 14.1837 11 14.1868 11 14.19C11 14.1932 11 14.1964 11 14.1995C11 14.2027 11 14.2059 11 14.2091C11 14.2123 11 14.2154 11 14.2186C11 14.2218 11 14.225 11 14.2282C11 14.2314 11 14.2346 11 14.2378C11 14.241 11 14.2442 11 14.2474C11 14.2506 11 14.2538 11 14.257C11 14.2602 11 14.2634 11 14.2666C11 14.2698 11 14.273 11 14.2762C11 14.2795 11 14.2827 11 14.2859C11 14.2891 11 14.2923 11 14.2956C11 14.2988 11 14.302 11 14.3052C11 14.3085 11 14.3117 11 14.3149C11 14.3182 11 14.3214 11 14.3246C11 14.3279 11 14.3311 11 14.3344C11 14.3376 11 14.3409 11 14.3441C11 14.3474 11 14.3506 11 14.3539C11 14.3571 11 14.3604 11 14.3636C11 14.3669 11 14.3701 11 14.3734C11 14.3767 11 14.3799 11 14.3832C11 14.3865 11 14.3897 11 14.393C11 14.3963 11 14.3996 11 14.4028C11 14.4061 11 14.4094 11 14.4127C11 14.416 11 14.4193 11 14.4225C11 14.4258 11 14.4291 11 14.4324C11 14.4357 11 14.439 11 14.4423C11 14.4456 11 14.4489 11 14.4522C11 14.4555 11 14.4588 11 14.4621C11 14.4654 11 14.4688 11 14.4721C11 14.4754 11 14.4787 11 14.482C11 14.4853 11 14.4887 11 14.492C11 14.4953 11 14.4986 11 14.502C11 14.5053 11 14.5086 11 14.512C11 14.5153 11 14.5186 11 14.522C11 14.5253 11 14.5287 11 14.532C11 14.5354 11 14.5387 11 14.5421C11 14.5454 11 14.5488 11 14.5521C11 14.5555 11 14.5588 11 14.5622C11 14.5656 11 14.5689 11 14.5723C11 14.5757 11 14.579 11 14.5824C11 14.5858 11 14.5892 11 14.5925C11 14.5959 11 14.5993 11 14.6027C11 14.6061 11 14.6095 11 14.6128C11 14.6162 11 14.6196 11 14.623C11 14.6264 11 14.6298 11 14.6332C11 14.6366 11 14.64 11 14.6434C11 14.6468 11 14.6503 11 14.6537C11 14.6571 11 14.6605 11 14.6639C11 14.6673 11 14.6708 11 14.6742C11 14.6776 11 14.681 11 14.6845C11 14.6879 11 14.6913 11 14.6948C11 14.6982 11 14.7016 11 14.7051C11 14.7085 11 14.712 11 14.7154C11 14.7189 11 14.7223 11 14.7258C11 14.7292 11 14.7327 11 14.7361C11 14.7396 11 14.743 11 14.7465C11 14.75 11 14.7534 11 14.7569C11 14.7604 11 14.7639 11 14.7673C11 14.7708 11 14.7743 11 14.7778C11 14.7813 11 14.7847 11 14.7882C11 14.7917 11 14.7952 11 14.7987C11 14.8022 11 14.8057 11 14.8092C11 14.8127 11 14.8162 11 14.8197C11 14.8232 11 14.8267 11 14.8303C11 14.8338 11 14.8373 11 14.8408C11 14.8443 11 14.8478 11 14.8514C11 14.8549 11 14.8584 11 14.862C11 14.8655 11 14.869 11 14.8726C11 14.8761 11 14.8796 11 14.8832C11 14.8867 11 14.8903 11 14.8938C11 14.8974 11 14.9009 11 14.9045C11 14.9081 11 14.9116 11 14.9152C11 14.9187 11 14.9223 11 14.9259C11 14.9294 11 14.933 11 14.9366C11 14.9402 11 14.9437 11 14.9473C11 14.9509 11 14.9545 11 14.9581C11 14.9617 11 14.9653 11 14.9689C11 14.9725 11 14.9761 11 14.9797C11 14.9833 11 14.9869 11 14.9905C11 14.9941 11 14.9977 11 15.0013C11 15.0049 11 15.0085 11 15.0122C11 15.0158 11 15.0194 11 15.023C11 15.0267 11 15.0303 11 15.0339C11 15.0376 11 15.0412 11 15.0449C11 15.0485 11 15.0521 11 15.0558C11 15.0594 11 15.0631 11 15.0667C11 15.0704 11 15.0741 11 15.0777C11 15.0814 11 15.085 11 15.0887C11 15.0924 11 15.0961 11 15.0997C11 15.1034 11 15.1071 11 15.1108C11 15.1145 11 15.1181 11 15.1218C11 15.1255 11 15.1292 11 15.1329C11 15.1366 11 15.1403 11 15.144C11 15.1477 11 15.1514 11 15.1551C11 15.1588 11 15.1625 11 15.1663C11 15.17 11 15.1737 11 15.1774C11 15.1811 11 15.1849 11 15.1886C11 15.1923 11 15.1961 11 15.1998C11 15.2035 11 15.2073 11 15.211C11 15.2148 11 15.2185 11 15.2223C11 15.226 11 15.2298 11 15.2335C11 15.2373 11 15.2411 11 15.2448C11 15.2486 11 15.2524 11 15.2561C11 15.2599 11 15.2637 11 15.2675C11 15.2712 11 15.275 11 15.2788C11 15.2826 11 15.2864 11 15.2902C11 15.294 11 15.2978 11 15.3016C11 15.3054 11 15.3092 11 15.313C11 15.3168 11 15.3206 11 15.3244C11 15.3283 11 15.3321 11 15.3359C11 15.3397 11 15.3435 11 15.3474C11 15.3512 11 15.355 11 15.3589C11 15.3627 11 15.3666 11 15.3704C11 15.3743 11 15.3781 11 15.382C11 15.3858 11 15.3897 11 15.3935C11 15.3974 11 15.4013 11 15.4051C11 15.409 11 15.4129 11 15.4167C11 15.4206 11 15.4245 11 15.4284C11 15.4323 11 15.4362 11 15.44C11 15.4439 11 15.4478 11 15.4517C11 15.4556 11 15.4595 11 15.4634C11 15.4673 11 15.4713 11 15.4752C11 15.4791 11 15.483 11 15.4869C11 15.4908 11 15.4948 11 15.4987C11 15.5026 11 15.5066 11 15.5105C11 15.5144 11 15.5184 11 15.5223C11 15.5263 11 15.5302 11 15.5342C11 15.5381 11 15.5421 11 15.546C11 15.55 11 15.554 11 15.5579C11 15.5619 11 15.5659 11 15.5698C11 15.5738 11 15.5778 11 15.5818C11 15.5858 11 15.5898 11 15.5937C11 15.5977 11 15.6017 11 15.6057C11 15.6097 11 15.6137 11 15.6177C11 15.6218 11 15.6258 11 15.6298C11 15.6338 11 15.6378 11 15.6418C11 15.6459 11 15.6499 11 15.6539C11 15.658 11 15.662 11 15.666C11 15.6701 11 15.6741 11 15.6782C11 15.6822 11 15.6863 11 15.6903C11 15.6944 11 15.6984 11 15.7025C11 15.7066 11 15.7106 11 15.7147C11 15.7188 11 15.7228 11 15.7269C11 15.731 11 15.7351 11 15.7392C11 15.7433 11 15.7474 11 15.7515C11 15.7556 11 15.7597 11 15.7638C11 15.7679 11 15.772 11 15.7761C11 15.7802 11 15.7843 11 15.7884C11 15.7926 11 15.7967 11 15.8008C11 15.805 11 15.8091 11 15.8132C11 15.8174 11 15.8215 11 15.8257C11 15.8298 11 15.834 11 15.8381C11 15.8423 11 15.8464 11 15.8506C11 15.8548 11 15.8589 11 15.8631C11 15.8673 11 15.8714 11 15.8756C11 15.8798 11 15.884 11 15.8882C11 15.8924 11 15.8966 11 15.9008C11 15.905 11 15.9092 11 15.9134C11 15.9176 11 15.9218 11 15.926C11 15.9302 11 15.9344 11 15.9387C11 15.9429 11 15.9471 11 15.9513C11 15.9556 11 15.9598 11 15.9641C11 15.9683 11 15.9725 11 15.9768C11 15.981 11 15.9853 11 15.9896C11 15.9938 11 15.9981 11 16.0023C11 16.0066 11 16.0109 11 16.0152C11 16.0194 11 16.0237 11 16.028C11 16.0323 11 16.0366 11 16.0409C11 16.0452 11 16.0495 11 16.0538C11 16.0581 11 16.0624 11 16.0667C11 16.071 11 16.0753 11 16.0796C11 16.084 11 16.0883 11 16.0926C11 16.0969 11 16.1013 11 16.1056C11 16.11 11 16.1143 11 16.1186C11 16.123 11 16.1273 11 16.1317C11 16.1361 11 16.1404 11 16.1448C11 16.1491 11 16.1535 11 16.1579C11 16.1623 11 16.1666 11 16.171C11 16.1754 11 16.1798 11 16.1842C11 16.1886 11 16.193 11 16.1974C11 16.2018 11 16.2062 11 16.2106C11 16.215 11 16.2194 11 16.2239C11 16.2283 11 16.2327 11 16.2371C11 16.2416 11 16.246 11 16.2504C11 16.2549 11 16.2593 11 16.2638C11 16.2682 11 16.2727 11 16.2771C11 16.2816 11 16.286 11 16.2905C11 16.295 11 16.2994 11 16.3039C11 16.3084 11 16.3129 11 16.3174C11 16.3219 11 16.3263 11 16.3308C11 16.3353 11 16.3398 11 16.3443C11 16.3488 11 16.3534 11 16.3579C11 16.3624 11 16.3669 11 16.3714C11 16.3759 11 16.3805 11 16.385C11 16.3895 11 16.3941 11 16.3986C11 16.4032 11 16.4077 11 16.4123C11 16.4168 11 16.4214 11 16.4259C11 16.4305 11 16.4351 11 16.4396C11 16.4442 11 16.4488 11 16.4534C11 16.4579 11 16.4625 11 16.4671C11 16.4717 11 16.4763 11 16.4809C11 16.4855 11 16.4901 11 16.4947C11 16.4993 11 16.504 11 16.5086C11 16.5132 11 16.5178 11 16.5224C11 16.5271 11 16.5317 11 16.5364C11 16.541 11 16.5456 11 16.5503C11 16.5549 11 16.5596 11 16.5642C11 16.5689 11 16.5736 11 16.5782C11 16.5829 11 16.5876 11 16.5923C11 16.5969 11 16.6016 11 16.6063C11 16.611 11 16.6157 11 16.6204C11 16.6251 11 16.6298 11 16.6345C11 16.6392 11 16.6439 11 16.6487C11 16.6534 11 16.6581 11 16.6628C11 16.6676 11 16.6723 11 16.677C11 16.6818 11 16.6865 11 16.6913C11 16.696 11 16.7008 11 16.7055C11 16.7103 11 16.715 11 16.7198C11 16.7246 11 16.7294 11 16.7341C11 16.7389 11 16.7437 11 16.7485C11 16.7533 11 16.7581 11 16.7629C11 16.7677 11 16.7725 11 16.7773C11 16.7821 11 16.7869 11 16.7917C11 16.7966 11 16.8014 11 16.8062C11 16.8111 11 16.8159 11 16.8207C11 16.8256 11 16.8304 11 16.8353C11 16.8401 11 16.845 11 16.8498C11 16.8547 11 16.8596 11 16.8644C11 16.8693 11 16.8742 11 16.8791C11 16.884 11 16.8888 11 16.8937C11 16.8986 11 16.9035 11 16.9084C11 16.9133 11 16.9182 11 16.9232C11 16.9281 11 16.933 11 16.9379C11 16.9428 11 16.9478 11 16.9527C11 16.9576 11 16.9626 11 16.9675C11 16.9725 11 16.9774 11 16.9824C11 16.9873 11 16.9923 11 16.9973C11 17.0022 11 17.0072 11 17.0122C11 17.0172 11 17.0222 11 17.0271C11 17.0321 11 17.0371 11 17.0421C11 17.0471 11 17.0521 11 17.0571C11 17.0622 11 17.0672 11 17.0722C11 17.0772 11 17.0822 11 17.0873C11 17.0923 11 17.0973 11 17.1024C11 17.1074 11 17.1125 11 17.1175C11 17.1226 11 17.1276 11 17.1327C11 17.1378 11 17.1428 11 17.1479C11 17.153 11 17.1581 11 17.1632C11 17.1682 11 17.1733 11 17.1784C11 17.1835 11 17.1886 11 17.1937C11 17.1988 11 17.204 11 17.2091C11 17.2142 11 17.2193 11 17.2245C11 17.2296 11 17.2347 11 17.2399C11 17.245 11 17.2502 11 17.2553C11 17.2605 11 17.2656 11 17.2708C11 17.2759 11 17.2811 11 17.2863C11 17.2915 11 17.2966 11 17.3018C11 17.307 11 17.3122 11 17.3174C11 17.3226 11 17.3278 11 17.333L13 17.333ZM13 11.9997C13 11.9968 13 11.9939 13 11.991C13 11.9882 13 11.9853 13 11.9824C13 11.9796 13 11.9767 13 11.9738C13 11.9709 13 11.9681 13 11.9652C13 11.9623 13 11.9595 13 11.9566C13 11.9537 13 11.9509 13 11.948C13 11.9451 13 11.9423 13 11.9394C13 11.9366 13 11.9337 13 11.9308C13 11.928 13 11.9251 13 11.9223C13 11.9194 13 11.9165 13 11.9137C13 11.9108 13 11.908 13 11.9051C13 11.9023 13 11.8994 13 11.8966C13 11.8937 13 11.8909 13 11.888C13 11.8852 13 11.8823 13 11.8795C13 11.8766 13 11.8738 13 11.8709C13 11.8681 13 11.8652 13 11.8624C13 11.8595 13 11.8567 13 11.8538C13 11.851 13 11.8481 13 11.8453C13 11.8425 13 11.8396 13 11.8368C13 11.8339 13 11.8311 13 11.8283C13 11.8254 13 11.8226 13 11.8197C13 11.8169 13 11.8141 13 11.8112C13 11.8084 13 11.8056 13 11.8027C13 11.7999 13 11.7971 13 11.7942C13 11.7914 13 11.7886 13 11.7857C13 11.7829 13 11.7801 13 11.7772C13 11.7744 13 11.7716 13 11.7687C13 11.7659 13 11.7631 13 11.7603C13 11.7574 13 11.7546 13 11.7518C13 11.749 13 11.7461 13 11.7433C13 11.7405 13 11.7377 13 11.7348C13 11.732 13 11.7292 13 11.7264C13 11.7236 13 11.7207 13 11.7179C13 11.7151 13 11.7123 13 11.7094C13 11.7066 13 11.7038 13 11.701C13 11.6982 13 11.6954 13 11.6925C13 11.6897 13 11.6869 13 11.6841C13 11.6813 13 11.6785 13 11.6756C13 11.6728 13 11.67 13 11.6672C13 11.6644 13 11.6616 13 11.6588C13 11.656 13 11.6531 13 11.6503C13 11.6475 13 11.6447 13 11.6419C13 11.6391 13 11.6363 13 11.6335C13 11.6307 13 11.6279 13 11.625C13 11.6222 13 11.6194 13 11.6166C13 11.6138 13 11.611 13 11.6082C13 11.6054 13 11.6026 13 11.5998C13 11.597 13 11.5942 13 11.5914C13 11.5886 13 11.5858 13 11.583C13 11.5802 13 11.5774 13 11.5745C13 11.5717 13 11.5689 13 11.5661C13 11.5633 13 11.5605 13 11.5577C13 11.5549 13 11.5521 13 11.5493C13 11.5465 13 11.5437 13 11.5409C13 11.5381 13 11.5353 13 11.5325C13 11.5297 13 11.5269 13 11.5241C13 11.5213 13 11.5185 13 11.5157C13 11.513 13 11.5102 13 11.5074C13 11.5046 13 11.5018 13 11.499C13 11.4962 13 11.4934 13 11.4906C13 11.4878 13 11.485 13 11.4822C13 11.4794 13 11.4766 13 11.4738C13 11.471 13 11.4682 13 11.4654C13 11.4626 13 11.4598 13 11.457C13 11.4542 13 11.4515 13 11.4487C13 11.4459 13 11.4431 13 11.4403C13 11.4375 13 11.4347 13 11.4319C13 11.4291 13 11.4263 13 11.4235C13 11.4207 13 11.4179 13 11.4151C13 11.4124 13 11.4096 13 11.4068C13 11.404 13 11.4012 13 11.3984C13 11.3956 13 11.3928 13 11.39C13 11.3872 13 11.3844 13 11.3817C13 11.3789 13 11.3761 13 11.3733C13 11.3705 13 11.3677 13 11.3649C13 11.3621 13 11.3593 13 11.3565C13 11.3538 13 11.351 13 11.3482C13 11.3454 13 11.3426 13 11.3398C13 11.337 13 11.3342 13 11.3314C13 11.3286 13 11.3259 13 11.3231C13 11.3203 13 11.3175 13 11.3147C13 11.3119 13 11.3091 13 11.3063C13 11.3035 13 11.3007 13 11.298C13 11.2952 13 11.2924 13 11.2896C13 11.2868 13 11.284 13 11.2812C13 11.2784 13 11.2756 13 11.2728C13 11.2701 13 11.2673 13 11.2645C13 11.2617 13 11.2589 13 11.2561C13 11.2533 13 11.2505 13 11.2477C13 11.2449 13 11.2422 13 11.2394C13 11.2366 13 11.2338 13 11.231C13 11.2282 13 11.2254 13 11.2226C13 11.2198 13 11.217 13 11.2142C13 11.2114 13 11.2087 13 11.2059C13 11.2031 13 11.2003 13 11.1975C13 11.1947 13 11.1919 13 11.1891C13 11.1863 13 11.1835 13 11.1807C13 11.1779 13 11.1751 13 11.1724C13 11.1696 13 11.1668 13 11.164C13 11.1612 13 11.1584 13 11.1556C13 11.1528 13 11.15 13 11.1472C13 11.1444 13 11.1416 13 11.1388C13 11.136 13 11.1332 13 11.1304C13 11.1276 13 11.1248 13 11.122C13 11.1193 13 11.1165 13 11.1137C13 11.1109 13 11.1081 13 11.1053C13 11.1025 13 11.0997 13 11.0969C13 11.0941 13 11.0913 13 11.0885C13 11.0857 13 11.0829 13 11.0801C13 11.0773 13 11.0745 13 11.0717C13 11.0689 13 11.0661 13 11.0633C13 11.0605 13 11.0577 13 11.0549C13 11.0521 13 11.0493 13 11.0465C13 11.0437 13 11.0409 13 11.0381C13 11.0353 13 11.0324 13 11.0296C13 11.0268 13 11.024 13 11.0212C13 11.0184 13 11.0156 13 11.0128C13 11.01 13 11.0072 13 11.0044C13 11.0016 13 10.9988 13 10.996C13 10.9932 13 10.9904 13 10.9875C13 10.9847 13 10.9819 13 10.9791C13 10.9763 13 10.9735 13 10.9707C13 10.9679 13 10.9651 13 10.9622C13 10.9594 13 10.9566 13 10.9538C13 10.951 13 10.9482 13 10.9454C13 10.9426 13 10.9397 13 10.9369C13 10.9341 13 10.9313 13 10.9285C13 10.9257 13 10.9228 13 10.92C13 10.9172 13 10.9144 13 10.9116C13 10.9087 13 10.9059 13 10.9031C13 10.9003 13 10.8975 13 10.8946C13 10.8918 13 10.889 13 10.8862C13 10.8834 13 10.8805 13 10.8777C13 10.8749 13 10.8721 13 10.8692C13 10.8664 13 10.8636 13 10.8608C13 10.8579 13 10.8551 13 10.8523C13 10.8494 13 10.8466 13 10.8438C13 10.8409 13 10.8381 13 10.8353C13 10.8325 13 10.8296 13 10.8268C13 10.824 13 10.8211 13 10.8183C13 10.8155 13 10.8126 13 10.8098C13 10.8069 13 10.8041 13 10.8013C13 10.7984 13 10.7956 13 10.7928C13 10.7899 13 10.7871 13 10.7842C13 10.7814 13 10.7786 13 10.7757C13 10.7729 13 10.77 13 10.7672C13 10.7643 13 10.7615 13 10.7586C13 10.7558 13 10.753 13 10.7501C13 10.7473 13 10.7444 13 10.7416C13 10.7387 13 10.7359 13 10.733C13 10.7302 13 10.7273 13 10.7245C13 10.7216 13 10.7188 13 10.7159C13 10.713 13 10.7102 13 10.7073C13 10.7045 13 10.7016 13 10.6988C13 10.6959 13 10.693 13 10.6902C13 10.6873 13 10.6845 13 10.6816C13 10.6787 13 10.6759 13 10.673C13 10.6701 13 10.6673 13 10.6644C13 10.6615 13 10.6587 13 10.6558C13 10.6529 13 10.6501 13 10.6472C13 10.6443 13 10.6415 13 10.6386C13 10.6357 13 10.6328 13 10.63C13 10.6271 13 10.6242 13 10.6213C13 10.6185 13 10.6156 13 10.6127C13 10.6098 13 10.607 13 10.6041C13 10.6012 13 10.5983 13 10.5954C13 10.5925 13 10.5897 13 10.5868C13 10.5839 13 10.581 13 10.5781C13 10.5752 13 10.5723 13 10.5694C13 10.5666 13 10.5637 13 10.5608C13 10.5579 13 10.555 13 10.5521C13 10.5492 13 10.5463 13 10.5434C13 10.5405 13 10.5376 13 10.5347C13 10.5318 13 10.5289 13 10.526C13 10.5231 13 10.5202 13 10.5173C13 10.5144 13 10.5115 13 10.5086C13 10.5057 13 10.5028 13 10.4999C13 10.497 13 10.4941 13 10.4911C13 10.4882 13 10.4853 13 10.4824C13 10.4795 13 10.4766 13 10.4737C13 10.4707 13 10.4678 13 10.4649C13 10.462 13 10.4591 13 10.4561C13 10.4532 13 10.4503 13 10.4474C13 10.4445 13 10.4415 13 10.4386C13 10.4357 13 10.4327 13 10.4298C13 10.4269 13 10.424 13 10.421C13 10.4181 13 10.4152 13 10.4122C13 10.4093 13 10.4064 13 10.4034C13 10.4005 13 10.3975 13 10.3946C13 10.3917 13 10.3887 13 10.3858C13 10.3828 13 10.3799 13 10.3769C13 10.374 13 10.371 13 10.3681C13 10.3651 13 10.3622 13 10.3592C13 10.3563 13 10.3533 13 10.3504C13 10.3474 13 10.3445 13 10.3415C13 10.3386 13 10.3356 13 10.3326C13 10.3297 13 10.3267 13 10.3237C13 10.3208 13 10.3178 13 10.3148C13 10.3119 13 10.3089 13 10.3059C13 10.303 13 10.3 13 10.297C13 10.2941 13 10.2911 13 10.2881C13 10.2851 13 10.2822 13 10.2792C13 10.2762 13 10.2732 13 10.2702C13 10.2672 13 10.2643 13 10.2613C13 10.2583 13 10.2553 13 10.2523C13 10.2493 13 10.2463 13 10.2433C13 10.2404 13 10.2374 13 10.2344C13 10.2314 13 10.2284 13 10.2254C13 10.2224 13 10.2194 13 10.2164C13 10.2134 13 10.2104 13 10.2074C13 10.2044 13 10.2014 13 10.1983C13 10.1953 13 10.1923 13 10.1893C13 10.1863 13 10.1833 13 10.1803C13 10.1773 13 10.1742 13 10.1712C13 10.1682 13 10.1652 13 10.1622C13 10.1591 13 10.1561 13 10.1531C13 10.1501 13 10.147 13 10.144C13 10.141 13 10.1379 13 10.1349C13 10.1319 13 10.1288 13 10.1258C13 10.1228 13 10.1197 13 10.1167C13 10.1136 13 10.1106 13 10.1076C13 10.1045 13 10.1015 13 10.0984C13 10.0954 13 10.0923 13 10.0893C13 10.0862 13 10.0832 13 10.0801C13 10.0771 13 10.074 13 10.071C13 10.0679 13 10.0648 13 10.0618C13 10.0587 13 10.0556 13 10.0526C13 10.0495 13 10.0464 13 10.0434C13 10.0403 13 10.0372 13 10.0342C13 10.0311 13 10.028 13 10.0249C13 10.0219 13 10.0188 13 10.0157C13 10.0126 13 10.0095 13 10.0064C13 10.0034 13 10.0003 13 9.99718C13 9.99409 13 9.991 13 9.98791C13 9.98481 13 9.98172 13 9.97862C13 9.97552 13 9.97242 13 9.96932C13 9.96622 13 9.96312 13 9.96001C13 9.95691 13 9.9538 13 9.95069C13 9.94758 13 9.94447 13 9.94136C13 9.93824 13 9.93513 13 9.93201C13 9.92889 13 9.92577 13 9.92265C13 9.91953 13 9.91641 13 9.91328C13 9.91015 13 9.90703 13 9.9039C13 9.90077 13 9.89763 13 9.8945C13 9.89137 13 9.88823 13 9.88509C13 9.88195 13 9.87881 13 9.87567C13 9.87252 13 9.86938 13 9.86623C13 9.86309 13 9.85994 13 9.85678C13 9.85363 13 9.85048 13 9.84732C13 9.84417 13 9.84101 13 9.83785C13 9.83469 13 9.83153 13 9.82836C13 9.8252 13 9.82203 13 9.81886C13 9.81569 13 9.81252 13 9.80935C13 9.80617 13 9.803 13 9.79982C13 9.79664 13 9.79346 13 9.79028C13 9.7871 13 9.78391 13 9.78072C13 9.77754 13 9.77435 13 9.77116C13 9.76796 13 9.76477 13 9.76157C13 9.75838 13 9.75518 13 9.75198C13 9.74878 13 9.74557 13 9.74237C13 9.73916 13 9.73595 13 9.73274C13 9.72953 13 9.72632 13 9.72311C13 9.71989 13 9.71667 13 9.71346C13 9.71024 13 9.70701 13 9.70379C13 9.70056 13 9.69734 13 9.69411C13 9.69088 13 9.68765 13 9.68441C13 9.68118 13 9.67794 13 9.6747C13 9.67147 13 9.66822 13 9.66498C13 9.66174 13 9.65849 13 9.65524C13 9.65199 13 9.64874 13 9.64549C13 9.64224 13 9.63898 13 9.63572C13 9.63246 13 9.6292 13 9.62594C13 9.62268 13 9.61941 13 9.61614C13 9.61287 13 9.6096 13 9.60633C13 9.60306 13 9.59978 13 9.5965C13 9.59322 13 9.58994 13 9.58666C13 9.58338 13 9.58009 13 9.5768C13 9.57351 13 9.57022 13 9.56693C13 9.56363 13 9.56034 13 9.55704C13 9.55374 13 9.55044 13 9.54714C13 9.54383 13 9.54052 13 9.53722C13 9.53391 13 9.53059 13 9.52728C13 9.52397 13 9.52065 13 9.51733C13 9.51401 13 9.51069 13 9.50736C13 9.50404 13 9.50071 13 9.49738C13 9.49405 13 9.49072 13 9.48738C13 9.48405 13 9.48071 13 9.47737C13 9.47403 13 9.47068 13 9.46734C13 9.46399 13 9.46064 13 9.45729C13 9.45394 13 9.45058 13 9.44723C13 9.44387 13 9.44051 13 9.43715C13 9.43378 13 9.43042 13 9.42705C13 9.42368 13 9.42031 13 9.41694C13 9.41357 13 9.41019 13 9.40681C13 9.40343 13 9.40005 13 9.39667C13 9.39328 13 9.38989 13 9.3865C13 9.38311 13 9.37972 13 9.37632C13 9.37293 13 9.36953 13 9.36613C13 9.36273 13 9.35932 13 9.35592C13 9.35251 13 9.3491 13 9.34569C13 9.34227 13 9.33886 13 9.33544C13 9.33202 13 9.3286 13 9.32517C13 9.32175 13 9.31832 13 9.31489C13 9.31146 13 9.30803 13 9.30459C13 9.30116 13 9.29772 13 9.29428C13 9.29084 13 9.28739 13 9.28394C13 9.2805 13 9.27705 13 9.27359C13 9.27014 13 9.26668 13 9.26322C13 9.25976 13 9.2563 13 9.25284C13 9.24937 13 9.2459 13 9.24243C13 9.23896 13 9.23549 13 9.23201C13 9.22853 13 9.22505 13 9.22157C13 9.21809 13 9.2146 13 9.21111C13 9.20762 13 9.20413 13 9.20064C13 9.19714 13 9.19364 13 9.19014C13 9.18664 13 9.18314 13 9.17963C13 9.17612 13 9.17261 13 9.1691C13 9.16558 13 9.16207 13 9.15855C13 9.15503 13 9.1515 13 9.14798C13 9.14445 13 9.14092 13 9.13739C13 9.13386 13 9.13032 13 9.12679C13 9.12325 13 9.11971 13 9.11616C13 9.11262 13 9.10907 13 9.10552C13 9.10197 13 9.09841 13 9.09486C13 9.0913 13 9.08774 13 9.08418C13 9.08061 13 9.07705 13 9.07348C13 9.06991 13 9.06633 13 9.06276C13 9.05918 13 9.0556 13 9.05202C13 9.04844 13 9.04485 13 9.04126C13 9.03767 13 9.03408 13 9.03048C13 9.02689 13 9.02329 13 9.01969C13 9.01608 13 9.01248 13 9.00887C13 9.00526 13 9.00165 13 8.99803C13 8.99442 13 8.9908 13 8.98718C13 8.98356 13 8.97993 13 8.9763C13 8.97268 13 8.96904 13 8.96541C13 8.96177 13 8.95814 13 8.95449C13 8.95085 13 8.94721 13 8.94356C13 8.93991 13 8.93626 13 8.9326C13 8.92895 13 8.92529 13 8.92163C13 8.91797 13 8.9143 13 8.91063C13 8.90696 13 8.90329 13 8.89962C13 8.89594 13 8.89226 13 8.88858C13 8.8849 13 8.88121 13 8.87752C13 8.87384 13 8.87014 13 8.86645C13 8.86275 13 8.85905 13 8.85535C13 8.85165 13 8.84794 13 8.84423C13 8.84052 13 8.83681 13 8.83309C13 8.82938 13 8.82565 13 8.82193C13 8.81821 13 8.81448 13 8.81075C13 8.80702 13 8.80329 13 8.79955C13 8.79581 13 8.79207 13 8.78832C13 8.78458 13 8.78083 13 8.77708C13 8.77333 13 8.76957 13 8.76581C13 8.76206 13 8.75829 13 8.75453C13 8.75076 13 8.74699 13 8.74322C13 8.73945 13 8.73567 13 8.73189C13 8.72811 13 8.72433 13 8.72054C13 8.71675 13 8.71296 13 8.70916C13 8.70537 13 8.70157 13 8.69777C13 8.69397 13 8.69016 13 8.68635C13 8.68254 13 8.67873 13 8.67491C13 8.6711 13 8.66728 13 8.66345C13 8.65963 13 8.6558 13 8.65197C13 8.64814 13 8.6443 13 8.64047C13 8.63663 13 8.63278 13 8.62894C13 8.62509 13 8.62124 13 8.61739C13 8.61354 13 8.60968 13 8.60582C13 8.60196 13 8.59809 13 8.59422C13 8.59036 13 8.58648 13 8.58261C13 8.57873 13 8.57485 13 8.57097C13 8.56709 13 8.5632 13 8.55931C13 8.55542 13 8.55152 13 8.54762C13 8.54372 13 8.53982 13 8.53591C13 8.53201 13 8.5281 13 8.52418C13 8.52027 13 8.51635 13 8.51243C13 8.50851 13 8.50458 13 8.50066C13 8.49673 13 8.49279 13 8.48886C13 8.48492 13 8.48098 13 8.47703C13 8.47309 13 8.46914 13 8.46519C13 8.46123 13 8.45728 13 8.45332C13 8.44936 13 8.44539 13 8.44143C13 8.43746 13 8.43348 13 8.42951C13 8.42553 13 8.42155 13 8.41757C13 8.41358 13 8.4096 13 8.40561C13 8.40161 13 8.39762 13 8.39362C13 8.38962 13 8.38561 13 8.38161C13 8.3776 13 8.37359 13 8.36957C13 8.36556 13 8.36154 13 8.35751C13 8.35349 13 8.34946 13 8.34543C13 8.3414 13 8.33736 13 8.33332C13 8.32928 13 8.32524 13 8.32119C13 8.31714 13 8.31309 13 8.30903C13 8.30498 13 8.30092 13 8.29685C13 8.29279 13 8.28872 13 8.28465C13 8.28058 13 8.2765 13 8.27242C13 8.26834 13 8.26425 13 8.26017C13 8.25608 13 8.25198 13 8.24789C13 8.24379 13 8.23969 13 8.23558C13 8.23148 13 8.22737 13 8.22326C13 8.21914 13 8.21502 13 8.2109C13 8.20678 13 8.20265 13 8.19852C13 8.19439 13 8.19026 13 8.18612C13 8.18198 13 8.17784 13 8.17369C13 8.16955 13 8.16539 13 8.16124C13 8.15708 13 8.15292 13 8.14876C13 8.1446 13 8.14043 13 8.13626C13 8.13208 13 8.12791 13 8.12372C13 8.11954 13 8.11536 13 8.11117C13 8.10698 13 8.10279 13 8.09859C13 8.09439 13 8.09019 13 8.08598C13 8.08177 13 8.07756 13 8.07335C13 8.06913 13 8.06491 13 8.06069C13 8.05647 13 8.05224 13 8.04801C13 8.04377 13 8.03954 13 8.0353C13 8.03105 13 8.02681 13 8.02256C13 8.01831 13 8.01405 13 8.0098C13 8.00554 13 8.00127 13 7.99701C13 7.99274 13 7.98847 13 7.98419C13 7.97991 13 7.97563 13 7.97135C13 7.96706 13 7.96277 13 7.95848C13 7.95419 13 7.94989 13 7.94559C13 7.94128 13 7.93698 13 7.93266C13 7.92835 13 7.92404 13 7.91972C13 7.91539 13 7.91107 13 7.90674C13 7.90241 13 7.89808 13 7.89374C13 7.8894 13 7.88506 13 7.88071C13 7.87636 13 7.87201 13 7.86765C13 7.8633 13 7.85894 13 7.85457C13 7.8502 13 7.84583 13 7.84146C13 7.83708 13 7.83271 13 7.82832C13 7.82394 13 7.81955 13 7.81516C13 7.81076 13 7.80637 13 7.80196C13 7.79756 13 7.79315 13 7.78874C13 7.78433 13 7.77992 13 7.7755C13 7.77108 13 7.76665 13 7.76222C13 7.75779 13 7.75336 13 7.74892C13 7.74448 13 7.74003 13 7.73559C13 7.73114 13 7.72668 13 7.72223C13 7.71777 13 7.71331 13 7.70884C13 7.70437 13 7.6999 13 7.69542C13 7.69095 13 7.68647 13 7.68198C13 7.6775 13 7.67301 13 7.66851C13 7.66402 13 7.65952 13 7.65501C13 7.65051 13 7.646 13 7.64148C13 7.63697 13 7.63245 13 7.62793C13 7.6234 13 7.61887 13 7.61434C13 7.60981 13 7.60527 13 7.60073C13 7.59619 13 7.59164 13 7.58709C13 7.58253 13 7.57798 13 7.57341C13 7.56885 13 7.56429 13 7.55971C13 7.55514 13 7.55057 13 7.54599C13 7.5414 13 7.53682 13 7.53223C13 7.52764 13 7.52304 13 7.51844C13 7.51384 13 7.50923 13 7.50462C13 7.50001 13 7.4954 13 7.49078C13 7.48616 13 7.48153 13 7.4769C13 7.47227 13 7.46764 13 7.463C13 7.45836 13 7.45372 13 7.44907C13 7.44442 13 7.43976 13 7.4351C13 7.43044 13 7.42578 13 7.42111C13 7.41644 13 7.41177 13 7.40709C13 7.40241 13 7.39772 13 7.39303C13 7.38835 13 7.38365 13 7.37895C13 7.37425 13 7.36955 13 7.36484C13 7.36013 13 7.35542 13 7.3507C13 7.34598 13 7.34126 13 7.33653C13 7.3318 13 7.32706 13 7.32232C13 7.31758 13 7.31284 13 7.30809C13 7.30334 13 7.29859 13 7.29383C13 7.28907 13 7.2843 13 7.27953C13 7.27476 13 7.26999 13 7.26521C13 7.26043 13 7.25565 13 7.25086C13 7.24607 13 7.24127 13 7.23647C13 7.23167 13 7.22686 13 7.22205C13 7.21724 13 7.21243 13 7.20761C13 7.20279 13 7.19796 13 7.19313C13 7.1883 13 7.18346 13 7.17862C13 7.17378 13 7.16893 13 7.16408C13 7.15923 13 7.15437 13 7.14951C13 7.14465 13 7.13978 13 7.13491C13 7.13004 13 7.12516 13 7.12028C13 7.11539 13 7.11051 13 7.10561C13 7.10072 13 7.09582 13 7.09091C13 7.08601 13 7.0811 13 7.07619C13 7.07127 13 7.06635 13 7.06143C13 7.0565 13 7.05157 13 7.04664C13 7.0417 13 7.03676 13 7.03181C13 7.02687 13 7.02192 13 7.01696C13 7.012 13 7.00704 13 7.00207C13 6.99711 13 6.99213 13 6.98716C13 6.98218 13 6.97719 13 6.97221C13 6.96722 13 6.96222 13 6.95722C13 6.95222 13 6.94722 13 6.94221C13 6.9372 13 6.93218 13 6.92716C13 6.92214 13 6.91711 13 6.91208C13 6.90705 13 6.90201 13 6.89697C13 6.89193 13 6.88688 13 6.88182C13 6.87677 13 6.87171 13 6.86665C13 6.86158 13 6.85651 13 6.85144C13 6.84636 13 6.84128 13 6.83619C13 6.83111 13 6.82602 13 6.82092C13 6.81582 13 6.81072 13 6.80561C13 6.8005 13 6.79539 13 6.79027C13 6.78515 13 6.78003 13 6.7749C13 6.76977 13 6.76463 13 6.75949C13 6.75435 13 6.7492 13 6.74405C13 6.7389 13 6.73374 13 6.72857C13 6.72341 13 6.71824 13 6.71307C13 6.70789 13 6.70271 13 6.69752C13 6.69234 13 6.68715 13 6.68195C13 6.67675 13 6.67155 13 6.66634L11 6.66634C11 6.67155 11 6.67675 11 6.68195C11 6.68715 11 6.69234 11 6.69753C11 6.70271 11 6.70789 11 6.71307C11 6.71824 11 6.72341 11 6.72857C11 6.73374 11 6.7389 11 6.74405C11 6.7492 11 6.75435 11 6.75949C11 6.76463 11 6.76977 11 6.7749C11 6.78003 11 6.78515 11 6.79027C11 6.79539 11 6.8005 11 6.80561C11 6.81072 11 6.81582 11 6.82092C11 6.82602 11 6.83111 11 6.8362C11 6.84128 11 6.84636 11 6.85144C11 6.85651 11 6.86158 11 6.86665C11 6.87171 11 6.87677 11 6.88182C11 6.88688 11 6.89193 11 6.89697C11 6.90201 11 6.90705 11 6.91208C11 6.91711 11 6.92214 11 6.92716C11 6.93218 11 6.9372 11 6.94221C11 6.94722 11 6.95222 11 6.95722C11 6.96222 11 6.96722 11 6.97221C11 6.97719 11 6.98218 11 6.98716C11 6.99213 11 6.99711 11 7.00207C11 7.00704 11 7.012 11 7.01696C11 7.02192 11 7.02687 11 7.03181C11 7.03676 11 7.0417 11 7.04664C11 7.05157 11 7.0565 11 7.06143C11 7.06635 11 7.07127 11 7.07619C11 7.0811 11 7.08601 11 7.09091C11 7.09582 11 7.10072 11 7.10561C11 7.11051 11 7.11539 11 7.12028C11 7.12516 11 7.13004 11 7.13491C11 7.13978 11 7.14465 11 7.14951C11 7.15437 11 7.15923 11 7.16408C11 7.16893 11 7.17378 11 7.17862C11 7.18346 11 7.1883 11 7.19313C11 7.19796 11 7.20279 11 7.20761C11 7.21243 11 7.21724 11 7.22205C11 7.22686 11 7.23167 11 7.23647C11 7.24127 11 7.24607 11 7.25086C11 7.25565 11 7.26043 11 7.26521C11 7.26999 11 7.27477 11 7.27953C11 7.2843 11 7.28907 11 7.29383C11 7.29859 11 7.30334 11 7.30809C11 7.31284 11 7.31759 11 7.32232C11 7.32706 11 7.3318 11 7.33653C11 7.34126 11 7.34598 11 7.3507C11 7.35542 11 7.36013 11 7.36484C11 7.36955 11 7.37425 11 7.37895C11 7.38365 11 7.38835 11 7.39303C11 7.39772 11 7.40241 11 7.40709C11 7.41177 11 7.41644 11 7.42111C11 7.42578 11 7.43044 11 7.4351C11 7.43976 11 7.44442 11 7.44907C11 7.45372 11 7.45836 11 7.463C11 7.46764 11 7.47227 11 7.4769C11 7.48153 11 7.48616 11 7.49078C11 7.4954 11 7.50001 11 7.50462C11 7.50923 11 7.51384 11 7.51844C11 7.52304 11 7.52764 11 7.53223C11 7.53682 11 7.5414 11 7.54599C11 7.55057 11 7.55514 11 7.55971C11 7.56429 11 7.56885 11 7.57341C11 7.57798 11 7.58253 11 7.58709C11 7.59164 11 7.59619 11 7.60073C11 7.60527 11 7.60981 11 7.61434C11 7.61887 11 7.6234 11 7.62793C11 7.63245 11 7.63697 11 7.64148C11 7.646 11 7.65051 11 7.65501C11 7.65952 11 7.66402 11 7.66851C11 7.67301 11 7.6775 11 7.68198C11 7.68647 11 7.69095 11 7.69543C11 7.6999 11 7.70437 11 7.70884C11 7.71331 11 7.71777 11 7.72223C11 7.72668 11 7.73114 11 7.73559C11 7.74003 11 7.74448 11 7.74892C11 7.75336 11 7.75779 11 7.76222C11 7.76665 11 7.77108 11 7.7755C11 7.77992 11 7.78433 11 7.78874C11 7.79315 11 7.79756 11 7.80196C11 7.80637 11 7.81076 11 7.81516C11 7.81955 11 7.82394 11 7.82832C11 7.83271 11 7.83708 11 7.84146C11 7.84583 11 7.8502 11 7.85457C11 7.85894 11 7.8633 11 7.86765C11 7.87201 11 7.87636 11 7.88071C11 7.88506 11 7.8894 11 7.89374C11 7.89808 11 7.90241 11 7.90674C11 7.91107 11 7.91539 11 7.91972C11 7.92404 11 7.92835 11 7.93266C11 7.93698 11 7.94128 11 7.94559C11 7.94989 11 7.95419 11 7.95848C11 7.96277 11 7.96706 11 7.97135C11 7.97563 11 7.97991 11 7.98419C11 7.98847 11 7.99274 11 7.99701C11 8.00127 11 8.00554 11 8.0098C11 8.01405 11 8.01831 11 8.02256C11 8.02681 11 8.03105 11 8.0353C11 8.03954 11 8.04377 11 8.04801C11 8.05224 11 8.05647 11 8.06069C11 8.06491 11 8.06913 11 8.07335C11 8.07756 11 8.08177 11 8.08598C11 8.09019 11 8.09439 11 8.09859C11 8.10279 11 8.10698 11 8.11117C11 8.11536 11 8.11954 11 8.12372C11 8.12791 11 8.13208 11 8.13626C11 8.14043 11 8.1446 11 8.14876C11 8.15292 11 8.15708 11 8.16124C11 8.16539 11 8.16955 11 8.17369C11 8.17784 11 8.18198 11 8.18612C11 8.19026 11 8.19439 11 8.19852C11 8.20265 11 8.20678 11 8.2109C11 8.21502 11 8.21914 11 8.22326C11 8.22737 11 8.23148 11 8.23558C11 8.23969 11 8.24379 11 8.24789C11 8.25198 11 8.25608 11 8.26017C11 8.26425 11 8.26834 11 8.27242C11 8.2765 11 8.28058 11 8.28465C11 8.28872 11 8.29279 11 8.29685C11 8.30092 11 8.30498 11 8.30903C11 8.31309 11 8.31714 11 8.32119C11 8.32524 11 8.32928 11 8.33332C11 8.33736 11 8.3414 11 8.34543C11 8.34946 11 8.35349 11 8.35751C11 8.36154 11 8.36556 11 8.36957C11 8.37359 11 8.3776 11 8.38161C11 8.38561 11 8.38962 11 8.39362C11 8.39762 11 8.40161 11 8.40561C11 8.4096 11 8.41358 11 8.41757C11 8.42155 11 8.42553 11 8.42951C11 8.43349 11 8.43746 11 8.44143C11 8.44539 11 8.44936 11 8.45332C11 8.45728 11 8.46123 11 8.46519C11 8.46914 11 8.47309 11 8.47703C11 8.48098 11 8.48492 11 8.48886C11 8.49279 11 8.49673 11 8.50066C11 8.50458 11 8.50851 11 8.51243C11 8.51635 11 8.52027 11 8.52418C11 8.5281 11 8.53201 11 8.53591C11 8.53982 11 8.54372 11 8.54762C11 8.55152 11 8.55542 11 8.55931C11 8.5632 11 8.56709 11 8.57097C11 8.57485 11 8.57873 11 8.58261C11 8.58648 11 8.59036 11 8.59422C11 8.59809 11 8.60196 11 8.60582C11 8.60968 11 8.61354 11 8.61739C11 8.62124 11 8.62509 11 8.62894C11 8.63278 11 8.63663 11 8.64047C11 8.6443 11 8.64814 11 8.65197C11 8.6558 11 8.65963 11 8.66345C11 8.66728 11 8.6711 11 8.67491C11 8.67873 11 8.68254 11 8.68635C11 8.69016 11 8.69397 11 8.69777C11 8.70157 11 8.70537 11 8.70916C11 8.71296 11 8.71675 11 8.72054C11 8.72433 11 8.72811 11 8.73189C11 8.73567 11 8.73945 11 8.74322C11 8.74699 11 8.75076 11 8.75453C11 8.75829 11 8.76206 11 8.76581C11 8.76957 11 8.77333 11 8.77708C11 8.78083 11 8.78458 11 8.78832C11 8.79207 11 8.79581 11 8.79955C11 8.80329 11 8.80702 11 8.81075C11 8.81448 11 8.81821 11 8.82193C11 8.82566 11 8.82938 11 8.83309C11 8.83681 11 8.84052 11 8.84423C11 8.84794 11 8.85165 11 8.85535C11 8.85905 11 8.86275 11 8.86645C11 8.87014 11 8.87384 11 8.87752C11 8.88121 11 8.8849 11 8.88858C11 8.89226 11 8.89594 11 8.89962C11 8.90329 11 8.90696 11 8.91063C11 8.9143 11 8.91797 11 8.92163C11 8.92529 11 8.92895 11 8.9326C11 8.93626 11 8.93991 11 8.94356C11 8.94721 11 8.95085 11 8.95449C11 8.95814 11 8.96177 11 8.96541C11 8.96904 11 8.97268 11 8.9763C11 8.97993 11 8.98356 11 8.98718C11 8.9908 11 8.99442 11 8.99803C11 9.00165 11 9.00526 11 9.00887C11 9.01248 11 9.01608 11 9.01969C11 9.02329 11 9.02689 11 9.03048C11 9.03408 11 9.03767 11 9.04126C11 9.04485 11 9.04844 11 9.05202C11 9.0556 11 9.05918 11 9.06276C11 9.06633 11 9.06991 11 9.07348C11 9.07705 11 9.08061 11 9.08418C11 9.08774 11 9.0913 11 9.09486C11 9.09841 11 9.10197 11 9.10552C11 9.10907 11 9.11262 11 9.11616C11 9.11971 11 9.12325 11 9.12679C11 9.13032 11 9.13386 11 9.13739C11 9.14092 11 9.14445 11 9.14798C11 9.1515 11 9.15503 11 9.15855C11 9.16207 11 9.16558 11 9.1691C11 9.17261 11 9.17612 11 9.17963C11 9.18314 11 9.18664 11 9.19014C11 9.19364 11 9.19714 11 9.20064C11 9.20413 11 9.20762 11 9.21111C11 9.2146 11 9.21809 11 9.22157C11 9.22505 11 9.22853 11 9.23201C11 9.23549 11 9.23896 11 9.24243C11 9.2459 11 9.24937 11 9.25284C11 9.2563 11 9.25976 11 9.26322C11 9.26668 11 9.27014 11 9.27359C11 9.27705 11 9.2805 11 9.28394C11 9.28739 11 9.29084 11 9.29428C11 9.29772 11 9.30116 11 9.30459C11 9.30803 11 9.31146 11 9.31489C11 9.31832 11 9.32175 11 9.32517C11 9.3286 11 9.33202 11 9.33544C11 9.33886 11 9.34227 11 9.34569C11 9.3491 11 9.35251 11 9.35592C11 9.35932 11 9.36273 11 9.36613C11 9.36953 11 9.37293 11 9.37632C11 9.37972 11 9.38311 11 9.3865C11 9.38989 11 9.39328 11 9.39667C11 9.40005 11 9.40343 11 9.40681C11 9.41019 11 9.41357 11 9.41694C11 9.42031 11 9.42368 11 9.42705C11 9.43042 11 9.43378 11 9.43715C11 9.44051 11 9.44387 11 9.44723C11 9.45058 11 9.45394 11 9.45729C11 9.46064 11 9.46399 11 9.46734C11 9.47068 11 9.47403 11 9.47737C11 9.48071 11 9.48405 11 9.48738C11 9.49072 11 9.49405 11 9.49738C11 9.50071 11 9.50404 11 9.50736C11 9.51069 11 9.51401 11 9.51733C11 9.52065 11 9.52397 11 9.52728C11 9.53059 11 9.53391 11 9.53722C11 9.54052 11 9.54383 11 9.54714C11 9.55044 11 9.55374 11 9.55704C11 9.56034 11 9.56363 11 9.56693C11 9.57022 11 9.57351 11 9.5768C11 9.58009 11 9.58338 11 9.58666C11 9.58994 11 9.59322 11 9.5965C11 9.59978 11 9.60306 11 9.60633C11 9.6096 11 9.61287 11 9.61614C11 9.61941 11 9.62268 11 9.62594C11 9.6292 11 9.63246 11 9.63572C11 9.63898 11 9.64224 11 9.64549C11 9.64874 11 9.65199 11 9.65524C11 9.65849 11 9.66174 11 9.66498C11 9.66822 11 9.67147 11 9.6747C11 9.67794 11 9.68118 11 9.68441C11 9.68765 11 9.69088 11 9.69411C11 9.69734 11 9.70056 11 9.70379C11 9.70701 11 9.71024 11 9.71346C11 9.71667 11 9.71989 11 9.72311C11 9.72632 11 9.72953 11 9.73274C11 9.73595 11 9.73916 11 9.74237C11 9.74557 11 9.74878 11 9.75198C11 9.75518 11 9.75838 11 9.76157C11 9.76477 11 9.76796 11 9.77116C11 9.77435 11 9.77754 11 9.78072C11 9.78391 11 9.7871 11 9.79028C11 9.79346 11 9.79664 11 9.79982C11 9.803 11 9.80617 11 9.80935C11 9.81252 11 9.81569 11 9.81886C11 9.82203 11 9.8252 11 9.82836C11 9.83153 11 9.83469 11 9.83785C11 9.84101 11 9.84417 11 9.84732C11 9.85048 11 9.85363 11 9.85678C11 9.85994 11 9.86309 11 9.86623C11 9.86938 11 9.87252 11 9.87567C11 9.87881 11 9.88195 11 9.88509C11 9.88823 11 9.89137 11 9.8945C11 9.89763 11 9.90077 11 9.9039C11 9.90703 11 9.91015 11 9.91328C11 9.91641 11 9.91953 11 9.92265C11 9.92577 11 9.92889 11 9.93201C11 9.93513 11 9.93824 11 9.94136C11 9.94447 11 9.94758 11 9.95069C11 9.9538 11 9.95691 11 9.96001C11 9.96312 11 9.96622 11 9.96932C11 9.97242 11 9.97552 11 9.97862C11 9.98172 11 9.98481 11 9.98791C11 9.991 11 9.99409 11 9.99718C11 10.0003 11 10.0034 11 10.0064C11 10.0095 11 10.0126 11 10.0157C11 10.0188 11 10.0219 11 10.0249C11 10.028 11 10.0311 11 10.0342C11 10.0372 11 10.0403 11 10.0434C11 10.0464 11 10.0495 11 10.0526C11 10.0556 11 10.0587 11 10.0618C11 10.0648 11 10.0679 11 10.071C11 10.074 11 10.0771 11 10.0801C11 10.0832 11 10.0862 11 10.0893C11 10.0923 11 10.0954 11 10.0984C11 10.1015 11 10.1045 11 10.1076C11 10.1106 11 10.1136 11 10.1167C11 10.1197 11 10.1228 11 10.1258C11 10.1288 11 10.1319 11 10.1349C11 10.1379 11 10.141 11 10.144C11 10.147 11 10.1501 11 10.1531C11 10.1561 11 10.1591 11 10.1622C11 10.1652 11 10.1682 11 10.1712C11 10.1742 11 10.1773 11 10.1803C11 10.1833 11 10.1863 11 10.1893C11 10.1923 11 10.1953 11 10.1983C11 10.2014 11 10.2044 11 10.2074C11 10.2104 11 10.2134 11 10.2164C11 10.2194 11 10.2224 11 10.2254C11 10.2284 11 10.2314 11 10.2344C11 10.2374 11 10.2404 11 10.2433C11 10.2463 11 10.2493 11 10.2523C11 10.2553 11 10.2583 11 10.2613C11 10.2643 11 10.2672 11 10.2702C11 10.2732 11 10.2762 11 10.2792C11 10.2822 11 10.2851 11 10.2881C11 10.2911 11 10.2941 11 10.297C11 10.3 11 10.303 11 10.3059C11 10.3089 11 10.3119 11 10.3148C11 10.3178 11 10.3208 11 10.3237C11 10.3267 11 10.3297 11 10.3326C11 10.3356 11 10.3386 11 10.3415C11 10.3445 11 10.3474 11 10.3504C11 10.3533 11 10.3563 11 10.3592C11 10.3622 11 10.3651 11 10.3681C11 10.371 11 10.374 11 10.3769C11 10.3799 11 10.3828 11 10.3858C11 10.3887 11 10.3917 11 10.3946C11 10.3975 11 10.4005 11 10.4034C11 10.4064 11 10.4093 11 10.4122C11 10.4152 11 10.4181 11 10.421C11 10.424 11 10.4269 11 10.4298C11 10.4327 11 10.4357 11 10.4386C11 10.4415 11 10.4445 11 10.4474C11 10.4503 11 10.4532 11 10.4561C11 10.4591 11 10.462 11 10.4649C11 10.4678 11 10.4707 11 10.4737C11 10.4766 11 10.4795 11 10.4824C11 10.4853 11 10.4882 11 10.4911C11 10.4941 11 10.497 11 10.4999C11 10.5028 11 10.5057 11 10.5086C11 10.5115 11 10.5144 11 10.5173C11 10.5202 11 10.5231 11 10.526C11 10.5289 11 10.5318 11 10.5347C11 10.5376 11 10.5405 11 10.5434C11 10.5463 11 10.5492 11 10.5521C11 10.555 11 10.5579 11 10.5608C11 10.5637 11 10.5666 11 10.5694C11 10.5723 11 10.5752 11 10.5781C11 10.581 11 10.5839 11 10.5868C11 10.5897 11 10.5925 11 10.5954C11 10.5983 11 10.6012 11 10.6041C11 10.607 11 10.6098 11 10.6127C11 10.6156 11 10.6185 11 10.6213C11 10.6242 11 10.6271 11 10.63C11 10.6328 11 10.6357 11 10.6386C11 10.6415 11 10.6443 11 10.6472C11 10.6501 11 10.6529 11 10.6558C11 10.6587 11 10.6615 11 10.6644C11 10.6673 11 10.6701 11 10.673C11 10.6759 11 10.6787 11 10.6816C11 10.6845 11 10.6873 11 10.6902C11 10.693 11 10.6959 11 10.6988C11 10.7016 11 10.7045 11 10.7073C11 10.7102 11 10.713 11 10.7159C11 10.7188 11 10.7216 11 10.7245C11 10.7273 11 10.7302 11 10.733C11 10.7359 11 10.7387 11 10.7416C11 10.7444 11 10.7473 11 10.7501C11 10.753 11 10.7558 11 10.7586C11 10.7615 11 10.7643 11 10.7672C11 10.77 11 10.7729 11 10.7757C11 10.7786 11 10.7814 11 10.7842C11 10.7871 11 10.7899 11 10.7928C11 10.7956 11 10.7984 11 10.8013C11 10.8041 11 10.8069 11 10.8098C11 10.8126 11 10.8155 11 10.8183C11 10.8211 11 10.824 11 10.8268C11 10.8296 11 10.8325 11 10.8353C11 10.8381 11 10.8409 11 10.8438C11 10.8466 11 10.8494 11 10.8523C11 10.8551 11 10.8579 11 10.8608C11 10.8636 11 10.8664 11 10.8692C11 10.8721 11 10.8749 11 10.8777C11 10.8805 11 10.8834 11 10.8862C11 10.889 11 10.8918 11 10.8946C11 10.8975 11 10.9003 11 10.9031C11 10.9059 11 10.9087 11 10.9116C11 10.9144 11 10.9172 11 10.92C11 10.9228 11 10.9257 11 10.9285C11 10.9313 11 10.9341 11 10.9369C11 10.9397 11 10.9426 11 10.9454C11 10.9482 11 10.951 11 10.9538C11 10.9566 11 10.9594 11 10.9622C11 10.9651 11 10.9679 11 10.9707C11 10.9735 11 10.9763 11 10.9791C11 10.9819 11 10.9847 11 10.9875C11 10.9904 11 10.9932 11 10.996C11 10.9988 11 11.0016 11 11.0044C11 11.0072 11 11.01 11 11.0128C11 11.0156 11 11.0184 11 11.0212C11 11.024 11 11.0268 11 11.0296C11 11.0324 11 11.0353 11 11.0381C11 11.0409 11 11.0437 11 11.0465C11 11.0493 11 11.0521 11 11.0549C11 11.0577 11 11.0605 11 11.0633C11 11.0661 11 11.0689 11 11.0717C11 11.0745 11 11.0773 11 11.0801C11 11.0829 11 11.0857 11 11.0885C11 11.0913 11 11.0941 11 11.0969C11 11.0997 11 11.1025 11 11.1053C11 11.1081 11 11.1109 11 11.1137C11 11.1165 11 11.1193 11 11.122C11 11.1248 11 11.1276 11 11.1304C11 11.1332 11 11.136 11 11.1388C11 11.1416 11 11.1444 11 11.1472C11 11.15 11 11.1528 11 11.1556C11 11.1584 11 11.1612 11 11.164C11 11.1668 11 11.1696 11 11.1724C11 11.1751 11 11.1779 11 11.1807C11 11.1835 11 11.1863 11 11.1891C11 11.1919 11 11.1947 11 11.1975C11 11.2003 11 11.2031 11 11.2059C11 11.2087 11 11.2114 11 11.2142C11 11.217 11 11.2198 11 11.2226C11 11.2254 11 11.2282 11 11.231C11 11.2338 11 11.2366 11 11.2394C11 11.2422 11 11.2449 11 11.2477C11 11.2505 11 11.2533 11 11.2561C11 11.2589 11 11.2617 11 11.2645C11 11.2673 11 11.2701 11 11.2728C11 11.2756 11 11.2784 11 11.2812C11 11.284 11 11.2868 11 11.2896C11 11.2924 11 11.2952 11 11.298C11 11.3007 11 11.3035 11 11.3063C11 11.3091 11 11.3119 11 11.3147C11 11.3175 11 11.3203 11 11.3231C11 11.3259 11 11.3286 11 11.3314C11 11.3342 11 11.337 11 11.3398C11 11.3426 11 11.3454 11 11.3482C11 11.351 11 11.3538 11 11.3565C11 11.3593 11 11.3621 11 11.3649C11 11.3677 11 11.3705 11 11.3733C11 11.3761 11 11.3789 11 11.3817C11 11.3844 11 11.3872 11 11.39C11 11.3928 11 11.3956 11 11.3984C11 11.4012 11 11.404 11 11.4068C11 11.4096 11 11.4124 11 11.4151C11 11.4179 11 11.4207 11 11.4235C11 11.4263 11 11.4291 11 11.4319C11 11.4347 11 11.4375 11 11.4403C11 11.4431 11 11.4459 11 11.4487C11 11.4515 11 11.4542 11 11.457C11 11.4598 11 11.4626 11 11.4654C11 11.4682 11 11.471 11 11.4738C11 11.4766 11 11.4794 11 11.4822C11 11.485 11 11.4878 11 11.4906C11 11.4934 11 11.4962 11 11.499C11 11.5018 11 11.5046 11 11.5074C11 11.5102 11 11.513 11 11.5157C11 11.5185 11 11.5213 11 11.5241C11 11.5269 11 11.5297 11 11.5325C11 11.5353 11 11.5381 11 11.5409C11 11.5437 11 11.5465 11 11.5493C11 11.5521 11 11.5549 11 11.5577C11 11.5605 11 11.5633 11 11.5661C11 11.5689 11 11.5717 11 11.5745C11 11.5774 11 11.5802 11 11.583C11 11.5858 11 11.5886 11 11.5914C11 11.5942 11 11.597 11 11.5998C11 11.6026 11 11.6054 11 11.6082C11 11.611 11 11.6138 11 11.6166C11 11.6194 11 11.6222 11 11.625C11 11.6279 11 11.6307 11 11.6335C11 11.6363 11 11.6391 11 11.6419C11 11.6447 11 11.6475 11 11.6503C11 11.6531 11 11.656 11 11.6588C11 11.6616 11 11.6644 11 11.6672C11 11.67 11 11.6728 11 11.6756C11 11.6785 11 11.6813 11 11.6841C11 11.6869 11 11.6897 11 11.6925C11 11.6954 11 11.6982 11 11.701C11 11.7038 11 11.7066 11 11.7094C11 11.7123 11 11.7151 11 11.7179C11 11.7207 11 11.7236 11 11.7264C11 11.7292 11 11.732 11 11.7348C11 11.7377 11 11.7405 11 11.7433C11 11.7461 11 11.749 11 11.7518C11 11.7546 11 11.7574 11 11.7603C11 11.7631 11 11.7659 11 11.7687C11 11.7716 11 11.7744 11 11.7772C11 11.7801 11 11.7829 11 11.7857C11 11.7886 11 11.7914 11 11.7942C11 11.7971 11 11.7999 11 11.8027C11 11.8056 11 11.8084 11 11.8112C11 11.8141 11 11.8169 11 11.8197C11 11.8226 11 11.8254 11 11.8283C11 11.8311 11 11.8339 11 11.8368C11 11.8396 11 11.8425 11 11.8453C11 11.8481 11 11.851 11 11.8538C11 11.8567 11 11.8595 11 11.8624C11 11.8652 11 11.8681 11 11.8709C11 11.8738 11 11.8766 11 11.8795C11 11.8823 11 11.8852 11 11.888C11 11.8909 11 11.8937 11 11.8966C11 11.8994 11 11.9023 11 11.9051C11 11.908 11 11.9108 11 11.9137C11 11.9165 11 11.9194 11 11.9223C11 11.9251 11 11.928 11 11.9308C11 11.9337 11 11.9366 11 11.9394C11 11.9423 11 11.9451 11 11.948C11 11.9509 11 11.9537 11 11.9566C11 11.9595 11 11.9623 11 11.9652C11 11.9681 11 11.9709 11 11.9738C11 11.9767 11 11.9796 11 11.9824C11 11.9853 11 11.9882 11 11.991C11 11.9939 11 11.9968 11 11.9997L13 11.9997Z" fill="#0FD197"/>
<path d="M18.3289 8.80176C18.329 8.24947 17.8814 7.80167 17.3291 7.80155C16.7769 7.80143 16.329 8.24906 16.3289 8.80134L18.3289 8.80176ZM16.3284 15.2004C16.3285 15.7526 16.7763 16.2003 17.3285 16.2002C17.8808 16.2001 18.3285 15.7523 18.3284 15.2L16.3284 15.2004ZM18.3284 15.2C18.3282 13.6005 18.3283 12.8843 18.3284 12.0009L16.3284 12.0008C16.3283 12.8844 16.3282 13.6006 16.3284 15.2004L18.3284 15.2ZM18.3284 12.0009C18.3284 11.1175 18.3285 10.4013 18.3289 8.80176L16.3289 8.80134C16.3285 10.4011 16.3284 11.1173 16.3284 12.0008L18.3284 12.0009Z" fill="#0FD197"/>
<path d="M7.66482 8.80176C7.66496 8.24947 7.21736 7.80167 6.66507 7.80155C6.11279 7.80143 5.66496 8.24906 5.66482 8.80134L7.66482 8.80176ZM5.66436 15.2004C5.66443 15.7526 6.11219 16.2003 6.66448 16.2002C7.21676 16.2001 7.66443 15.7523 7.66436 15.2L5.66436 15.2004ZM7.66436 15.2C7.66418 13.6005 7.66423 12.8843 7.66429 12.0009L5.66429 12.0008C5.66423 12.8844 5.66418 13.6006 5.66436 15.2004L7.66436 15.2ZM7.66429 12.0009C7.66436 11.1175 7.66441 10.4013 7.66482 8.80176L5.66482 8.80134C5.66441 10.4011 5.66436 11.1173 5.66429 12.0008L7.66429 12.0009Z" fill="#0FD197"/>
<rect x="0.5" y="0.5" width="23" height="23" rx="11.5" stroke="#0FD197"/>
</svg>
