<svg width="22" height="23" viewBox="0 0 22 23" fill="none" xmlns="http://www.w3.org/2000/svg">
<path d="M9.38021 10.4668C11.5318 10.4668 13.276 8.72261 13.276 6.571C13.276 4.41939 11.5318 2.67517 9.38021 2.67517C7.2286 2.67517 5.48438 4.41939 5.48438 6.571C5.48438 8.72261 7.2286 10.4668 9.38021 10.4668Z" stroke="white" stroke-width="2" stroke-miterlimit="5"/>
<path d="M10.4081 13.6752H3.87058C3.24313 13.6752 2.73438 14.1839 2.73438 14.8114V15.5085C2.73438 18.4535 6.54528 19.8216 10.0859 19.6128C10.1471 19.6092 10.2082 19.6051 10.2692 19.6005C10.3462 19.5948 10.4229 19.5883 10.4995 19.5811" stroke="white" stroke-width="2" stroke-miterlimit="10" stroke-linecap="round"/>
<path fill-rule="evenodd" clip-rule="evenodd" d="M16.4146 11.5669C16.2755 11.6037 16.2268 11.686 16.131 12.0465C15.9249 12.8222 15.5845 13.2305 14.8977 13.5263C14.5228 13.6877 13.9642 13.7006 13.4627 13.5591C13.2632 13.5029 13.0592 13.4717 13.0095 13.4898C12.8985 13.5302 12.4047 14.3217 12.2836 14.6531L12.1953 14.8949L12.5553 15.2564C13.0113 15.7141 13.189 16.0883 13.1916 16.5962C13.1947 17.2186 12.9565 17.7194 12.4337 18.1897C12.3166 18.295 12.2208 18.4226 12.2208 18.4732C12.2208 18.5818 12.718 19.4964 12.8961 19.7153L13.0198 19.8674L13.4274 19.7544C14.2897 19.5152 15.0623 19.683 15.5869 20.2233C15.8951 20.5408 15.9622 20.6724 16.1317 21.2915L16.2477 21.7153L16.6727 21.7656C16.9064 21.7931 17.2889 21.7931 17.5226 21.7656C17.9365 21.7167 17.9492 21.7094 18.0067 21.4871C18.2468 20.5603 18.539 20.1235 19.1009 19.8513C19.5936 19.6127 20.0234 19.5778 20.6367 19.7267L21.1821 19.8592L21.3025 19.7112C21.478 19.4957 21.9745 18.5808 21.9745 18.4732C21.9745 18.4226 21.8787 18.295 21.7616 18.1897C21.2388 17.7194 21.0006 17.2186 21.0037 16.5962C21.0063 16.0883 21.184 15.7141 21.64 15.2564L22 14.8949L21.9117 14.6531C21.7906 14.3217 21.2968 13.5302 21.1858 13.4898C21.1361 13.4717 20.9321 13.5029 20.7326 13.5591C20.2311 13.7006 19.6725 13.6877 19.2976 13.5263C18.6108 13.2305 18.2704 12.8222 18.0643 12.0465C17.9295 11.5396 17.8978 11.5223 17.0977 11.5223C16.8143 11.5223 16.5069 11.5424 16.4146 11.5669ZM17.7342 15.3961C18.3171 15.6758 18.566 16.0955 18.528 16.7343C18.4959 17.2741 18.2567 17.6455 17.7909 17.879C17.1466 18.202 16.3147 18.0145 15.8977 17.4523C15.6371 17.1011 15.5693 16.4241 15.7591 16.0679C16.1456 15.3427 17.0101 15.0487 17.7342 15.3961Z" fill="white"/>
</svg>
