<svg width="24" height="24" viewBox="0 0 24 24" fill="none" xmlns="http://www.w3.org/2000/svg">
<path d="M16.25 7.75V16.25C16.25 17.6305 15.1305 18.75 13.75 18.75H5.25" stroke="white" stroke-width="2" stroke-miterlimit="10"/>
<path d="M16.25 14.25L21.25 17.25V6.75L16.25 9.75" stroke="white" stroke-width="2" stroke-miterlimit="10" stroke-linecap="round" stroke-linejoin="round"/>
<path d="M21.25 2.75L2.75 21.25" stroke="#FF475D" stroke-width="2" stroke-miterlimit="10" stroke-linecap="round"/>
<path d="M3.719 17.0795C3.5835 16.8315 3.5 16.5515 3.5 16.25V7.75C3.5 6.785 4.285 6 5.25 6H13.75C14.0515 6 14.3315 6.0835 14.5795 6.219L15.667 5.1315C15.129 4.7365 14.467 4.5 13.75 4.5H5.25C3.458 4.5 2 5.958 2 7.75V16.25C2 16.967 2.2365 17.629 2.6315 18.167L3.719 17.0795Z" fill="white"/>
</svg>
