<svg width="48" height="48" viewBox="0 0 48 48" fill="none" xmlns="http://www.w3.org/2000/svg">
<circle cx="24" cy="24" r="24" fill="#2E1E91"/>
<path d="M26.9141 26.4132C26.9141 23.3239 26.9141 16.0684 26.9141 15.5417C26.9141 13.9311 25.608 12.625 23.9974 12.625C22.3868 12.625 21.0807 13.9311 21.0807 15.5417C21.0807 16.6745 21.0807 22.8485 21.0807 26.4132C19.8452 27.3151 19.0391 28.7699 19.0391 30.4167C19.0391 33.1548 21.2592 35.375 23.9974 35.375C26.7356 35.375 28.9557 33.1548 28.9557 30.4167C28.9557 28.7699 28.1496 27.3151 26.9141 26.4132Z" stroke="white" stroke-width="2" stroke-miterlimit="10" stroke-linejoin="round"/>
<path d="M25.9193 30.4167C25.9193 31.4752 25.0612 32.3333 24.0026 32.3333C22.9441 32.3333 22.0859 31.4752 22.0859 30.4167C22.0859 29.3581 22.9441 28.5 24.0026 28.5C25.0612 28.5 25.9193 29.3581 25.9193 30.4167Z" fill="white" stroke="white" stroke-width="2"/>
<path d="M24 29.5416V20.2083" stroke="white" stroke-width="2" stroke-miterlimit="10" stroke-linecap="round"/>
</svg>
