<svg width="48" height="48" viewBox="0 0 48 48" fill="none" xmlns="http://www.w3.org/2000/svg">
<circle cx="24" cy="24.0001" r="24" fill="#0FD197"/>
<path d="M26.918 26.4134C26.918 23.324 26.918 16.0685 26.918 15.5418C26.918 13.9312 25.6119 12.6251 24.0013 12.6251C22.3907 12.6251 21.0846 13.9312 21.0846 15.5418C21.0846 16.6746 21.0846 22.8486 21.0846 26.4134C19.8491 27.3152 19.043 28.77 19.043 30.4168C19.043 33.155 21.2631 35.3751 24.0013 35.3751C26.7395 35.3751 28.9596 33.155 28.9596 30.4168C28.9596 28.77 28.1535 27.3152 26.918 26.4134Z" stroke="white" stroke-width="2" stroke-miterlimit="10" stroke-linejoin="round"/>
<path d="M25.9154 30.4168C25.9154 31.4753 25.0572 32.3335 23.9987 32.3335C22.9402 32.3335 22.082 31.4753 22.082 30.4168C22.082 29.3582 22.9402 28.5001 23.9987 28.5001C25.0572 28.5001 25.9154 29.3582 25.9154 30.4168Z" fill="white" stroke="white" stroke-width="2"/>
<path d="M24 29.5418V20.2085" stroke="white" stroke-width="2" stroke-miterlimit="10" stroke-linecap="round"/>
</svg>
