<svg width="48" height="48" viewBox="0 0 48 48" fill="none" xmlns="http://www.w3.org/2000/svg">
<circle cx="24" cy="24" r="24" fill="#0FD197"/>
<path d="M26.918 26.4132C26.918 23.3239 26.918 16.0684 26.918 15.5417C26.918 13.9311 25.6119 12.625 24.0013 12.625C22.3907 12.625 21.0846 13.9311 21.0846 15.5417C21.0846 16.6745 21.0846 22.8485 21.0846 26.4132C19.8491 27.3151 19.043 28.7699 19.043 30.4167C19.043 33.1548 21.2631 35.375 24.0013 35.375C26.7395 35.375 28.9596 33.1548 28.9596 30.4167C28.9596 28.7699 28.1535 27.3151 26.918 26.4132Z" stroke="white" stroke-width="2" stroke-miterlimit="10" stroke-linejoin="round"/>
<path d="M25.9154 30.4167C25.9154 31.4752 25.0572 32.3333 23.9987 32.3333C22.9402 32.3333 22.082 31.4752 22.082 30.4167C22.082 29.3581 22.9402 28.5 23.9987 28.5C25.0572 28.5 25.9154 29.3581 25.9154 30.4167Z" fill="white" stroke="white" stroke-width="2"/>
<path d="M24 29.5417V20.2084" stroke="white" stroke-width="2" stroke-miterlimit="10" stroke-linecap="round"/>
</svg>
