<svg width="81" height="80" viewBox="0 0 81 80" fill="none" xmlns="http://www.w3.org/2000/svg">
<circle cx="40.5" cy="40" r="40" fill="#FFE8E8"/>
<path d="M38.15 26.4332L24.0333 49.9999C23.7423 50.5039 23.5883 51.0754 23.5866 51.6574C23.585 52.2394 23.7358 52.8117 24.024 53.3174C24.3122 53.8231 24.7278 54.2444 25.2295 54.5396C25.7311 54.8348 26.3013 54.9935 26.8833 54.9999H55.1166C55.6986 54.9935 56.2688 54.8348 56.7705 54.5396C57.2721 54.2444 57.6877 53.8231 57.9759 53.3174C58.2642 52.8117 58.415 52.2394 58.4133 51.6574C58.4117 51.0754 58.2577 50.5039 57.9666 49.9999L43.85 26.4332C43.5529 25.9434 43.1345 25.5384 42.6353 25.2573C42.1361 24.9763 41.5729 24.8286 41 24.8286C40.4271 24.8286 39.8639 24.9763 39.3646 25.2573C38.8654 25.5384 38.4471 25.9434 38.15 26.4332V26.4332Z" stroke="#FF475D" stroke-width="3" stroke-linecap="round" stroke-linejoin="round"/>
<path d="M41 35V41.6667" stroke="#FF475D" stroke-width="3" stroke-linecap="round" stroke-linejoin="round"/>
<path d="M41 48.3335H41.0167" stroke="#FF475D" stroke-width="3" stroke-linecap="round" stroke-linejoin="round"/>
</svg>
