<svg width="33" height="32" viewBox="0 0 33 32" fill="none" xmlns="http://www.w3.org/2000/svg">
<rect x="0.832031" width="32" height="32" rx="16" fill="#E6FFF3"/>
<path d="M16.8333 8.29126C12.5763 8.29126 9.125 11.7425 9.125 15.9996C9.125 17.3604 9.48083 18.6371 10.1 19.7471L9.14125 23.1796C9.05375 23.4921 9.34167 23.7804 9.65458 23.6929L13.0887 22.7346C14.1979 23.3525 15.4738 23.7079 16.8333 23.7079C21.0904 23.7079 24.5417 20.2567 24.5417 15.9996C24.5417 11.7425 21.0904 8.29126 16.8333 8.29126Z" stroke="#0FD197" stroke-width="1.5" stroke-miterlimit="10" stroke-linejoin="round"/>
<path d="M20.732 18.7712C20.5661 19.2362 19.7536 19.6842 19.3886 19.7167C19.0236 19.75 18.6816 19.8817 17.0007 19.2192C14.9778 18.4217 13.7007 16.3479 13.6016 16.2158C13.502 16.0825 12.7891 15.1371 12.7891 14.1579C12.7891 13.1788 13.3032 12.6971 13.4857 12.4988C13.6686 12.2996 13.8841 12.25 14.017 12.25C14.1495 12.25 14.2824 12.25 14.3982 12.2546C14.5403 12.26 14.6974 12.2675 14.8461 12.5983C15.0232 12.9921 15.4099 13.9763 15.4595 14.0758C15.5091 14.1754 15.5424 14.2921 15.4761 14.4242C15.4099 14.5567 15.3766 14.6396 15.2778 14.7558C15.1782 14.8721 15.0691 15.015 14.9795 15.1042C14.8799 15.2029 14.7761 15.3117 14.892 15.51C15.0082 15.7092 15.407 16.3608 15.9986 16.8879C16.7595 17.5658 17.3995 17.7754 17.5991 17.8758C17.7982 17.9754 17.9141 17.9588 18.0303 17.8254C18.1466 17.6929 18.5278 17.245 18.6603 17.0458C18.7928 16.8467 18.9257 16.88 19.1082 16.9463C19.2907 17.0125 20.2691 17.4942 20.4678 17.5938C20.667 17.6933 20.7995 17.7429 20.8491 17.8258C20.8978 17.9079 20.8978 18.3062 20.732 18.7712Z" fill="#0FD197"/>
</svg>
