<svg width="25" height="25" viewBox="0 0 25 25" fill="none" xmlns="http://www.w3.org/2000/svg">
<path fill-rule="evenodd" clip-rule="evenodd" d="M16.6892 14.3858C16.4521 14.2678 15.2899 13.6994 15.0735 13.6202C14.8572 13.5418 14.6997 13.5031 14.5414 13.739C14.3839 13.9733 13.9312 14.5037 13.7936 14.6605C13.6552 14.818 13.5176 14.837 13.2813 14.7198C13.0451 14.6011 12.283 14.3533 11.3801 13.5521C10.6777 12.9283 10.2028 12.158 10.0652 11.9221C9.92761 11.687 10.0501 11.5595 10.1686 11.4424C10.2752 11.3371 10.4049 11.1676 10.5234 11.0307C10.6419 10.8929 10.6809 10.7948 10.7597 10.6372C10.8392 10.4805 10.7995 10.3435 10.7398 10.2256C10.6809 10.1076 10.2084 8.9494 10.0111 8.47836C9.81943 8.01998 9.62453 8.08252 9.47976 8.07461C9.34134 8.06827 9.18384 8.06669 9.02634 8.06669C8.86883 8.06669 8.61269 8.12527 8.39632 8.36119C8.17915 8.59631 7.56902 9.16552 7.56902 10.3237C7.56902 11.4811 8.41541 12.5998 8.53394 12.7573C8.65246 12.9141 10.2005 15.2906 12.5718 16.3095C13.1366 16.5518 13.5765 16.6966 13.9193 16.8043C14.4857 16.984 15.0012 16.9587 15.4084 16.8977C15.8619 16.8304 16.8069 16.3285 17.0042 15.7791C17.2007 15.2297 17.2007 14.7586 17.1418 14.6605C17.0829 14.5623 16.9254 14.5037 16.6884 14.3858H16.6892ZM12.3761 20.2465H12.3729C10.9645 20.2467 9.58187 19.8699 8.37007 19.1555L8.0837 18.9861L5.10702 19.7635L5.9017 16.8756L5.71477 16.5795C4.92735 15.3321 4.51065 13.8884 4.5128 12.4153C4.51439 8.10073 8.04153 4.59049 12.3793 4.59049C14.4793 4.59049 16.4537 5.4059 17.9381 6.88473C18.6702 7.61036 19.2505 8.47326 19.6454 9.42352C20.0402 10.3738 20.2419 11.3925 20.2386 12.4208C20.237 16.7354 16.7098 20.2465 12.3761 20.2465ZM19.0676 5.76136C18.1912 4.88334 17.1483 4.18716 15.9996 3.71316C14.8508 3.23917 13.6189 2.99677 12.3753 3.00003C7.16174 3.00003 2.91708 7.22357 2.91549 12.4145C2.91307 14.0665 3.34852 15.6899 4.17791 17.121L2.83594 22L7.85062 20.6906C9.23783 21.4428 10.7924 21.8369 12.3721 21.8369H12.3761C17.5896 21.8369 21.8343 17.6134 21.8359 12.4216C21.8397 11.1845 21.5971 9.95885 21.1219 8.81563C20.6467 7.67241 19.9485 6.63431 19.0676 5.76136Z" fill="#1B163A"/>
</svg>
