<svg width="24" height="24" viewBox="0 0 24 24" fill="none" xmlns="http://www.w3.org/2000/svg">
<path d="M12 2.74951C6.8915 2.74951 2.75 6.89101 2.75 11.9995C2.75 13.6325 3.177 15.1645 3.92 16.4965L2.7695 20.6155C2.6645 20.9905 3.01 21.3365 3.3855 21.2315L7.5065 20.0815C8.8375 20.823 10.3685 21.2495 12 21.2495C17.1085 21.2495 21.25 17.108 21.25 11.9995C21.25 6.89101 17.1085 2.74951 12 2.74951Z" stroke="white" stroke-width="2" stroke-miterlimit="10" stroke-linejoin="round"/>
<path d="M16.678 15.3255C16.479 15.8835 15.504 16.421 15.066 16.46C14.628 16.5 14.2175 16.658 12.2005 15.863C9.77298 14.906 8.24048 12.4175 8.12148 12.259C8.00198 12.099 7.14648 10.9645 7.14648 9.7895C7.14648 8.6145 7.76348 8.0365 7.98248 7.7985C8.20198 7.5595 8.46048 7.5 8.61998 7.5C8.77898 7.5 8.93848 7.5 9.07748 7.5055C9.24798 7.512 9.43649 7.521 9.61499 7.918C9.82749 8.3905 10.2915 9.5715 10.351 9.691C10.4105 9.8105 10.4505 9.9505 10.371 10.109C10.2915 10.268 10.2515 10.3675 10.133 10.507C10.0135 10.6465 9.88249 10.818 9.77499 10.925C9.65549 11.0435 9.53098 11.174 9.66998 11.412C9.80948 11.651 10.288 12.433 10.998 13.0655C11.911 13.879 12.679 14.1305 12.9185 14.251C13.1575 14.3705 13.2965 14.3505 13.436 14.1905C13.5755 14.0315 14.033 13.494 14.192 13.255C14.351 13.016 14.5105 13.056 14.7295 13.1355C14.9485 13.215 16.1225 13.793 16.361 13.9125C16.6 14.032 16.759 14.0915 16.8185 14.191C16.877 14.2895 16.877 14.7675 16.678 15.3255Z" fill="white"/>
</svg>
