<?xml version="1.0" encoding="UTF-8" standalone="no"?><!DOCTYPE svg PUBLIC "-//W3C//DTD SVG 1.1//EN" "http://www.w3.org/Graphics/SVG/1.1/DTD/svg11.dtd"><svg width="100%" height="100%" viewBox="0 0 19292 4775" version="1.1" xmlns="http://www.w3.org/2000/svg" xmlns:xlink="http://www.w3.org/1999/xlink" xml:space="preserve" xmlns:serif="http://www.serif.com/" style="fill-rule:evenodd;clip-rule:evenodd;stroke-linejoin:round;stroke-miterlimit:2;"><g id="Artboard1"><g><rect x="0" y="0" width="19285.708" height="4760.792" style="fill:none;"/><g id="Layer-1" serif:id="Layer 1"><g><path d="M3777.7,3132.896c-115.717,-72.671 -151.137,-225.5 -78.621,-341.658c72.925,-115.987 225.537,-151.2 341.525,-78.958c116.25,72.917 151.404,225.492 79.171,341.742c-72.75,115.842 -226.054,151.479 -342.075,78.875" style="fill:#54b947;"/></g><g><path d="M4004.833,1304.179c0,0 -99.971,1796.808 -1809.533,2992.846c87.021,-71.762 1237.483,-1272.646 1020.4,-1480.183c-137.658,-178.458 -586.083,-432.8 -992.55,-559.75c0,0 692.275,-58.812 1185.692,143.083c79.425,-75.304 493.925,-646.846 595.992,-1095.996" style="fill:#54b947;"/></g><g><path d="M668.638,3249.292c118.25,-69.196 270.004,-29.025 339.054,88.979c68.971,118.296 29,270.104 -88.987,338.892c-118.313,69.233 -269.983,29.35 -339.046,-88.813c-69.246,-118.054 -28.987,-269.946 88.979,-339.058" style="fill:#71cbd2;"/></g><g><path d="M2195.321,4297.042c0,0 -1689.017,-896.992 -1725.475,-3052.088c23.075,110.171 455.15,1749.567 739.942,1653.429c222.367,-38.917 655.454,-317.779 957.104,-618.633c0,0 -269.963,640.192 -677.95,983.363c29.729,105.325 355.542,734.808 706.379,1033.929" style="fill:#71cbd2;"/></g><g><path d="M2240.196,523.054c-11.471,136.458 -131.662,237.596 -268.079,225.692c-136.042,-11.217 -237.396,-131.429 -225.65,-267.712c11.488,-136.671 131.354,-237.404 267.725,-225.796c136.325,11.313 237.537,131.442 226.004,267.817" style="fill:#0055a5;"/></g><g><path d="M469.846,1244.913c0,0 1690.321,-916.521 3535.008,59.246c-103.804,-45.067 -1703.775,-494.504 -1789.496,-206.162c-95.846,203.921 -117.767,719.042 -45.213,1138.383c0,0 -367.983,-588.975 -413.483,-1120.371c-103.154,-36.242 -840.567,14.758 -1286.817,128.904" style="fill:#0055a5;"/></g><g><path d="M5282.083,2390.908c-30.092,138.454 33.783,254.558 202.475,254.558c74.867,0 213.396,-29.875 314.45,-179.688c82.396,-119.721 115.958,-273.221 127.246,-351.854c-299.479,3.617 -587.963,7.233 -644.171,276.983m479.6,610.246c0,-66.842 11.142,-149.454 33.492,-269.463c-112.267,127.533 -295.717,307.004 -681.638,307.004c-460.504,0 -610.171,-250.796 -539.062,-584.275c108.579,-513.021 625.433,-700.087 1426.792,-666.45c44.921,-202.113 60.113,-389.396 -153.5,-389.396c-131.296,0 -269.75,71.396 -310.983,284.796l-673.825,0c22.208,-86.229 56.062,-247.325 228.371,-393.229c179.904,-149.812 490.521,-235.967 831.233,-235.967c168.475,0 520.617,22.567 677.954,217.375c97.221,115.667 104.671,291.954 59.675,494.067l-187.062,876.233c-26.188,134.908 -29.95,172.454 -37.4,359.304l-674.046,0Z" style="fill:#0055a5;"/></g><g><path d="M7012.667,1548.213c11.288,-44.704 67.275,-370.517 78.85,-426.65l696.325,0l-60.042,310.767c187.213,-243.492 427.229,-355.617 711.446,-355.617c108.867,0 464.554,18.521 517,348.163c239.725,-292.246 542.967,-352.142 737.629,-352.142c352.067,0 483.146,183.525 531.9,292.321c67.421,160.95 18.592,389.25 -29.946,606.483l-217.304,1029.587l-704.067,0l224.754,-1063.154c41.45,-191.117 89.846,-415.946 -191.333,-415.946c-93.317,0 -205.512,33.929 -295.354,157.554c-33.783,44.85 -59.896,104.963 -93.462,265.842l-225.042,1055.704l-703.779,0l228.3,-1070.75c33.492,-168.763 86.154,-408.35 -194.733,-408.35c-239.583,0 -340.712,198.571 -385.708,408.35l-228.442,1070.75l-704.067,0l307.075,-1452.912Z" style="fill:#0055a5;"/></g><g><path d="M11367.542,2619.229c295.862,0 422.958,-322.05 483,-602.65c37.4,-179.542 78.558,-539.133 -221.067,-539.133c-359.733,0 -460.358,467.954 -483.071,576.246c-33.638,150.246 -101.058,565.538 221.137,565.538m-37.546,-1497.688l-48.825,265.696c86.371,-93.242 288.554,-314.525 681.567,-314.525c314.817,0 771.558,179.617 606.842,951.463c-153.788,730.108 -625.288,1014.542 -1052.442,1014.542c-332.829,0 -449.438,-168.183 -509.046,-261.933l-283.633,1529.658l-619.071,0l483.217,-2877.896c37.254,-205.875 37.254,-228.446 52.375,-307.004l689.017,0Z" style="fill:#0055a5;"/></g><g><path d="M13334.417,2390.908c-29.946,138.454 33.638,254.558 201.971,254.558c75.083,0 213.325,-29.875 314.812,-179.688c82.321,-119.721 116.104,-273.221 127.387,-351.854c-299.55,3.617 -588.033,7.233 -644.171,276.983m479.242,610.246c0,-66.842 11.429,-149.454 33.638,-269.463c-112.196,127.533 -296.008,307.004 -681.425,307.004c-460.504,0 -610.604,-250.796 -538.917,-584.275c108.146,-513.021 625.142,-700.087 1426.358,-666.45c45.137,-202.113 59.825,-389.396 -153.575,-389.396c-131.292,0 -269.458,71.396 -310.617,284.796l-674.408,0c22.858,-86.229 56.354,-247.325 228.662,-393.229c179.688,-149.812 490.596,-235.967 831.308,-235.967c168.617,0 520.758,22.567 677.95,217.375c97.004,115.667 104.746,291.954 59.533,494.067l-186.992,876.233c-25.9,134.908 -29.733,172.454 -37.254,359.304l-674.263,0Z" style="fill:#0055a5;"/></g><g><path d="M16508.333,1128.95l-93.75,449.292l-452.833,0l-138.746,651.837c-45.208,231.988 -67.346,337.025 202.188,337.025c56.133,0 89.988,0 175.779,-11.504l-93.533,441.842c-97.438,15.338 -224.608,33.708 -464.192,33.708c-561.775,0 -632.958,-187.354 -554.108,-550.492l190.971,-902.417l-356.121,0l93.971,-449.292l366.75,0l63.95,-291.958l733.867,-269.675l-119.646,561.633l445.454,0Z" style="fill:#0055a5;"/></g><g><path d="M16976.292,297.558l711.513,0l-217.229,1029.663c90.133,-74.871 299.767,-246.746 640.408,-246.746c183.592,0 359.375,48.467 483.146,191.046c153.429,168.329 108.579,374.421 52.446,636.142l-231.992,1093.533l-700.083,0l213.179,-1010.925c33.346,-157.262 100.912,-464.267 -191.408,-464.267c-224.392,0 -317.925,187.429 -351.417,262.008c-38.05,86.083 -64.021,206.167 -97.221,363.212l-180.412,849.971l-703.704,0l572.775,-2703.638Z" style="fill:#0055a5;"/></g><g><g><g><g><path d="M11511.63,3987.917l129.775,-672.386l82.755,0l-114.729,595.273l337.604,0l-15.046,77.113l-420.359,0Z"/></g><g><g><g><path d="M12436.046,3763.161l-362.054,0c-0.627,6.269 -0.94,15.36 -0.94,27.272c0,44.512 11.598,80.247 34.795,107.206c23.197,26.958 56.424,40.437 99.682,40.437c31.974,0 60.186,-8.777 84.636,-26.331c24.45,-17.554 42.005,-42.318 52.662,-74.292l73.351,0c-18.808,53.916 -47.02,94.667 -84.636,122.252c-37.616,27.585 -82.128,41.378 -133.537,41.378c-58.305,0 -106.735,-19.121 -145.292,-57.364c-38.556,-38.243 -57.835,-89.651 -57.835,-154.226c0,-82.755 24.45,-153.442 73.351,-212.06c48.901,-58.618 108.773,-87.927 179.616,-87.927c49.528,0 90.278,11.912 122.252,35.735c60.186,45.139 81.501,124.446 63.947,237.921Zm-189.02,-214.411c-41.378,0 -76.486,14.263 -105.325,42.788c-28.839,28.525 -48.901,66.612 -60.186,114.259l283.06,0c5.015,-47.02 -2.508,-84.949 -22.57,-113.788c-20.062,-28.839 -51.722,-43.258 -94.98,-43.258Z"/><path d="M12836.656,3992.619c-43.885,0 -66.455,-22.256 -67.709,-66.768l-0.94,0c-36.989,47.647 -88.084,71.47 -153.285,71.47c-46.393,0 -83.225,-13.322 -110.497,-39.967c-27.272,-26.645 -40.907,-59.088 -40.907,-97.331c0,-29.466 5.172,-54.543 15.517,-75.232c10.344,-20.689 25.234,-36.362 44.669,-47.02c19.435,-10.658 39.34,-18.338 59.715,-23.04c20.375,-4.702 44.356,-7.993 71.941,-9.874c68.963,-3.762 113.788,-10.188 134.477,-19.278c20.689,-9.091 31.033,-28.996 31.033,-59.715c0,-48.901 -33.227,-73.978 -99.682,-75.232c-79.621,-1.254 -125.387,31.347 -137.298,97.802l-76.172,0c8.777,-49.528 31.974,-88.084 69.59,-115.669c37.616,-27.585 87.457,-41.378 149.524,-41.378c53.289,0 95.764,13.479 127.424,40.437c31.66,26.958 42.161,68.649 31.503,125.073l-44.199,224.756c-3.762,20.062 -2.821,34.325 2.821,42.788c5.642,8.464 18.808,10.815 39.497,7.053l2.821,0l-11.285,54.543c-14.419,4.389 -27.272,6.583 -38.556,6.583Zm-297.166,-138.239c0,25.704 7.993,46.236 23.98,61.596c15.987,15.36 38.4,23.04 67.239,23.04c43.885,0 79.307,-13.009 106.265,-39.027c26.958,-26.018 44.199,-58.462 51.722,-97.331l13.166,-66.768c-9.404,5.642 -21.629,10.031 -36.676,13.166c-15.046,3.135 -29.152,5.486 -42.318,7.053c-13.166,1.567 -36.676,3.605 -70.53,6.113c-11.285,0.627 -20.219,1.411 -26.801,2.351c-6.583,0.94 -15.987,3.291 -28.212,7.053c-12.225,3.762 -21.943,8.62 -29.152,14.576c-7.21,5.956 -13.793,14.89 -19.748,26.801c-5.956,11.912 -8.934,25.704 -8.934,41.378Z"/></g><g><path d="M13271.097,3935.254c-39.497,44.512 -87.144,66.768 -142.941,66.768c-55.797,0 -100.623,-17.868 -134.477,-53.603c-33.854,-35.735 -50.468,-85.576 -49.841,-149.524c0.627,-49.528 10.188,-97.175 28.682,-142.941c18.495,-45.766 47.804,-84.793 87.927,-117.08c40.124,-32.287 86.517,-48.431 139.179,-48.431c63.32,0 110.34,28.525 141.06,85.576l1.881,0l49.841,-260.491l75.232,0l-129.775,672.386l-75.232,0l10.344,-52.662l-1.881,0Zm-251.087,-140.12c0,42.005 9.561,76.486 28.682,103.444c19.121,26.958 49.058,40.437 89.808,40.437c57.678,0 102.033,-25.077 133.067,-75.232c31.033,-50.155 46.55,-108.773 46.55,-175.855c0,-38.87 -10.658,-70.843 -31.974,-95.921c-21.316,-25.077 -51.095,-37.616 -89.338,-37.616c-37.616,0 -70.373,13.166 -98.272,39.497c-27.899,26.331 -47.96,57.364 -60.186,93.1c-12.225,35.735 -18.338,71.784 -18.338,108.146Z"/><path d="M13439.428,3987.917l94.04,-486.187l75.232,0l-94.04,486.187l-75.232,0Zm111.908,-578.346l17.868,-94.04l75.232,0l-17.868,94.04l-75.232,0Z"/><path d="M13785.496,3501.73l-14.106,75.232l1.881,0c20.689,-26.958 46.707,-48.117 78.053,-63.477c31.347,-15.36 64.888,-23.04 100.623,-23.04c47.647,0 81.501,13.636 101.563,40.907c20.062,27.272 25.704,65.044 16.927,113.318l-66.768,343.246l-74.292,0l66.768,-343.246c5.642,-30.72 3.605,-53.603 -6.113,-68.649c-9.717,-15.046 -28.996,-22.57 -57.835,-22.57c-43.885,0 -84.009,15.987 -120.371,47.96c-36.362,31.974 -58.932,69.903 -67.709,113.788l-52.662,272.716l-75.232,0l94.04,-486.187l75.232,0Z"/><path d="M14287.669,4149.665c-52.035,0 -95.451,-10.815 -130.245,-32.444c-34.795,-21.629 -52.819,-55.64 -54.073,-102.033l74.292,0c3.762,50.155 40.124,75.232 109.086,75.232c78.367,0 124.76,-36.362 139.179,-109.086l15.046,-76.172l-0.94,0c-39.497,43.885 -86.203,65.828 -140.12,65.828c-53.289,0 -96.548,-17.554 -129.775,-52.662c-33.227,-35.108 -49.841,-82.128 -49.841,-141.06c0,-77.74 21.943,-144.978 65.828,-201.716c43.885,-56.737 103.444,-85.106 178.676,-85.106c63.32,0 109.713,27.272 139.179,81.815l0.94,0l14.106,-70.53l74.292,0l-94.04,486.187c-9.404,49.528 -32.914,88.868 -70.53,118.02c-37.616,29.152 -84.636,43.729 -141.06,43.729Zm-92.159,-377.1c0,41.378 9.717,74.292 29.152,98.742c19.435,24.45 49.214,36.676 89.338,36.676c54.543,0.627 96.704,-21.472 126.484,-66.298c29.779,-44.826 44.669,-96.391 44.669,-154.696c0,-42.005 -10.344,-74.605 -31.033,-97.802c-20.689,-23.197 -51.722,-34.795 -93.1,-34.795c-53.289,0 -94.197,21.629 -122.722,64.888c-28.525,43.258 -42.788,94.353 -42.788,153.285Z"/><path d="M14888.585,3987.917l-53.603,-672.386l84.636,0l27.272,437.286l5.642,113.788l1.881,0c18.808,-47.647 34.795,-86.203 47.96,-115.669l192.782,-435.405l90.278,0l41.378,435.405l6.583,115.669l1.881,0c18.808,-48.274 33.854,-86.203 45.139,-113.788l185.259,-437.286l84.636,0l-297.166,672.386l-79.934,0l-41.378,-473.962l-5.642,-104.384l-1.881,0c-15.673,40.751 -29.779,75.545 -42.318,104.384l-210.65,473.962l-82.755,0Z"/><path d="M15583.54,3987.917l94.04,-486.187l75.232,0l-94.04,486.187l-75.232,0Zm111.908,-578.346l17.868,-94.04l75.232,0l-17.868,94.04l-75.232,0Z"/><path d="M15812.058,3562.856l12.225,-61.126l68.649,0l30.093,-153.285l75.232,0l-30.093,153.285l93.1,0l-12.225,61.126l-93.1,0l-59.245,308.451c-7.523,36.362 6.583,54.543 42.318,54.543c16.3,0 30.72,-2.821 43.258,-8.464l2.821,0l-13.166,65.828c-13.793,5.015 -31.347,7.523 -52.662,7.523c-38.243,0 -66.141,-10.501 -83.696,-31.503c-17.554,-21.002 -22.256,-51.252 -14.106,-90.749l59.245,-305.63l-68.649,0Z"/><path d="M16244.642,3315.531l-50.782,262.372l1.881,0c20.689,-26.958 46.863,-48.274 78.523,-63.947c31.66,-15.673 65.358,-23.51 101.093,-23.51c47.647,0 81.501,13.636 101.563,40.907c20.062,27.272 25.704,65.044 16.927,113.318l-66.768,343.246l-74.292,0l66.768,-343.246c5.642,-30.72 3.605,-53.603 -6.113,-68.649c-9.717,-15.046 -28.996,-22.57 -57.835,-22.57c-43.885,0 -84.009,15.987 -120.371,47.96c-36.362,31.974 -58.932,69.903 -67.709,113.788l-52.662,272.716l-75.232,0l129.775,-672.386l75.232,0Z"/><path d="M16997.902,4001.082c-89.651,0 -158.771,-26.958 -207.358,-80.874c-48.587,-53.916 -72.881,-125.7 -72.881,-215.352c0,-68.336 13.636,-132.91 40.907,-193.722c27.272,-60.813 68.492,-111.124 123.663,-150.934c55.17,-39.81 118.49,-59.715 189.961,-59.715c70.217,0 126.641,18.808 169.272,56.424c42.631,37.616 66.768,90.278 72.411,157.987l-83.696,0c-6.269,-45.766 -23.51,-80.874 -51.722,-105.325c-28.212,-24.45 -66.455,-36.676 -114.729,-36.676c-53.916,0 -100.936,15.83 -141.06,47.49c-40.124,31.66 -69.903,72.097 -89.338,121.312c-19.435,49.214 -29.152,102.66 -29.152,160.338c0,66.455 16.3,120.685 48.901,162.689c32.601,42.005 81.815,63.007 147.643,63.007c56.424,0 102.347,-17.711 137.769,-53.133c35.422,-35.422 59.088,-79.777 71,-133.067l82.755,0c-12.539,67.709 -42.005,126.641 -88.398,176.795c-51.409,55.17 -120.058,82.755 -205.948,82.755Z"/></g></g></g><g><g><g><path d="M17695.725,3992.619c-43.885,0 -66.455,-22.256 -67.709,-66.768l-0.94,0c-36.989,47.647 -88.084,71.47 -153.285,71.47c-46.393,0 -83.225,-13.322 -110.497,-39.967c-27.272,-26.645 -40.907,-59.088 -40.907,-97.331c0,-29.466 5.172,-54.543 15.517,-75.232c10.344,-20.689 25.234,-36.362 44.669,-47.02c19.435,-10.658 39.34,-18.338 59.715,-23.04c20.375,-4.702 44.356,-7.993 71.941,-9.874c68.963,-3.762 113.788,-10.188 134.477,-19.278c20.689,-9.091 31.033,-28.996 31.033,-59.715c0,-48.901 -33.227,-73.978 -99.682,-75.232c-79.621,-1.254 -125.387,31.347 -137.298,97.802l-76.172,0c8.777,-49.528 31.974,-88.084 69.59,-115.669c37.616,-27.585 87.457,-41.378 149.524,-41.378c53.289,0 95.764,13.479 127.424,40.437c31.66,26.958 42.161,68.649 31.503,125.073l-44.199,224.756c-3.762,20.062 -2.821,34.325 2.821,42.788c5.642,8.464 18.808,10.815 39.497,7.053l2.821,0l-11.285,54.543c-14.419,4.389 -27.272,6.583 -38.556,6.583Zm-297.166,-138.239c0,25.704 7.993,46.236 23.98,61.596c15.987,15.36 38.4,23.04 67.239,23.04c43.885,0 79.307,-13.009 106.265,-39.027c26.958,-26.018 44.199,-58.462 51.722,-97.331l13.166,-66.768c-9.404,5.642 -21.629,10.031 -36.676,13.166c-15.046,3.135 -29.152,5.486 -42.318,7.053c-13.166,1.567 -36.676,3.605 -70.53,6.113c-11.285,0.627 -20.219,1.411 -26.801,2.351c-6.583,0.94 -15.987,3.291 -28.212,7.053c-12.225,3.762 -21.943,8.62 -29.152,14.576c-7.21,5.956 -13.793,14.89 -19.748,26.801c-5.956,11.912 -8.934,25.704 -8.934,41.378Z"/><path d="M17959.037,3501.73l-15.046,77.113l1.881,0c40.124,-55.17 86.517,-82.755 139.179,-82.755c17.554,0 30.72,1.881 39.497,5.642l-14.106,72.411l-2.821,0c-8.777,-3.135 -20.375,-4.702 -34.795,-4.702c-37.616,0 -71.157,14.419 -100.623,43.258c-29.466,28.839 -48.901,68.336 -58.305,118.49l-48.901,256.729l-75.232,0l94.04,-486.187l75.232,0Z"/></g><path d="M18545.838,3763.161l-362.054,0c-0.627,6.269 -0.94,15.36 -0.94,27.272c0,44.512 11.598,80.247 34.795,107.206c23.197,26.958 56.424,40.437 99.682,40.437c31.974,0 60.186,-8.777 84.636,-26.331c24.45,-17.554 42.005,-42.318 52.662,-74.292l73.351,0c-18.808,53.916 -47.02,94.667 -84.636,122.252c-37.616,27.585 -82.128,41.378 -133.537,41.378c-58.305,0 -106.735,-19.121 -145.292,-57.364c-38.556,-38.243 -57.835,-89.651 -57.835,-154.226c0,-82.755 24.45,-153.442 73.351,-212.06c48.901,-58.618 108.773,-87.927 179.616,-87.927c49.528,0 90.278,11.912 122.252,35.735c60.186,45.139 81.501,124.446 63.947,237.921Zm-189.02,-214.411c-41.378,0 -76.486,14.263 -105.325,42.788c-28.839,28.525 -48.901,66.612 -60.186,114.259l283.06,0c5.015,-47.02 -2.508,-84.949 -22.57,-113.788c-20.062,-28.839 -51.722,-43.258 -94.98,-43.258Z"/></g></g></g></g></g></g></g></g></svg>