<?xml version="1.0" encoding="UTF-8" standalone="no"?><!DOCTYPE svg PUBLIC "-//W3C//DTD SVG 1.1//EN" "http://www.w3.org/Graphics/SVG/1.1/DTD/svg11.dtd"><svg width="100%" height="100%" viewBox="0 0 4630 1146" version="1.1" xmlns="http://www.w3.org/2000/svg" xmlns:xlink="http://www.w3.org/1999/xlink" xml:space="preserve" xmlns:serif="http://www.serif.com/" style="fill-rule:evenodd;clip-rule:evenodd;stroke-linejoin:round;stroke-miterlimit:2;"><g id="Artboard1"><rect x="0" y="0" width="4628.57" height="1142.59" style="fill:none;"/><g id="Layer-1" serif:id="Layer 1"><g><path d="M906.648,751.895c-27.772,-17.441 -36.273,-54.12 -18.869,-81.998c17.502,-27.837 54.129,-36.288 81.966,-18.95c27.9,17.5 36.337,54.118 19.001,82.018c-17.46,27.802 -54.253,36.355 -82.098,18.93" style="fill:#54b947;fill-rule:nonzero;"/></g><g><path d="M961.16,313.003c0,0 -23.993,431.234 -434.288,718.283c20.885,-17.223 296.996,-305.435 244.896,-355.244c-33.038,-42.83 -140.66,-103.872 -238.212,-134.34c0,0 166.146,-14.115 284.566,34.34c19.062,-18.073 118.542,-155.243 143.038,-263.039" style="fill:#54b947;fill-rule:nonzero;"/></g><g><path d="M160.473,779.83c28.38,-16.607 64.801,-6.966 81.373,21.355c16.553,28.391 6.96,64.825 -21.357,81.334c-28.395,16.616 -64.796,7.044 -81.371,-21.315c-16.619,-28.333 -6.957,-64.787 21.355,-81.374" style="fill:#71cbd2;fill-rule:nonzero;"/></g><g><path d="M526.877,1031.29c0,0 -405.364,-215.278 -414.114,-732.501c5.538,26.441 109.236,419.896 177.586,396.823c53.368,-9.34 157.309,-76.267 229.705,-148.472c0,0 -64.791,153.646 -162.708,236.007c7.135,25.278 85.33,176.354 169.531,248.143" style="fill:#71cbd2;fill-rule:nonzero;"/></g><g><path d="M537.647,125.533c-2.753,32.75 -31.599,57.023 -64.339,54.166c-32.65,-2.692 -56.975,-31.543 -54.156,-64.251c2.757,-32.801 31.525,-56.977 64.254,-54.191c32.718,2.715 57.009,31.546 54.241,64.276" style="fill:#0055a5;fill-rule:nonzero;"/></g><g><path d="M112.763,298.779c0,0 405.677,-219.965 848.402,14.219c-24.913,-10.816 -408.906,-118.681 -429.479,-49.479c-23.003,48.941 -28.264,172.57 -10.851,273.212c0,0 -88.316,-141.354 -99.236,-268.889c-24.757,-8.698 -201.736,3.542 -308.836,30.937" style="fill:#0055a5;fill-rule:nonzero;"/></g><g><path d="M1267.7,573.818c-7.222,33.229 8.108,61.094 48.594,61.094c17.968,0 51.215,-7.17 75.468,-43.125c19.775,-28.733 27.83,-65.573 30.539,-84.445c-71.875,0.868 -141.111,1.736 -154.601,66.476m115.104,146.459c0,-16.042 2.674,-35.869 8.038,-64.671c-26.944,30.608 -70.972,73.681 -163.593,73.681c-110.521,0 -146.441,-60.191 -129.375,-140.226c26.059,-123.125 150.104,-168.021 342.43,-159.948c10.781,-48.507 14.427,-93.455 -36.84,-93.455c-31.511,0 -64.74,17.135 -74.636,68.351l-161.718,0c5.33,-20.695 13.455,-59.358 54.809,-94.375c43.177,-35.955 117.725,-56.632 199.496,-56.632c40.434,0 124.948,5.416 162.709,52.17c23.333,27.76 25.121,70.069 14.322,118.576l-44.895,210.296c-6.285,32.378 -7.188,41.389 -8.976,86.233l-161.771,0Z" style="fill:#0055a5;fill-rule:nonzero;"/></g><g><path d="M1683.04,371.571c2.709,-10.729 16.146,-88.924 18.924,-102.396l167.118,0l-14.41,74.584c44.931,-58.438 102.535,-85.348 170.747,-85.348c26.128,0 111.493,4.445 124.08,83.559c57.534,-70.139 130.312,-84.514 177.031,-84.514c84.496,0 115.955,44.046 127.656,70.157c16.181,38.628 4.462,93.42 -7.187,145.556l-52.153,247.101l-168.976,0l53.941,-255.157c9.948,-45.868 21.563,-99.827 -45.92,-99.827c-22.396,0 -49.323,8.143 -70.885,37.813c-8.108,10.764 -14.375,25.191 -22.431,63.802l-54.01,253.369l-168.907,0l54.792,-256.98c8.038,-40.503 20.677,-98.004 -46.736,-98.004c-57.5,0 -81.771,47.657 -92.57,98.004l-54.826,256.98l-168.976,0l73.698,-348.699Z" style="fill:#0055a5;fill-rule:nonzero;"/></g><g><path d="M2728.21,628.615c71.007,0 101.51,-77.292 115.92,-144.636c8.976,-43.09 18.854,-129.392 -53.056,-129.392c-86.336,0 -110.486,112.309 -115.937,138.299c-8.073,36.059 -24.254,135.729 53.073,135.729m-9.011,-359.445l-11.718,63.767c20.729,-22.378 69.253,-75.486 163.576,-75.486c75.556,0 185.174,43.108 145.642,228.351c-36.909,175.226 -150.069,243.49 -252.586,243.49c-79.879,0 -107.865,-40.364 -122.171,-62.864l-68.072,367.118l-148.577,0l115.972,-690.695c8.941,-49.41 8.941,-54.827 12.57,-73.681l165.364,0Z" style="fill:#0055a5;fill-rule:nonzero;"/></g><g><path d="M3200.26,573.818c-7.187,33.229 8.073,61.094 48.473,61.094c18.02,0 51.198,-7.17 75.555,-43.125c19.757,-28.733 27.865,-65.573 30.573,-84.445c-71.892,0.868 -141.128,1.736 -154.601,66.476m115.018,146.459c0,-16.042 2.743,-35.869 8.073,-64.671c-26.927,30.608 -71.042,73.681 -163.542,73.681c-110.521,0 -146.545,-60.191 -129.34,-140.226c25.955,-123.125 150.034,-168.021 342.326,-159.948c10.833,-48.507 14.358,-93.455 -36.858,-93.455c-31.51,0 -64.67,17.135 -74.548,68.351l-161.858,0c5.486,-20.695 13.525,-59.358 54.879,-94.375c43.125,-35.955 117.743,-56.632 199.514,-56.632c40.468,0 124.982,5.416 162.708,52.17c23.281,27.76 25.139,70.069 14.288,118.576l-44.878,210.296c-6.216,32.378 -7.136,41.389 -8.941,86.233l-161.823,0Z" style="fill:#0055a5;fill-rule:nonzero;"/></g><g><path d="M3962,270.948l-22.5,107.83l-108.68,0l-33.299,156.441c-10.85,55.677 -16.163,80.886 48.525,80.886c13.472,0 21.597,0 42.187,-2.761l-22.448,106.042c-23.385,3.681 -53.906,8.09 -111.406,8.09c-134.826,0 -151.91,-44.965 -132.986,-132.118l45.833,-216.58l-85.469,0l22.553,-107.83l88.02,0l15.348,-70.07l176.128,-64.722l-28.715,134.792l106.909,0Z" style="fill:#0055a5;fill-rule:nonzero;"/></g><g><path d="M4074.31,71.414l170.763,0l-52.135,247.119c21.632,-17.969 71.944,-59.219 153.698,-59.219c44.062,0 86.25,11.632 115.955,45.851c36.823,40.399 26.059,89.861 12.587,152.674l-55.678,262.448l-168.02,0l51.163,-242.622c8.003,-37.743 24.219,-111.424 -45.938,-111.424c-53.854,0 -76.302,44.983 -84.34,62.882c-9.132,20.66 -15.365,49.48 -23.333,87.171l-43.299,203.993l-168.889,0l137.466,-648.873Z" style="fill:#0055a5;fill-rule:nonzero;"/></g><g><g><g><g><text x="2759.18px" y="957.1px" style="font-family:'NeueHaasDisplay-RomanItalic', 'Neue Haas Grotesk Display Pro', sans-serif;font-weight:500;font-style:italic;font-size:225.696px;">L</text></g><g><g><text x="2874.06px" y="957.1px" style="font-family:'NeueHaasDisplay-RomanItalic', 'Neue Haas Grotesk Display Pro', sans-serif;font-weight:500;font-style:italic;font-size:225.696px;">ea</text><text x="3101.33px" y="957.1px" style="font-family:'NeueHaasDisplay-RomanItalic', 'Neue Haas Grotesk Display Pro', sans-serif;font-weight:500;font-style:italic;font-size:225.696px;">ding With C</text></g></g><g><g><text x="4156.47px" y="957.1px" style="font-family:'NeueHaasDisplay-RomanItalic', 'Neue Haas Grotesk Display Pro', sans-serif;font-weight:500;font-style:italic;font-size:225.696px;">ar</text><text x="4340.41px" y="957.1px" style="font-family:'NeueHaasDisplay-RomanItalic', 'Neue Haas Grotesk Display Pro', sans-serif;font-weight:500;font-style:italic;font-size:225.696px;">e</text></g></g></g></g></g></g></g></svg>