<?xml version="1.0" encoding="UTF-8" standalone="no"?>
<svg
   xmlns:svg="http://www.w3.org/2000/svg"
   xmlns="http://www.w3.org/2000/svg"
   xmlns:xlink="http://www.w3.org/1999/xlink"
   version="1.1"
   height="56"
   width="221"
   fill="#231f20"
   font-family="Avenir 55 Roman"
   id="svg2">
  <path
     d="M 15.713,15.789 C 18.92,12.583 23.35,10.6 28.243,10.6 c 4.882,0 9.301,1.974 12.504,5.165 L 40.76,3.965 C 37.01,2.034 32.752,0.942 28.243,0.942 c -4.511,0 -8.791,1.229 -12.544,3.162 z"
     fill="#f26522"
     id="path4" />
  <path
     d="m 40.76,40.829 c -3.205,3.206 -7.634,5.188 -12.528,5.188 -4.879,0 -9.3,-1.973 -12.505,-5.164 l -0.014,11.799 c 3.754,1.932 8.008,3.023 12.519,3.023 4.511,0 8.768,-1.091 12.519,-3.024 z"
     fill="#eea616"
     id="path6" />
  <path
     d="m 15.738,40.844 c -3.206,-3.206 -5.19,-7.634 -5.19,-12.528 0,-4.88 1.974,-9.3 5.165,-12.506 l -11.8,-0.012 c -1.931,3.752 -3.022,8.007 -3.022,12.518 0,4.512 1.091,8.768 3.024,12.52 z"
     fill="#5b57a6"
     id="path8" />
  <path
     d="m 40.753,15.764 c 3.207,3.205 5.19,7.636 5.19,12.53 0,4.881 -1.974,9.3 -5.166,12.503 l 11.801,0.014 C 54.51,37.06 55.6,32.803 55.6,28.294 c 0,-4.512 -1.09,-8.769 -3.024,-12.522 z"
     fill="#009384"
     id="path10" />
  <path
     d="m 89.472,28.311 c 0,-5.568 -3.894,-10.04 -9.563,-10.04 -5.67,0 -9.561,4.472 -9.561,10.04 0,5.567 3.891,10.042 9.561,10.042 5.669,0 9.563,-4.475 9.563,-10.042 m -22.201,0 c 0,-7.309 5.295,-12.703 12.638,-12.703 7.342,0 12.637,5.394 12.637,12.703 0,7.309 -5.295,12.706 -12.637,12.706 -7.343,0 -12.638,-5.397 -12.638,-12.706"
     id="path12" />
  <path
     d="m 104.32,38.199 c 3.504,0 5.759,-2.635 5.759,-6.034 0,-3.4 -2.255,-6.036 -5.759,-6.036 -3.505,0 -5.757,2.636 -5.757,6.036 0,3.399 2.252,6.034 5.757,6.034 m -8.461,-14.15 h 2.704 v 2.357 h 0.069 c 1.493,-1.734 3.47,-2.775 5.826,-2.775 5.101,0 8.533,3.609 8.533,8.534 0,4.856 -3.571,8.532 -8.115,8.532 -2.915,0 -5.239,-1.458 -6.244,-3.296 h -0.069 v 10.555 h -2.704 z"
     id="path14" />
  <path
     d="m 128.669,30.707 c -0.105,-2.74 -1.909,-4.578 -4.892,-4.578 -2.981,0 -4.958,1.838 -5.304,4.578 z m 2.324,6.626 c -1.909,2.462 -4.198,3.364 -7.216,3.364 -5.097,0 -8.218,-3.815 -8.218,-8.532 0,-5.029 3.537,-8.534 8.324,-8.534 4.579,0 7.698,3.123 7.698,8.5 v 0.867 h -13.108 c 0.207,2.808 2.357,5.201 5.304,5.201 2.324,0 3.885,-0.832 5.168,-2.462 z"
     id="path16" />
  <path
     d="m 135.085,27.899 c 0,-1.493 -0.139,-2.775 -0.139,-3.85 h 2.567 c 0,0.867 0.07,1.767 0.07,2.67 h 0.069 c 0.729,-1.595 2.741,-3.088 5.41,-3.088 4.267,0 6.173,2.707 6.173,6.625 v 10.023 h -2.704 v -9.743 c 0,-2.707 -1.18,-4.407 -3.712,-4.407 -3.503,0 -5.03,2.532 -5.03,6.244 v 7.906 h -2.704 z"
     id="path18" />
  <path
     d="m 155.041,16.222 h 4.269 l 8.199,18.955 h 0.068 l 8.261,-18.955 h 4.168 V 40.4 h -2.867 V 20.115 H 177.07 L 168.395,40.4 h -1.744 l -8.673,-20.285 h -0.069 V 40.4 h -2.868 z"
     id="path20" />
  <path
     d="m 188.887,26.878 h 2.56 c 3.177,0 7.312,0 7.312,-3.998 0,-3.482 -3.04,-3.994 -5.842,-3.994 h -4.03 z M 186.02,16.222 h 6.179 c 4.68,0 9.631,0.682 9.631,6.658 0,3.517 -2.288,5.807 -6.043,6.388 L 202.65,40.4 h -3.516 l -6.558,-10.859 h -3.689 V 40.4 h -2.867 z"
     id="path22" />
  <path
     d="m 217.991,20.489 c -0.958,-1.537 -2.664,-2.218 -4.407,-2.218 -2.528,0 -5.155,1.195 -5.155,4.063 0,2.22 1.229,3.212 5.087,4.441 3.757,1.196 7.241,2.425 7.241,7.171 0,4.816 -4.134,7.071 -8.503,7.071 -2.801,0 -5.808,-0.923 -7.446,-3.349 l 2.458,-2.014 c 1.025,1.778 3.074,2.699 5.158,2.699 2.458,0 5.259,-1.435 5.259,-4.202 0,-2.971 -2.015,-3.484 -6.319,-4.918 -3.415,-1.128 -6.009,-2.63 -6.009,-6.659 0,-4.644 3.995,-6.966 8.229,-6.966 2.699,0 4.987,0.75 6.762,2.832 z"
     id="path24" />
  <path
     d="m 108.374,48.037 h 0.906 l 1.741,4.025 h 0.014 l 1.756,-4.025 h 0.885 v 5.135 h -0.61 v -4.308 h -0.013 l -1.844,4.308 h -0.369 l -1.843,-4.308 h -0.014 v 4.308 h -0.609 z"
     id="path26" />
  <path
     d="m 116.331,48.037 h 3.227 v 0.566 h -2.619 v 1.61 h 2.445 v 0.565 h -2.445 v 1.828 h 2.749 v 0.566 h -3.357 z"
     id="path28" />
  <path
     d="m 122.38,52.606 h 1.159 c 1.176,0 2.068,-0.594 2.068,-2.001 0,-1.408 -0.892,-2.002 -2.068,-2.002 h -1.159 z m -0.61,-4.569 h 1.973 c 1.008,0 2.517,0.674 2.517,2.568 0,1.893 -1.509,2.567 -2.517,2.567 h -1.973 z"
     id="path30" />
  <path
     d="m 128.182,48.037 h 0.609 v 5.135 h -0.609 z"
     id="path32" />
  <path
     d="m 134.608,49.096 c -0.304,-0.413 -0.791,-0.624 -1.284,-0.624 -1.145,0 -1.958,1.008 -1.958,2.133 0,1.189 0.806,2.132 1.958,2.132 0.624,0 1.125,-0.254 1.488,-0.717 l 0.457,0.383 c -0.457,0.617 -1.124,0.9 -1.945,0.9 -1.472,0 -2.611,-1.139 -2.611,-2.698 0,-1.509 1.088,-2.698 2.611,-2.698 0.697,0 1.378,0.239 1.814,0.804 z"
     id="path34" />
  <path
     d="m 138.714,48.82 h -0.015 l -1.066,2.524 h 2.096 z m -0.276,-0.783 h 0.573 l 2.183,5.135 h -0.711 l -0.522,-1.262 h -2.568 l -0.53,1.262 h -0.688 z"
     id="path36" />
  <path
     d="m 142.818,48.037 h 0.611 v 4.569 h 2.348 v 0.566 h -2.959 z"
     id="path38" />
  <path
     d="m 150.957,50.3 h 0.543 c 0.675,0 1.553,0 1.553,-0.848 0,-0.741 -0.646,-0.849 -1.24,-0.849 h -0.856 z m -0.609,-2.263 h 1.313 c 0.993,0 2.044,0.145 2.044,1.415 0,0.746 -0.485,1.232 -1.283,1.356 l 1.458,2.364 h -0.746 l -1.394,-2.306 h -0.783 v 2.306 h -0.609 z"
     id="path40" />
  <use
     xlink:href="#path28"
     transform="translate(39.537)"
     id="use42" />
  <use
     xlink:href="#path34"
     transform="translate(30.1)"
     id="use44" />
  <path
     d="m 171.288,50.605 c 0,-1.183 -0.827,-2.133 -2.031,-2.133 -1.204,0 -2.031,0.95 -2.031,2.133 0,1.182 0.827,2.132 2.031,2.132 1.204,0 2.031,-0.95 2.031,-2.132 m -4.715,0 c 0,-1.553 1.124,-2.698 2.684,-2.698 1.559,0 2.683,1.145 2.683,2.698 0,1.552 -1.124,2.698 -2.683,2.698 -1.56,0 -2.684,-1.146 -2.684,-2.698"
     id="path46" />
  <use
     xlink:href="#path40"
     transform="translate(23.369)"
     id="use48" />
  <use
     xlink:href="#path30"
     transform="translate(57.227)"
     id="use50" />
  <path
     d="m 190.806,48.943 c -0.203,-0.326 -0.566,-0.471 -0.936,-0.471 -0.537,0 -1.096,0.254 -1.096,0.863 0,0.472 0.262,0.682 1.081,0.943 0.799,0.254 1.539,0.515 1.539,1.523 0,1.023 -0.879,1.502 -1.806,1.502 -0.596,0 -1.234,-0.196 -1.582,-0.711 l 0.522,-0.428 c 0.217,0.378 0.654,0.573 1.095,0.573 0.523,0 1.117,-0.304 1.117,-0.892 0,-0.631 -0.427,-0.74 -1.342,-1.045 -0.724,-0.239 -1.276,-0.558 -1.276,-1.414 0,-0.987 0.849,-1.479 1.748,-1.479 0.573,0 1.059,0.159 1.436,0.602 z"
     id="path52" />
  <path
     d="m 194.266,50.96 -1.915,-2.923 h 0.776 l 1.443,2.321 1.487,-2.321 h 0.733 l -1.915,2.923 v 2.212 h -0.609 z"
     id="path54" />
  <use
     xlink:href="#path52"
     transform="translate(9.646)"
     id="use56" />
  <path
     d="m 206.002,48.603 h -1.698 v 4.569 h -0.609 v -4.569 h -1.698 v -0.566 h 4.005 z"
     id="path58" />
  <use
     transform="translate(91.187)"
     xlink:href="#path28"
     id="use60" />
  <use
     xlink:href="#path26"
     transform="translate(104.387)"
     id="use62" />
</svg>
