<?xml version="1.0" encoding="UTF-8"?>
<svg id="Capa_1" data-name="Capa 1" xmlns="http://www.w3.org/2000/svg" viewBox="0 0 994.71 537.72">
  <defs>
    <style>
      .cls-1 {
        fill: #52ae32;
      }

      .cls-2 {
        fill: #27348b;
      }
    </style>
  </defs>
  <g>
    <path class="cls-1" d="M517.76,526.77v-128.49h28.77v52.65h90.62v-52.65h28.77v128.49h-28.77v-52.47h-90.62v52.47h-28.77Z"/>
    <path class="cls-1" d="M757.24,527.67c-23.73,0-41.89-5.48-54.48-16.44-12.59-10.96-18.88-27.22-18.88-48.79s6.29-37.68,18.88-48.7c12.59-11.02,30.74-16.47,54.48-16.35l64.73.36v23h-62.75c-15.58,0-27.15,3.3-34.7,9.88-7.55,6.59-11.33,17.19-11.33,31.81s3.78,25.25,11.33,31.9c7.55,6.65,19.12,9.97,34.7,9.97h64.54v23.36h-66.52Z"/>
    <path class="cls-1" d="M841.74,526.77v-128.49h140.96v23.36h-112.19v28.39h101.76v23.36h-101.76v30.01h112.19v23.36h-140.96Z"/>
  </g>
  <g>
    <path class="cls-2" d="M361.85,358.74v-123.06h103.15c12.74,0,22.64,3.21,29.7,9.64,7.06,6.43,10.59,16.18,10.59,29.26s-3.53,22.83-10.59,29.26c-7.06,6.43-16.96,9.64-29.7,9.64h-75.59v45.26h-27.55ZM461.72,258.05h-72.32v32.87l72.32.17c5.05,0,8.93-1.26,11.62-3.79,2.7-2.52,4.05-6.77,4.05-12.74s-1.35-10.35-4.05-12.82c-2.7-2.47-6.57-3.7-11.62-3.7Z"/>
    <path class="cls-2" d="M522.51,358.74v-123.06h135v22.37h-107.45v27.19h97.46v22.37h-97.46v28.74h107.45v22.37h-135Z"/>
    <path class="cls-2" d="M676.45,358.74v-123.06h103.15c12.74,0,22.64,3.21,29.7,9.64,7.06,6.43,10.59,16.18,10.59,29.26,0,11.13-2.58,19.85-7.75,26.16-5.17,6.31-12.51,10.27-22.04,11.88l28.41,46.12h-31.34l-26.35-45.26h-56.82v45.26h-27.55ZM776.32,258.05h-72.32v32.87l72.32.17c5.05,0,8.93-1.26,11.62-3.79,2.7-2.52,4.05-6.77,4.05-12.74s-1.35-10.35-4.05-12.82c-2.7-2.47-6.57-3.7-11.62-3.7Z"/>
    <path class="cls-2" d="M890.32,359.6c-12.51,0-22.39-1.64-29.62-4.9-7.23-3.27-12.4-8.23-15.5-14.89-3.1-6.65-4.65-15.03-4.65-25.13v-79h27.55v79c0,8.72,2.04,14.66,6.11,17.81,4.07,3.16,10.99,4.73,20.75,4.73h33.23c9.76,0,16.67-1.58,20.75-4.73,4.07-3.15,6.11-9.09,6.11-17.81v-79h27.55v79c0,10.1-1.55,18.47-4.65,25.13-3.1,6.66-8.27,11.62-15.5,14.89-7.23,3.27-17.11,4.9-29.62,4.9h-42.53ZM925.1,229.65l43.39-25.82h-33.92l-37.02,25.82h27.55Z"/>
  </g>
  <path class="cls-1" d="M263.14,11.01s-131.34,141.89-60.39,346.28c0,0-104.9-49.35-134.62-35.93,0,0,31.48-200.81,195.01-310.35Z"/>
  <path class="cls-1" d="M267.54,41.43s-104.49,152.43-49.85,311.57c0,0,9.59-71.9,75.73-97.78,0,0-74.78-92.99-25.88-213.78Z"/>
  <path class="cls-2" d="M47.04,454.61s-37.22-93.95,68.15-59.44l197.4,79.57s111.21,33.55,172.56,0c0,0-66.02,22.63-237.51-66.15,0,0-200.6-94.91-237.03-66.15,0,0-28.76,31.64,36.43,112.16Z"/>
</svg>